<svg xmlns="http://www.w3.org/2000/svg" viewBox="0 0 52.66 20.91"><title>step-icon-chain</title><g id="Lag_2" data-name="Lag 2"><g id="Layer_1" data-name="Layer 1"><path d="M17.73,8.11a5.07,5.07,0,0,0-4.42,3.74l3.13-.29A2.36,2.36,0,0,1,18,10.79l6.6-.61-.25-2.67Z" style="fill:#cebc99"/><path d="M17,15.56l-3.23.29a5.06,5.06,0,0,0,5,2.75L25.3,18l-.25-2.67-6.6.61A2.36,2.36,0,0,1,17,15.56Z" style="fill:#cebc99"/><path d="M7.32,17l-6.6.61L1,20.23l6.6-.6A5.06,5.06,0,0,0,12,16l-3.22.3A2.38,2.38,0,0,1,7.32,17Z" style="fill:#cebc99"/><path d="M8.5,12.29,11.63,12a5.07,5.07,0,0,0-5-2.86L0,9.75l.25,2.67,6.6-.61A2.39,2.39,0,0,1,8.5,12.29Z" style="fill:#cebc99"/><polygon points="18.66 14.72 18.41 12.05 16 12.27 13.18 12.53 11.88 12.65 9.07 12.91 6.25 13.17 6.5 15.85 9.25 15.59 12.1 15.33 13.46 15.21 16.31 14.94 18.66 14.72" style="fill:#cebc99"/><path d="M33.92,16.12l-6.59-.78L27,18l6.58.78a5.07,5.07,0,0,0,5-2.61l-3.22-.39A2.28,2.28,0,0,1,33.92,16.12Z" style="fill:#cebc99"/><path d="M36,11.81l3.12.37a5.07,5.07,0,0,0-4.32-3.85l-6.58-.78-.32,2.67,6.58.78A2.38,2.38,0,0,1,36,11.81Z" style="fill:#cebc99"/><path d="M46.21,9.68a5.07,5.07,0,0,0-5.1,2.73l3.12.37a2.39,2.39,0,0,1,1.66-.43l6.45.77.32-2.67Z" style="fill:#cebc99"/><path d="M43.9,16.8l-3.22-.38A5.06,5.06,0,0,0,45,20.14l6.45.77.31-2.67-6.45-.77A2.32,2.32,0,0,1,43.9,16.8Z" style="fill:#cebc99"/><polygon points="45.47 16.31 45.79 13.64 43.64 13.39 40.84 13.06 39.27 12.87 36.47 12.54 33.65 12.21 33.34 14.87 36.08 15.2 38.93 15.54 40.55 15.73 43.39 16.07 45.47 16.31" style="fill:#cebc99"/><rect x="19.22" y="2.03" width="1.75" height="4.19" transform="translate(8.6 21.12) rotate(-67.52)" style="fill:#cebc99"/><rect x="30.49" y="3.41" width="4.19" height="1.75" transform="translate(0.62 11.95) rotate(-20.97)" style="fill:#cebc99"/><rect x="24.22" y="1.14" width="4" height="1.75" transform="translate(23.86 28.2) rotate(-89.24)" style="fill:#cebc99"/></g></g></svg>