<svg xmlns="http://www.w3.org/2000/svg" viewBox="0 0 34.35 25"><title>step-icon-capsules</title><g id="Lag_2" data-name="Lag 2"><g id="Layer_1" data-name="Layer 1"><path d="M6.33,18.34c0-.13.1-.25.16-.37-.28,0-.56-.1-.85-.17-1.89-.42-3.16-1.13-3.57-2a1.68,1.68,0,0,1,0-1.89,2.79,2.79,0,0,1,.86-.77l.93-.41.08-1.06c0-.45.3-4.12.33-5.39l.34-.15V3.19l.31-.25a4.52,4.52,0,0,1,.51-.34A5.6,5.6,0,0,1,6,2.33a5.37,5.37,0,0,1,.56-.21L7.08,2c.17,0,.35-.07.53-.09s.31,0,.46-.06c.31,0,.63,0,.95,0a10.88,10.88,0,0,1,1.14.06,6.46,6.46,0,0,1,.75.11c.24.05.49.12.72.19a6.69,6.69,0,0,1,.67.27,5.92,5.92,0,0,1,.61.33,4.39,4.39,0,0,1,.53.41l.06.05v1l.13,0,.73-.14L15,4l.28,0V2.49a6,6,0,0,0-.66-.68,5.29,5.29,0,0,0-.75-.57,5.9,5.9,0,0,0-.82-.45,8.31,8.31,0,0,0-.87-.35c-.3-.09-.61-.17-.91-.24s-.63-.11-.94-.14S9.46,0,9,0a10.12,10.12,0,0,0-1.1.05L7.35.11c-.22,0-.44.07-.65.12S6.23.35,6,.42s-.49.17-.73.27a6.18,6.18,0,0,0-.73.36,5.63,5.63,0,0,0-.72.48,6.28,6.28,0,0,0-.67.59,3.8,3.8,0,0,0-.33.37V5S2.48,5.12,2.48,6s-.33,5.51-.33,5.51a3.65,3.65,0,0,0-1.69,5c.93,1.94,3.53,2.78,5.63,3.14A4.59,4.59,0,0,1,6.33,18.34Z" style="fill:#cdbc9e"/><path d="M32.2,11.54s-.34-4.6-.34-5.51S31.53,5,31.53,5V2.49a7.06,7.06,0,0,0-.66-.68,6.74,6.74,0,0,0-.75-.57A6.53,6.53,0,0,0,29.3.79C29,.66,28.72.54,28.42.44s-.6-.17-.91-.24-.62-.11-.94-.14S25.7,0,25.26,0a9.94,9.94,0,0,0-1.09.05,5.42,5.42,0,0,0-.58.06c-.22,0-.44.07-.65.12s-.47.12-.7.19-.49.17-.73.27a7.05,7.05,0,0,0-.73.36,5.63,5.63,0,0,0-.72.48,7.44,7.44,0,0,0-.67.59l-.33.37V4.26c.21.06.42.11.62.18a8.63,8.63,0,0,1,1,.39l.17.09V3.19c.09-.08.19-.17.3-.25a3.89,3.89,0,0,1,.52-.34,4.53,4.53,0,0,1,.54-.27,5.37,5.37,0,0,1,.56-.21L23.33,2c.17,0,.34-.07.52-.09s.31,0,.47-.06.62,0,.94,0a10.74,10.74,0,0,1,1.14.06,6.16,6.16,0,0,1,.75.11c.25.05.49.12.72.19a6.69,6.69,0,0,1,.67.27,5.92,5.92,0,0,1,.61.33,5.47,5.47,0,0,1,.54.41l0,.05V6.13l.34.15c0,1.27.31,4.94.34,5.39l.08,1,.93.45a2.42,2.42,0,0,1,1.06,1.13,2,2,0,0,1-.21,1.52c-.41.87-1.68,1.58-3.57,2a17,17,0,0,1-2.68.37,1.22,1.22,0,0,1,.07.17,4.15,4.15,0,0,1,.24,1.6c2-.14,6.3-.75,7.55-3.37A3.65,3.65,0,0,0,32.2,11.54Z" style="fill:#7b7d80"/><path d="M24.85,18.19a4.36,4.36,0,0,0-1.73-1.64s-.33-4.59-.33-5.5S22.45,10,22.45,10V7.51a5.38,5.38,0,0,0-.66-.69A8.12,8.12,0,0,0,21,6.26l-.21-.13c-.2-.11-.4-.23-.61-.32a7.18,7.18,0,0,0-.87-.35l-.52-.15-.4-.09c-.31-.06-.62-.11-.93-.14S16.63,5,16.19,5l-.82,0-.28,0-.58.07c-.22,0-.43.07-.65.12a2.37,2.37,0,0,0-.36.09l-.34.09c-.24.08-.49.17-.73.27a7.14,7.14,0,0,0-.73.37,5.82,5.82,0,0,0-.71.47,5.51,5.51,0,0,0-.68.6c-.11.12-.22.24-.32.37V10s-.34.15-.34,1.06-.34,5.5-.34,5.5a4.43,4.43,0,0,0-1.69,1.57,3.17,3.17,0,0,0-.45,1.74,4.27,4.27,0,0,0,.45,1.73C9.24,25,15.92,25,16.21,25h0c.29,0,7,0,8.58-3.41A4.37,4.37,0,0,0,25.26,20,3.07,3.07,0,0,0,24.85,18.19ZM23.2,20.82c-.41.86-1.68,1.57-3.57,2a17.54,17.54,0,0,1-3.4.4h0a17.47,17.47,0,0,1-3.4-.4c-1.9-.43-3.16-1.14-3.58-2A2.82,2.82,0,0,1,9,20a1.44,1.44,0,0,1,.25-1.06,2.84,2.84,0,0,1,.87-.76h0l.9-.4.08-1.07c0-.44.3-4.11.34-5.38l.34-.16V8.21l.3-.25a4.65,4.65,0,0,1,.52-.34c.17-.1.36-.19.55-.28s.36-.14.56-.2l.17,0,.38-.1.52-.1.47,0,.41,0h.54a10.55,10.55,0,0,1,1.13.06,5.88,5.88,0,0,1,.75.11,3.89,3.89,0,0,1,.61.16l.11,0a4.44,4.44,0,0,1,.67.26,5.07,5.07,0,0,1,.61.34c.12.08.24.16.35.25l.19.15.06.05v2.93l.34.16c0,1.27.3,4.94.33,5.38l.08,1v0l.94.44a2.52,2.52,0,0,1,1.05,1.14,1.52,1.52,0,0,1,.07.57A2.59,2.59,0,0,1,23.2,20.82Z" style="fill:#a191b1"/></g></g></svg>