<svg xmlns="http://www.w3.org/2000/svg" viewBox="0 0 534.21 484.1"><title>bg-country-espresso_1</title><path d="M415.64,221.65l-.11-.79-.11-.06-.35.13-.25,0-.21,0-.19-.05-.19,0-.2.07-.11.16v.22l.11.22-.15.19.23.17.57.21.13.11v.06l-.07.06-.06.11,0,.35-.06.14.44,0,.16-.05.05-.22.08-.18.11-.18.05-.16-.07-.14.2-.15Zm3.34-6.39-.09-.23-.22-.15-.51-.24-.16.09.09.18.13.17.09.18,0,.21-.05,0h0v0l0,0-.07.1v.07l.06,0,.11,0v.09l-.74.67-.33.24-.3.15-.07.1,0,.21.09.52v.18H417l0-.09.06-.06.09,0,.13-.05.17-.28.23-.2.49-.35.41-.36.2-.16.24-.05.21-.12-.06-.27Zm-78.1,136.4v-.06l0,0-.06-.09-.39.08-.2-.38.07-.38.36.06.08-.92-.1-.13-.6-.44-.11-.05-.14,0h-.1l-.09.06,0,.07,0,.09-.06.1,0,.09-.08.39-.12.22-.77.75-.17.12-.15.13-.07.17.07.29.3.28.43,0,.47-.13.42-.19.07.09.16-.11.12.17.11.28.11.18.07,0h.11l.06.07.15-.1.05,0,.08-.11v0l0-.05v-.18l0-.13v-.11Zm-12.75.94-.13-.26-.18-.23,0-.08,0,0v-.05h-.34l-.39-.08h-.15l.05.12V352l0,.07,0,.08-.1-.06h-.06l-.16.07.19.3.06.05.09,0h.2l.11.05.12-.14h.17l.59.27Zm-14,9.28-.11,0h-.4l-.22.12-.31.34-.61.23-.72.74-.52.25-1.35,1.08-.48.58-.09.08-.05.23-.18.44v.27l.14.06.13-.19.22-.5.25-.39L310,365l.44-.23,2.79-2.35.23-.13.41-.11.56-.4v-.08l-.12.05ZM303.3,397.56l-.23-.28-.21-.14-.09.21-.14.1-.63.19-.21,0,.06.22-.08.13-.14.12-.08.16,0,.11.17.16,0,.15,0,.07,0,.07,0,.07v.1l.12.06.09.06,0,.07v.15l-.05.11-.09.07-.15,0-.22.08.08.19.17.26,0,.3-.31.33-.11.21.18.09-.16.36-.07.42,0,1,0,.05,0,0h.1l.11,0,.1-.12.16-.25.09-.06.23-.06.09-.07,0-.2-.17-.47v-.29l.53-.91.12-.08.17-.2.15-.24.09-.21v-.14l-.07-.29,0-.16,0-.15,0-.08.05-.07.08-.24.13-.22.1-.26,0-.29Zm-2.2-13.79.33-.31,0-.14.06-.3.27-.49.1-.32.18-.18,0-.1v-.11l0-.11-.28-.46-.18-.18-.19,0-.21.19.09.31-.24.17-.35.12-.26.16-.08.16,0,.13-.08.09-.21,0-.13,0-.1.1-.2.34,0,.06,0,.07.5.36.17.19.18.38.19.32.23,0,.08.07,0,0h.05v-.46Zm52.95-41.83-.11-.11-.09-.12v-.06l.05-.08v-.07l-.14-.05,0,0-.05.09-.05.1-.08,0-.16-.06-.09-.13-.1-.07-.18.09-.24-.17.06,0,.05,0,0,0H353v-.08l-.12-.07-.14-.07-.13,0-.09,0v0l0,0-.06,0-.07,0,0,.21,0,.06-.27.31-.16.1-.14-.07-.32.36-.43.23h-.09l0,.09.05.07.07,0h.2l-.05.12v.12l0,.09.1.1v.08h.07l.05-.17.1-.21.11-.17.1-.07.2,0,.12.08.12.09.17.07h.12l.49-.09.15-.07.11-.12.1-.07.16.08.06-.06.07,0h.2v0l0,.06,0,.06.06,0,0,0,.07-.06.18-.06,0-.09ZM528.68,309l0,.13.12.29.07-.06,0-.05,0-.05.09,0-.18-.19Zm5.49-.5v.1l0,0,0,0,0,0v0ZM283.69,57.61h-.17l-.17-.11-.19-.09-.13.12-.14.34-.29.3-.72.44-.2.31,1.18-.19.36-.14.1-.11.2-.28.1-.1L284,58l.11-.12-.08-.24-.17,0Zm.5-6.71.08-.08.4-.26.09-.15,0-.12.1-.14L285,50v-.24l-.12-.14-.11,0-.14.1-.37.11-.21.1-.18.13-.08.09-.13.25-.93.92.19.1.23,0,.25,0,.22-.09.25-.32.07,0,.2-.05Zm-2.52,1.25-.35.21-.24.33-.05.42.09.29.16.12h.22l.26-.09.77-.13.27-.12h.12l.1-.05.07-.24.1-.25,0-.12.1-.18.44-.36.11-.23v-.15l-.38.39-.21.11-.31,0-.93-.07Zm-1,3.62-.15.39,0,.46.06.52.14.45.25.37.38.17.52-.11.17-.12.28-.36L283.74,56l.07-.19.12-.1,0-.07v-.08l-.06-.11v-.32l0-.11-.06-.15-.33-.48h-.19l-.24.1-.23.15-.15.16V55l.22.13-.05.18-.36-.3-.2-.1-.09.12-.14,0h-.66l-.18.09.07.11-.05.07-.27.13Zm-1.3,1.28-.12,0-.11.05h0l-.08.2-.37,1.45v.05l-.08,0h0l-.06,0h-.11l-.13,0-.08.11-.05.16,0,.33v.07l.19.21.1.07.12,0,.27,0,.12,0,.28.12h.12l.13,0,0,0v-.08l0-.17.13-.29.13-.11h.43l.22-.09.28-.19.24-.22.11-.14-.1-.22-.51-.46-.15-.32-.15-.26-.05-.11,0-.15.11-1.36,0-.51-.16-.41,0,0,0,0,0,0v-.06l-.15.1-.5.55-.1.2,0,.15,0,.33v.49l.08.2.06.07.07.06.05.08,0,.11Zm7.24,5.5-.27.28-.1.39,1.37.52.35-.14,2.3,0,.35-.06.28-.09.13-.11.1-.18.4-.3.06-.2h.05l.14,0,.06,0v-.16l.05-.1.07-.07,0-.11v-.14h-.13l-.14-.1,0-.08,0-.11v-.14l-.13-.19-.13-.08-.43-.24-.16-.05h-.17l-.16.06-.16.07,0-.07-.1-.12,0-.07-.33.14-1.23.19-.57.35-.76.33ZM272,64.36v.42l.3.45.46.2,0,0,0,.11,0,.11.28.09.11.07.11,0,.34-.28.45-.28.23-.18.66-.67.27-.17L276,64l.23-.16.44-.39.12-.2,0-.22,0,0-.15-.19v-.06l0-.13,0-.05-.06-.13-.09-.12-.11-.1-.14-.06-.31-.09-.28.12-.25.2-.25.09-.32,0-1.71.38h-.32l-.19.15L272,64l.24.14.09,0v.07Zm7.33-27.75-.74.28-.14.14-.21.53-.21.38,0,.15,0,.13.2.39.42.56.22.72.14.22.25.11.27,0,.26-.13.85-.65.15-.07.16-.15-.06-.3-.23-.51,0-.27v-.27l0-.24-.27-.46-.21-.54-.17-.24-.18-.1-.08.1-.06.16-.13.08Zm-1.43,23.24-.18-.1-.13-.11-.19,0-.33.16-.32.22-.13.17,0,.13.11.26,0,.13v.12l0,.09v.09l0,.11.12.12.1,0,.06.07,0,.23.07.12.17.14.18.12.14.07h.45l.06,0,0,0,.1,0,.12,0h.09l.48,0,.22-.06.15-.07.09-.23-.1-.21-.15-.24-.07-.25v-.52l0-.24L279,60.2l-.14-.07-.47-.13-.36-.06Zm-.29-23.67.23.08h.08l.08,0,.08,0,.09,0,0,.05.05.18,0,.06.33.12.41-.06.39-.2.21-.3-.06-.23-.25-.2-.31-.15-.27-.06-.3,0-.4.13-.37.17-.14.2,0,.12Zm7.72,22.2-.18.1-.34.27-.22.09-.67.15-.63.34-.27.07h-.24l-.77-.1-.31-.08-.2-.07-.56.12-.44.16-.55.06-.13.07,0,.16,0,.76,0,.23.16.22.12-.29.08-.12.12-.08,0,.21-.12.44v.22l.08.14.27.24.29.18.29,0,.29-.11.26-.07.05,0,.19-.06.19,0,.1.08.08.06.56-.1.36.08.33.16.29.23.24.25.14.26.1.08.12-.05.1-.07.13-.07.14,0,.34,0,.8-.21.43-.25.29-.44.22-.52.27-.48.85-.84,0-.18-.1-.23-.19-.22-.18-.13-.2-.06-.74,0-.28,0-.73-.36Zm23.06,12,0,.18.54-.25.25-.21.1-.25-.1-.19-.22-.14-.25-.06-.16.05,0-.06-.05,0h-.16l0,0-.05.09,0,.08.14.08-.05.08-.1.09-.05,0,.07.18ZM304.27,74l.23,0,.6,0,.17,0,.19-.09.06-.07.08-.33.39-.74.07-.39-.3-.15V72.2h.3L306,72l-.38-.36-.57.26L305,72l-.05.16-.23.37-.12.31-.34.38-.07.24v.23l0,.19Zm7.21-3.85,0,.19.19,0H312l.14-.06,0-.11,0-.21,0-.2,0-.13.09-.23,0-.23-.09-.2-.14-.14-.2,0-.21.23-.32.45.21.48Zm-8.37,4.42-.19.12-.08.45,0,.07-.28.2-.11.2,0,.08.15,0,.18.09.24.26.13.06.11-.16v.09l0,.09.05.08.09.07.2-.09.17,0,.18,0,.18-.18v-.1l0-.25.05,0,.21-.32-.15-.18-.17-.44-.17-.1-.52,0Zm40.28,3.77.25.07.2-.06,0-.28.11,0h.11l.09,0,.1-.07.06-.1.08-.09.09-.08.1-.07-.1,0-.08-.08-.05-.07,0-.11.11,0,.09.06.08.06.05.08h.08l.1-.36,0-.13-.16-.15-.18-.11-.1,0-.09,0-.09,0-.1.09L344,77l-.32-.14-.12.1-.07.18,0,.09.16.1,0,.23-.17.4,0-.18,0-.15-.09-.1-.14-.06-.08.13,0,.21V78l.09.2Zm-50.87,4.29-.11-.12-.07-.16,0-.16-.22-.06-.17.12-.26.35-.33.18-.11.09,0,.1,0,.24,0,.1-.3.29-.06.15.12.2.19.13.49.11.21.09.09-.13.32-.35.27-.42.1-.07.1-.1.13-.21.06-.22-.13-.11ZM271.86,70l-.14-.07h-.1l0,0-.06.16,0,0-.06.07-.22.34-.09.31,0,.31,0,.28.11.23h.07l.19-.16.29-.19.33-.15.3-.06.29-.1.5-.45.34-.1.39,0,.35-.07.24-.18.11-.36v-.17l-.08-.41-.12-.43-.05-.13,0-.09,0,0,0,0-.4.65h-.07l0-.16.22-.41-.58.21-.56.28-.28.23-.43.49L272,70Zm86.78,19.59.22-.13.29-.52.41-.21.15-.11.07-.1-.12-.06-.14,0-.2.06h-.16l-.18.06-.2.14-.17.16-.13.35-.12.19v.13ZM349.24,95l.12,0,.16-.54,0-.67-.55.27-.24.2-.34.66-.09.34,0,.2,0,.19.21.48,0,.2,0,.14-.1.3-.05.28-.06.1-.09.11-.14.27v.21l0,.06,0,.08V98h.09v-.08l.06-.08,0-.12.33-.39.23-.38.27-.13.21-.12-.1-.4.06-.14.1-.15.05-.22.09-.93-.32.35-.09.13v-.12l0-.1Zm28.21-1.19.25,0-.07.14,0,.1.11,0,.16,0v.08h-.08l-.16.07.09.09.12.07.13,0,.25,0,.11,0,.1,0,.09,0-.06-.11,0-.12v-.25h-.08l0,0v0l-.05,0-.13-.18-.17-.12-.21-.08-.94-.06-.18,0,.5.29ZM270.89,63.74H271v-.06h-.53v.05l-.21.22-.07.06-.09,0-.35,0-.07.05-.12.22-.25.25-.78,1.72-.08.12-.17.12,0,.06-.07.19-.18.11-.18.09-.13.13,0,.28.13.08.21-.07.4-.31.75-.39.92-.67.41-.45.21-.49v-.39l.05-.23.15-.09,0-.09v-.19l0-.22Zm-7,11.55-.4.22-.23,0-.13,0,0,0,0,0-.09.26,0,.06-.11.05-.79.59-.13.15-.07.14,0,.44,0,.23-.07.17-.46.6-.14.37.12.4.16.17.21.12.24,0,.48-.23.53-.08.25-.09.53-.35.48-.41.06-.05.17,0,.06,0,0,0,0-.15,0,0,.08-.05.33-.12.1-.08.1-.11.1-.1.15,0,.49-.28,1.44-1.2.28-.39.94-1.69.25-.09.29.35.12-.08.05-.09.22-.66.26-1.44.15-.44.73-1.41.08-.27,0-.25-.13-.2-.28-.08-.19-.11-.24-.54-.18-.23-.18-.08-.65-.15-.14,0,0,.08,0,0,0,.07,0,.16.06.12.26.36-.11,0-.1,0-.1-.07-.08-.09V69h-.09v-.24l-.16.09v.11l.06.13v.15l-.08.15-.23.22-.09.12h-.08l.05-.12.13-.18.07-.11,0-.11v-.06l0,0v-.23l0-.23.08-.22.1-.14h-.08l-.18,0-.65.23-.18.1-.17.14-.6.38-.34.33-.31.36-.26.39L265,71.3l-.62.66-.12.45L264.24,74l.26.46-.19.47Zm228.57,31.87-.13,0-.14,0-.13,0-.05.1-.06.06-.13.09-.06.08.1.06.15,0,.32-.18.17,0,.14-.11,0-.14-.07-.08Zm35.71-55.37-.07,0,0,0v0l0,0,0,0h.12l0,0,0,0v0l0,0ZM291.29,64.35l-.05.21.12.23.14.18V65l-.13-.05-.23-.23-.09,0-.28-.07h-.12l-.26,0-.45.11-1.58.06-1.68-.5-2.52-.53h-.36l-.68-.25L281,63.34l-.66-.14-.27,0-.21.07-.12.18-.08.22-.12.17-.2.12h-.17l-.21-.06-.27,0-.29.06-.2.12-.16.13-.21.1h-.13l-.14,0h-.15l-.1,0-.18.32-.06,0-.12.06-.39.32-.09.09-.16.41-.07.24,0,.2,0,.06-.15.15-.06.07,0,.13,0,.44-.21.66,0,.18,0,.28.06.21.31.77.06.24,0,.19.11.08.71.12.63.22.1.07,0,.1,0,0,0,0-.3,0h-.12l-.24-.06-.9-.43-.15-.11L276,69.2l-.12-.3-.16-.27-.15-.13L275,69.78l-.07.49,0,0,.11.05,0,.06,0,0-.11.09,0,.06v.44l.18.17.2.08.16.11,0,.29-.11-.14-.13-.09h-.14l-.11.14.05.13-.05.15-.1.17-.07.2-.06.43v.86l.06.4.08.17.21.33,0,.1.11.15.24.08.85.07.11,0,.1,0,.23-.16.1,0,.25,0,.23-.08.22-.14.19-.19.17-.12h.19l.2.06.22.11h-.26l-.2,0-.17,0-.18.16h0l-.09.26.22.05.13.1v.12l-.2.12h0l-.32-.07-.08,0-.16.1-.31.1.53.46.13.29-.63-.33-.18-.06-.56-.11-.72-.32-.51-.3-.15,0-.16.18.08.29.16.3.09.24,0,.25-.36,1.43,0,.25,0,.16.14.36,0,0,.05,0,.06,0,0,.08h0l-.11.09h0l0,.27v.12l.08.13.32.38.05.1.08.25.19.27,1.83,1.8.25.54-.23.05-.17.18-.08.18,0,.08.08,0,.28.21.15.07,1.84.37.34,0,.33,0,.34-.11.27-.18-.18-.12-.37-.11-.28-.15.27.06h.33l.26-.06.11-.21,0-.28-.23-.89h.1l.28.81,0,.24h.08l.06-.23.05-.58.09-.2.06-.21-.2-.16-.26-.17-.13-.18,0-.12.05-.08.08-.07.09-.1,0,0,0,0h0l0-.06v-.06l0,0,0,0-.16-.42v-.21l.21-.15,0,.11-.05.2v.09l0,.1.1.19,0,.19v0l-.1.21-.07,0H281l-.07,0,0,.1L281,81l.14,0h.15l.13.08,0,.15,0,.84.05.22.1.17.45.12.11.12.09.13.18.1.73-.36.08-.11.31-.25.09-.16v-.29l0-.17,0-.09.27,0,0,.07-.08.57v.07l.05.06.25.24,0,0h.27l.14,0,.23.1.28.07.11.09.12.1.13.1.12,0h.25l.12,0,.14.1.1.1.11.08.17,0,.11,0,.28-.12.38-.32.08-.1.06-.11,0-.12,0-.13,0-.13-.35-.72-.06-.28,0-.18.16-.38,0-.2.05.17-.12.35v.2l.06.13.22.29.1.54.15.32.21.22.23,0,.17-.14.37-.41.24-.09.53.08.08,0,.08-.27v-.13l-.16,0v-.08h.17l-.11-.17,0-.19.06-.14.2-.06.15-.07.09-.16v-.19l-.12-.14h.18l.06,0v-.6l0-.15-.1-.11-.11-.09-.07-.09.11,0h.2l.1,0,.07.68.07.14.16-.08.26-.26H291l.11,0,.05-.18.05-.08.2-.22.07-.14.05.11,0,.12-.06.13,0,.16.06.12.42.41.13-.31.33,0,.35.24.16.31.18.26.39,0,.41-.16.24-.25-.18,0-.07,0-.08.09-.07-.16-.12,0-.12,0-.09-.11.11,0,.08,0,.06,0,.06-.06.07.07v.09l.05,0,.11-.07-.23-.15,0-.29.24-.88v-.29l-.09-.24-.21-.16.14-.08.07,0,.05.08.06,0h.36l0,.08.27.52,0,.12.14.38.08.1.05,0,.06,0h.17l.11,0V80l.08.06h.21l.13,0,.14-.08.61-.09.21-.07.08-.08.06-.12.1,0,.2.12.1,0,0-.09,0-.11,0-.08.16-.12.18-.09.2-.06.19,0V79l-.41-.28-.12,0,0,0-.06-.17-.06,0v0l-.27-.07L297,78.2l0-.16-.07-.14-.11-.06-.1,0-.28.22-.15.06.1-.1.05-.11v-.1l-.08-.09v-.09l.34-.1.1-.18-.13-.15-.38,0,.3-.11.26.15,1,1.22.22.19h.07l.37-.89.1-.71,0-.13-.19-.13-.15,0h-.34l-.16,0v-.09l.26.07.1-.18-.06-.25-.17-.12-.23-.07-.23-.19-.19-.23-.12-.24.08-.07.2.27.26.27.3.2.37.06.27-.13.44-.49.23-.11.25-.08L300,75l.17-.09.17-.11.17-.24v-.18l-.31,0V74.3l.28-.2.05,0,0-.18-.08,0-.12,0h-.1L300,73.8v0l.09,0,.12-.1.19-.26,0-.12-.06-.11.24-.2.62-.21.27-.24.11-.26,0-.31,0-.3-.14-.25.16-.3-.17-.34-.26-.36-.14-.38.41.44.24.18.24.11,0-.24.07-.25,0-.21L302,70l.12-.13,0-.14,0-.3.21-.44,0-.17v-.72l.08-.35.28-.44.12-.39.12-.07.13,0,.13-.1.12-.13.07-.13,0-.15.05-.54,0-.2-.08-.11-.11-.08-.11-.12h-.08l-.31-.13-1.39-.2-.67-.2-.27,0-.27,0-.45.12h-.21l-1.36-.34-.51,0-.38.07-.15,0-.11,0-.17-.16-.32-.11-.25-.17-.21-.19-.1-.14-.27.15-.77-.07-.35.09-.13-.11h-.16l-.15,0h-.12l-.17,0-.15-.1h-.24l-.25.07-.3,0-.16.06h-.28l-.1,0-.07,0h-.06l-.1-.07-.71.36Zm172.81,82-.2-.12-.08-.08,0-.09-.06-.36V145l.1-.44,0-.22-.16-.14,0,.22-.15.46,0,.25-.08.23-.2.29-.24.26-.22.16.08-.17v-.15l0-.13-.11-.12.1.09.07,0,.07,0,.08-.09h0l.18-.49,0-.15,0-.28v-.12l.06-.08.08,0,.08-.08,0-.16v-.57l-.07-.09-.33-.15-.12-.08-.15-.28-.22-1V142l-.09-.26,0-.25.06-.25V141l-.07-.14-.08-.11-.06-.12-.05-.28,0-.14-.11-.26.13-.41V139l-.16-1.23-.12-.5-.08-.15-.08-.08-.17-.1-.08-.08-.08-.16,0-.1,0-.19,0-.23-.12-.47,0-.27,0-.07-.09,0h-.23l-.11-.06-.11-.28-.1-.06-.14.09-.15.17-.17.12-.19-.1v-.1l.3-.29.05-.22.32.25-.07-1.4-.05-.06-.09-.05v-.11l.06-.24,0-.38,0-.12-.07-.11-.21-.2,0-.05,0-.11-.11-.16,0-.13,0-.41,0-.12,0,0-.22-.21,0-.14v-.13l0-.18,0-.26-.09-.15-.11-.12-.09-.16V129l-.12-.13,0-.12-.22-.83-.06-.11.09-.08-.13-.18-.13-.25-.1-.25-.1-.49-.67-1.18-.36-.33-.05-.11,0-.26-.08-.27-.1-.25-.23-.41-.16-.22-.19-.18-.22-.07-.19-.1-.45-.46-.21-.17-.45-.18-.39-.11-.92-.09-1.29-.29-1.77-.33-.94-.13-.22,0-.32.17-.43.08-.41.23-.2,0-1.91-.08V122h.41v.07l-.28,0-.22,0-.47-.14-1-.1-1.45.1-.42-.1.12.13.43.11.1.06-.06.2-.16.06-.2-.06-.34-.24-.21-.08-.4-.08-.49,0-.15,0v-.16h-.28l-.43-.1-.41-.19-.18-.24-.05-.13-.13-.14-.14-.12-.12-.06-.05-.08-.4-.44-.21-.12-1-.1-.34,0-.31.09-.14,0-.39-.16-.19,0-.2,0-.23.11-.57-.24-.57-.81-.51-1.18-.22-.29-.38-.25-1.21-.42-.72-.36-.31-.08-.13.1-.14.07-.32-.1-.51-.26-.5-.34-.41-.36-.32-.39-.68-1.4h-.27l-.27,0-.25-.08-.23-.1-.76-.73-.18-.08-1.13-.83-.91-.94-1-1.24-.74-1.06-.15-.13-.55-.26-.12-.07-.68-.63-.14-.17-.07-.17-.09-.37-.08-.19-.31-.41-.25-.47-.11-.15-.13-.1-.2.29-.38-.05-.81-.31-.77-.18-.13-.08-.28-.39-.15-.08-.29-.12-.37-.25-.31-.28-.22-.31-.56-.18-.18-.14-.15-.15-.17-.09-.22,0-.32-.71-.2-.31-.3-.26-.17-.09-.19,0-.49,0-.28-.07-.14-.14-.1-.19-.17-.16-.12,0h-.24l-.13,0-.1-.06-.34-.31-.76-.52,0-.05,0-.07,0-.07-.06,0-.06,0-.11,0-.4-.29-.24-.08-.08-.08-.06-.08-.06,0h-.12l-.09,0h-.1l-.15,0L408.67,99l-.14-.17-.87-.48-.44-.37,0,0-.05-.15-.05,0h-.28l-.46-.23-.19,0-.17.11.09.16h-.17l-.08,0-.07,0,.07-.12-.21-.22-.28-.21-.19-.1L405,97l-.14-.09-.63-.61-.14-.08-.36-.09-1-.62-.18,0-.59,0-.19-.05-.18-.1-.17-.06-.14,0-.15-.06-.07.07-.06.11-.13.06-.14-.06-.24-.22-.15,0-1-.16-1.53,0-.9-.15h-.05l-.05,0-.06,0h-.08l-.09.14,0,0-.21,0-.64.28-2,.17-.19.06-.58.3-.12.13h-.09l-.06-.21-.09-.06-.37,0-.09,0-.05.1-.1,0h-.1l-.23,0-.12,0-1.71.17h-.08l-.16-.09.15.23.07.13,0,.13h-.08l-.25-.22-.32-.14-.36-.08-.36-.05h-.69l-.2.05-.31.2-.18.08.08,0h.14l.11,0,.06.15.21.15.09.25.16.27,0,.18-.06.32-.14-.12-.2-.3-.25-.18V97h-.07l-.05-.09-.07-.07-.07,0-.06,0-.07,0-.11-.08-.06,0,.12,0,.05-.08,0-.1-.07-.11-.09,0-.94-.13-.21.06.1.26-.1.07h-.14v-.05l0,0,0,0,0,0h-.16l.12-.16v-.12l-.07-.1-.13-.1-.29.17-.32,0-1-.07-.26-.07-.2-.12-.12-.2-.16.11-.13,0-.13,0-.15-.09v-.07l.12,0,.12,0-.05-.12,0,0,.07,0,.18.09.07,0-.33-.46-1.1-.56-.35-.43-.18.15-.1,0-.12,0,.18-.3-.24-.08-2,.06.13.13.37.23.14.12h.07l.15-.07,0,.18,0,.42-.06.16h-.14l-.16-.06-.41-.25h-.14l-.06.15h-.1l-.21,0-.25,0-.17.08,0-.07-.07-.16,0,0h0l0,0-.77,0-.14.08-.2,0-.2,0-.15-.1-.09.06-.11.08-.08.12-.05.13h-.07l.06-.27-.05-.07-.34.12.09-.15.07-.22v-.2l-.11-.09-1.35,0-.35-.07,0-.14-.07-.08-.11.08-.22.1-.09.06-.25-.17-.23-.07-.16-.12-.08-.29.19.09.1-.06,0-.15v-.21l-.34.15-.14,0h-.14l-.19-.07-.12,0-.18,0-.59-.35-.5-.63-.11-.1-.07,0-.06-.08-.08-.09-.12,0-.66,0-.11,0-.42-.14-.1,0-.06,0-.46-.41-.24-.11-.58-.38-.2,0-.53,0-.24,0-1.38-.44-.9-.34-.64-.07-.61-.23-.32,0-.15,0-.09.06-.09.08-.11.06-.16,0h-.18l-.18,0-.05-.06-.25-.1-.25,0-.18.12-.05.19.15.27.54.28.2.18h-.32l-.11-.06-.06-.11h-.08l.05.17.1.17.14.13.2,0v.08l-.41-.08-.15,0,.21.34.05.19,0,.16-.09.1-.07-.21-.09-.2-.06.13-.06.1-.09.07-.12,0,.09-.17-.15-.08-.11-.39h-.15l0-.31-.08-.26-.16-.08-.22.25.17.11.06.14,0,.15-.11.17v-.25l-.12.13-.05.17,0,.11h.14l.08.08-.19.07L360,91.6l-.24.1,0-.23-.16-.08-.2,0-.16.13.1-.22.07-.1.08-.09-.28.07-.16.25v.29l.27.2h-.22l-.09,0-.1,0-.05.11,0,0v.08h-.08V92h-.08v.08h-.09V92l.15-.16,0-.3-.07-.3-.14-.13-.19.11,0,.53-.14.17.1-.2-.08-.06-.17,0-.17.07-.28.2-.12,0-.09-.14,0,.06-.1.12,0,.06,0,0-.07-.11-.11.16-.31.13-.06.15,0,.18.06.14,0,.14,0,.14-.16-.4L356.2,92l-.05,0-.11.1-.16.22-.14.31v.13l.13.11v.09l-.35-.22,0,0-.05,0-.35.22-.11.17-.14.32-.2.3-.1.19,0,.2v.5l-.06.21-.17.14.12-.21,0-.12v-.16l0,0,0,0,0,.08,0-.08,0,0v0l0-.09-.07-.08-.08.09,0,0-.14,0v-.08l.07-.12H354l-.14.1-.08.13,0,.2-.07.2-.11.21-.12.15,0,0h0l0,0-.09.13-.39.36v-.07l0,0,0-.06,0,0-.08,0h-.06v0l.06-.08.08-.07.18-.07.1-.06.1-.2-.16-.34,0-.23-.38.11-.09.11.07.18-.31-.22-.11-.1-.07.09,0,.09,0,.11V95l0,0H352l-.08,0-.06,0-.09.31-.16-.15v-.07l.05-.06.11-.2-.19-.16-.12.07-.07.22,0,.27-.22-.2.12-.29.3-.27.33-.12.06,0,.34-.32.14-.08.32-.08.15-.13-.08,0,0-.07,0-.21.19.19.07,0h.14l.15,0,.19-.09.16-.11.31-.57.06-.23-.22-.09.08-.09.09,0H354l.08,0,.17-.24.2-.1.19,0,.14-.25.06-.22,0-.23-.09-.27h-.09l-.06.19v.22l-.05-.12v-.28l0-.1-.07,0-.32,0,.06-.16.24-.06h.3l.2,0-.06-.33-.22-.18h-.24l-.11.2h-.34l-1.29.64-.69,0-.17.07-.09.17v.15l0,.16,0,.12.13.09,0,.14v.34l-.16-.38-.12-.19-.17-.08h-.22l-.09,0-.05.08-.13.15.2,1.34H351V93.2l0-.09,0-.1,0-.09-.07.46-.42,1.31.07,0,0,0,0,0,0,0-.15.15,0,.25,0,.53,0,.24-.08.26-.1.24-.11.18-.42.43-.06.18-.09.07-.57.29-.51.81-.32,0-.17.09-.21.44-.15.24-.18.18-.24.11-.54.06-.2.09-.15.15-.08.21.1.61-.1.19-.41-.06.41-.18-.12-.19-.11-.21-.07-.22,0-.21.09-.21.22-.08.26,0,.24-.12,0-.09.06-.28.05-.12.11-.09.14-.08.12-.1.05-.17.12-.17.27-.17.2-.21,0-.29-.17-.09h-.28l-.25-.06-.11-.21v-.12l.06-.23,0-.13,0-.35,0-.09.42-.73.06-.28,0-.51,0-.23.08-.27.15-.31,0-.14-.08-.12.29-.32.6-1.22,0,0,.1-.14.05-.14-.07-.08-.18,0-.07.09,0,.11-.11.13-.22.12-.54.23-.18.18,0-.18.23-.16.28-.11.22,0,.08,0,.14-.36.13-.12.1,0,.11,0,.14,0,.16-.22.13-.35.12-.59-.08-.35-.19,0-.55.34.08-.13.14-.17.16-.13.2-.08.07,0,.05,0,0,0v0l0,0,.05,0h0l.08,0,.12.16.08.06.24.07h.27l.42-.06.15-.08.11-.2.11-.51,0-.29,0-.13-.05-.07-.15-.18,0,0,0-.44-.05-.23-.1-.24-.34-.42-.41-.2-.42,0-.38.33-.05.06-.07.06,0,.05,0,.17h0l-.13.15-.1.06-.12,0-.14.07-.56.49-.14.23-.07.2,0,.23v.28l0,.08.05.09,0,.1-.12.24,0,.15v.15l0,.1-.12-.1,0-.2.06-.46-.05-.09-.12,0-.33.26-.06.07-.05.1,0,.14-.08-.08.06-.11.05-.28.08-.12.14-.12.05-.06.1-.26.07-.1.08-.09.06-.1,0-.16-.07-.14-.16,0-.17.14L347,89h-.09l-.12-.4-.49.12-.53.19-.23-.14.26.07.2-.12.18-.18.21-.1.22,0,.47.14-.05-.18,0-.07-.08-.08.37,0,.25-.1.45-.48.27-.19.07-.1-.11-.11h-.06l-.16,0h-.18l-.16,0,.07-.08.37,0,.34-.37.3-.41.22-.09.41-.3.08-.1,0-.12-.09,0h-.21l-.22,0h-.25l-.23.06-.2.13-.05,0-.05,0h-.13l.35-.1.15-.08.14-.14.17,0,.24,0,.23,0,.1-.08,0-.05.05,0,.06,0,0-.09,0-.11-.11-.2,0-.09,0-.19-.05-.21-.08-.18-.1-.11-.17,0-.41.1-.23,0,.14-.18.49-.26.18-.2-.05-.09,0-.07-.06,0-.09,0,0,.15-.09.07-.1.08-.09.12-.07-.08.08-.12.06-.16v-.14l-.09-.07-.14.06-.06.13,0,.14-.07.08-.05,0-.05-.09-.07-.09-.1,0-.14,0-.19.1-.13,0v-.07l.18,0,.05-.12v-.15l0-.18.08-.21.09-.14.13-.11.19-.11-.65-.32,0,.38-.1.42-.19.3-.34,0-.11-.1-.07-.15L346.6,83l-.17.11-.14.07-.45.07-.18.06v-.08l.7-.38.36-.28.15-.38-.2.07-.21,0-.39-.18.09.27-.07.17-.51.28-.06-.07,0,0v0l.15,0h0l.05,0,.1-.11.1-.06.16-.16-.05,0-.22-.12-.09-.08.21-.23,0,0-.07-.11-.21-.16,0-.09.06-.15.11-.11.05-.13-.14-.21v.1l-.08.22v-.22l-.05-.21-.1-.19-.17-.11v.08l0,0,0,0,0,.06h.09l-.1.17-.06.18,0,.15.2.07-.2.07-.16-.12-.15-.22-.14-.13-.18.11,0,.08v.09l-.11.34-.07,0-.19,0,.23-.09-.08-.21-.21-.22-.17-.12.12,0,.2,0h.17l-.09-.24v-.21l.08-.18.19-.22.07-.19.07-.1.11-.07.23-.11.06-.05,0-.1,0-.35,0-.11-.09-.12-.08-.06,0,0-.09.18-.19.18-.25.15-.22.09v.09h.09v.08l-.24,0-.08.1V80l-.07.2-.09.19-.05.17.05.17-.34-.14h-.15l-.08.22h-.08l0-.27.18-.12.24-.08.21-.1v-.07l-.16-.12h-.17l-.17,0-.15-.17.29.07v-.19l-.12-.21-.14,0-.1,0-.13,0-.14-.06-.08-.07-.06-.12V78.8l-.1.26v.23l-.08.16h-.31l.28,0v-.11l-.12-.09-.07,0-.07.06-.15.06-.14.11,0,.2h-.08l-.12-.26h-.17l-.15.2,0,.31H341l-.28.26-.24.37-.09.34.07.2.28.37.05.2-.08.11-.4.15-.17.1.06.21-.15.12-.47.15-.17-.08-.14-.09-.1-.13L339.1,82v-.23l.05-.19.07-.16.14-.51,0-.33-.13-.27-.41-.16v.21l-.06.19-.11-.24.1-.15.16-.07.09-.07,0-.19,0-.18.08-.18.09-.14-.11-.06H339l-.1.08-.09.14-.07-.08.3-.22.28-.15.24-.19.14-.33.05,0,.11.05-.12-.94,0-.11-.19-.16h-.24l-.16.1.06.19v.16l-.29.51-.07.22-.19.3V79l-.07,0-.18.16-.11,0,.08-.08.07-.13,0-.13-.06-.07-.1.06-.12.12-.11.12,0,.07.08.53V80l-.14.21,0-.16,0-.2,0-.18-.19-.11-.06.09-.06.05-.09,0h-.12l.12-.12,0-.16-.07-.12-.16-.08v.14l-.07.11-.11.06-.13,0,.29-.31,0,0,.14-.06.27.06-.07-.19,0-.2.12-.33v-.31l.06-.1.06,0,.27-.1.05,0h.23l0-.05v-.09l0-.2,0-.11,0-.22-.09-.12h-.15l-.22.06h.32l-.39.17-.09.07-.07.12,0,.13v.11l0,.08-.51.63-.18.14v-.13l.07-.22.13-.29v-.08l0-.49h-.08l0,.14-.13.15v.11l-.12,0,0,0v-.2l.07-.11.1-.11.09-.15-.07,0-.12,0-.06,0,0-.15,0-.12.09-.06h.15l-.17-.17-.19.15-.28.51-.06-.07v-.16l.06-.1h-.06l0,0,0,0,0,0,.15,0,.07-.08-.05-.09-.17,0-.15,0-.11.11,0,.13.09.16.06.12v.18l-.06.16-.06.1-.13.12-.1,0-.64-.05,0-.06,0-.17h0l0,0,0-.08v-.1l0-.1,0,0H335v-.06l.1-.27,0-.11,0-.12-.22-.33-.06.12,0,0h-.07l.08-.3.37-.76-.06-.31h-.24l-.31.82-.17.07-.07.21-.07.42-.1.16-.13-.12-.19.09-.11.25.1.35-.12-.13-.17-.21-.06-.21.15-.09.08-.11V76.6l-.08-.27-.12-.18v.37l-.1.26-.18.2-.28.13L333,77l.13-.17.07-.07v-.07l-.05-.09.05-.08v-.07l-.11,0-.3.26.06-.24.16-.21.09-.2-.15-.22,0-.06.05-.18-.15.1-.07.13-.1.33v-.45l.07-.06.12-.15.05-.16-.12-.07-.17.14-.16.31-.08.33.05.19-.05,0,0,0h-.09l.07.1v.1l-.05.07-.11.06-.09-.13v-.24l-.06-.11-.14-.06h-.16l-.14,0-.05-.1,0-.48.45-.07.15-.06-.08,0-.09,0-.11,0-.11,0,.05-.25.06-.1.13,0-.16-.18-.08-.06H332V74.7l-.24-.06-.07.16,0,.19-.14,0,0,0,0,0,0,0v-.06h-.08v.24l-.08.16-.09.13-.06.12,0,.2.05.23,0,.18-.22.12.08-.14.05-.13v-.14l-.12-.15-.16.31-.1.15-.14.1-.13-.16v-.22l.11-.19.13-.08.11-.09,0-.2-.19-.36-.05-.1,0-.11,0-.08-.1,0-.07,0-.09.1-.08.12,0,.11v.49l-.07.21-.16.14,0-.17.1-.42,0-.14h-.09l-.1.13-.13.27-.19.06-.16,0-.15-.07-.15,0-.11.08-.37.42.6-1.28-.12-.19.05,0,.06-.12.05-.06,0,0v0l0,0,0,0,.17-.08,0-.09-.09,0-.18,0,.07-.15.14-.26.16-.2.12,0h.07l0-.41-.34-.16-.4.11-.17.38h.07l.05,0L329,73l.06.12v0l-.1,0-.05,0v.18l-.16-.16,0,.16-.08.1-.2.23.06.08,0,.08,0,.06-.23.06v.09l.06.09,0,0,.06.18.2.28.07.18-.09-.19-.29-.33-.11-.2h-.08v.3l-.05.25-.1.2-.18.13v-.11l.06-.19,0-.09v-.45l-.06-.18-.14,0-.14.15-.06.17,0,.24,0,.07-.06-.09-.05-.26,0-.23,0-.21.06-.16.1-.13-.26.12-.13.19-.1.2-.16.14-.09,0-.13-.09-.13,0-.05,0-.05.12-.1.07-.14,0H326l.14-.16,0-.1-.16,0-.18.12-.13-.06h-.11l-.09,0h-.08l-.09-.06,0-.06,0-.07-.07-.1-.17-.11-.1.1-.07.11-.1-.06h-.08l-.06.11-.13.13-.06.09.08-.31.35-.48,0-.34-.58.57v-.12l0,0H324l-.11,0-.36-.13,0,0-.23.08-.24.17-.21.2-.13.2,0-.23.11-.17.17-.13.48-.31.11-.12.07-.17h.09l0,.19.12.08.16,0,.16-.1.09-.13,0-.16,0-.07-.09,0h-.09l0-.13.29-.36-.31-.4-.19-.15-.08.11.05.14.09.14,0,.12-.12,0-.16,0,0-.1v-.13l-.08-.14-.25-.08-.11.21,0,.29,0,.14-.14.11-.28.48-.19.14.36-.56.05-.2-.06-.15-.3-.42-.12-.12V72l-.05.13-.12.07V72h-.08l-.12.19,0,.13.05.14,0,.19,0-.09-.13-.23,0-.11v0l0,0,.09-.66h-.08l0,.15-.06.09-.1.06-.14,0,.06-.12,0-.1,0-.07-.12,0V71.4l.13,0,.08,0,0-.08-.08-.07v-.09H322l.17-.07-.11-.11-.06-.1,0-.08.14,0-.06-.13-.09-.1-.12-.07-.14,0,.15.08v.08l-.17.08-.3.42-.17.15.11,0,.09,0,.07.07.05.09-.11,0,0,0,0,0,0,.07h-.09v-.11l-.05-.09-.07-.07-.11-.05,0,.58,0,.14-.08-.09v.22l-.13,0-.27-.08-.17.09,0,.12,0,.16,0,.2-.21-.09,0-.17.06-.17.1-.14.13-.07.16,0,.1-.1-.07-.18,0,0,0,0-.1,0,0-.07.08-.18,0-.07h-.23l.05-.1v-.09l-.05-.08-.1-.06-.08.17h-.09l.14-.59v-.29l-.14-.18-.1.41-.08.23-.1.09h-.19l-.07,0,0,.11v.25l-.12,0,0,0-.07.07-.08.11-.06.12,0,.1,0,.44,0,.12-.06-.13-.16-.22,0-.13.06-.13.22-.15.13-.13-.19,0-.06-.15,0-.2-.06-.19-.08.16-.08-.08.06-.17v-.31l.1-.08,0-.06h0l0,0,.05-.1V70l-.05-.12-.13,0-.12,0-.06.11,0,.24-.06.09-.09.12,0,.08,0,.12,0,.08v.06l-.05.1,0-.06,0-.09,0-.09-.16.13v.22l0,.24-.06.22,0-.15-.06-.14L317.9,71l-.13-.08-.08.08-.11.07h-.09l0-.11,0,0,.2-.09.08-.06.1-.18.05-.18v-.18l-.07-.19-.08.06-.05.06,0,.08v.13l-.2-.08-.21,0-.17,0-.08.17H317l-.15-.16v-.09l.12,0,.09-.07.07-.08,0-.12h.08l.08.14.11,0,.06-.16,0-.14-.53-.37.06.18,0,.18-.05.17-.2.13.07-.18v-.16l-.09-.08-.14.08h-.08l0-.17,0-.22,0-.18-.17-.07-.15,0-.12.12-.15.07-.19-.08.06.16.09.1.07.13,0,.18-.26-.21-.15-.08-.16,0-.09.14v.15l.07.14.09.07V70l-.14,0-.09-.08-.05-.14,0-.16-.11.06-.06.09V70l-.08-.24.05-.39,0-.17,0,0,.05-.12L315,69l-.17-.14h-.19l-.19,0-.18.1.16.16-.19,0-.06.16v1.27l.1-.07.07-.09,0-.11,0-.14.11.1.3.39.24.12,0,.11,0,.08.05,0,.07,0-.09.11-.05.11,0,.13v.14l-.16-.13,0-.36-.18-.07h-.86l.11-.23v-.2l-.08-.19-.18-.3L313.6,70l-.05-.08-.05-.14,0-.14-.06-.1-.16,0h-.2l-.17,0-.11.08-.11.42-.15.19-.19.16-.31.2-.9.39H311l-.08-.13.1-.13.15-.13.07-.13v-.54l-.11-.27-.25-.12-.28,0-.24.12-.14.21,0,.28L310,70l-.34-.1-.2-.11-.13.41-.81.51-.19.49-.09,0-.39-.39-.08-.15,0,0-.11-.07,0,0v-.1l.07-.15v-.08l0-.14-.05-.08-.15-.17-.87.73-.51.68-.05.17,0,.23,0,.06.08.06.09.08,0,.12v.13l-.06.31v.07l.06.18,0,0-.06,0-.05,0h0l0,.26,0,.27,0,0-.14.2,0,0-.06.06v.11l0,.14,0,.1-.12.14-.18.08-.21,0h-.55l-.17,0,0,.14.06.28.16.34,0,.06.32,0h.16l.13.06-.16,0-.14.07-.12,0-.14,0-.09.08.09.08-.08.18.09.13.14.15L305,76l-.37-.26-.28.25-.18.48-.08.59-.05.17,0,.23-.06,0-.83-.16-.22-.17-.12,0-.44.15-.17.35-.08,1-.06.26,0,.21.08.15.25.11.24,0,.24,0,.21-.07.12-.1.11.06.12,0,.12,0,.14,0,.38,0,.1,0-.17.19-.19.15-.24.13-.62.16-.23,0-.2,0-.21-.12.05.27.41.41.11.25,0,.19.08.22,0,.23-.08.2-.07-.15-.09-.15-.12-.13-.16-.05-.29,0L302,81l-.26-.37h-.13l-.11-.19-.09-.25-.12-.18-.16-.19-.37-.66-.09.13-.08.16-.11.14-.16.06-.13-.05-.48-.36,0,.12-.06.06-.14.15h-.15l-.05,0,0,0v.1l0,0-.89,1.29v.15l0,0-.06,0h-.12l-.08,0h-.1l0,0v.05l-.07.15,0,0-.1.06-.21.1-.1.08v.08l.11.23,0,0-.11.07-.08.13-.12.14-.18.07-.46.94-.21.13-.24.06h-.18l-.17.08-.25,0-.51,0-.12,0-.22.17-.15,0-.27,0-.1,0-.09,0-.33.3-.33.48-.81,1.68,0,.16V87l-.09.42-.22.52L291,89.84l-.11.33v.23l0,.44,0,.22-.08.26-.12.18-.29.28,0,.08,0,.21-.05,0-.07,0-.23.13-.08.08-.06.24v.18l-.05.14-.2.17-.89.33-.52.08-.3-.1.15-.23.19-.2.24-.15.27,0,.12-.12.73-1,0-.23-.05-.64-.05-.23v-.12l0-.11.21-.27,0-.11,0-.24,0-.11.06-.09.08-.08.08-.09,0-.11v-.61l0-.07,0-.06.31-.51.09-.09.11-.06.09-.08.05-.28.12-.23,0-.11,0-.95,0-.14.11-.13.29-.26.09-.17h-.15v-.09l.11-.13.1-.18.07-.2,0-.17,0-.24-.11-.11-.42-.09-.23-.1-.16-.12-.08-.16,0-.23.06-.14.27-.3.07-.24-.16.07-.2.18-.12.07,0-.32-.1-.17h-.21l-.31.17-.14.2-.18.77-.3-.3-.41.09-.4.29-.28.32.07.16,0,.08.15-.07.49.64.16.36-.15.2,0-.27-.12-.25-.17-.2-.42-.36-.26-.13-.21,0-.09.18-.11-.16-.12,0-.08.07.05.22-.16-.15-.12-.14-.15-.09-.29,0-.3.06-.11.14-.05.19-.1.25v-.37l0-.14-.14,0v.09l.1.2v.92l.12.63.19.59-.15-.13-.15-.19-.12-.22-.06-.2h-.08l-.25.49h-.08l.07-.24.25-.48.09-.25,0-.26v-.24l0-.23-.07-.24-.18.24-.23.24.28-.52.05-.15,0-.2-.07-.11-.67-.43-.25-.12-.28-.09-.28,0-.29,0-1,.28-.31.15-.21.24-.09.39-.24-.13-.29-.08-.29,0-.24.08-.55.46-.16.19-.12.22-.08.21-.11.17-.17.12-.18,0-.09,0h-.09l-.14.09-.11.13-.07.13-.07.3-.15-.12-.09-.2-.08-.4-.13-.22,0-.1.05-.13.07-.09L279,85l0-.11,0-.13-.16.09-.16.31-.17.09.06-.12.16-.23,0-.1,0-.13-.11,0-.16,0h-.18L278,84.6l-.26-.17-.22-.19-.31-.56-1.05-.45-.46-.4-.08-.12-.13-.27.54.32h.2l.24-.32-.11-.22-.08-.27-.11-.79-.12-.2-.75-.65-.16-.18-.14-.51-.37-.47-.11-.25v-.14l.06-.13.09-.14,0-.14-.08-.09-.08-.07,0-.06,0-.7.12-.7v-.24l-.12-.21-.2-.19-1.3-.82h.37l.16,0,.12,0,.11-.11.29-.38.14-.09.15-.07.11-.09.09-.15,0-.17,0-.56.06-.39V73l-.06-.15-.15-.11-.17,0-.32,0-.57-.1-.16,0-.12.13V73l.07.13.14.08v.08l-.26-.07-.22-.36-.25,0-.15.16,0,.2.12.21.06.19-.14.31-.35.29L270.5,75l-.31.22-.31.27-.17.21-.29.46-.19.21-.18.13-.25.15-.28.12-.23,0,0-.08.05-.07.06,0,.09,0v-.07l-.58.11-.28.13-.12.2-.09.27-.24.25-.29.2-.26.12-.87.3-.23.15-.21.11-.89.17-2.89,2-.53.26-.55.17h-.12l-.25,0H260l-.12,0-.19.09-.06,0-.55,0-.22,0-.24.14-.41.41,0,0,0,.12,0,.07-.06,0h-.16l-.31.14-.13-.09-.05-.22.06-.25.07-.12.19-.23.06-.13v-.14l0-.11,0-.1-.07-.27-.1-.23-.16-.2-.17-.08-.15.06-.42.28-.2.06-.94.16-2,.09-.75.21-.25,0-.13,0-.11,0h-.1l0-.11v-.27l.05-.08.1-.1.18-.09.76-.22.51,0,.2,0,1-.41.13-.12.08-.19.18-.17.24-.15.24-.11.81-.16.29-.17.28,0,.11-.06.32-.36.13-.09.28-.08.22.06.2.14.15.17.18.11.75.25.26,0,.68,0,.15-.06L261,78l.35-.26.15-.16.07-.19-.17-1v-.53l.25-.24.88-.27.14-.13.25-.37.19-.11.39-.33.23-.11.1-.08.05-.07.05-.06,0-.09,0-.11v-.38l-.16-1.18.12-1,.16-.4,0-.15.49-.61.08-.05.17-.1L265,70l.59-.85.55-.61-.17-.08-.06.1-.11,0-.15,0-.17,0V68.5l.23,0,.19,0v-.08l-.14-.06-.07,0h-.12v-.08h.21l.31.11.17,0,.19-.08.23-.17.39-.36.1-.18v-.36l0-.15.14-.16.35-.29.15-.19L268,66l.08-.2.09-.42.23-.35.17-.53.85-1h-.18l-.08-.06,0-.1-.08-.12-.14-.08-.28-.06-.11-.07V63l.21,0,.52.08.31-.13.28,0,.06-.09,0-.1.08,0,.49-.12.73,0,.2-.06.14-.15.62-1.07.44-.58.6-.41.89-.21h.41l.21.05h.13L276,58.64l1-1,.57-.87.72-1.27.4-1.06.15-.21.24-.17.78-.43.16-.13.09-.12.4-1,.11-.1.49-.52.15-.12.92-.43.17-.12.18-.17.42-.63.11-.1.42-.18.17-.4.07-.41.11-.22.2.42h.42l.48-.3.36-.42.21-.38,0-.11,0-.14-.17-.24,0-.14,0-.75,0-.27.29-.77,0-.24v-.47l-.07-.44-.35-.71-.06-.23,0-.24-.05-.27-.16-.49-.24-.39-.31-.3-.36-.24-1.16-.6-.22,0-.4-.22-.24-.07h-.12l-.25.06,0,0-.14-.06-.27-.22-.12,0h-.27l-.11,0-.11-.08-.1,0-.15.07-.26.15-.48.08-.46,0-.41-.15-.28-.21-.12-.13-.1-.16-.07-.18-.09-.47-.13-.2-.32-.39-.35-.63-.05-.14,0-.64,0-.19-.17-.13-.62-.24-.22-.05-.28.05-.22.13-.17.18-.1.21v.26l0,.13-.06.09-.12,0-.07-.09-.05-.11-.1-.12,0-.14.09-.3.06-.11V37l0-.08-.08,0-.08,0-.07-.06-.06-.1,0-.06v-.08h.08l.09.14.15.08.34.1.08-.06h.2l.12,0,.09-.07.2-.28.05-.18V36l0-.28,0-.19-.1-.14-.13-.12-.13-.15-.1-.36-.21-.43-.05-.18,0-.14.11-.23,0-.12,0-.13-.16-.24,0-.07-.08-.12-.39-.46-.17-.11-.08,0-.07.08-.06.06h-.12l-.07-.07v-.11l0-.1.08,0,.1-.12,0-.28V31l-.07-.12-.26-.32,0-.5-.05-.22L274,29.5l-.14-.23-.06-.09-.12,0-.17,0-.14-.05-.07-.09,0-.13.12-.24,0-.11v-.17l-.05-.08-.05-.08-.05-.12-.16-.74-.3-.55,0-.05,0-.11-.07-.09-.09-.07-.06-.09,0-.12,0-.24,0-.12-.08-.14-.11-.11-.1-.11,0-.16v-1l-.08-.23-.27-.37-.22-1.27,0-1.56,0-1.23,0-1.47-.13-1.87-.18-.43-.25.15-.24.45-.14.48L270.56,18l-.2.78,0,.28-.16-.43.24-1.59V15.14l-.13-.49-.21-.43L269,12.79l-.64-.64-1.46-1.06-.5-.26-.22-.18-.14-.36-.08,0-.15.17-.05.1v.15l.17,1.21.57,1.76.41.87.34.54.08.33-.1.33-.17-.48-.72-1.3-.32-.81-.16-.68-.09-.2-.14-.13-.08.05-.06.17-.15.69-.42,1.06-.23.24-.37.1-.9.43-.3.25-.17.37-.1.38-.15.31-.19.28-.77.83-.36.18-.1.1,0,.11,0,.25,0,.1-.11.1-.08,0-.09,0-.11.05-.19.2-.08.23-.09.5-.11.28-.5.73-.14.33-.09.14-.23.12v.08l0,.11v.11l-1.6,2.6-.12.12-.16.08h-.09l-.1,0-.14,0-.24.2-.24.56-.42.31-.08.23v.27l.12.51,0,.09-.74,1.37-.07.17.05.14.09.12v.1l-.15.08-.14,0-.09.06-.09.08-.08.11-.91,2.07-.08.35,0,.1-.09.06-.25.09-.05.06.05.13.19.28,0,.14v.16l-.06.09-.06.07-.07.11-.25.53-.34.49-.44.38-.24.48-.16.2-.21.17-1.33.79-.5.21-.21.16-.14.28-.1.26-.07.11-.13.11-.07,0-.13,0h-.06l-.06.06-.11.13-.07,0-.25,0-.45-.11-.5-.05-.37-.3-.25-.08h-.22l-1.43.26h-.19l-.13-.11.09-.17.21-.18.24-.07v-.12l-.75-.62-.3-.41-.09-.08-.16,0-.06,0,0,.06-.32.4-.14.1-.41.16-.44.32-.13.06-.45,0-.24,0-.19,0-.37-.22-.19,0-.41,0-.19,0-.8-.35H240l-.08,0v-.08l.12-.23v-.12l-.13-.19-.19-.05-.22.06-.2.12-.13.15-.12.21-.11.16-.15,0h-.28l-.15.17-.1.2-.15.11-.24,0-.14,0-.06.06v.29l-.09.21-.22.15-.49.17-.07,0-.11.12-.08,0-.06,0-.12-.09h-.31l-.09.06-.09.17-.17.49-.15.15-.28,0-.15,0-.11-.08-.38-.46-.06,0h-.19l-.23,0-.2.07-.2,0-.6-.08-.11,0-.14-.08-.3-.28-.16-.1h-.34l-.1,0-.18-.1-.09,0-.5-.06-.19-.1-.22-.24-.41-.3,0-.13.27,0-.21-.21-.25-.17-.28-.11-.31,0-.22.07-.24,0h-.22l-.24,0-.13-.07,0-.09v-.12l0-.12-.1-.27.07-.22h.09l.06,0,0-.07,0-.07-.05-.13,0-.06v-.24l0-.06-.17-.09L228.1,33h-.19l-.39.21-.58.17-.46-.16-1.16-1.12,0-.12,0-.16.23-.23.08-.16-.07-.11-.21,0-.49.2-.23.15-.46.38-.43.2-.1,0h-.09l-.1-.1.05-.22-.05-.11-.41,0-.94.73-.29,0-.13-.18-.19-.06h-.21l-.2.09-.2.19-.06.22,0,.21-.1.19-.34.14h-.42l-.46-.06H219l-.68.06-.23,0h-.24l-.44.21-.94.23-.23,0-.13-.1-.13-.25-.09-.11-.11-.05-.84-.21-.2-.1-.64-.53-.27-.14-.27,0-.15,0-.07.06-.09.21-.13.51v.51l-.06.21-.34.51-.1.1-.13.06h-.14l-.11-.06-.11,0-.14,0-.15.18-.18.34-.14.35,0,.22.14.09.51,0,.23,0,.22.21.11.46.16.25.32.22.1.09.42.54.41.35.08.13.05.15,0,.11,0,.11,0,.15,0,.51.06.48-.06.42-.37.39-.78.23-.75-.15-.74-.3-.76-.2-.57,0-.19,0-.22-.1-.43-.27-.23-.09-.23,0-.34.09-.23,0-.17,0-.61-.22-.55.21-.36.2h-.2l-.18-.08-.16-.14-.19-.12-.23,0-.2.08-.16.12-.16.08h-.24l-.24,0-.16,0-.5.39-.15.07h-.16l-.84-.14-.16-.06-.19-.15-.08-.11-.1-.06h-.26l-.39,0h-.19l-.22,0-.31-.16-.22-.19-.14-.24-.07-.34-.36-.28-.57.23-1,.63-.24,0-.43-.27-.29,0-.27.1-.17.16-.15.18-.19.17-.24.13-.17.06-.12.11-.29.77-.12.22-.79,1-.36.27-.54.13-.37,0-1-.19-.43,0L192,42l-.95.42-.41.25-.2.07h-.2l-.35-.15-.19,0-.07.09v.18l.07.36,0,.2-.09.22-.2.37-.19.23-.5.1-.56,0-.38-.09-.08-.1-.08-.26-.1-.11-.19-.1-.13,0-.11.07-.15,0h-.22l-.26-.05-.25-.07-.21-.1-.08-.09-.12-.19,0,0-.14.1-.08.15-.06.17-.09.14-.1.07-.27.13-.09.07v.12l.07.25v.11l-.32.21-1,.17-.18.22.08.24.22.47.08.24v.28l-.08.21-.37.58h-.1l-.09,0-.09,0v0l0,0L183,46.9l-.06,0-.05,0-.15.11-.08,0-1.21-.11-.18,0-.13.1-.33.47-.19.21-.22.15-.29.12-.24,0-.21,0-.21,0-.24-.1-.3-.24-.11-.25-.06-.25-.18-.28-.23-.18-.23-.13-.53-.2-2-.35-.76-.24-.21-.11-.15-.2-.25-.56-.1-.13-.21-.13-.05-.2,0-.22-.14-.18h-.11l-.23.06-.15,0,0-.05-.08-.18,0-.07-.06,0-.15,0-.06,0-.1-.12-.23-.42-.11-.12-.38-.29-.19-.25-.33-.54-.25-.2-.26-.08-.2,0-.21.06h-.24l-.13,0L170,41.7l-.12-.08-.25-.27,0-.1.19-.25.25-.49v-.14h0l-.08,0-.14,0-.45-.17h-.14l-.24.09h-.15l-.1-.13-.06-.23v-.45l0-.14.14-.23.06-.12v-.11l0-.31,0-.1.07-.19v-.09l0-.13-.12-.25,0-.16,0-.12.13-.21.05-.11V37l-.11-.36v-.43l.06-.46,0-.4-.25-.29-.11,0h-.23l-.11,0L168.1,35l-.36-.3-.47-.25-.23-.16-.13-.22,0-.11.12-.2V33.6l0-.12,0-.26,0-.12-.34-.77,0-.22v-.24l-.1-.2-.05-.05-.15-.05-.06-.05v0l.05-.14v-.07l-.37-.72-.05-.23L166,28.4l.24-1,0-.25,0-.67,0-.3.12-.27.31-.52.07-.05.07,0,.07,0,0-.08v-.08l-.1-.13V25l0,0,.15,0,0,0,0-.08-.1-.11,0-.08v-.15l.06-.09.09-.08.08-.11.16-.53,0-.11.31-.51.12-.39h.11l.08,0,.06,0v-.08l-.07-.16,0-.08.06-.57-.21.08,0-.21L168,21l-.1-.3-.21-.24-.19-.25v-.36l.29-.32,1-.34.46-.41.26-.12.11-.08.07-.14v-.34l.1-.3.14-.15.49-.21.23-.18,0-.17-.05-.2,0-.26.08-.24.18-.27.21-.23.23-.08.11,0,.07-.05v-.09l0-.11-.08-.1-.15,0-.37-.06h-.11l-.08-.05V15l-.05-.07-.07-.06-.17-.3-.4-.37-.12-.18,0-.27.13-.21,0-.16-.25-.2-.51-.16-.19-.14-.14-.31,0-.13v-.1l0-.21,0-.07.11-.14,0-.07,0-.08-.12-.14,0,0,.12-.22.41-.42.08-.28v-.19l0-.05h-.13l-.14,0-.11-.1-.09-.11-.1-.1-.69-.38-.16-.21-.09.11-.1,0-.25-.07h-.19l0,0-.05-.07,0-.15,0,0h-.16l-.23.1-.1,0-.07-.06-.17-.22L166.56,9l-.11,0h-.14l-.11,0,0,.1-.08.08-.14,0-.28-.09-.23,0-.19.05-.12,0-.06-.22L165,8.82l-.13-.07h-.12l-.07.09,0,.14-.07,0h-.11l-.14,0-.19-.1L164,8.73,164,8.51l0-.22L164.3,8h.34l.1,0,.12-.11,0-.1V7.55l0-.12.06-.15.33-.49.11-.18.07-.21,0-.23-.06-.51.17-.52,0-.71.08-.35.09-.21,0-.22V3.19l.21-.71V2.14L165.76,2l-.52-.3L165,1.49l-.18-.2-.38-.87-.11-.13-.53.18-.16-.15-.12-.27-.15,0-.49.13-.23.11-.47.47L162,.87h-.27L161.17.7h-.24l-.09.08L160.7,1l-.12.09h-.08L160.41,1,160.33,1l-.08-.06-.24,0-.67.08h-.17L159,.85l-.13-.07-.14-.06-.13,0-.71,0h-.26l-.53.12h0l.33,0,.31.11.24.22.78,2,.08.56-.25.58-.8,1-.44.39-.54.34-1.14.51h-.33l-.1,0-.09.1-.32.73-.11.52-.1.24-.34.45-.41.2-1,.12-.66.19-.2,0-.21-.05-.41-.19-.2-.06-.71-.09-.21,0-.09.14.32.47,0,.25-.18.17-.29.11-.32.06-.25,0-.68,0-.23,0-.52.21-.17.32-.07.91,0,.15-.09.13-.1.13-.12.1-.18.07-.1,0-.11,0H147l-.13,0-.22.1-.14,0-.1,0L146,12l-.46,0-.22,0-.22.07-.27.15-.62.66L144,13l-.24.09-.25.09-.24,0H143l-.23-.07-.21-.09-.26-.07-.53.08-.9.64-.5.17-.46,0-2.27-.94-.52-.11-.41.1,0,.07-.05.2,0,.09-.11.06-.37.07-.26.09-.11.13,0,.19V14l-.14.46-.33.09-1-.16-.67.07-.21.05-.26.15,0,.19,0,.21v.27l-.07.28-.12.24-.07.25,0,.31.07.13.06.08.05.08,0,.31.21.45.1.49v.49l-.11.47-.25.43-.19.23-.12.08h-.13l-.18,0-.1,0-.24.21-.25.14-.2.05h-.22l-.27,0L131,20l-.29-.15-.25-.19-.16-.19-.18-.26-1.25-1.47-.74-.52-.68-.94-.41-.41-.78-.44-.47-.16-.4,0-.28.34-.07.46-.16.4-.5.14-.52-.24-.81-.71-.58-.13-.22,0-.66.16-.29,0-.23,0-.48-.19H120l-.5.24-.47.33-.47.24-.49,0L117.8,16l-.18-.49-.2-.84-.14-.39-.2-.36-.26-.26-.3-.15-.81-.22-1.47-.12-2.66.39-.22-.1-.15-.23-.19-.53-.28-.42-.46-.43-.55-.28-.54,0-.16.16-.09.22,0,.26,0,.24.15.26.2.13.25.1.24.13.18.2.09.21.15.47.53,1,.23.28.56.43.24.26.52.71,1.15.89.47.27.56.2.27.17.7.85.51.42.23.25.08.3v.43l0,.21-.08.21-.32.43-.12.21,0,.28.31,1.49,0,.49-.11,1,0,.48.21.41.37.44.43.76.38.48.9,1.75.2.64.14.22,0,.12v.11l-.08.31-.05.67,0,.22-.45.81-.09.29,0,.26.1.2.19.1.25-.07.7.08,1.43.39h.76l.74-.1,1.55,0,.74.11,1.49,0,.24.09,0,.16-.12.41,0,.19,0,.79,0,.18-.33.73,0,.18,0,.21-.11.25-.38.15-.79.15h-.12L123.9,37l-.16,0-.66.29-1.71,1.36-.25.12-.22,0-1.41,0-.44,0-.43.15-.49.37-.2.39-.08,1-.19.73,0,.71,0,.23-.07.2-.14.3-.2.29-.24.24-.56.31-.65.63L115,45l-.24.26-.22.47-.15.22-.2.09-.23-.13-.06-.27,0-.3.07-.22.25-.48V44.4l-.25-.15-.27,0-.29.16-.49.37-.63.32-.28.19-.22.29-.25.53-.15.22-1.5,1-.25,0-.23,0-.59-.28h-.21l-.19.14-.27.28-.24.18-.2.06-.21,0-.28.07-.12.07-.39.34,0,0-.11,0,0,0,0,.06v.16l0,0-.45.09-.48-.05-.43.11-.27.54-.1,1-.12.49-.29.37-.24.11h-.23l-.5-.07h-.3l-.2.09-.73.88-.13.23-.11.29,0,.09,0,.34-.06.16-.22.24-.21.36-.26.21-.3.17-.25.09h-.28l-.21-.08-.16-.16-.13-.25,0-.56.28-.46.37-.45.18-.55v-.28l-.08-.25-.13-.23-.28-.36-.13-.12-.14-.11-.16-.07h-.14l-.25,0-.85,0-.24,0-.29.1-.48.29-1,.47-.23.16-.27.25-.45.54-.25.25-.24.14-.23.07-.53,0-.24.1-.39.43-.27.12-.26,0-.2-.12-.18-.14-.24-.1h-.23l-.67.2-.73-.16-.72-.5-5.54-4.94-.45.09-.77.21-1,.28-.24,0-.1-.31,0-.61.28-3.38-.11-.75-.4-1.24L81.21,41l-1.29-1.69-.28-.5-.38-.92L79,37.43l-.3-.29-.19-.09L78,36.86h-.18l-.11.06-.2.21-.11.05-.42.06-.2.12-.31.28-.46.22-.91,1L73.7,40.7l-.36.33-.46.27-.4.14-.42.1h-.42l-.4-.11-.39-.33-.33-.46-.23-.51L70,39.39l-.11-.22L69.72,39l-.26-.11-.24,0-.1,0L69,38.72l0-.09v-.24l0-.07-.11.08-.7,1.76-.23.34.07,0,.3.05.12.13,0,.26,0,.21.43,0,.1.06,0,.1v.15l0,.08.1.07.2.1H55.22l-.49-.06-.9-.37L53,41.16l-.45,0-.81.38-.49,0-.25,0h-.21l-.2,0-.51.26-.22.06h-.57l.08.45v7.17l.27,0,.5-.32.29-.08h.16l.14,0,.11.07,0,.26.13,0,1.13-.16h.27l.52.18h.51l.38-.05h.11l.11.05,0,.06,0,.05.05,0,.23.13.12,0,.56-.41.19,0,.19,0,.59.3.17.12.2.25.2.14.09.08,0,.11v.13l0,.13.26.15-.06.43.18.18.27.11.15.08.08.1V52L57.5,52l-.11,0-.08,0,0,.24.12.53v.27l-.08.13-.12.09-.09.1,0,.16.09.09.26.12.09.08.13.26,0,.22-.07.14-.23.07h-.1l-.22-.08H57l-.09.06-.12.17-.09.06h-.19l-.44-.07-.21,0,.05-.32-.11-.13H55.6l-.26.08-.24.1-.08,0-.83-.84L54,53.45l-.24-.05-.31,0-.22.1-.39.25-.22,0-.24.1-.12.25-.17.2-.38-.08-.33-.15h-.18l-.46.36-.4.21-.45.16-.48.1-.81.05-.23.06-.23,0-.28,0h-.27l-.25.11-.22.06-.18-.16,0,.82v.3l0,.79,0,1.12,0,1.28,0,1.28,0,1.12,0,.78v.3l0,.59.07.42.13.24.47.53.6.54.26.4.13.1.22.09.47.1.21.13.07.11.11.26.09.12.12.08.27.13.12.09.36.38.18.14.94.36.2.1.21.17.14.21.09.24.06.26V69l0,.12.07.11.07.09.07.11,0,.13-.08.28-.37.55-.08.22.12.28.45.5.09.16,0,.3,0,.12.11.17.07.07.09,0,.08.06.07.13v.14l0,.11v.12l.08.16.09.08.26.11.11.07.26.37.07.06.12,0,.07,0,0,0,0,.09,0,0,.07.44,0,.14-.08.24v.13l.44.72.13.35-.26.66,0,.53-.2,1.08v.54l-.21.81v.24l-.17.59-.13.72L53.39,83,53,84.87l-.35,1.9-.34,1.89L52,90.56l-.35,1.9-.35,1.9L51,96.25l-.35,1.89-.35,1.9-.34,1.9-.36,1.9-.34,1.9-.34,1.9-.36,1.9-.34,1.89-.21.42,0,.33-.11.31-.21.28-.4.29-.17,0L47,113l-.14-.1-.15-.15-.06-.09-.06-.29-.13-.22-.24-.08-.26,0-.22.12-.15.21-.19.45-.23.2-.13-.17-.1-.18-.08-.12-.09,0h-.1l-.11,0-.59-.46-.11-.16,0-.21.1-.44,0-.24-.09-.17-.14-.16-.15,0-.21.34-.15,0-.29-.26-.2-.08-.18,0-.16,0-.19.08-.49.38-.17.06-.13-.07,0-.17,0-.17-.19-.08-.19.1-.08.2-.05.21-.11.12-.55-.32v-.18l0-.21,0-.18-.18,0-.19.08-.11.13-.13.36-.13.1h-.21l-.74-.2-.12,0-.56.27-.16.14,0,.16.1.28,0,.11-.18.06-.18.09-.1.17-.06.21-.12.2-.35.34-.15.19-.11.23-.24.24-.25-.22-.18-.22-.06.27-.23.18-.62-.26-.28.12-.16.26-.11.07-.19,0-.09-.09-.13-.26-.08-.08-.2.11-.17.28-.15.18-.33-.36-.27-.06-.28.06-.2.17,0,.14,0,.12v.12l-.12.15h0l-.06,0-.08,0-.08,0-.1.14-.05,0-.16.06-.1-.06-.07-.13-.11-.09-.16,0-.55.08h-.36l-.18,0-.16.07-.08.1-.07.26-.07.07h-.09l-.3-.06H29l-.55.23.05-.25-.12,0-.24.23L28,115h-.11l-.09,0-.12-.12-.19-.14-.12,0-.14.1-.22,0-.14,0-.26-.12h-.13l-.1,0,0,.07v.08l-.05,0-.08,0-1,.11-.21.06-.3.21-.56.54-.35.11-.19.17-.11.07-.1,0-.12,0-.11-.05H23l-.08.09-.22.43-.14.18-.22.18-.65.36-.6.45-.21.12-.22.07h-.16L20.1,118l-.14,0-.06.08,0,.09-.06.06-.5.14-.12.13-.08.64-.13.2-.2.13-.25.14H18.3l-.05,0,0,.06V120l-.07.11,0,.1-.07.07h-.17l-.23,0-.21.09-.19.14-.29.32-.32.15-.16.15-.05.13v.11l0,.11-.12.1-.11,0H15.5l-.24-.07-.22,0-.14.12-.16.19-.21.1-.48.09H14l-.15,0h-.06l0,.06v.17l0,0-.16.08-.1,0H13.3l-.27.08-.06.17.09.21.11.17.06.19.07.72,0,.18-.1.17-.12.16-.1.17-.08.5,0,.19-.34.72-.12.39.06.39.1.38v.33l-.19,1.09-.13.35-.17.32-1.23,1.64-.41.37-.67,1.49-.26.42-.19.45v.54l.11.28.57.65.06.2.13,1,.07.27.26.54.08.27v.26l-.05.26-.2.49-.28.48-.32.34-.41.21-.54.14-.83,0-.26.08-.41.38-.47.28-.8.69-1,.55-.6.47-.33.2-.15.13-.15.3-.11.15-.5.3-.13.15-.07.19L3,144l-.3,1.08-.16.33-.07.3.11.28.81,1.16.12.51.1.22,0,.22-.15.24-.19.11-.23,0-.47,0-.3,0-.21.06-.43.26-.27.1H1.16l-.48-.19H.42l0,.22.35.57.07.3-.07.2-.09.18,0,.26-.15.26-.55.23.1.21.48.27L2.13,153l.32.22.38.16.44.14.35.28.12.47-.13.46-.39.24-.39-.14H2.64v.22l.13.57.07.16.36.27.5.2.46.24.19.38.08.27.39.52.13.28v.23l-.06.45,0,.22.15.28.35.45.1.31.06.49.08.22.17.16.94.52.12.11.2.25.12.11.11,0,.25,0,.11,0,.17.17.08.22v.25l-.11.53v.22l.07.19.5.66.22.2.25.14.68.14.23.12.21.2.13.23.21.5.91,1.33.18.14.43.3.16.16.32.49.08.2.13,1-.06.36-.1.23-.12.15-.54.42v.33l-.06.15-.16.09-.2,0-.16,0-.15.09-.13.19-.19.38-.27.37-.63.62-.25.41,4.75,0,1.44.29.06,0,.1.09.07,0H16l.09-.07h0l.23,0,.48.15.49.24.23.07.53.06.72,0,.24,0,.23.12.32.29.22.14h.11l.14,0h.12l.07.1,0,.11,0,.35,0,.25.12.2.32.38.07.21,0,.23-.14.46.13.45.84.52.25.47,0,.14.1.24,0,.12,0,.15-.19.22-.06.13,0,.24,0,.21,0,.21-.13.25h9.52l.21-.06.12-.09,0-.09.06-.07.17,0,.13.05.08.07.1.06h.16l.23-.12.42-.33.57-.19.16-.23.11-.28.15-.26.2-.15.79-.35.74-.2.21-.16.09-.14.14-.3.11-.15.13-.1.31-.19.14-.11.33-.5.2-.22.59-.32.23-.19.45-.45.24-.18.78-.44.23-.22.42-.51.24-.21.23-.11.24,0,.49-.05,0,.16,0,0-.13.22,0,.19,0,.15-.22.1v0l0,.09,0,0-.15,0-.1.12,0,.15.17.28-.12,0-.16,0-.06,0h-.31l-.07,0,.12.21.09.39.07.22.13.18.35.27.15.18.07.24,0,.23-.09.2-.14.2,0,.08,0,.14-.06.06-.06,0-.13-.08h-.06l-.13.07-.11.09-.09.1-.07.13-.11.47v13.86l1-.81.27-.06.31.28.54.63.29.27.54.27.6.09.61,0,.59-.12.48-.16,2.87-1.46.5,0,.23.06.22,0,.49,0,.31,0,.21.09.44.28.4.08,1.46-.15h.23l.88,0,.47-.05.8-.2.38.06.4.11.42.07.68,0,.92.11.44.1.41,0,.18,0,.89.38h.48l.57.16.28,0,.3-.07.32-.12.32-.07.36.1.2.1-.19.28-.14.29-.08.31.06.49,0,.11.1.07h.21l1.68-.34.33-.16.62-.45.51-.17.19,0h.2l.21,0,.16,0,.38-.36.21-.11.56-.05.21-.09.24-.17.22-.22.2-.26.17-.26.31-.71.16-.23.67-.71.42-.78.17-.2.27-.19.36-.17.2-.07.2,0,.34,0,1.41-.06.17,0,.17,0,.23.13.47.37.22.09.4-.1.2-.35.11-.43.13-.36.13-.13.36-.3.15-.18.23-.36.14-.17.18-.16.23-.07.42-.21.49-.17.24-.14.21-.2.16-.22,0-.14v-.09l0-.09.13-.11.11,0h.52l.13,0,.13,0,.09-.08,0-.12-.07-.26,0-.1.17-.09.27,0,.49,0,.22,0,.45.13h.21L81,184l.08-.13.08-.14.08-.09.12,0,.25,0,.12,0,.55-.31,1.91-2,1.56-1.2L86,180l1-.38.12-.07.06-.1,0-.13,0-.12.07-.09.13,0,1.4-.25.72.06.24,0,.23-.08.49-.28.19-.07,1.16-.18.22-.08.37-.24.2-.08.66-.07,0,0,0,0,.06.05h.06l.06,0,.08-.13.05,0,.18,0,.06,0,.15,0,.32.18.16,0,.22-.05.53-.32.21-.07h.38l.49.12h.14l.14-.08.19-.2,0,.08.05.11.06.09.07.05.12,0,0-.1v-.22l.1-.24.07-.05.08.16,0,.11,0,.09,0,.07.11,0,.45-.18h.18l0,.27,0,.15,0,0,.1,0,.1,0h0l.13,0h.06l.07,0,.11.12.06.06.35.23.17.08.22,0h.14l.06-.05,0-.08L100,178v-.16l0,0,.07,0,.14,0,0,0,.14-.15.11-.18,0-.1,0-.19.08-.11.54-.44.16-.19.11,0h.31l.21.08.33.29.17.37,0,0,.16.53.12.14.16.14.14.15.06.19-.05.28-.26.48-.09.26,0,.48,0,.49.11.46.21.62.06.25,0,.52,0,.13.12.27,0,.12,0,.12-.2.31-.12.59-.15.27-.43.21-.17.23-.13.27,0,.22v.1l0,0,0,.05-.28.5-.17.16-.29.07v.08l.15.21,0,.08,0,.05,0,.12v.17l0,.12,0,.11,0,0,0,.13-.08.59v.18l.2.22.21.13.17.18.06.33v.22l-.09.45-.18.55.06.15.47.13.21.14.18.19.1.18.08,1,0,.06.07.07.06.09v.15l0,.1-.08.07-.1.07-.1.09-.19.28v.21l.07.2,0,.26-.09.21-.46.36-.17.2,0,.29.15.19.2.14.11.16-.08.18-.15.11-.11.12v.3l.15.22.25.17.22.13.1.08,0,.15-.21.25-.07.13,0,.13,0,.1.4,1,.32.34.41-.11.3.16.12.1.08.16v.12l-.09.21V199l0,.16.05,0h.09l.14.06.25.17.08.11-.28.09,0,.11,0,.3,0,.12-.09.18,0,.11v.44l.06.17.16.18.22.16.15,0,.09-.11.07-.58,0-.15.07-.1.17,0,0,.12,0,.27.17.16.22.09.18.12.11.38.15.27.06.14v.11l0,.24v.12l0,.26.07.11.12.05h0l.12.06.08.12v.15l-.05.12-.16.24v.21l.07.19.15.14.16.1.19.05.5,0,.25,0,.24.09.26,0,.26-.09.14.06.22,0,.2.08.08.18.06.24.14.23.38.4-.08.17,0,.13.14.06.14,0,0-.1,0-.31,0-.07.19,0,0,.08,0,.19v.1l-.08.15V206l0,.06.1.11,0,0,.13.11.28.18.57.25h.53l.19.16.25.13V207l.18,0,.05,0,.2.16.05.11v.13l0,.27-.06.26-.21.48,0,.21.07,0,.27.09.1.06.1.11.14.25.09.13.16.17.18.14.23.11.28,0,.48-.08.17,0,.13.38.11,0,.11,0,.06,0,.08-.06.13-.13.11,0,.25,0,.21.06.17.11.33.35.13,0,.11-.11.18-.26.18.22.71,0,.26.34.22,0,.37-.13.16,0,.11.1.12.09h.22l.15-.12.08-.11.06-.11.39-.5v-.07l.21,0,.36-.12.16,0,1.7.25,0,0,.65.34.49.41.2.09.26,0h.15l.13,0,.12.05.11.09.1.13,0,.12v.11l0,.12.1.09.1,0,.08,0,0,.14,0,.08.46.33.26.07.14.06.34.26.15.06h.83l.14,0,0-.09.12-.1.24-.18h.06l.14,0h.05l.06,0,.05-.14,0-.06.33-.14,0,0,.14,0,.24.1.35.1.13.16.07.43.06.08.08.06,0,.07-.1.14v.14l.05.05.26.23.13.14.05.13,0,.26.09.24.13.17.15.11.13.05h.11l.11,0,.1-.07.11,0,0,.08,0,.11.63.81,0,.08.06.05.13,0h.12l.09,0,.05.06,0,.11.05.19.15.17.21.14.23.12,0-.23.12-.08h.2l.23,0,.15-.09.12-.1h.15l.23.13.11.1.08.1,0,.1,0,.29,0,.06,1,.44.74,0,.24,0,.16.11.32.39,0,.06,0,.12,0,0h.2l.2.13.09,0,.56.07.16,0,.13-.12.24.1.2,0,.17-.1.44-.11.12,0,.13,0,.32.23v-.28l.13,0,.26.32.12.05.11,0,.07,0,0,.17V219l0,.2.13.17.25.18.52.58.17.08v0l.19.29.06,0,.27.12.2.14.57.56.12.09.24.12.09.08,0,.1.24.81.14.12.26,0,.24,0,.24-.09.23,0,.23.1.23-.15.27-.1.29-.06.84-.08.11,0,.32.3.13.07.55.12.53-.06.51-.19.8-.41h.18l.18.07.43.08.25.16.14.05h.13l.26-.08.79,0,.11-.07.07-.23.17-.12.51-.08.05,0,.14-.09.15,0,.07.12v.48l.23.25.52.1.58,0,.38.08.22.21.09.06.82.35,1.76,1.38.41.23.27,0,.08,0,0,.06.07.14.05.06.11.05.89.22.21.12.09.23,0,.32.07.33.1.32.13.26.09.1.26.21,0,.07-.06.13.07.08.12,0,.07.05,0,.1v.07l-.1.23-.15.57-.12.26-.21.18-.29.08-.08.07-.06.16,0,.27,0,.28.05.16.15.28v.3l0,.34,0,.33.12.22.64.53.11.2.17.77.39.86.06.5-.37.12.2.4.57.4.16.27,0,.73.05,1,0,1,.05,1,0,1,0,.79-.06.14-1.35,0-2.29,0,.63.55.82,1,1.28,1.53,1.08,1.29.17.27.1.3.15,1.82.21,2.46.16,1.81.08,1.32.09,1.39.22.52.37.1.82,0,2.25.09,2.26.08,2.25.07,2.26.09,2.24.08,2.26.08,2.25.09,2.26.07.85,0,.27,0,.24-.12.09-.12.16-.3.09-.06h.51l.12.11.06,1.2,0,.16-.28.24V258l.25.44-.16.45-1.18,1.35-.2.37-.09.42,0,.53.25.93,0,.47,0,.09-.11.22,0,.12v.14l.13.61.19.38.08.22.07.85.06.2.13.21.05.27,0,1.1.07.47.21.36.44.25.38,0,.11,0,.13.07.2.18.12.08.1,0,.19,0,.1.05.13.18.2.41.18.14.17,0,.13,0,.13,0,.15.1.32.35.13.1.42.18.15.08.51.42.34.15.45.11.45,0,.33-.1.28,0,.21,0,.25.11.17.17.12.27,0,.31,0,.29,0,.2V273l0,.23.1.23.12.16.15.15.17.12.2.08-.1.38,0,.14.21.27.17.3,0,.22-.38,0,1.11,1.91.6,1.51.41.75.48.27h.23l.2,0,.11.12,0,.27-.82,0-.21.05-.15.14-.19.61-.56,1.77-.56,1.77-.55,1.77-.56,1.77-.13.43.47,0,.13.1,0,.25.06.73.08.54-.67.06-.2.13-.28.57-.36.77-.81,1.69-.81,1.7-.37.77h0l-.15.31-.31.67-.33.68-.14.31-.41.89.08.34.91.82.95.87,1.19,1.09-.12.16-.13.21-.17.19-.27.12-.3-.07-.19,0-.08.06,0,.11-.08.1-.12.07-.13,0-.3.12-.37.53-.31.12-.08,0-.14.22-.07.08-.15.08-.5.18v.2l.07,0h.1l.08,0,.08.08.12.15,0,.13-.44.15-.08.2.08.24.22.16.07,0,.06-.07.07-.08h.12l.08.05.09.09.06.12-.11.35,0,.32.08.3.09.22.18.22.26.2.27.13.22.06.17.1,0,.23-.19.36,0,.25v.33l.06.3.13.3v.14l0,.28,0,.17.15.24.06.14v.14l-.09.24v.14l.07.15.12.08h.1l.11-.44.16-.09.18,0,.17.11,0,.08.07.19.05.08.07.07.19.13.1.1,0,.11-.08.1-.15.06-.25.06-.09.07-.14.14-.18.14-.08.12.08.07.3,0,.24,0,.2.13.13.19,0,.23-.12.13-.49.27-.11.16,0,.15.08,0,.09,0,0,0h.06l.27.22.27.3h.08l.05-.22.22.19,0,.27-.11.3-.32.49v.18l.19.38.08.56-.06.59-.16.54-.27.4-.34.24-.05.1,0,.16.07.09.07.07,0,.07.1.13.18.06.14.13-.1.33-.79,1.21-.18.44-.05.26v.28l.1.22.22.1.12.1-.09.26-.15.28-.09.22.05.21.13.23.15.18.13.08.06.12-.52.85v.24l0,.23v.25l-.16.27-.08.22.12.18.16.21.09.29-.06.16-.27.52-.12.11,0,.12-.26.75,0,.17v.19l0,.13.16.09.13.11.1.21.15.16.4.12h.13l.2-.08h.09l.1.06.16.18.06,0,.14,0,.19-.16h.13l.11,0h.1l.14-.08,0,0v-.07l0-.07,0,0h0l.11,0h0l.24-.08h.16l.16,0,.24,0,.13,0,.09-.06h.08l.11,0,.18.51.14.26.16.15.21.06.27-.05.11,0,.05,0,.06,0,.15,0,.09,0,.28.17.45-.1h.11l.24.1h.13l.17.07.39.24h.08l0-.08.1,0,.18.1h.14l.05-.06,0-.08,0,0h.19l.52.13.23,0,.29-.26.16,0,.06.05,0,.19.08.07h.11l.07,0,.07-.05.09,0,.19,0,.36.14.11.05v0l0,.06.05.05.21,0,.07,0h.07l.09,0,.14,0,.38,0h.19l.3.09h.12l.14-.09,0,.21.06.05.1,0h.12l.2.11h.13l.12-.33.14.19.12.31,0,.17.28,0,.15,0,.28-.3.08-.12v-.08l0,0,.17.06h.09l.38-.12.09,0v.05l0,0,.12-.08,0-.09.11-.23,0-.05.21.1.4.47.19,0,.05-.1-.13-.23.08-.08.13,0,.09-.05.4-.29.13-.14.2-.36,0,0,.09,0,0-.06.06-.2,0-.08.18-.27.11-.11.12-.11.21-.07.85-.15.17,0,.12.13.31.78.28.42.36.34.66.4.35.34.2.12.21.06,2,.09.15,0,.15-.09.16.09.18.13.18.1.74.07.22.13,0-.09.13-.27.59.82.48.36.12.13.1.31,0,1.07.08.47.2.41.31.33.4.22.23.09.16.09.1.15,0,.26v.1l-.07.21v.12l0,.11.08.2v.11l-.12.42-.2.38-.16.39,0,.47.27,1v.22l-.07.43,0,.21.32.36.13.21.06.24-.06.47v.21l.13.17.33.2,0,.11.26.95v.22l-.27.58,0,.22.08.29.36.38.13.24v.39l-.33.72,0,.44.09.43,0,.46,0,.43.23.34.52.56.25.8L220,352l.12.33.26.28.37.17.74.06.37.08h0l.42.16.43.09.41,0,.41-.21h0l.3-.16h.74l.36-.1.21-.1.4,0,.2,0,.2-.12.26-.35.15-.15.77-.44,1.54-.54.21-.11.29-.32.18-.09.32.09,2,1.14.25.17.65.92,1.11.67.33.18-.24.2-.42.3-.28.37-.11.4,0,.2.16.41.05.49.1.15.27.38.1.29.16.4v.38l-.11.4-.15.28-.47.69-.13.42v.39l.16.89V361l-.59,1.79-.34.5-.09.21-.54,2.35-.11.45,0,.24v.23l.1.25.3.49,0,.25-.11.23-.4.37-.14.23-.26.85-.3.47-.22.28-.33.31-.27.49-.14.46,0,.15v.27l0,.29.11.24.09.25,0,.31-.07.31v0l.47-.06.17.06.07.16v.18l.08.13.25-.06.23.1.22.16.15.21,0,.28v.12l0,.14.07.07.13,0,.05-.11-.06-.27v-.14l.06-.11L232,374l.1-.09,0-.12v-.27l.09-.11.11-.06h.1l.21.08.12,0,.19-.27.14-.09.26,0,.19.05.12.16.13.28.08.12.07-.08.08-.2h.17l.22.07.24,0-.06-.23-.23-.41.09-.05.12,0,.22.08.16,0,.12-.07.31-.37.07-.05.07,0h.06l0,.06,0,.25-.1.21-.07.21,0,.26.06.12.1.12.13.09h.11l0-.08,0-.15,0-.15v-.12l.08-.11.12.07.2.2.15,0,.07-.05.08,0,.16,0,.23.13.15.19.08.23,0,.27.1.34.23,0L238,374l.15.14.12.28.13.48,0,.11-.05.09,0,.12,0,.17.07.13.23.23.1.13.11.24,0,.23,0,.77.14.7v.13l0,.12,0,.12,0,.17.09.13.39.36h0l.33.36.14.4.08.43.15.45.57.81.23.41.05.53-.14.43-.5.72-.1.38.14,1.23v.4l-.17.15-.09.09,0,.1,0,.12,0,.14,0,.08,0,0,0,.23-.15.45V387l.06.5,0,.24-.08.24-.09.08h-.12l-.09,0,0,.14.05.17.11.08.09,0,.06,0v.13l-.08.18V389l0,0H240l.05,0,.13.49.14.78,0,.4-.14.47-.52,1.11-.06.08-.08.05-.19,0-.05.05-.06.17,0,.38,0,.18,0,.08-.17.11,0,.07v.1l.11.13v.11l-.13.22-.14.09-.08-.08-.11-.21-.13-.2-.16-.08-.1.09-.11.42-.11.13-.19,0-.15-.15-.15-.1-.16.09,0,.17.07.18v.14l-.24.05-.07,0,0-.05-.06,0h-.1l-.06.07-.09.25-.87,1-.43.05-.35-.12,0-.29-.1-.09-.15-.1-.14.23-.34.91-.06.09-.06.09,0,.12,0,.26,0,.12-.08,0-.14,0-.12,0-.06.13,0,.11-.08.13-.08.11-.05.05h-.24l-.17-.12-.15-.19-.17-.15,0,.43,0,.12-.08.14-.11.1h-.09l0-.11-.05-.3-.11-.15-.19-.05-.47,0-.2,0,0,.14.2.3v.18l-.25.15-.77.22h-.11l-.13-.06,0-.06-.12-.24,0-.05-.09,0-.06,0h-.07l-.11.09-.08.11,0,.15-.06.24-.13.25-.16.15-.14,0-.06-.24,0-.06-.07,0-.09.08,0,.14v.28l0,.06-.1.06-.11,0-.27,0h-.11l-.5.17-.08,0v0l-.08-.1,0,0-.05,0,0-.06,0-.08,0-.05-.07-.15-.15,0-.16.13-.11.12-.07.27,0,.34-.09.27-.24.13h-.29l-.1,0,0,.5-.06.57-.06.31-.08.12-.23.1-.62.55-.29.05-.21-.08-.2-.1-.24,0-.19.09.11.22.37.33.17.28,0,.13h-.2l-.26-.15-.12.06h-.26l-.11,0,0,.08-.1.37-.24-.05-.25-.25-.2-.06-.24.09-.17.22-.13.23-.43.34-.12,0-.13,0-.24-.1-.15,0-.19.18,0,.24-.05.22-.25.1h-.12l-.09,0-.06.08v.4l0,.07-.08.14-.53.62-.07.1-.28.09h-.14l-.08,0,0-.08-.07,0-.16.06,0,.07-.12.31-.06.05-.15.11-.07.07,0,.1,0,.11-.05.07-.13,0-.15,0,0-.11V407l0-.08-.27-.06-.14.17-.09.22-.1.12-.12.07-.49.48-.76.26-.29.22.07.34.14.11.48.21.15.05.17.07.12.16.16.33-.16.63-.08.19-.12.16-.14.1-.11,0,0-.27-.19-.25-.43-.12-.49,0-.36-.09-.53.22-.22.2.07.27,0,.12v.72l-.05.06-.1.07-.1,0-.38,0-.33.17-.39.1-.11.19,0,.23,0,.25,0,.52-.22.32-.74.52-1,1.29-.4.26-.55.11-.24.11-.11.22-.07,1.15-.26.46-.82.49-.23.52v.55l-.05.26-.15.25-.19.11-.81.21-.42.22-.42.3-.39.38-.32.48-.08.18-.07.19v.2l.08.18-.12.26-.19.57-.14.22-.2.2-.15.1-.42.21-.11.07-.08.09-.07.1L204,424l0,.14v.27l-.19.11-.1.15-.06.17,0,.13-.05.1-.92.83-.08.19-.09.11-.47.39-.17.19-.16.47-.35.37,0,.14-.09.14-.87.93-.22.19-.24.08h-.53l-.49.08-.51.19-.35.31-.2.45-.12,1.59-.07.21-1,.8-1.12,1.42-.51.35-.23.09-.52.08.3.29.23.71.37.25.3,0,.52-.09h.28l.16.09.17.27.19.05.11-.05.28-.25.15-.07h.23l.15.1.12.11.18.07.09,0,.15-.18.07,0,.09.05.15.16.06,0,.38-.08.34-.27.24-.39.07-.42.08-.35.25-.44.33-.4.29-.2h.12l.23.11H201l.23-.12.08,0,.43-.09h.24l.58.16.44-.07h.44l.43.29.22.37.11.14.74.51.37.17.19.14.19.17.1.19,0,.27,0,.15v.08l.2.12.12,0h.11l.11,0,.13.08.07.07.11.17.44.5.14.13.2.18.62.4.21.2.28.48.17.23.16.14.54.31.7.58.39.19.24.23.37.45.06.15,0,.14.06.14.13.11.23.15.1.09.08.12.39.77.18.22.77.63.2.37.07.41-.06.41-.21.37,0,.3v.9l-.07.63v.3l.12.2.31,0,.79,0,.36-.07h.28l.12,0,.1-.07,0-.07,0-.08.07-.1.64-.43L216,446l.09-.2.13-.48.15-.18.23,0,.29.07h.26l.16-.13,0-.27,0-.56.06-.24.18-.19.25-.06.25.07.33.39.43.25.2.15.26.33.55.49.88,1,.17.26.06.22,0,.49.09.24.12.13.4.25.14.22.15.57.11.25.18.21.2.13.46.18.23.13.56.52.23.15.18,0,.15-.08.16-.22.22-.45.16-.05.2.26.2.33.3.41.35.34.48.22.14.16.14.18.15.15.16.11.36.14,2,.28h.41l.18.06.15.16.2.43.14.19.63.5.17.19.14.25,0,.25,0,.56.16.41.32.3.39.29.36.33.36.43.81.74.66.47.59.54.27.2.13,0,.11-.14.22-.21.22-.08.24,0,.22.1.2.15.07.09.11.21.11.09.11.05.39,0,.2.06.18.08.33.23.14.15,0,.14,0,.15.07.14.12.14.16.14.32.21.7.15.17.11.07.19v.49l.35.81.6.89.14.39.08.48,0,.7.06.23.11.19.3.26.12.17.2.37.25.33.28.28.75.53.69.78.67.23.51.31.2.06h.39l.39.25.38.18.18.13.78.85.11.2,0,.27-.16.19-.43.34-.48.61-.79.58-.34.35-.09.26,0,.52-.08.26-.13.15-1.44,1-.41.35-.33.46-.31,1,0,1,.26,2.12-.27,2.32,0,1.27.33.58h.24l.21,0h.2l.19.13.11.23.09.25.14.16.4,0,1.33-.9.85-.81,1.22-1.3,2-1.76,1.2-1.13.89-1,1.17-1.58.27-.49,1.79-4.23.33-1.61.8-2.62,1.45-3,.29-.44,1.19-1,.43-.16v-.16l-.11-.44v-.22l.16-.55-.18.17-.44.55-.19.05-.15-.3.25-.32.58-.39.2-.17v-.08l-.15-.08h-.16l-.19.06-.16.11-.07.17-.13.21-.33.19-.38.11-.28-.08.31-.18v-.15l-.21-.09-.35,0,.08-.21,0-.27,0-.52.1-.21.21-.13.26-.09.21-.14.11,0,.28.07.09,0,.06-.13,0-.12-.08-.1-.07-.07-.09-.05-.26-.06-.06,0,0-.07-.28-.36-.3.15-.16-.25,0-.29h.25v-.18l.06-.14.07-.12,0-.12,0-.09-.12-.27,0-.17.07-.3.18-.19,1.27-.5.22-.14.17-.21.16-.29.09-.31-.05-.2-.21,0-.18.06-.13-.05-.05-.4,0-.14.1-.11.12-.07.12,0,.12.1.08,0,.07.06.09.15,0,.1.05.37.14.3.08.12,0-.09.05-.21.19-.7,0-.11-.14-.2-.06-.16v-.16l.06-.29,0-.16,0-.92,0-.27.06-.15.07-.08.43-.34.1-.12-.05-.06-.12-.05-.08-.13v-.13l.12-.06.16,0,.1-.09.05-.1.06-.06h.24l.3.05h.23l.21-.39.24-.14.28-.07h.2l.52,0,.26,0,.23-.15.11-.05.12,0,.13.05.13,0,.17,0v-.08l-.13-.17,0-.45.09-.53.23-.44.39-.18.25,0,1.5-.53-.33-.39-.16-.55,0-.62.1-.62.1-.28.16-.17.22-.08.28,0,.5.06.11-.1v-.34l-.06-.31-.15-.52,0-.25,0-1.6L268,441l.22-.09h.3l.12.08.1.57.27.77,0,.38-.29.07.19.31h.2l.14-.2,0-.36,0-.28-.21-.9,0-.62,0-.58.11-.56.32-1.07.25-.5.34-.35.46-.07.11.05.14.12.07,0,.1,0,.14-.09.12-.1.05-.11,0-.26.06-.2,0-.09-.25,0-.61.21-.26,0-.1-.32,0-.38,0-.19-.07-.13-.06,0-.23.25-.12.09-.11-.22-.39-.14-.14-.21.32-.37-.21-.32-.07-.05h-.11l-.22.07h-.12l.21-.36,0-.15,0-.14-.05-.15,0-.14.05-.13.08-.13,0-.12v-.31l0-.06.06-.13v-.09l0,0-.06,0-.06,0,0-.08,0-.09.21-.42,0-.16v-.18l.14,0,.12.13v.26l0,.19.25-.1V433l-.14.45v.22l.08.13.15.1.13.16,0,.27,0,.12-.16.19,0,.06.06.09h.07l.1,0,.1,0,.35.13.11.12-.05.21.41.32.22.11.09-.1.13-.07.29-.08.26.06.06.32h.07l.14-.11.13.09.1.2,0,.24,0,.12-.06.09-.08.08-.08.13-.07.16,0,.07,0,.19.05.25.15.1.21.07.23.09.57.5.25.06-.18-.51,0-.25.05-.36.07-.28.12-.23.18-.08.27.13.21,0,.68.08.08-.28.16-.13.22,0,.77.05.28-.07.12-.19.08-.19,0-.14-.06-.13-.13-.11-.08,0,0,0,0-.14h.05l.28-.36.14-.08.13,0,.13.05.13.09.06.13.13.33,0,.06.45.27.06.22,0,.36v.36l-.21.8-.15.26,0,.16.07.33,0,.23-.09.15-.42.32-.17-.16-.18-.22-.15-.26-.05-.26,0-.11.06-.09.05-.09,0-.08-.37-.33-.16-.2-.09,0-.15,0-.19.12v.1l.06.12.09.4.22.52.06.24.12,2.43-.15,1.17-.46.9-.15.15-.2.16-.23.12-.47.09-.89.75-.23.11-.3,0-.12,0-.16-.07h-.12l-.06.06.08.15.18.25,0,.61-.2.58-.12.5.2.39.13,0H273l.1,0,.05.16-.06.05-.14.05-.14.08-.07.14,0,.16-.05.1-.08.06-.13,0-.11-.05,0-.12v-.74l-.09-.1-.22,0-.18.05-.36.18-.23.05-.43-.16-.22,0-.11.14v.21l-.09.58-.06.2.25.86,0,1-.26,1-.36.79-.41.66-.14.11-.37.24-.17.17-.38.24-.51.1-.42-.12-.11-.45-.15.16-.16.27-.12.31-.06.25.15.53,0,.25-.11,0-.32-.45-.18-.11-.07.31-.08.26-.39.32-.18.39-1.25,1.41-.46.32-.46,0-.5,0-.57.12.24.39-.26.36-.52.23-.51,0-.94-.66L260,457l-.46.27v.42l.73.85.17.43-.15.23-.24.13-.13.16.16.3.08.25,0,.34-.09.31-.07.19-.29.5-.09.32.09.28.1-.07.43-.74,1.69-2.15.31-.31,3.55-2.14,2.83-2.41,2-1.69,1.39-1.42,1.78-2.18.66-1.07,1.26-1.34,1.45-2.24.07-.14.07-.28,3.21-5.33.76-1.89.53-1.66,1.91-5.26.57-.68.75-1.76.88-1.43.59-1.16,3.05-4.26,2.48-2.75,3.38-2.75,1-.58.26-.27.17-.13.34-.11.33-.19.16,0,.53-.08.13-.05.09-.14.13-.28.37-.48.1-.2.07-.23-.13,0-.09.06-.11.11-.13-.06-.11-.09-.11-.13-.42-.23-.1-.11,0-.05v-.06l0-.1.05-.12.06-.12.06-.11V411l-.09,0h-.26l-.06-.1,0-.13.11-.12,0-.12,0-.15-.13-.28v-.17l.11-.34.17,0,.18.2.15.11.32.33.05.14,0,.15-.13.21,0,.32,0,.27.12.24.15.23.12.06.11-.06.05-.13-.05-.15v-.14l.06-.16.17-.29.14-.51.08-.18.33-.39v-.4l0-.33,0-.13.43-.41.19-.22-.23-.24,0-.3.15-.57.09-.54.13-.4,0-.11,0-.08.08-.07.09-.09,0-.12,0-.18-.05-.09-.06-.06,0-.08,0-.27.11-.78.09-.2.35-.52.05-.24-.06,0h-.11l-.1-.05-.05-.14.05-.05.08,0,.09,0,0-.1-.12-.17-.43-.46-.06-.09-.06-.05.07-.11.13-.09.06,0,0-.13-.16-.21,0-.07,0-.26,0-.27-.08-.24-.11-.19.14-.19.25-.28.23-.15.11.17.09-.26v-.23l-.13-.17-.24-.07-.44-1.05,0-.25.09-.18.13-.14.15-.11.14-.05.14,0,.09-.06,0-.16v-.14l0-.13,0-.1.07-.13,0,.07.12.2,0-.6-.07-.23-.13-.17-.41-.08h0l0-.07-.09-.52v-.19l0-.11.05-.07.09-.12.4-.32.05-.06.1,0,.22-.15h.12l.16.09.06.12,0,.11-.18,0,.08.16h.1l.13-.05.15,0,.08-.07v-.16l-.12-.31.09-.06.06-.06.1-.16L302,394l-.12-.23-.11-.15-.21.12-.07.13-.06.14-.08.1-.16.05-.17,0L301,394l-.23-.6,0-.14.08-.11.12-.48.11-.22,0-.23-.2-.26,0,0h-.08l-.11,0-.11-.14v-.6l0-.06.05-.12v-.09l0-.07-.12-.12v-.08l0-.42,0-.17.06-.2.14-.23.14-.2.17-.12,0-.11,0-.14-.05-.11-.12-.05-.26.08h-.14l-.53-.42-.09-.11,0-.15v-.75l.09-.89.13-.51.59-1.3.08-.27-.1-.12-.15,0-.08-.09-.05-.12v-.16l0-.16-.08-.11-.11-.08-.73-.34-.09-.13-.1-.2-.23-.11-.48-.08.07-.12.11-.07h.15l.15,0-.25-.37.13,0,.09-.06,0-.11-.06-.12,0-.15.09-.32-.06-.16,0-.05v-.22l0-.09-.07-.06-.08,0-.05,0-.05-.12,0-.13v-.14l.08-.15-.16-.33,0-.26.09-.06.08.36.11.13,0,.11v.27l.06.23.16.34.06.2,0,.31.11.16.25.12.3.05.22,0,.16-.14.1-.21.14-.19.22-.08.28-.06.11-.15v-.2l-.21-1.13-.12-.22,0-.18.1-.23.22-.36.08-.44.24-.78,0-.15,0-.14-.07-.19h0l-.05.05-.09.06h-1.94l-.09.05-.1.09-.08,0-.05-.08v-.17l.08-.1.11-.06.12,0,1.09-.09.8.13,0-.05-.07-.17-.08-.11-.08-.09-.1,0-.15,0,.08-.12.12-.08.14,0,.15,0,0,.07-.06.2.15.06.18.25.19.06.08-.08.21-.56v-.35l1-1.93.52-.35.33-.32-.31-.35-.23.14h-.21l-.19-.05h-.18l-.11.12-.08.17-.13.08-.25-.1.08,0,.08-.06.17-.17-.08.09,0,0,.11-.14-.19-.1-.23-.17-.22-.11-.41.16h-.23l-.21,0-.13.21-.1-.18-.16-.07-.16,0-.14-.07.06-.12.07-.06h.09l.11.08,0,0,0,0,0-.1-.37,0-.37.08-.33,0-.22-.37.28.08h.2l.07-.14-.15-.29,0,0-.13-.07-.07-.06,0-.07-.06-.21-.2-.51,0-.21.14.11.46.6.1.09.57.41.14.07.57.16.15,0,.06-.16.12.06.12,0h.12l.12-.08.23.28.11.06.19,0,.14-.06.05-.15,0-.18.07-.15.11,0,.14,0,.11-.06,0-.23,0-.08-.16-.2-.05-.12-.2.08-.07-.08.06-.15.21-.13-.14-.14-.2-.06-.4-.06v-.09h.21l.39-.1h.21l-.28-.77,0-.21.05.05,0,0,0,0,0,.08h.09V369l.12.13.12.27.08.14.28.19.19.08.09-.05v0h.07v0l0-.05-.06-.06,0,0h0l-.08-.1v-.06l.11,0,0-.08.12-.16.15-.18.15-.11v.2l-.07.34-.05.63,0,.15.1-.08h.08l-.17.45h.17l.14-.09.11-.12.14-.24,0-.09v-.34l.11.09.18.22.11.06.09,0,.16-.19.11,0,.25,0,.29-.06.26-.11.14-.17.15.14-.12.13-.52.22-.24.15-.08.07-.13.14,0,.06v.16l-.29.77,0,.23.1.26.2.15.19,0,.14-.53.27-.47.07-.16.91-.57.09-.19.08-.22.1-.18.57-.7.21-.15.6-.17.35-.56.42-1.31h-.18l-.16,0-.14.08-.13.12-.13.07-.16,0-.27-.09-.25,0-.31-.08-.22-.13v-.21l.09.12.1,0,.1,0,0-.15V366l.08-.06.52,0,.14.05v.13l-.13.06-.18,0-.16,0-.09.21.58.07.31-.2.49-.95.07-.1.08-.05.08-.05.08-.06.29-.4.19-.2,2.27-1.8.59-.31.29-.24.22-.13.12-.19h.15l.26.07.32-.16.18-.05.14.05,3.09-1.91.53-.57.16-.07.31-.31.18-.08.11-.07.25-.54v.28l.18,0,.23-.11.19-.16V358l-.12-.31,0-.05.07-.07.14-.46.26-.41.35-.34,1-.58,1.33-.66,1.76-1.13,1.48-.64.74-.4.1,0,.07,0,.05.08,0,.1.12-.07,0-.11v-.3l-.06-.1h-.3l-.13,0-.05-.07-.1-.25,0-.08,0,0-.11,0-.11-.08-.05-.16.25.07.27,0,0,0,0-.11v-.09l.15,0,.12-.12,0-.23,0-.16.32.06v.1l-.07.11.07.08.14.05.33.05.14.08.08.13,0,.16,0,.11.1.13.09.15v.18l-.1.14-.3.12-.09.18.36.07.23-.14.17-.18.23-.13.15-.06.16,0,.08.06.05.12.12,0,.14-.06.1-.12,0-.12,0-.23,0-.25.06-.19.11-.19.46-.52H330l-.16.08-.45.47-.17.1-.19.05h-.26v-.09l.36-.11.3-.18.24-.26.16-.34h.08l0,.07,0,0,.44-.18.23-.11.22-.06.28.07h.12l.11-.23.12-.13.22-.14.39-.16,1.08-.27.48,0,.1,0,.25.11.14,0,.77,0,.77.24h.24l.06,0,.05.1,0,0h.13l.4-.08.26.07.27.35.24.11.12,0,.24-.13.16,0,.11,0,.09.05.11,0h.15l.23-.14.14-.22,0-.25-.11-.23,0-.12.09-.28v-.18l-.08-.06-.11,0-.1-.05,0-.17,0-.14-.06-.27v-.16l0-.14.14-.17,0-.14.29.09.24-.1.23-.16.25-.08.07-.06.11-.13.12-.12.15-.05.12,0,.18.18.14,0,.35-.15.14,0,.12-.07,0-.14-.13-.23.16-.25.21,0,.22.09.22,0-.06-.18,0-.21.05-.15.15.05.13.12.13.09.14.07.13,0-.08-.23.07-.08.13.08.12.23.24-.54L343,346h.31l-.15-.19-.22-.1-.13-.13.09-.29.08.13h.1l.23-.13.09,0,.15,0,.09,0,.06-.07.08-.16.05,0,.14-.15.4-.24.32-.1-.08.3.17-.06.08,0H345l.12.05.05.1,0,.12.07.08h.21l.16-.11.16-.07.21.1.19-.08.22,0,.17-.06.07-.19.27-.11.36-.06h.32l.18.08.18,0,.18.09.21.05.24-.21.26-.44.21-.16.27.08-.11-.29-.27-.09-.3-.05-.21-.19.09,0,.05-.06.09-.15-.32,0-.2.06-.16.13-.17.18-.22.31,0,0,0-.16.05-.13.1-.15.18-.2-.18-.09-.19,0-.17.11-.11.12.08-.24.55-.44-.22-.11-.24.11-.28.2-.22,0-.07-.36,0-.15.11-.39.11-.22,0-.08,0-.08,0-.09.32-.62.21-.21.3-.1h.38l0,.07,0,.12,0,.07.82-.39.57-.09.34-.12.26-.16,0-.19.2-.43.14-.14.15.13,0-.05h0l.09,0,0,.09.09.11,0,.08.09-.13.1-.08,0-.12L351,339h.26l.12,0,.11.06-.15.1,0,.07.08.05.05,0,.06.18v.12l-.09,0-.26,0-.15.11,0,.17.27.2.08-.09.07-.07.17-.1,0,.23.11,0,.21-.2.25,0,.1.05,0,.11,0,.43.07.05.2,0,.16-.15.12-.06.05.07,0,.13H353l.07-.05.09,0,.18-.14.07,0h.28l.15-.08.31-.36.11-.09.21-.49.07-.12.17,0,0,.1,0,.19-.08.2.22,0,.13-.16.09-.17.09-.08.11,0,.34-.16.15-.05.61-.1.11,0,.34-.17.17,0v.09l-.17.08.24.07.24,0,.18,0,.07.26.11,0,.53.08.17.06.07.08.14.26.12.11.09,0,.13,0,.13,0,.06,0,.09.13.22.13.26.09.24,0-.26.21-.52.17-1,.16-1,0-.43-.1-.27-.23-.1.37-.06.07h-.13l-.28-.14-.12,0h-.44l-.17.09-.08.27.05.27.18.08.23-.06.23-.16L356,341l.24,0h.5l3-.35.48.09,0,0,.13.2h.07l.07-.07.07-.09.08-.07.54-.24.57-.16,2.69-.3.28-.11.31-.21.22-.24v-.23l-.13.09v-.16l0-.24,0-.17-.13-.11-.47-.28,0,0,0,0,0,0,.06,0-.11-.05-.08-.07,0-.1v-.12l0,0,0,0,0,0,0,.07h-.09l-.36-.7-.05-.26.06-.28.18-.13.23,0h.23l.48-.33.28-.16.13,0,.14,0,.08,0h.09l.14-.06.1-.08.13-.19.1-.08.11.07.29,0,.16,0,0,.09.05.32v.12l-.05.28,0,.07-.08.07-.25.11-.07.14v.1l.09.05.22,0-.55.49-.24.29-.1.31-.2.28,0,.15.18.06.18,0,.09.08V339l-.13.13-.09-.05-.07,0-.16,0,.1.13.24.16.14.15.19-.12.2.11.3.27,1.17,0,.82.06,1.11-.1.87,0,.11,0,.14-.17.07,0h.15l.38-.09,1.09-.06,1.84,0,2.39.18,1.38,0,.14.05.22.23.17.07.11-.29v-.14l-.05-.19h-.07l-.11.15-.1-.14,0-.27.07-.26,0-.09.05-.05.07,0h.12l.08,0,0-.09v-.11l0-.21v-.12l0-.09.08,0,.09,0,.35-.15.28-.34.14-.09.23.08.06-.16.1-.1.08-.13v-.23l-.11.06-.26.06-.11,0-.17.2-.11.08-.05-.05-.1-.14-.42-.48-.12-.2-.06-.54,0-.62.12-.57.23-.37.43-.2.21-.15.1-.22,0-.06.09-.08.13,0,.1,0,.06-.07.22-.45.18-.17.38-.22.21-.17.07-.11,0-.22.06-.11.35-.32.88-.6,1.32-.63,1.06-.37,1.42-.39,1.18-.43,1.24-.54,1.72-1,.27-.35.06-.5-.46-1.57-.12-1.1,0-1.08-.06-.55-.46-.86L390,321l.06-.22.09-.18.27-.38.33-.7.31-.4.09-.22,0-.19,0-.21v-.2l-.06-.16,0-.53.22-.46,1.14-1.29.05-.19,0-.14.1-.23,0-.2.06-.13v-.07l.05-1.12.07-.14.13-.06.1-.14.09-.15.18-.23.1-.19.09-.09.22-.13.59-.25.2-.05.06,0,.13-.05H395l.06.13,0,.14.08,0,.13-.15.14-.1.12-.13.35-.55.1-.13.26-.2.12-.15.48-.85.1-.12.28-.27.22.15.17-.17.26-.58.56-.87.15-.55.28-.49.12-.58.14-.25.19-.21.18-.16-.27-.09-.22.07-.19.12h-.13l.09-.09h-.27l-.22-.09-.1-.16.1-.25-.08-.05,0,0-.05,0v-.09h.23l.07-.12-.06-.17-.16-.13.39-.07h.24l.19.06.08.15-.06.36.14.1.08-.05.07-.13.09-.08.12,0,.11.12,0,.05,0,0,.11-.11.12-.2.23-.54.1-.12,0-.11.19-.81.11-.24,0-.12,0-.13-.11-.24,0-.1v-.19l.1-.12.09-.06.1,0,.09-.06.17-.64,0-.16h-.27l.19-.17.52-.18.11-.21,0-.23.68-1.64.2-.23.69-.51,1.38-.61.33-.25.24-.43.91-2.32.1-.5,0-1.7-.25-1.86-.26-2.34,0-2.74.24-2,.77-3,.41-1,1.49-2.32.58-.71.38-.32.42-.23.81-.16.29-.2.1,0,.07-.05,0-.11,0-.15,0-.13.12-.19,1.29-1.35.14-.39-.11-.28-.24-.28-.2-.41-.05-.28,0-1.56,0-.27-.22-.59-.11-1.07.11-1.63.08-.23.21-.36.18-.48.23-1.54.3-.65,0-.07v-.17l-.14-.28,0-.13v-.55l.52-1.75.37-2.2.12-.26v-.12l-.05-.13.42-.66.14-.29v-.4l0-.34,0-.29.09-.27.48-.86.05-.19.06-1,0-.18.18-.35.06-.18v-.23l.29-.79,0-.26.06-.18L416,251l.06-.18,0-.13-.16-.26-.06-.12-.07-.36,0-.1-.15-.21-.22-.51-.23-1.84-.36-1.91-.07-1-.26-1.12-.09-3.18-.16-.85,0-.53,0-.51h-.09l-.11,0h-.1l-.07-.08V238l.09-.06.14-.05,0-.16-.17-.16,0-.15-.16-1,0-.24.11-.4.06-.36.21-.65.09-.92.24-.58v-.21l0-.18v-.16l.1-.12-.07-.17.05-.12.1-.14.08-.15v-.16l-.09-.38V231l0-.18.22-.36,0-.15,0-.29,0-.15.07-.14.15-.24.27-1.19-.07-.25v-1l-.06-.11-.16,0-.18.09-.12.08-.11.15-.08.17,0,.11.2-.05-.06.12,0,.05.14,0,.1,0,.06.07,0,.14,0,0-.12,0-.05,0,0,.07,0,0,.05,0v.06l-.07.22,0,.14.06.07.09,0,0,.12V229l0,.1-.54.28-.25.1-.22,0-.24.13.07.28.28.51H414l-.07-.18-.12-.07-.13-.06-.1-.12,0-.16,0-.15.08-.11.07-.07-.15-.17,0-.12.21-.2.17.19.14,0,.46-.07.09,0,0-.1,0-.12-.15-.27v-.12l0-.11v-.16l-.05-.14-.13-.19-.17-.17-.23-.1-.19-.12-.08,0-.09-.39,0-.11.09-.32.22.1.16,0h.31l.11-.06.06-.14,0-.15-.4-.13-.13-.18-.21-.41-.13-.15-.52-.26.06-.11,0-.11,0-.1-.06-.1-.34.25,0-.08.09-.22.1-.12.25,0,.14,0,.09,0,.06.34h.08l.06,0,.09.08.08.06.08.06.09.13,0,.13,0,.14.05.14.08.12.22.21.12.07.15,0,.1,0,0-.09-.12-.19,0-.22,0-.75.07-.27.12-.22.1-.22,0-.31-.12-.27-.14-.22-.11-.24,0-.32,0-.1.07-.08.05-.07,0-.08-.09-.14-.05-.22-.05-.09L414,222l-.26.12-.18.28-.07.28,0,.59-.11.18-.34,0v-.08l.28-.07.09-.18-.05-.54,0-.24.07-.23.1-.19.13-.11-.09-.36.07-.5.27-.81,0,.11v.2l0,.11.35-.08h.13l.11,0,.29.19.12-.09,0-.19-.17-.37.09-.24.07-.49.11-.23.19-.16.67-.46.28-.32.12-.09.13,0h.13l.11,0,0-.12-.81-.21-.1-.05-.07,0,0-.07,0-.08v-.14l0-.16.07-.14.12-.06.26,0,.26-.13.23-.16.17-.15.17-.2.23-.34.14-.17,0-.1v-.39l0-.15,0-.1.06-.08.07-.18,0,0,.11-.08-.16-.07-.17,0h-.16l-.12.07-.09,0-.06-.07-.05-.12-.05-.09h-.08l-.1.06-.18.16-.08-.07-.24-.12-.09-.06-.06-.14,0-.16v-.2l-.08-.12-.07,0h-.08l-.09-.07-.09-.15-.13-.29-.11-.14.16-.07,0-.11,0-.15.09-.17.16-.14.15-.07.07-.09L416,212h.08l.17.26-.26.2-.14.16,0,.2.22.89.1.25.13.12.11,0,.13.11h.13l.08,0,.14-.17.06,0,.15-.13.47-.86-.15-.15v-.14l.16-.3,0,0,.06,0,.05,0,0-.1v-.33l0-.26.08-.21.22-.4h.07v.22l0,.15v.14l.13.15.19.1h.13l.1.06.13.51.13.26.24.13.37-.14.2.16.18.08.18,0h.22l.11.82v.06l0,0,0,0,0,.06.09.11,0,.06v.08l.05.06.09.09.05.12-.18.36.05.21.09.2,0,.24-.1-.24-.14,0-.12.16-.12.43-.24.44.07.15.27.07.27-.09.26-.14.33-.12.25-.24.12-.05h.13l.27,0,.12,0,.26-.15.23-.17.34-.49.93-.91.8-1,.85-1,.12-.08.15-.07.62-1,.65-1.38.68-.95,1.12-1.37.87-1.43.75-1,.27-.66.32-.54.69-1.75.28-.34.11-.18.05-.45.88-1.85.79-1.14.08-.23-.19.06-.15.17-.14.2-.16.15-.21.09-.25.08-.24,0-.21,0,.34-.11L433,198l.3-.27.12-.39-.07-.1-.49-.19-.13-.12-.08-.14-.11-.4.11.13h.11l.07-.07,0-.16.08.45.08.2h.17l.08-.13.15-.6.19-.34.1-.13.12-.11.11,0h.1l.08,0,0-.12,0-.09-.05-.06-.06-.08v-.14l.25.17.08.07v-.23l-.33-.55,0-.24.09.08.15.21.22.41h.07l0-.14v-.13l0-.31.13.17,0,.34.16.15-.22.06-.05.05-.12.13-.49.41-.14.15,0,.11-.07.31-.07.14-.34.44.22,0V197l-.06.11,0,.1.16,0,.53-.1.16-.18.36-1.07.19-.39.06-.08.1-.07.13-.06.12-.07.05-.1.11-.28.27-.17.31-.14.28-.19-.07-.08v.08l-.11-.21v-.41l-.07-.12.06-.11,0-.09-.08-.07-.12-.05h-.06l0,.07-.05.07-.11,0-.15-.08,0-.11.08-.06.21.09v-.09l-.18-.07-.09-.05-.1-.08-.11-.06h-.09l-.08,0-.08,0-.07-.08-.08-.14-.06-.14,0-.1,0-.13.08-.07H435l0,.05.11,0,.5.22.07.05.18.36.12.14.07-.17h.09l.05.11.06,0,.07,0,.06.07,0,.11-.05.14v.11l.11,0,.17-.12.87-1.39.06-.17v-.25l.06-.19.12-.16.6-.59.18-.25.12-.34.59-.77,1.6-1.2,1.86-1.16.17,0,.06,0,.11-.17.07,0,.45-.07.21-.13.18-.07.23-.05.33,0,.44-.14.15-.08,1.37-1.79,0-.09v-.07l0-.08V184l0-.28.1-.2.35-.38,1.3-1.06.6-.79.48-.18.16-.17.4-.82.12-.17.14-.08.09-.1.28-.63.53-.42.26-.27.24-.73.61-.59.14-.29-.08.12-.17.06-.39.07-.05.07v.09l-.05.06-.15-.05-.06-.08-.27-.93-.08-.14-.17-.16-.34-.21-.13-.21.25-.13.26.1.17.2,0,.17.37.56v.13l.11.25.12.2.06,0,.52-.53.08,0,.09-.06,0-.13v-.31l0-.16-.17-.29,0-.08.15-.16.16,0,.15.13.1.13.22.37,0,.22-.17.18-.18.3.21-.16.1-.05.11,0,.28,0,.12,0,.15,0,.25-.76.21-.38.32-.16.57-.37.11-.12.95-1.41,0-.18.1-.25.23-.26.29-.21.27-.14v.08l.27-.21,1-1.35.19-.46.34-.48.33-.79.52-.68.49-.94.11-.48.05-.53.08-.24.36-.54.13-.24,0-.47,0-.24.14-.1v-.12l.51-1,.82-2.3,0-.1,0-.11.08-.09.07-.08,0,0,0-.11V160l0-.45.08-.35.14-.33.2-.3,0-.12L463,158l.16-.43v-.19l0,.09-.05.08-.1-.12v-.22l0-.15-.07-.12-.07-.08-.19-.13h.2l.14.09.23.23.21.1.15,0,.06-.11v-.21l.29-1.06.11-.23-.06-.1,0-.06,0-.07.06-.09-.07-.14-.1-.3-.08-.13-.15.32.09-.45,0-.13-.09-.06-.4-.17-.11-.23.09-.49-.06-.26.16.06.12,0,.05-.09-.07-.09h-.13l-.13.05-.23.12.1-.11.17-.13.18-.11.15,0v-.13l-.22-.62,0-.23.07.17.26.48v-.18l0-.08,0-.08v.14l0,.14.05.11.09.11.11-.34.08-.16.14-.15-.14-.2-.1-.25-.13-.16-.2,0v-.07l.13-.21-.37-.06-.75,0,.2-.1.18-.05.19,0h.47l.09,0,.11.06h.06l.05-.07.12-.34-.11-.36v-.47l.11-.87v-1.74l0-.17.06-.19,0-.2,0-.21Z" style="fill:#e2ddd3"/></svg>