<svg xmlns="http://www.w3.org/2000/svg" viewBox="0 0 286.92 604.69"><title>bg-country-ristretto</title><path d="M98.57,549.64l-.22-.11-.43.23-.34.29-.26.31-.15.08.27.13.37,0,.18,0,.41.21.52-.2.27-.55-.3-.26Zm-11,4.59-.27.06-.06.43-.13.84.5.48v-.64l-.1-.61ZM51.83,569.87l.35.37,0,.66.75-.24.29-.39.44-.42-.45-.17Zm54.63,33.54h-.18l-.48.57-.32.37.35.33.45-.24,0-.37.25-.21ZM221.28,86.83l-.37,0-.22,0h-.18l-.46.13-.21.3.13.1h.1l.5-.33.32-.08h.5l.12-.07Zm-9.54.61-.26-.1-.26-.07-.1.17-.21.28.28.44.3-.1.26-.21.28-.17.12-.25-.28,0Zm.81,6.09-.15.14-.12.17,0,.19.16.22.1,0,.62-.52.07-.34-.26.07-.21,0ZM188,101.13l-.18.54.64.3.25-.3Zm2.06,1.42,0,0,.05,0,.09-.25.1-.23v-.32h-.24l-.53.23.17.35.15.08Zm13.13,1.54-.13-.47-.13-.47-.17-.33-.13.11-.09.15h.08l.13.53.37.44Zm-.68-.13.28.27.33.3-.4-.8-.43-.45L202,103l-.08.08.26.4Zm-21.66,1.37.44.13h0l-.18-.4-.31-.57-.24-.12-.24-.05-.32-.27-.18.21-.1.08v.09h.09v.16l.14.1.13,0,.1.11.21.07h.2l.06,0,0,.13Zm5.81.14,0-.27,0-.42-.34-.37,0,.3,0,.11-.17-.08V105l-.11.09.06.08,0,.06h-.26v.24l.61.28h0l-.1-.23.06-.07Zm14.65.43-.12,0-.11.16.05,0,.19-.08.29-.08.07-.15h.27l.19-.21-.2-.09-.16-.07,0-.2,0-.09-.13,0-.17.2.11.16-.26.13-.26.07,0,.1h.16l.18-.09-.07.07Zm8,2.81,0,.15L209,109l.24.27.37-.3.13-.58-.12.11Zm-.32,1.64,0-.2-.13-.12-.12.21-.17.13v.13l-.42.49.53-.24Zm8.85-23.55h-.22l-.73.4-.64.8v.06l1.54-1Zm-6.19,1.57.23.11.29,0,.22.21.23-.12.5,0,.2-.09.11-.12-.17-.27-.42-.22-.58,0-.53.27Zm3.8.27,0-.14,0-.11-1.34.67-.18.19.47.2h.16l.9-.67Zm12.85.34-.56.2,0,.25.32.19.44,0,.25-.07.11-.25-.06-.28-.23-.11Zm-11.66,2L216.07,93l0,.36.21-.25.63-2.57,0-.16-.21.21Zm-4.2,4.91.15-.12.25-.08.33-.75,0-.35,0-.29h-.21l-.36.23h-.14l-.09-.08-.13-.07-.18.07-.28.58-.21.19-.11.19,0,.12-.2.18-.07.11V96l.32.21,0,.13-.12.1,0,0v-.13l-.12,0-.33.49-.28.25-.33.19-.36.39.13.06.27-.06.24-.2.18-.06.66-.28,0-.21.61-.46.41-.21Zm-33.26,4.43-.28-.15-.15-.22-.24-.15-.22.14-.05.32.29.56.36.24.43.1.56,0,.42.13.84.14.18-.24,0-.28,0-.19-.06-.2-.16-.07-.07-.09h0l.19,0,0-.27-.36-.41-.35-.26-.21,0-.24.13-.19.24V100l.2.34-.25.15Zm12.81,1,.57-.21.37-.23,0-.15-.13-.18-.27-.44-.3-.07-.2.08,0,.08h-.23l-.47.83.14.16.28.1Zm15.23.92.19-.12.44-.54.38-.78-.25-.17-.34.27-.26.31-.26.17-.1.15-.12.43-.25.4-.3.18-1.29.37-.87.19.09.14,1.11-.08,1.51-.59Zm-3.08,0h.2l.48-.19.79-.77.11-.36v-.12l-.09-.07-.12.09-.08.23-.07,0,0-.14-.15,0-.46.53-.33,0-.18.07-.14.24,0-.07-.3-.31-.2,0-.32.1-.39,0,.09.23.33.21Zm-6,1.68-.19.07-.07.11.45.36h.1l.11.09.07.14h.1l.08-.27-.08-.17-.4-.28Zm-3.21,2.2-.21-.2-.09-.23-.13-.16,0-.12.07-.21-.07-.14-.14.05-.12.09-.1.12-.07.15-.12.06-.07.11,0,.17.13.11h.12l.17-.09.35.45h.24Zm-13.55.25.56.57.25.16.32.06.47-.09.31-.26-.1-.17-.17,0h-.3l-.49-.28-.84-.92-.18.18,0,.42Zm25,.89-.13.3v.31l.08.45.08.12.12.09.11.18h.08l.12-.2.09-.17.06-.27-.13-.53-.26-.39Zm-11.14.84.25.58.11,0,.18-.16,0-.11,0-.06.1-.14-.05-.07,0,0,.16-.06,0-.07,0-.27-.17-.15-.08,0v-.23l-.09-.13-.09.08-.06.09-.09-.09-.17-.09-.08,0,0,.16.06.12,0,.17,0,.23Zm1.08.84-.13-.11-.23.17-.13.25-.14.16-.06.14.11.21.17.21H196l.17-.1,0-.11,0-.11,0-.25Zm22.62,26.24.13.13.2.06h.15l.1-.13.1-.26,0-.25-.23.05-.3.19Zm-70,30.77-.14.08-.17,0-.14.15v.3l.17.24.15.17.23-.06.17-.23.08-.23,0-.23-.18-.19ZM248.91,305.45l.27,0,.2.2v.23l.06.11.71.5.22.32.15.06,0-.19V306l-.12-.39-1.18-.9-.27,0-.44.32-.08.12.17.21ZM273.09,329l.46,0,.34-.15.19-.14-.16-.27-.41-.19-.5,0-.46,0-.28.24,0,.18.31.2Zm9.08,70.47.12.06.14,0,.17.14.09-.09-.1-.31-.17-.13-.35-.44-.22-.06.09.42Zm-122,158.43-.49-.49-.28-.44-1.88-1.84-1.89-2.69-.31-.21-.13-.12-.09-.2-.24.24.84,1.1.34.62.15.86.18.66.44.71,1,1.18,1.33,2.07.41.34.76-.09-.2-.28-.65-.51-.59-.73.3-.24.6.41.84.71.57.84-.19.74v.25h1l.55-.36.25-.69.06-1-.5-.36Zm20.42-25.77-.89-.21-.82-.27-4.49,0-1-.24-1.33-.56-.59,0,1.86.8,5.09.94.76.31.32.5.25.18.56-.1.55-.28.25-.32-.14-.52Zm4.63-12.47-.37.31-.08.36.08,0,.38.62.07.12.32.31.55.38.52.14.23-.41-.09-.53-.34-.72-.11-.49h.28l.33.8.23.39.21.13.29-.24,0-.37-.17-.42-.09-.44.07-.13.13-.1.1-.16V519l-.11-.08-.17-.07-.18-.1-.19-.33-.91-.59-.06-.29-.4,0-.51.06-.42.11v.25l.54.31.13.37-.14.81Zm3.61,6.07-.85-.53-.26.53h-.29l.83-2,.18-1.2-.8-.56-.81.27-.73.37-.34.59.33.92v-.57h.29l-.11.62-.61.85-.1.71.12.45.23.45.18.54v.72h.29l.52-.54.77-.35,1.92-.46-.34-.44Zm9.33-.29.14.12.08,0,.11,0,.22.09-.34-.49-1.19-1-.31.28-.19.47-.09.5,0,.41-.27.23-1.16.6-1.59.4-.21.74.53,1.94.52-.47.81-1.21.56-.5.82-.28.36-.22.28-.78.29-.17.28-.21.1-.49Zm-20.73,65.65-.13-.08-.16-.06-1.09.47-1.27.87-1.05,1-.45.95.13.23.6.81.2.16.61,0,.16-.13-.07-.17,0-.18,0-.35,0-.44.08-.39.34-.17.46,0,.39-.11.4,0,.49.18-.23-.5-.39-.57,0-.44.92-.09,0-.18,0-.11-.2-.24.4,0,.11,0,0-.25Zm-7-44.77-1.69-1.18-.62-.13-.18-.11v.24l1.8,1.68,1.11.59.94,1.47.57.34.33-.35-.51-.78-1.29-1.31Zm13-442.09.11,1,.79,1.65.19.68.34.19.67.13.5-.27-.17-1.06-1.43-1.84-.21-.58-.16-.93-.44-.53-1.52-.65-.46,1.07-.32,1.17.2.76.51.25.61.11.5.32h.29l-.2-.35-.07-.36.06-.37Zm28.31-1.75.31-.7.24-1-.06-.3-.06-.13-.12-.14-.14.68-.94,1.9-.37.61-.41.34-.54.15-.82,0v.25l.44.48-.07.65-.64,1.48.53,0,.28-.31.29-.84.23-.46ZM221,99.57l.41.16v-.26l-1.35-1-.51-.15-.3.7.23.38.39.23.21.25-.06.48-.74,1.39.69-.34.58-.48.27-.64-.18-.81h.23Zm-7.52-.76.25-1.29,1.4-3,0-.28-.16-.06-.27.17-.92.92-.14.2-.12.31-.08.35-.06.93-.13.47-.55.54-.12.41.07.49.1.37-.05.25-.42.17.79.11Zm8.87-14.16.09-.07,0-.16-.1-.17-.07-.1-.52-.08-.63.25-2.28,1.37-.44.56-.11.11L222,84.7Zm7.07-2.3-5.05.57-.33.16-1.3.4v.26l1-.21.82,0-.3.17L224,84l-.17.34-.05-.18-.21-.42-.17.48-.09.43.49-.08,2.67-.93.29-.16H227l.31.35.59-.24,1.51-1ZM281.84,455.1l-.24-.19-.31-.13-1.44-.28-.7-.29,0,.43,0,.14-.28-.09-.55-.11-.26-.08v.28l.37.4.56.49.72.38.77.08-.07-.17,0,0h-.05l-.11-.08.34-.15h.28l.25.15.21.26.2-.1.43-.29.18-.15-.1-.27Zm-15.6,65.68-.51.29-.14.57.17.62.4.41.8.05.21-.58-.28-.79ZM222.73,99.59l.66-1,.32-.33.14-.55-.55-.1-.64.44-.35.79,0,.73Zm-17.07,5v-.18l.11-.12.09-.16-.11-.25-.39-.14-.64,0-.41.06-.16,0-.21-.1-.27-.09-.2.09,0,.2.1.27.2.06.12-.08.41.52.27.21.26.06.26,0,.52-.24Zm-1.28,1.58-.47-.54h-.15l0,.59.32.73.41.21.31-.06.25.14.2.26.13-.07,0-.56-.11-.25-.46-.29ZM184,524.15l-.2.05-.05.06h-.06l-.22-.11.5-.23.47.1.52.22.64.15v-.24l-.4-.8-.31-.27-.63,0v-.27l1-.06.28-.48-.15-.55-.4-.26-.15-.13-.44-.64-.1-.17.08-.45.18-.26.29-.26V519l-.24-.61-.49-.49-1.07-.29-.21-.25-.37-.58-.34-.33-.36-.12h-.9l1.05,1.63.28.91-.29,1-.25.16-.66.11-.13.12.12.63.09.28.06,0-.17,1.08,0,.47.15.63.46.92.83,1.07.95.89.92.37.74-.32,0-.73-.42-.82Zm9.9-416.91.8.19-.26-.16-.21-.19-.18-.24-.14-.29h-.27l-.37.06-.62-.16-.46-.3.11-.45v-.28l-.4-.35-.5-.21-.41.15,0,.69h-.25l-.41-.4-1.22-.18-.52-.55.29-.31-.37.27-.06.31v.3l-.14.28-.27.17-.92.33-.11.76.44.58,1.13.71.48.52.89,1.23.78.54V110l-.11-.15-.19-.44h.3l.13.18.25.22.13.19h.29v-.31h.24l.09.12v.06l0,0,.17.1v.28h-.83v.26l.11.1.18.21.24-.31v.31l.15-.14.11-.07.29-.1v.9l.36-.73.18-.71H193v.28h.29l-.24-.73-1.18-.68-.2-.88.39.31.34.17h.38l.51-.19V108l-.26-.2-.16-.25v-.3l.14-.35.35.74.28.28.46.08-.22-.29-.12-.11-.19-.14v-.31Zm15.38-4.46.64-.16.56-.32.4-.51.26-.61.4-1.45.6-1.48.15-.55-.25-.14-.22.13-.53.62v-.85l-.4.76-.11.37-.41-.17-.16-.11-.49,1.19-.13.64.11.46-.69.76-.9.69-1.06.61-1.13.49v.26l.66-.09,1.76-.45Zm-1.74-11.86-.05.36-.11,0L207,91h-.25l-.2,1.26-.36,1.17-.06.48-.33.83-.56,1-.27.93.61.5L207,96l.49-.28.94-.36.44-.24,1.31-1.82.78-.85.58.14h.31l.4-.62,1.28-.89.45-.5.18-.52L214,90l-.88.3-1.35.39-.27.16h-.25l-.14-.19L211,90.5l-.05-.26v-.33l-.08-.36-.22-.12-.26-.05-.24-.18-.93-1.15-.39-.32-.16-.08-.17,0h-.14l-.14.06-.15.18-.1.25-.1.51-.06,1.06,0,.65.17.29-.35.07Zm76.33,348.74-.12-.46-.28-.41-.56-.16-.88-.13-1,.13-.34.53.44.32.49.12.23.28.23.32,1.43,1,.63.21.19-.52-.15-.47ZM73.8,525l.29.27-.49-.46-.46,0-.38.31-.27.36-.13.38-.06.45-.13.38-.35.16-.16.13-.42.61-.09.19-.33.33-.75,0-2.46-.35-.21.12.14.42.31,1.56.5.51,1.5.74,1.11.91.78,1.28,1,2.95.53,3.32.51,1.73.8.35.15.19.65.35-.14-.69-.15-.42v-.48l.3-.83-.7-1,.52-2.17,1.51-3.82v-4.17l-.13-.67Zm213-87.61-.71-.54h-.6l-.59-.69-1.75-3.37,0-.56,0-.56,0-.47-.26-.33.34-.32.35-.07.33,0,.34-.14.16-.23.25-.62.11-.21.83-.54.41.08,0,.13-.13.17-.08.16-.14.17-.29.16-.21.18.11.28h.2l.69-.2.17-.08.19-.4.13-.68,0-.74-.08-.62-.27-.43-1.63-1.9-.77-1.23-1-1.15-.8-1.45-.33-.34-.5-.32.12-.35-.23-.53-.38-.5-.32-.55-.12-.69.11-.63.17-.61.1-.65-.25-.82v-.4l.44-.91.09-.3-.05-.82-.07-.37-.15-.34-.24-.26-.16,0,0,.21.18.31v.25l-.44.2-.12.48.05,1.25-.51-.54-.34-.57-.53-1.36.28-.15.09,0,.19-.36.18.15.44.23.2.15,0-.39,0-.3-.09-.23-.21-.17v-.25l.43,0,.31-.14.13-.3-.06-.46-.32-.47-.32.06-.43.41-.54-.36-.66-.91-.66-.33.07-.68.13-.4.31-.28-.43-.39,0-.33.09-.32-.2-.33.24-.61.26-.33.31-.14.37,0,1.24.84.24.27-.08.52-.38.25-.42.17-.18.28.16.37.85.17.32.42.42-.28.26-.34.38-.74-.13-.44.32-.54-.19-.4-.45.23-.42-.07-.33-.33-.13-.52.07-.34.33-.47.13-.39-.48.22-.16.11-.13.22h-.3l-.82-1-.26-.43.14,0,.14-.19.05-.24-.35-.21-.51-.46-.17-.4-.15-.8-.19-.43-.32-.29-.33-.16-.22-.29,0-.65H277l.29.61,1.06,1.2.41,1,.86,1.52.34.35-.05-.53-.08-.12-.17-.17v-.27l.44,0,.21-.14,0-.27-.13-.37-.19,0-.51-.3-.47-.36,0-.18-.5-.27-.38-.69-.25-.85-.08-.78v-1.11l-.08-.32-.47-.9,0-.86.37-.5.48-.37.44-.48-.49-.08-.26-.33-.29-.92-.45.18,0-.28.41-.75.16-1.5.1-.41.49-.45.31.68.54,2-.23,2.33.1.42h1l.32-.15-.14-1.54.27-3.13-.22-.38-1-.83-.36-.56-.51-4.47-1.08-2.85-.4-.63-1.22-.67-.45-.81.09-.62.89.17.4.44.18.49.31.37.73.1-1.32-2.13-.56-1.37.4-.62-.26-1.66-.15-.55-.35-.54-1.24-1.35-.52-1.14-.2-.66-.08-.56,0-2.17-.16-.55-.69-.94-1.31-3.6,0,.32-.24.8-.24-.52.13-.27.26-.19.22-.42h.37l.08-.15-.05-.28-.21-.41-.2-3.17.15.32.25.25.33.16-.35-1.93-.21-.56-1.46-1.92-.25-.26-.8-1.18-.15-.35-.87-.35-.18-.24.78-.08-2.47-5.65-.9-3.15L265,338l-.19.49-.06.25v.33h-.22v-.53l-.21-.33-.31-.11-.31.15h-.25l-.29-.49.21-.29.54,0,.63.27.18-.59.12-1.17.18-.46.55.3-.06-.36-.12-.18-.24,0-.39,0V335l.63,0,.52-.21.41-.39.31-.54-.23-.1-.52,0-.31-.1-.47-.29-1-.91-.21-.52.07-1.49-.21-.31-.94-.75-.3-.15-.25-.32L262,327.3l-.2-.61-.26.17-.24,0-.26-.06-.31-.15.21.34.12.12.23.11v.28l-.74.51-.27.84.29.72,1,.15V330l-.75.06h-.32l-.26-.05-.24.6-.05.22h-.27l.07-.24.05-.12.15-.21-.25-.47v-.48l.06-.47-.07-.47-.27-.29-.87-.54-.2-.16-.2-.27-.94-.79-.22-.3,0-1-.21-.82h-.25l-.87,1.71-.63.36-.92-.68-.31-.76.33-.48.59-.26.45-.14.45.56.27-.27.36-1.14-1.46.16-1.07-.63-6.38-8.76L246,311.52l-.35-2.49-.2-.54-.27-.06-.29.21-.28.27-.23.14-.29-.1.08-.19.32-.19.43-.08-.32-.7-.53-.4-.62-.29-2.05-1.61-.47-.58-.58-1-.54-1.45-.26-1.59.29-1.47.53.21,1-.21.35.3.14-.48.32-.29.43-.26.44-.38-.46-.53-.07-.14-.13-.16-.27.26-.24.38,0,.19-.66-.11-.56-.28-.46-.36-.33-.35h-.27l-.17.2,0,0-.06-.1-.28-.12-.11.32-.15.3-.24.26-.3.22v.3l.87.17,0,.58-.27.74,0,.59.28.56.39,2.07-.36-.51-.6.16-.72.4-.72.23.5-.31.49-.47.41-.57.2-.61-.06-.12-.35-1.39-.28-.08-.31.2-.6.59-.6-.78-.87-.5-.67-.63,0-1.17.47-.91,1.36-1.11.59-.73-1,.07-1.07-.09-1-.22-.71-.32h-.26l-.43.14-.73-.08-.68-.29-.31-.46.22-.59.55.2,1.11.83-1.28-2.09-.32-.69-.38-1.39,0-.26-.46.14-.24.34-.17.37-.34.25-.84-.23-1.77-1.3-.59.15,0,.4.27,1.26-.18.27-1.43,1.1-.2-.24-.35.24-.12-.42-.26-.29-.33-.08-.36.24h-.26l-.94-.53-.46-.33-.2-.39-.5-2.28.09-.33.4.08.28.17.24.19.26.11.24,0,.23-.11.08-.11-.75-.32-.85-1.13-.71-.48-.9-1.44-.36-.37-1.48-1-.17-.3-.16-.4-.24-.23-.4.23-.2.28-.14.25-.2.17h-.38l.08-.19-.21-.45-.28-.38-.14,0,0-.38.11-.32.17-.28.24-.25-1,.24-.53.06-.58,0,.1-.3.06-.14.09-.13h.27l.11.08.43.22v-.3l-.95-.41-.37-.29-.29-.43-.31.22-.46.07-.41-.11-.35-.57-.43-.15-1-.24-3-1.69,1.18-.2,4.77,2.53,1.54.44V280l-1.2-.35-4.17-3.77-4.65-3.42-5-4.32-.58-.31-.21-.18-.21-.38-.29-.26-.34.12-.72.51,0,.25,0,.28,0,.19-.44.21-.46.07h-1v-.28l1.4-.78.22-.18.13-.33.28-.18.28-.14.12-.2-.12-.28-.56-.33-2.1-3.06-.45-.36.24-1.66-.59-1.16-6.45-4.76-7.14-5.28-3.41-3.81-.5-.73-.16-.11,0-.15-.77-.62-.14-.06-.34-.66-.45-1.3-1.9-3.23-1-1.2-.95-1.72-.42-.53-.85-.55-1.26-.5-1.27-.18-.87.4.2.16.11.18.22.49-1.13-.65.14-.83.75-.5.77.31h.27v-.29l-1.9-.51-1.31-.15-.94-.26-.91-.35-.56-.4.27-.25.57.25,2.65.27,1.41.75.58.09.39.22.51.95,1.17.51.42,0,.33-.33-.1-.3-.79-.78-.19-.45-.37-2.09-.36-1.17-.34-.75.25-.41.07-.37-.16-.26-.42-.1v-.3h.74l.43-.34.31-.52.4-.51.77-.62.81-.51v-.26l-3.35-4.17-.44-.85-.21-.87.44-.78.06-.42-.5-.2-.74.91-.32.23-.43,0-.26-.15-.27-.09-.4.21-.24.28-.17.41-.11.48v.5l-.4-.79-.07-.39.22-.49-.5.07-.15.06-.16.13-.51-.26.23-.4.47-.32.48-.1.39.24h.28l-.31-.74-.54-.5-1.3-1L162,214.26l-.35-.22-.85-.31-.26-.15L158.51,212l-.6-.23-.93.15-.84.28-.66.14-.39-.3.73-.17-.09-.52-.46-.59-2-1.72-1.47-1.89-.3-.28-.9-.69-.37-.51-.35-.73-.27-.81-.1-.76-1.34-.09-1.39-1.54-2.09-3.4-.92-2.93-.28-.45-.17-.54-.05-1.19-.23-1.17-.75-.47.1.13.11,2.48,0,1-.76.36.15-.55.12-.84-.06-.78-.35-.34-.18-.27L142,191l-.22-.59-.44-.62-.81-.9-.29-.11-.67.06-.26-.08-.12-.19-.41-1,.39,0,.31.16.22.27.16.37.53-.59v-.25l-.86-.26-1-.58-.84-.72-.53-.71-.21-.51-.29-1.32,0-.55-.09-.34-.21-.38.05-.53.41-1.23.74-1.52.95-1,1.07.35.24-.38.39-.26,1-.48-.28-1,0-1.5.47-2.54.1-.21.54.08.5,0,.34-1.19.3-.08.34,0,.32-.2.13-.33.07-.79-.19-.11-.28.11-.17-.47-.1-.4.82.56-.1-.6-.72-1.36-.19-1.16-.17-.47-.44-.36v-.26l.53.26.54-1.13.55.31-.18-1.55.43-3.12v-1.53l-.17,0,0-.19,0-.44-.09-.4-.2-.38-.11.24-.27.35-.16.28,0-.65.52-.4.52.13.06.92.19-.47V156l.07-.65.29-.66.88-1.37.19-.68.24-.54.56,0,.54,0,.25-.28.15-.64.7-1,.21-.54-.52.22L147,150l-.52.24-.24-.3,1.07-.58.56-.4.24-.43.4.41.12.15.14-.48v-1.15l.14-.62.83-1.13v-.39l-.27-.64v-.4l.23-.62.36-.41,1.71-1.57.45-.52.2-.54h.27l.27.44.54.46.63.36.57.15.21-.37.59-1.79.12-.66h.29l-.14.82-.25.72-.12.66.22.62.66-.42,1.44-.37.59-.34.31-.47.47-1.23.28-.58.3.31-.18.21-.35.92.57-.35.95-1.11.9-.55.94-1.37.86-.58,1.36-1.71.51-1.11.27-.3.82-.33.25-.22-.27-.3v-.31l.36-.17.17-.05.29,0v.25h-.26v.31l2.54-.31.5-.12,1-.56.85-.3.44-.39.35-.47.23-.41.2-.28.15-.08,0-.1-.12-.37-.18-.2-.91-.69-.17.41-.3.16-.32-.12-.26-.45h.24l.68-.22.61.18.5.42.37.51.45-.37.15-.59.08-.64.25-.54.08-.41-.3-.44-.71-.7.15,0,.1-.05,0-.09v-.16l.06.19.2.4.44-.56.24-.94.15-1.8-.39-.4-.88.11-.93.37-.51.37h-.25l.18-.33.27-.38.26-.32.23-.13.12-.1,1.11-.39.23,0,.17-.73-.37-.61-.28-.59.48-.66v-.26l-1.14.61-.57,0-.69-.38,2.51-1,.86-.79.65-.25.13-.17.09-.23.05-.24-.05-.45-.13-.09h-.17l-.2-.15-.58-.67-.26-.4-.23-.63.44.34.56.81.34.24.64.07.63-.12.62-.23.52-.29.79-.67v-.49l-.6-.41-1-.41v-.28l.51,0,1.11.31h.5l.34-.1.29-.13.34,0,.11-.16.44-.31.44-.17.21.23.14.28.36.37.8.61-.66-2.2-.4-.66-.24.31-.66-.51-.66-.77-.54-.84-.28-.74.75.53.48-.38.14-.89-.32-1-.68-.52-.77-.39-.29-.49.69-.87.81.86h.24l.11-.49L181,103l.08-.54-.14-.73-.35-.16h-.49l-.85-.39-1,0-.4-.25-.22-.43-.07-.46-.13-.43-.39-.38V98.9l.81.17.26.09V98.9l-1.18-.48-.42-.11.65-.2.84.18,1.46.61v-.31h-.28v-.28l.79-.41.61.23.62.38.91.08-.08-.14-.11-.31-.08-.14h.42l.35.12.28.2.26.27-.52.47.14.29.4.19.27.19,0,.41-.14.27-.4.15-.7,0-.63.31.41.62.88.43.8-.22H184l.09.29,0,.06-.13.21.73.58.3.86.32.28.78-1.15-.2-.2-.16-.25-.12-.31,0-.37h.3l.37.81.4.42.6.16,1,0v-.28l-.42-.2-.17-.32-.08-.34-.15-.27-.22-.15-.83-.42-.48-.38-1.13-1.32.25,0,.12.06.16.24.22-.46.45.16.95.86.4.28.49.26.58.21.65.13.72,0,.74,0,.62-.27.35-.62-.2-.58-1-.83.07-.57.7.65.38.19H192l-.54-.57.41,0,.13,0-.19-.19-.22-.27-.13-.13v-.26l.48.07.26.29.09.47,0,.59.16-.26.09-.32,0-.39v-.45h.26l-.09.83.23.18.34-.31.32-.7.08.12,0,0,.17.11-.09.16-.16.31,0,.29.15.14.34-.1.11-.24.06-.29.19-.27.37-.23.47-.17.5-.11.52,0v.28l-2.11,1.38L193,100.6v.26l.75.3,1.89.28.61.58v-.28l.45.21.4,0,.43-.14.59,0-.14-.63.83-.94.63-.16v-.28l-.28,0-.16-.06-.14-.09-.19-.08.5-.26L200,99l.83,0,.5.19.51-.21.73,0,.9,0,.54-.17.38-.22.65-.51v-.26l-.38-.27-.17-.5-.07-.62-.15-.62.35-.09.16-.15-.05-.23-.21-.36.58-.58.25-1,.24-1.87-.34.15-.36,0-.33-.16-.29-.25.18-.48.07-1.5.16-.35.23-.24.09-.23-.22-.32v-.28l.94-.29,1.24,0,.77-.34v-.26l-1.06-.61-.27-.26.24-.57,1.39.33.23.09.19.38.41.23.38.1h.09l.8.12H211l.42-.13-.48-.23v-.31l.14-.35-.11-.46-.16-.41v-.18l.51.13.2.33.08.45.17.49.28.43.32.27.44.13.67,0,.33-.21.18-.48.17-1,.63.2.18.09-.06-.19,0,0h0l-.16-.07.56-.25.26,0-.33-.3-.11-.21.12-.17.32-.18v-.31l-.17-.14,0-.07v-.1l-.08-.23.59.27.51,0,.24-.31-.26-.5v-.26l.13-.13.11-.18h.29l.3.33.54.2.52,0,.24-.36.15-.14.35,0,.71,0,.65-1.14-.26-.26.13-.25.23-.21.31-.11h.42l-.1-.27-.12-.6-.08-.27.54.24-.15-.6-.33-.36-.47-.16h-.62v-.28l.56-.28.65-.17.51.21.14.83.27-.31.24.57h.29l-.07-.55-.06-.12-.16-.18v-.29l.29-.26h.24l0,.74.1.59.28.27.47-.2.3-1.16.29-.38.21.69h.26l.3-.37,0-.18-.07-.31.58.11.49.21.37.38.13.6.05.13.09.16.11.23,0,.32-.1.15-.23.19-.2.27v.41l.53.66.74-.52.84-.87.82-.41L227.28,77l-.51-.14-1.36-1.47-1.11-.82-.49-.47-.42-.71-.18-.52-.29-.4-.81-.35-1.32-.34-.69-.09-.59,0-.61.23-1.53,1.14-.71.29-2.29.5h-.79l-1.64-.21-.7.09L211,74l-.32.66-.33.24H210l-.39-.11-.68-.27-.5-.24-.15-1.47-.44-.64-.78-.22-.62.28-1.06,1.11-1.35.82-.72-.7-1-3-1.18-1.24-1.14.13-1.22.41-1.56-.4-3-2.67L193,66l-1.64-.34-.81-.27-.54-.58-.08-.86.4-.66.57-.62.35-.7,0-.86-.42-.61-.68-.33-.8,0-.69.29-.62.37-.68.13-.85-.45-.51-.65-.34-.59-.47-.45-.94-.23-1.62,0-.69-.1-.8-.42-.19-.18-.31-.44-.22-.17-.54-.18-.25.06-1.27,1.42-.6.45-.6,0-.23-.25-.13-.37-.06-.39v-.36l.76-2,.2-1,0-1.1-.08-.18-.33-.41-.11-.23v-.34l.12-.68v-.3L177,51l-.28-.41-.25-.47-.1-.62.47-.61.34-.33.09-.41-.9-3.08-.23-.53-.65-.56L174,43.85l-.86-.31-.52-.55-.21-.65-.08-1.55-.3-1.27v-.44l.14-.46.43-.63.18-.35.89-4.28.32-.87.43-.53.77-.09.46.53.41.73.64.47h.83l.49-.44.68-2.16.29-.64.83-1.31.36-.76.15-1.32.28-.74.47-.41,1.28-.76.29-.51-.36-.54-.83-.09-.92.09-.56,0,0-.1-.62-1.1-1.17-.93-.42-.56-.27-.25-.41-.1-.35.12-.31.57-.29.16-.87-.13-.44-.51-.28-.67-.4-.61-.57-.36-2-.49-.61-.26-.52-.16-.38.24-.16.95-.62.35-5.56,1.48-.74.11h-.78l-.83-.15-.83-.39-.27-.49-.16-1.55-.81-1.46-1.26-.8-1.48-.38-2.12-.25-3.06.24-.36.2L150.41,18l-.5.32-.63.19-1.23.15-.38,0-.66-.18-.41.06-.24.22-.14.34-.17.3-.33.13L145,19l-2.19-2.49-.51-.8h0l-.44-.43-.45-.22-.46-.14-.46-.23-.74-.77-.4-.25-1,0-1.09-.34-2.77-.11-.55-.24-.47-.66-.17-.79,0-1.78L133,8.9l-.44-.51-1.68-1.14-.38-.48-.79-1.65h0l-.51-1-.2-.23-.44-.22-.31,0-.29.11-.38,0-.53-.26-.64-.42-.6-.54L125.38,2l-.31-.79L124.91.5,124.59,0l-.72,0-.53.32L122,1.53l-.37.44-.33.8-.14.8-.25.69-.64.48-.45.08-.28-.09-.22-.14L119,4.51l-.12,0-.29-.22-.11,0-.2.09-.1.16-.08.18-.13.12-3.17.9-.57.24-1.2.85-1.34.69-1.41,1.29-.4.23-.55-.06-1-.61-.55-.06-.41.34-.13.6,0,.67-.16.59-1,.83-1,.15-.53.45,1.13,5.53,0,.85-.18.42-1.92,1.18-.44.48-1.36,1.93-.5.5-.57.37-.69.26-.79.05L97.94,23l-.75-.1L97,23l-.39.47-.23.09L96,23.51l-.19-.15-.15-.16L95.43,23l-.13-.19,0-.23v-.19L95,22.36l-.1.14-.69.78-2.53,2.08-.76.83-3.65,2.38-.6.09-.58-.26-.81-.51-2.15-1-.49-.57-.28-.84,0-.9.18-.9.31-.83-1.09,0L78.4,24l-1.14.1-.47.13-.53.37L76,25l-.46.86-.37.36-.81,1.09L74,28.47,73.69,31l-.16.64L73,32.91l-.17.63v.66l.07.6-.08.55-.45.5-.56.34-.33-.39-.4-.34-.6-.15-.33-.22L69.61,34l-.32-.45-.23-.1-.63-.08-.23-.08-.88-1L67,32.17l-.26-.27L66,30.66l-.17-.36-.43-.51L62.73,27.4l-2.65-3.23-.45-.25-1.69,1-.53.34-.3.51-.22.63-.33.67-.83,1-.1.41.25,2.11L55.7,31l-1.25,1.85-.42.25L53.32,33l-.47-.32-1-1.12-1.43-2.37-.26-.59-.08-.75.07-.73-.09-.58-.56-.31-.33-.49-.4-.44-.45-.37-.51-.29-.88-.32-.46.11-1.55,2.72L44.23,29l-.29.41-.64.54L41,31.18l-1,.81-.46,1.23.1.34.47.59,0,.43-.14.32-2,1.38-.66.29-.63.11-.55.38,0,.57.16.67-.16.69-.62.43h-.79L34,39.11l-1.27-.93-1.44-.4-.67-.33L30.24,37,28.9,34.37l-.24-.75-.32-.71-.52-.61-.72-.37-1.64-.39-.75-.31-2.31-1.9L21.59,29,20,28.72l-.77-.28L19,28.23l-.58-.67-.18-.15-.41.1-.23.28-.18.32-.28.19-.89,0-.26-.5L15.9,27l-.41-.81-.83-.64-1-.35-1,.15-.66.83h0l-.41,1.48-.31.69-.48.55-.4.11-.45,0-.41,0-.27.31,0,.47.28.31.36.24.23.28.15.35.07.08-.29.56-4.85,5-.39.77L4.6,38.86l-.2.72-.52.66-.57-.08-.66-.36-.86-.18-.68.18-.71.43-.4.56.26.59.24.41.39,1.33.11.14.33.26.13.18v.23l-.13.5.06.25.57.64.67.47.57.54.25.84.75.71,2.35,1.19,2.79,2.74,1.22.74.37.34.26.44.38,1,.27.47.8.62,1,.56.59.53-.34.52-.11.12-.09.14-.07.15,0,.16L14,59.22,15.5,60l1.73.58,1.2,1,1.33,3,.37,1.71-.19,2.45.08,1,.2,1,.25.65.29.42.11.07.15-.09,2.06,0,.43-.1,1.21-.8.88-1.12.46-1.34.1-3.36.68-.66.77.62L28,66.83l-.12,1.66.12.81.47.5.68,0,2.83-1.23.22-.16.2.07.32.56.15.45.07.48,0,2.87.12,1,.4.91,0,.12v.24l0,.12-.79.75-1.46,1.82-.84.76-1.77,2.92.59-.28.78-.5.76-.36.54.11-.05.47L29.85,83l-.16.85,0,1.91-.14.7-.48.48-1.32.33-.64.5-.45.79.31.18.74-.08.86,0,.58.23.51.36.38.44.2.49-.05.38-.34.83v.4l.24.42.26.08h.33l.4.24.43.7.38,1.63.27.73.18.37.18.29.32.13.57-.08,1,.43.6.7.88,1.87L37.05,102l.72,1.22,1.11,1.39.58.56.25.19.41.18.71.1.39.1.33.17.52.39.39.13h.45l.77-.23.35,0,.63.17,2.2,1.19,1.09.36.41.06h.22l1.05-.29.8-.45.27-.26.12-.26.21-.11.54.21.47.47.71,1.39.43.54.3.22.31.17.34.1.39,0h0l2.41.51.76.44,1.51,1.64.85.75.13.16.17.11.42.07.36,0,.47-.16L62,113l.22-.21,0-.34-.39-.8-.05-.39.19-.55.24-.16.33,0,.49-.16.79-.5.15-.29-.13-.4-.08-.84.14-.67.33-.84.4-.78.38-.46.44-.15.79.11.39,0,.35-.19.58-.52.31-.2,2.87-.92.78-.35.4-.1h.45l1.43-.24,1.8-2.1,1.39-.1.27.14.59.45.32.16.37.06.89,0,.41.06,1.12.41.28.18.23.33.41.85.14.21h.27l.88-.25.36,0,.36.12.38.19.35.24.29.25.47.63L86,106l.51.61.33.22.61.24.3.2.21.31.32.72.29.3.79.24.89,0,.8.09.53.58.37,1.3.65.67,2,1,2.22.75.56.59-.31,1.13-2.52,3.46-.85.68-1,.3-1-.17-1-.77-.83,1.62h0l-2.24,1.53-.25.78,1.24.79,1.59.4,5.58-.13.54.3.9,1.25.63.45,1.48.58.57.45.14.32.12.47.06.49,0,.37-.27.56-.3.09-.32,0-.33.25-.15.55-.06.84,0,.84.15.54,1.32.67,1.67-.34,1.76-.59,1.57-.08,3.47,1.88,0,.31-.21.45.06.92.52.79,1.51,1,.28.65-.12.17-.54.1-.13.11V138l.11.36.06.76.13.51.06.5-.14.57-.53.47-.52.08-1.16-.14-.74.12-.19.2-.07.36-.35.57-.89.68-2.14,1.27-.73.93-.24.76.2.23,1.15.07.75.25.28.23v.38l-.07.68-.39,1.3-.78.58-1,.42-.94.86-.74.23-.53.06-.48.13-.62.45-.5.55L99,153l-1.24,3.29-.35.44-.36,0-.67-.39-.33-.09-.35.11-.6.41-.34.14-.91.11-.67-.14-2.21-1.34-1-.43-.32-.21-.56-.56-.37-.51-.45-.35-.79-.09-.7.19-1.82,1.15-.71-1.19-1.36-.47-.52-.44-2.76.75h-.85l-.2.21-.26.27-.29.61-.31.25-.8.13-.74-.26-1.87-1-.45-.13-.36.16-.23.65.1.51.77,2.15.45.59,1.22.73.44.37.25.67,0,.71.13.68.45.56h0l-.16.49-.34.18-.42.09-.39.24-.25.44-.16.95-.13.41-.31.58,0,0-.12-.16-.57.08-.93.33-.89.46-.82.19-.46.4-.77,1.17-.6.45-1.4.62-.52.4-.32.71.39.19.71,0,.62.08.52,1,.19.29.28.2,1,.52,1.16.83h0l.83-.35.82,0,.8.19,4.33,1.94,1.57,1.08.4.4.14.82v.73l.35.34,1.13-.33.79.2.56.43.51.54.61.48.74.34.67.21.63.3.65.59L89,182l.49.38.7.16,1.21-.13.73.19.66.4.47.48,1.34,2,.47.42,1.31.72.55.42L98,188.15l.58.4.4.12.75.06.39.14.2.22.46.69.3.27.46.16,1.6.23,1.51.47.53.05,2.24-.17,1,.3.39,1,.42.41.68.19.77,0,.66-.18.64.13,1.95,1.15.94.34.48,0,.46-.12.45-.06.49.15,1.11,1.85.85.58.26.34v.65l-.29.68-.4,0-.45-.15-.48.07-.57.74-.5,1.21-.6,2.27-.21,1.69.43,1.14.91.87,1.22.9.68.7,0,.5-.24.54,0,.85.37.53,1.9,1.18.22.29.34.63.26.24.41.13,1.43-.16.19-.13.18,0,.26.44.06.45-.25,1,0,.46.41.59.64.45.7.31.62.15.29.15.09.17.1.05.36-.24.16-.29.18-.9.22-.38.71-.31.83.05.79.32.59.48.24.37.32,1.1v.25l-.09.22-.08.15,0,.1.17.15.45.1.16.12.63,1.44.32.29.69.37.33.32.21.45.14.93.14.4.28.28.92.52h0l.63,1.28-.47,3.1.44,1.38,1.51,1.39,1,1.92.88,1.18.35.67.5,1.55.35.65.49.39,2,.89,1.26.83,1,1,2.54,3.29.81.86h0l3.39,4.12,6.48,5.57.86.45.56.06.46-.29.55-.58.18-.34.1-.35.2-.24.49,0,.47.2.09.34-.05.43.09.49.21.28.54.57.13.24,0,.37-.32.64,0,.43.23.61,1.17,1.94,1.87,1.76.4.7,0,.24-.25.42,0,.19.85,1.69.1.39h0l.35.28.66.33.75.28.68.12.89.27,1.09-1,.34.67.06,11.71.23,1,.35.86.89,1,.73.45.79.32.52,0,.6.28.15.46-.17,2.17.05.46.55,1.6.6,1.07.88.66,1.15-.18v.43l.12.19.27,0,.38-.16.4-.3.07-.31v-.31l.18-.33,1-.67.44-.42.15-.68.84-1.4.93,0,.68,1.05.12,1.63-.17,1.35-.05.1-.13.13-.09.18v.23l.16.11.26-.09.24-.13.14,0,.47,1.1.37.5.67.56,1,.52.25.23.18.39.13.91.1.27.42.3.5.06,1.33-.05,1.53.17.67.22.72.36.74.54.35.52.41,2.17.22.52.34.45.49.44.59.37.53.15.55.09.61.17,1,.68,1.44,1.85.9.8,1.1.33,1.13-.13,2.16-.56.77,0,.18.19-.08.47-.06.77.19.46.26.32,0,.36-.47.57-.57.5-1.07,1.92-.58.68-.57.27-1.48.26-.7.27-2.72,1.76-.33.09-.35-.06-.35-.18-.41-.12-.48.11-.42.44-1,2.18-.07.84.46.6,2.14,1.25.4.43.18.59.18,1.67.18.63.36.57.66.5,1.49.76.5.44,2.06,3.73.49.31.27-.17.25-.35.38-.29h.29l.77.2.24-.07.18-.15.2.05.22.49h0l.12.3.16.16h.22l.29-.15.53.27.11.8,0,.95.17.72.73.43,1.67-.26.68.19.18.46.09,1.55.26.71.46.52,1.75,1.31.55.62.26.56,0,.62-.3,1.91-.1.24-.26.08-.2-.19-.23-.11-.37.35-.14.37-.08,1.32-.23.76-.4.59-.23.24-.56.42-.18.3,0,.4.35.72,0,.43L213,342l-.6.06-1.08-.19-.62.07-1.77.52-.74.07-.36.35,0,.54.26.64-.05.59.16.54.31.44.46.34.61.32,2.35,1.81.33.34-.1.42-.58.78-1.63,1.57-.31.54.13.62.39.63.19.58-.44.51.25.39.4.32.29.38-.06.57.47,1.06-.2,1-.91,2-.06.62.15,1.19,0,.64-.21.45-.55.81-.18.54,0,.29L209,365l-.47,1.05-.34.61-.49.41-.76.19-.25-.13-.16-.26-.22-.18-.5.16-.31.29-.12.33-.06.36-.12.37-.79,1.4-.28.74-.07.82.08.36.34.77.12.4V373l-.19,1.4-1.32,3.8-.19.95.16.47.37.39.44.68.08.79-.13.83,0,.81.45.73.66.24,1.46-.14.6.23.25.38,0,.39,0,.39,0,.36.56,1.18.1.69-.1.45-.21.46-.18.67.42,1.21,0,.36-.24.85,0,.42.2.6.74.89.36.6.09.18.9,1,.68,1,3.22,6.28L214,404l.25,3.91-.15,1.22L208.41,423l.1.57.6.45.1.29v.26l-.09.21-.2.16-.24.39-.06.44.08.44.44,1,.16,1.21.15.59.27.47,1.1,1.24.53,1.11.09,1,0,1.07.08,1.19,1,4.38.08,1.29-.15,1.2-.21.51-.23.43-.09.43.27.51v.94L211,448l-.21,1-.3.91-.58.71-1,.42-1,.64-1.31,1.78-.9.05-.74-.65L203.86,451l-.92-.55-1.72.15-2.51.78-2.31,1.14-1.16,1.21-.26.57-.47.43-1,.73L192.25,457l-2.67,2.66-1,.64-1.45.56-1.44.16-3-.22-1.21.1-.89.54-.64.93-.46,1.28-.75,1-.83.22-1.95-.44.31.6-3.35-.46-1.88,0-1.19.85-.52,0-.22-.27-.15-.35-.36-.25-.5-.08-.45,0-.92.24.38,1.06,1.14,2.16.23,1-.1.1-.58.94,0,.26,0,.75-.06.34-.26.56-.33.53-.2.54,0,.63,1.06,1.81.35.92-.36.6h-.51l-.49-.26-.85-.61-.55-.18-.39-.07-.41.05-2.2.57-.52-.09-.35-.28-.56-.88-.29-.33-.77-.42-2.69-.84-1.62,0-2-.63-1.79-.3-.91,1,0,.55-.1.53-.22.49-1.08,1.13-.37.83-.46.56-1.12-.05-1.85-.69-.68.14-.88.76-.51.56-.45.69-.11.79.49.84.48.25,1,.19.43.32.18.45,0,.53-.08,1,.6,2.09.06.61-.11.59-.42,1.34-.65,3,0,.57.49.39.64.16.52.31.11.85h0l.4,1.09.8.61,2.09.51.58.53.95,1.49.58.65,1.37,1.16.52.65.4.81.44-.85.6-.35.69.1.69.54.45.68.64,2.26.44.78-.27.24-1.24,0-.69.08-.13.14-.22.41.08.09,0,1-.06.09.2.64,1,1.82,1,3.79-.86-.71-1-.26-2.2-.21-1-.36-1.09-.55-1-.71-.73-.83-.35-.42-1.32-1.06-.05.64-.36.87-.47.78-.35.39-.82,0-.68-.45-.54-.63-.28-.57-.45-1.37-.28-.6-1.32-1.83-.7-1.2-.65-.76-1-.11-1.12.32-.91.55h0l-.74.47-.88.41-6.17,1.3-.32,0-.88-.43-1.11-.31-.18-.09-.48.33-1.58,1.84-1.17,2.36-.38.37-.58-.2-1.33-1.17-.6-.39-5.53-1-.55-.19-.45-.6-.09-.52-.23-.16-.86.45-.51.36-.53.48-.44.57-.25.63.13,1.36.62,1.49,1.39,2.57,0,1.28-1,.91-3.83,1.94-.51.43-.44.5-1.61,2.45-1,1-1.39.56-1.75.07-5.78-.71-1.68.07-.61.14-.51.39-.38.57-.32.62-1.63,2.38-.41.38-.55.09L91,526l.19.5-.11.65v.43l.63,0,.64-.18.51-.35.41-.48.31-.6h.29l.22.41,0,.37-.2.39-.29.44-.32.23H93l-.12.09.19.52.87,1.13.38.76.06,1.07h.31l0-.17,0-.11.17-.25,1.08.83.37.55.14.91v1.08l.11.37.52.59.17.26,0,.47-.15.29-.08.25.21.36.11-.07,1.37.07.13-.17.16-.76.24-.17.44-.1.09-.25,0-.35.14-.38,1-.89,1.22-.36,1.29.19,1.3.78.81,1,.76,1.32.92,1.23,1.26.74.91,0,1.54-.38.77.09.76.45,1.54,1.46,1.76,2.3.5.89.26.84v1.74l.23,1.47v.55l-.92-2.47-.11-.63-.4-.29-.85.39-2.39,1.78-.64.67-.27.69-.32.38-2.08.82L108,550.7l-.52,1.59L106,560l-.1,1.65.27,5-.55,1.8-.26,5.79-.31,2.36,0,4.6.19,1,.64.38v.27l-.72.51-.11.92.29,1.94-.12.82-.56,1.69-.12,1,.7,1,1.62-.4,2.47-1.09-.19.74.1.79.39.66v.24l-.66.47-.28.07h-1l-.62.07-.45.1-.18.21.19.44.9.52h1.22l1.25-.33.92-.44-.25.47-.56.43-.65.31-.55.13-2.57-.51-.5,0-.53.32.17.18.41.21.19.39-.16.42-.27.15-.35.09-.41.25-2.28,1.78-.39-.37-.47-.18-.32.11.12.44.22.11.92.34,2.44.39.28.16.19.18.24.13.91.14,8.58-1.71,1.47-.61,1-.76,1.27-2.08,2.46-2v-.24l1,.2,1.24-.8,1.11-1.17.64-.94,2.67-6.18,0-.18-.06-.43,0-.2.19-.16.51-.13.11-.11.16-.68.42-.52,1-.8,1.72-1.83.95-.82,8.63-3.2,10.09-4.09,5.35-1.65,1.11-.2.36-.28.16-.6-.1-.57-.27-.21-.34-.16-.39-.39,1.42-1.53.21-.5-.12-1.63-.16-.6-.25-.57-4.08-6-.35-.79-.16-.7-.24-.67-9.18-9.11-.75-1.12.74.11,1.23.78,1.36.35,1.11.82,1.47,1.37,3.69,4.58,7.23,6.81,3.38,1.82,1.88,1.43.51.25,1.6,0,.57-.36.4-.17.38.11.42.19.49-.11.83-.51,1-.87.76-1.15.49-1.35.19-2,0-.81-.19-.74-.47-.32-1-.15-.39-.43-.36-1.56-.69-1.27-1-1.1-3.4-2.79-.76-.95-.21-.12-2-1.88-.22-.35-.33-.65-.24-.35-.35-.34-2.66-1.95-.85-.79-.43-.5-.36-.57-.27-1.32-.31-.56-.91-1-.29-.18-.37-.18-.18-.19.32-.26.23.05.35.19.33.24,9.77,10,3.29,2,1,.73,2.31,2.5.92.74,1,.24,1-.36.77-.89.18-1.38h.24l.21.31.1.36-.06.37-.25.28v.29l.53-.48.44-.84.11-.79-.38-.35-.63-.16-2.19-1.16-2.06-1.58-3-1.43-.88-.8-3.64-4.73-.4-.81-.35-1.51-.46-.52-1.15-.92-.2-.08-.22-.1-.2-.23,1.53.48,1.12,1.14,3.24,5.16,1,1.21,1.14.91,1.95.8.59.43.54.53.55.41.65.23,1.45.06.16,0,.1-.13.09-.29.29-.39,0-.26.13-.19.61-.06.18-.17-.18-.35-.29-.33-.14-.12.1-.34.22-.32.51-.52.08-.16.19-.67h.28l.17.33.07.37-.05.36-.19.3.65.16.64-.36,2.11-2.21.23-.6.08-.9-.06-.35-.18-.21-.28-.09-.4,0-.41-.08-.26-.19-.19-.18-.2-.09-.24-.12-.63-.56-.2-.13-9.38-3.19-2.27-1.42.6-.2.56.23.62.35.77.18h1.47l2.84.55,4.13,0,2,.48.76.06.6-.37.18-.86-.3-3.4-.23-.58-.5-.58-.37-.55-.31-.67-.42-.58-.66-.24-.4.24-.62,1.07-.31.31-.77,0-.28-.45-.1-.64-.19-.55h-.26l-.29.6L176,525l-.58.36-.7.14-.41-.22-.19-.56-.07-1.37.27.35.2.4.11.5,0,.66.49-.33.52-.2.4-.24.3-.8.33-.3.44-.22.42-.09-.25-.26-.11-.24L177,522h.27l.38.7.65,0,1.25-.45.49-.29.29-.69.21-.81.22-.63.23-.25.23-.15.21-.23.13-.45-.45-1.1-.08-.38-.2-.22-.39-.18-.27-.26.19-.44.23-.18.76-.41.21-.08.52.24.6.52.51.59.21.42.35.44.78-.21,1.3-.65,2.39,2-.19,1.33,0,.71.21.77.23.34.22.16.19.19.15.41,0,.4-.16.42-.06.35.25.2.34-.3.86-1.53.68-.35-.76-.72-.31-1,0-1.19.27-1.1h.23l0,1.09-.06.48-.19.34v.24l.53.57-.3.27.48.4.35.2.27-.07,0-.34-.22-.23-.27-.21-.11-.29.44-1,.08-.64-.39-.29-.48-.23v-.53l.35-1-.29-.35-.55-.38-.4-.43.17-.58L191,516l.41.64.08,1-.43-.17-.12-.1.16.41.51.55.12.24.09,2.83,0,.39-.28.43-.37.22-.48.19-.38.32-.1.61h.23l.23-.3.31-.22.56-.28,0,.33.22.74.45-.22.28-.34.36-.78.14.52,0,.22-.11.33H193l.62-.41.83.06.76.38.51.54H196v-.57l.3.12.45.06h.41l.18,0,.77.8.19.14.2.12.25.28.18.36,0,.34-.21.25-.35.09-.32.12-.18.35,1,.15,1.5.88.68,0,1-1.46,1.15-1.06.32-.44.42.13,1.55-.49,1.74-.22.71-.2,2.48-1.11.76-.45.33-.49.2-.43,1-1,.4-.32,1.59-.88.9-.31.85-.13,2.55-1.35,1.44-.48.53-.3,1.63-1.36,2.28-1,.62-.12.83,0,.66.1,1.73.5.42.26h.26l1.45-2.9.3-1.62.55-1.11.13-.48.2-.54.91-.95.22-.4.47-.63,1.11-.38,4.83-.95,1,.33.33,1.21h.23l.6-1.25.38-.28.78-.09.19-.4.51-1.81.24-.51.28-.14.66,0,.41-.07,1.38-.7.31-.11,1-.14.37-.43.39-1.61.34-.63.53-.72.66-.57,1.11-.36.47-.54L252,496h1.48l.42-.1.79-.35.38-.09.51.06.83.39.39.09h.67l.46-.1.34-.32.29-.68.48-2,.33-.72.34-.49.51-.48,1.3-.92.66-.27.69-.13h.7l.61.14,1.71.76.7,0,.58-.18.56-.35,1-.79.48-.49.18-.46-.13-1.53.35-2.69v-1.7l-.6-1,.26,0,.82,0-.24-.66,0-.58.14-.54.08-.54-.28-.25-.45-.49-.06-.5.91-.23.19.29.28,1.37.46.51.73.16.64-.05.57,0,.48.4h.26l.48-.63.23-.43.1-.45.14-.32.71-.61.24-.27.14-.58,0-.4.09-.34.7-.86.34-.81.28-.3.29.3L278,474l-1.54-1.94.05-1-.48-.68.06-.54.26-.5.16-.57-.26,0-.61.65-.56.79-.19.36-1.24-.24L273.4,469l.43-1.29.77-.12,1-.89.66-1,.37-1.13.11-1.15-.21-.63-.91-.84-.21-.4.21-1.12-.07-.14-.18-.15-.49-.93.52-.7.36.47.38,1.7.89,2.34h-.29l.45,1.35-.23,2.89.32,1.19.13-.08.28-.1.14-.08.33.49.55.29.63,0,.65-.25v-.3l-.53-.2-.39-.44-.2-.59,0-.66.68-.54v-.13l.13-.7v-.25l-1.1-.77-.36-.42-1.12-2.11-.27-.69-.14-1.65,0-.34.45-.43.16-.35-.19-.46-.3-.36-.06-.16V457l-.07-.28-.06-.52-.21-.3-.53-.28v0l-.24.25.14-.47.4-.09,1,.29-.29-.43-.33-.4-.16-.46.24-.61-.76-.47-.36-.29-.21-.35.21.16.88.38.37-1.07.16-.26h.25l.46.22.21-.22v-.35l-.5-.33-.32-.35-.28-.41-.11-.34,0-.86-.14-1-.4-.62-.76.13-.26-.43-.62-.65-.18-.54h.27l.12.1.4.17-.12-.18-.21-.42-.19-.24,1.1-.17,1.19.75,1.7,1.89.52,1,.39.47.59.2.46-.36.25-.67.27-.36.47.55.3-.27-.3-.27.45-.42-.38-.55-.69-.48-.57-.2-.22-.14-.16-.33,0-.4.41-.81-.21-.33-1.92-1.25-.47-.51-.19-.72.21-.6.37-.66.07-.54-.65-.22v.3h.26v.24l-.43.12-.17.37-.06.46L277,442h-.29l0-.19-.06,0h-.1l-.11,0v-.38l-.13-.64,0-.61.3-.27-.15-1.54,0-.39,1.12-1.61.33-.26.52-.22.54-.52,1-1.18.38-.35,1.33-.88.19-.31.05-.31.13-.25.44-.1.15.18v1.2l.24.49.68.9.13.64-.16.36-.37.22-.37.14-.15.11-.11.21-.69,1h.47l.37.15.25.28.23.4.15-.35.06-.34-.06-.34-.15-.35.44.08.34-.05.22-.2.08-.37.78,1.38v.24l-.67.63-.11.08.05.43.14.19.18.12.15.18.5,1.18.4.45.44-.25,0-.49-.14-1.63.11-.59.22-.2.27-.07.23-.11.1-.31Z" style="fill:#e2ddd3"/></svg>