<svg xmlns="http://www.w3.org/2000/svg" viewBox="0 0 20 28.54"><title>followus-arrow</title><path d="M19.72,19.59a1.28,1.28,0,0,0-.46-.37l-.35-.14-.61-.23-1.23-.46-2-.73a18.13,18.13,0,0,0,.71-4.45,13.29,13.29,0,0,0-.17-2.52,11.08,11.08,0,0,0-.51-2,9.92,9.92,0,0,0-1.92-3.34,12.21,12.21,0,0,0-1.95-1.8A18.81,18.81,0,0,0,7.8,1.49c-.75-.37-1.51-.7-2.28-1L5,.23,4.67.11,4.6.08,4.48,0,4.22,0A1.18,1.18,0,0,0,3,1.35a1.12,1.12,0,0,0,.18.5l.22.29.36.48c.25.32.48.65.7,1a11,11,0,0,1,.65,1c.21.33.39.68.57,1s.32.72.49,1.07a11.48,11.48,0,0,1,.33,1.1,7.32,7.32,0,0,1,.2,1.12,8.54,8.54,0,0,1,0,1.13,14.29,14.29,0,0,1-1,3.89L3.8,13.23l-1.31-.48-.66-.24a1.36,1.36,0,0,0-1.29.19A1.38,1.38,0,0,0,0,13.87a1.91,1.91,0,0,0,.06.33l.07.18.12.33L.73,16c.34.87.66,1.74,1,2.61l1.89,4.75,1.55,4.54a.94.94,0,0,0,1,.63.93.93,0,0,0,.39-.12L12,25.32l3.81-1.94c.78-.4,1.56-.79,2.34-1.21l1.16-.62a1.58,1.58,0,0,0,.41-.3,1.32,1.32,0,0,0,.28-.52A1.27,1.27,0,0,0,19.72,19.59ZM6.3,28a.48.48,0,0,1-.42,0,.52.52,0,0,1-.28-.3L4.05,23.23l-1.4-4.92c-.25-.89-.52-1.78-.79-2.67l-.41-1.33L1.35,14l-.05-.14v0a.07.07,0,0,1,0-.05h0L2,14l1.3.51c.86.34,1.73.68,2.6,1l.66.25.25-.66c.29-.78.57-1.57.81-2.4a11.49,11.49,0,0,0,.42-2.58A11.74,11.74,0,0,0,8,8.81,9.49,9.49,0,0,0,7.74,7.5a12.9,12.9,0,0,0-.42-1.24c-.19-.39-.35-.8-.57-1.17S6.34,4.34,6.1,4s-.47-.71-.73-1-.5-.67-.78-1l-.4-.48L4,1.28l0-.07a.22.22,0,0,1,.2-.27h.08l.07,0,.3.1.58.2c.78.26,1.55.53,2.3.84a16.08,16.08,0,0,1,4.15,2.41l.13.11.18.16a10.35,10.35,0,0,1,.86.89,9.41,9.41,0,0,1,1.52,2.41c0,.05.05.11.08.16a3.42,3.42,0,0,0,.13.34A10.42,10.42,0,0,1,15,13.16a18.91,18.91,0,0,1-1.16,4.67l-.18.48.51.2c.81.33,1.62.67,2.44,1l1.23.47.61.24.27.09a.1.1,0,0,1,0,0s0,.06,0,.1,0,0,0,.05,0,0-.12.08l-1.12.69c-.75.45-1.49.92-2.23,1.39l-3.6,2.29Z" style="fill:#666"/></svg>