<svg xmlns="http://www.w3.org/2000/svg" viewBox="0 0 23.63 18.14"><title>icon-footer-yt</title><path d="M11.79,18.14c-.23,0-6-.08-7.81-.23a.8.8,0,0,0-.31,0,3.53,3.53,0,0,1-2.45-1.15,5.64,5.64,0,0,1-1-2.64S0,12,0,10.06V8.2a38.86,38.86,0,0,1,.24-4,5.53,5.53,0,0,1,1-2.68A3.32,3.32,0,0,1,3.67.35h.12c3.15-.31,8-.35,8-.35s4.85,0,8.05.28H20a3.39,3.39,0,0,1,2.4,1.14,5.73,5.73,0,0,1,1,2.64h0s.24,2.05.24,4V9.94a38.86,38.86,0,0,1-.24,4,5.55,5.55,0,0,1-1,2.68A3.29,3.29,0,0,1,20,17.79h-.12C16.64,18.14,11.83,18.14,11.79,18.14Zm0-17.35s-4.81,0-8,.27H3.71A2.66,2.66,0,0,0,1.77,2,5.19,5.19,0,0,0,1,4.22,37.34,37.34,0,0,0,.75,8.16V10A39.42,39.42,0,0,0,1,14a4.84,4.84,0,0,0,.78,2.21,2.76,2.76,0,0,0,2,.87c.12,0,.23,0,.35,0,1.74.2,7.65.27,7.69.27s4.82,0,8-.23h.12a2.58,2.58,0,0,0,1.89-.91A5.15,5.15,0,0,0,22.6,14,37.34,37.34,0,0,0,22.84,10V8.16a30.6,30.6,0,0,0-.24-3.94A5.64,5.64,0,0,0,21.81,2a2.58,2.58,0,0,0-1.89-.91h-.16C16.61.83,11.83.79,11.79.79Z" style="fill:#666"/><path d="M9,14a.31.31,0,0,1-.19,0,.4.4,0,0,1-.2-.35V5.09a.42.42,0,0,1,.2-.36.35.35,0,0,1,.39,0l7.49,4.38a.42.42,0,0,1,0,.71L9.23,14A.36.36,0,0,1,9,14Zm.4-8.28V13l6.31-3.51Z" style="fill:#666"/></svg>