<svg xmlns="http://www.w3.org/2000/svg" xmlns:xlink="http://www.w3.org/1999/xlink" viewBox="0 0 144.03 132.79"><defs><linearGradient id="a" x1="73.62" y1="103.81" x2="73.62" y2="29.62" gradientUnits="userSpaceOnUse"><stop offset="0" stop-color="#d8cd98"/><stop offset="0.34" stop-color="#ddd39f"/><stop offset="0.83" stop-color="#ebe2b2"/><stop offset="1" stop-color="#f1e9ba"/></linearGradient><linearGradient id="b" x1="34.62" y1="128.81" x2="34.62" y2="54.62" gradientUnits="userSpaceOnUse"><stop offset="0" stop-color="#7b7d80"/><stop offset="1" stop-color="#898a8d"/></linearGradient><linearGradient id="c" x1="108.62" y1="131.81" x2="108.62" y2="57.62" gradientUnits="userSpaceOnUse"><stop offset="0" stop-color="#907fa3"/><stop offset="1" stop-color="#a191b1"/></linearGradient></defs><title>icon-mix</title><path d="M98.68,48.19a24.1,24.1,0,1,1,24.09-24.1,24.1,24.1,0,0,1-24.09,24.1Z" style="fill:#fff"/><path d="M105.45,32.8l-3-4.08a.82.82,0,0,0-.51-.32.76.76,0,0,0-.58.15.8.8,0,0,0-.18,1.09l5,6.9,5-6.9a.82.82,0,0,0,.14-.59.8.8,0,0,0-.9-.65.85.85,0,0,0-.51.32l-3,4.08V18.89c-.24-1.32-1.17-1.32-1.56,0Z" style="fill:#2a2a2a"/><path d="M91.9,28.33V14.43l3,4.08a.78.78,0,0,0,1.09.17.77.77,0,0,0,.18-1.09l-5-6.9-5,6.9a.79.79,0,0,0,.18,1.09.78.78,0,0,0,1.09-.17l3-4.08v13.9C90.22,29.49,92.07,29.49,91.9,28.33Z" style="fill:#2a2a2a"/><path d="M99.44,71.19h0C98.67,62.24,97.51,50,97,48.94a8.19,8.19,0,0,0-1.39-2.27l-.5-8.22a2.4,2.4,0,0,0-1.39-2.4A35.3,35.3,0,0,0,73,29.67s-13-1.08-21.23,7c0,0-2.27,1.14-2.27,2.15v9.23a2.76,2.76,0,0,0-1.14,2.15c0,.92-.89,14-1.48,22.74,0,0-7.75,3.85-7.62,11.92s6.94,19.19,34.69,18.93S108,90.15,108,84.87C108,82.31,107.31,75.48,99.44,71.19Z" style="fill:url(#a)"/><path d="M47.1,86a.51.51,0,0,1-.36-.15c-1.77-1.78-1.66-4.92-1.66-5,0-.31,2-29.21,2-30.57a3.16,3.16,0,0,1,1.14-2.39v-9c0-1.2,1.93-2.27,2.48-2.56,8.28-8.1,21-7.15,21.57-7.1h0a35.12,35.12,0,0,1,20.06,5.91c.37.23.65.42.86.53a2.88,2.88,0,0,1,1.65,2.86l.5,8a10.24,10.24,0,0,1,1.35,2.26c.84,1.81,3.1,29.35,3.21,31.67a8.29,8.29,0,0,1-2.16,5.42.5.5,0,0,1-.73-.69,7.38,7.38,0,0,0,1.89-4.69c-.17-3.62-2.46-29.87-3.11-31.29A8.32,8.32,0,0,0,94.52,47l-.13-.13V46.7l-.51-8.27v-.06a1.9,1.9,0,0,0-1.14-1.88c-.22-.12-.52-.32-.92-.57a33.78,33.78,0,0,0-19.57-5.75c-.17,0-12.93-1-20.88,6.87l-.13.09c-1,.47-2,1.29-2,1.7v9.5l-.22.15a2.19,2.19,0,0,0-.92,1.73c0,1.39-1.94,29.43-2,30.62,0,0-.09,2.83,1.37,4.29a.5.5,0,0,1,0,.71A.49.49,0,0,1,47.1,86Z" style="fill:#231f20"/><path d="M72.27,104.31c-12.06,0-21.16-2.17-27.07-6.45-6.16-4.45-7.15-10-7.2-13-.13-8.29,7.82-12.33,7.9-12.37a.5.5,0,1,1,.44.89c-.07,0-7.46,3.81-7.34,11.46.07,4.4,2.75,18.74,34.19,18.44,27.54-.25,33.58-13.39,33.58-18.43,0-2.62-.81-9.16-8.3-13.24a.5.5,0,0,1,.47-.88c8,4.34,8.83,11.32,8.83,14.12,0,5.32-6.21,19.18-34.57,19.43Z" style="fill:#231f20"/><path d="M71.9,44.1c-7.3,0-15.06-1.38-15.06-4a.4.4,0,0,1,.8,0c0,1.32,5.43,3.15,14.26,3.15s14.25-1.83,14.25-3.15a.4.4,0,0,1,.8,0C87,42.72,79.2,44.1,71.9,44.1Z" style="fill:#231f20"/><path d="M71.9,54.75a.39.39,0,0,1-.4-.39.4.4,0,0,1,.39-.41c21.12-.49,22.58-7.43,22.59-7.5a.41.41,0,0,1,.46-.33.4.4,0,0,1,.33.46c0,.31-1.44,7.67-23.36,8.17Z" style="fill:#231f20"/><path d="M61.65,54.33h0a38.13,38.13,0,0,1-5.83-1.14c-6.74-2-7.41-5.09-7.43-5.23a.4.4,0,0,1,.32-.46.38.38,0,0,1,.46.31s.69,2.81,6.87,4.61a35.57,35.57,0,0,0,5.7,1.11.4.4,0,0,1-.05.8Z" style="fill:#231f20"/><path d="M97.64,85.48A7.78,7.78,0,0,0,99.49,81c0-1.62-.28-3.3-.43-5L98,66.14c-.36-3.3-.73-6.61-1.14-9.9-.2-1.65-.4-3.3-.65-4.92a11.69,11.69,0,0,0-.46-2.2,11.34,11.34,0,0,0-.57-1,6.15,6.15,0,0,0-.61-.84L94.32,47l0-.3-.58-8.21v-.2a1.49,1.49,0,0,0,0-.42,1.66,1.66,0,0,0-.19-.43,1.7,1.7,0,0,0-.34-.37,1.82,1.82,0,0,0-.23-.15l-.31-.18c-1-.59-1.77-1.13-2.67-1.64a33.83,33.83,0,0,0-5.51-2.52,34.89,34.89,0,0,0-5.88-1.47,40.94,40.94,0,0,0-6.07-.46H72.4a33.2,33.2,0,0,0-5.53.2A32.33,32.33,0,0,0,61.42,32a24.32,24.32,0,0,0-5.1,2.13,21.91,21.91,0,0,0-4.43,3.22l-.12.11-.11.06a8.74,8.74,0,0,0-1.17.72,2.34,2.34,0,0,0-.62.63l0,3-.06,6.23v.41l-.35.25a2,2,0,0,0-.81,1.4l-.18,2.34-.38,4.77-.8,9.54-.86,9.54c-.14,1.58-.31,3.18-.42,4.75a6.58,6.58,0,0,0,1.36,4.42,6.68,6.68,0,0,1-1.67-4.42c0-1.61.12-3.19.18-4.78l.4-9.54.46-9.52L47,52.46,47.08,50a3.07,3.07,0,0,1,.43-1.48,3.83,3.83,0,0,1,1-1.16l-.35.67-.07-6.23V39.1a3.82,3.82,0,0,1,0-.53,2.31,2.31,0,0,1,.58-1.12,5.15,5.15,0,0,1,.69-.65,9.74,9.74,0,0,1,1.46-.93l-.23.16a23.76,23.76,0,0,1,4.77-3.59,27.07,27.07,0,0,1,5.47-2.32,35,35,0,0,1,5.78-1.22,34.46,34.46,0,0,1,5.94-.23h-.09a43.92,43.92,0,0,1,6.38.52,36.15,36.15,0,0,1,6.22,1.59,33,33,0,0,1,5.81,2.72c.91.53,1.84,1.17,2.63,1.67l.37.22c.14.08.27.19.41.29a3.54,3.54,0,0,1,.7.79,3.08,3.08,0,0,1,.42,1,3,3,0,0,1,.07,1.14v-.2l.43,8.22-.24-.53a9.54,9.54,0,0,1,1.45,2.35,4.52,4.52,0,0,1,.23.73,5.55,5.55,0,0,1,.13.67c.07.43.13.85.18,1.27.21,1.67.37,3.32.53,5,.3,3.32.55,6.64.8,10s.43,6.64.62,10c.07,1.67.23,3.3.19,5A8,8,0,0,1,97.64,85.48Z" style="fill:#231f20"/><path d="M60.44,96.19h0c-.77-9-1.93-21.16-2.44-22.25a8.19,8.19,0,0,0-1.39-2.27l-.5-8.22a2.4,2.4,0,0,0-1.39-2.4A35.3,35.3,0,0,0,34,54.67s-13-1.08-21.23,7c0,0-2.27,1.14-2.27,2.15v9.23a2.76,2.76,0,0,0-1.14,2.15c0,.92-.89,14-1.48,22.74,0,0-7.75,3.85-7.62,11.92s6.94,19.19,34.69,18.93S69,115.15,69,109.87C69,107.31,68.31,100.48,60.44,96.19Z" style="fill:url(#b)"/><path d="M9.1,111a.51.51,0,0,1-.36-.15c-1.77-1.78-1.66-4.92-1.66-5,0-.31,2-29.21,2-30.57a3.16,3.16,0,0,1,1.14-2.39v-9c0-1.2,1.93-2.27,2.48-2.56,8.28-8.1,21-7.14,21.57-7.1h0a35.12,35.12,0,0,1,20.06,5.91c.37.23.65.42.86.53a2.88,2.88,0,0,1,1.65,2.86l.5,8a10.24,10.24,0,0,1,1.35,2.26c.84,1.81,3.1,29.35,3.21,31.67a8.29,8.29,0,0,1-2.16,5.42.5.5,0,0,1-.73-.69,7.38,7.38,0,0,0,1.89-4.69c-.17-3.62-2.46-29.87-3.11-31.29A8.32,8.32,0,0,0,56.52,72l-.13-.13V71.7l-.51-8.27v-.06a1.9,1.9,0,0,0-1.14-1.88c-.22-.12-.52-.32-.92-.57a33.78,33.78,0,0,0-19.57-5.75c-.17,0-12.93-1-20.88,6.87l-.13.09c-1,.47-2,1.29-2,1.7v9.5l-.22.15a2.19,2.19,0,0,0-.92,1.73c0,1.39-1.94,29.43-2,30.62,0,0-.09,2.83,1.37,4.29a.5.5,0,0,1,0,.71A.49.49,0,0,1,9.1,111Z" style="fill:#231f20"/><path d="M34.27,129.31c-12.06,0-21.16-2.17-27.07-6.45-6.16-4.45-7.15-10-7.2-13-.13-8.29,7.82-12.33,7.9-12.37a.5.5,0,1,1,.44.89c-.07,0-7.46,3.81-7.34,11.46.07,4.4,2.74,18.73,34.19,18.44,27.54-.25,33.58-13.39,33.58-18.43,0-2.62-.81-9.16-8.3-13.24a.5.5,0,0,1,.47-.88c8,4.34,8.83,11.32,8.83,14.12,0,5.32-6.21,19.18-34.57,19.43Z" style="fill:#231f20"/><path d="M33.9,69.1c-7.3,0-15.06-1.38-15.06-3.95a.4.4,0,0,1,.8,0c0,1.32,5.43,3.15,14.26,3.15s14.25-1.83,14.25-3.15a.4.4,0,0,1,.8,0C49,67.72,41.2,69.1,33.9,69.1Z" style="fill:#231f20"/><path d="M33.9,79.75a.39.39,0,0,1-.4-.39.4.4,0,0,1,.39-.41c21.12-.49,22.58-7.43,22.59-7.5a.41.41,0,0,1,.46-.33.4.4,0,0,1,.33.46c0,.31-1.44,7.67-23.36,8.17Z" style="fill:#231f20"/><path d="M23.65,79.33h0a38.13,38.13,0,0,1-5.83-1.14c-6.74-2-7.41-5.09-7.43-5.23a.4.4,0,0,1,.32-.46.39.39,0,0,1,.46.31s.69,2.81,6.87,4.61a35.57,35.57,0,0,0,5.7,1.11.4.4,0,0,1-.05.8Z" style="fill:#231f20"/><path d="M46.79,56.6a34.31,34.31,0,0,0-8.55-2,36.29,36.29,0,0,0-4.4-.21,36.2,36.2,0,0,0-4.4.43A35.67,35.67,0,0,0,21,57.24,25,25,0,0,0,13.6,62l-.06.05-.07,0a8.76,8.76,0,0,0-1.24.76,2.11,2.11,0,0,0-.78.9l0,3-.06,6.23v.19l-.17.12a2.35,2.35,0,0,0-1,1.72l-.15,2.39L9.7,82.25,9,91.77l-.74,9.53c-.12,1.59-.27,3.18-.36,4.76a6.65,6.65,0,0,0,1.47,4.42,6.61,6.61,0,0,1-1.56-4.42c.06-1.6.18-3.18.26-4.77l.56-9.54.54-9.54.26-4.77.1-2.38a3.07,3.07,0,0,1,1.28-2.31l-.17.31-.06-6.23,0-1.56V64.1a4.67,4.67,0,0,1,0-.47,2.7,2.7,0,0,1,1.11-1.5A8.42,8.42,0,0,1,13,61.24l-.13.09c2.18-2.18,4.79-2.88,7.57-4.16a36.73,36.73,0,0,1,8.75-2.67A38.33,38.33,0,0,1,33.78,54a37.09,37.09,0,0,1,4.6.12,36.5,36.5,0,0,1,9,1.91Z" style="fill:#231f20"/><path d="M8.36,98a16.4,16.4,0,0,0-5.24,5,11.66,11.66,0,0,0-1.89,6.78,14.21,14.21,0,0,0,2,6.74A16.82,16.82,0,0,0,8,121.67a33.48,33.48,0,0,0,13.32,5.08,79.1,79.1,0,0,0,14.52,1,64.36,64.36,0,0,0,14.4-1.71l1.75-.43c.58-.16,1.14-.38,1.71-.57s1.15-.38,1.71-.59l1.64-.73a30,30,0,0,0,3.17-1.68c.51-.31,1-.67,1.47-1l.74-.51.67-.58a18,18,0,0,0,4.49-5.45,12.75,12.75,0,0,0,1.2-3.29,10.57,10.57,0,0,0,.07-3.51,14.54,14.54,0,0,0-2.53-6.66,18.14,18.14,0,0,0-5.38-4.89,17.07,17.07,0,0,1,5.81,4.57,15.42,15.42,0,0,1,3.07,6.84,11.48,11.48,0,0,1,.09,3.84,13.73,13.73,0,0,1-1.16,3.68,18.9,18.9,0,0,1-4.63,6l-.71.65-.76.57c-.51.37-1,.77-1.54,1.12a30.74,30.74,0,0,1-3.32,1.84l-1.72.8c-.58.24-1.18.44-1.77.66s-1.18.45-1.78.63l-1.82.49a65.44,65.44,0,0,1-14.85,1.87A78.45,78.45,0,0,1,21,128.6a34,34,0,0,1-13.9-5.69,17.82,17.82,0,0,1-5-5.76,15.38,15.38,0,0,1-1.82-7.37,12.45,12.45,0,0,1,2.44-7.09A15.63,15.63,0,0,1,8.36,98Z" style="fill:#231f20"/><path d="M134.44,99.19h0c-.77-9-1.93-21.16-2.44-22.25a8.19,8.19,0,0,0-1.39-2.27l-.5-8.22a2.4,2.4,0,0,0-1.39-2.4A35.3,35.3,0,0,0,108,57.67s-13-1.08-21.23,7c0,0-2.27,1.14-2.27,2.15v9.23a2.76,2.76,0,0,0-1.14,2.15c0,.92-.89,14-1.48,22.74,0,0-7.75,3.85-7.62,11.92s6.94,19.19,34.69,18.93S143,118.15,143,112.87C143,110.31,142.31,103.48,134.44,99.19Z" style="fill:url(#c)"/><path d="M83.1,114a.51.51,0,0,1-.36-.15c-1.77-1.78-1.66-4.92-1.66-5,0-.31,2-29.21,2-30.57a3.16,3.16,0,0,1,1.14-2.39v-9c0-1.2,1.93-2.27,2.48-2.56,8.28-8.1,21-7.14,21.57-7.1h0a35.12,35.12,0,0,1,20.06,5.91c.37.23.65.42.86.53a2.88,2.88,0,0,1,1.65,2.86l.5,8a10.24,10.24,0,0,1,1.35,2.26c.84,1.81,3.1,29.35,3.21,31.67a8.29,8.29,0,0,1-2.16,5.42.5.5,0,0,1-.73-.69,7.38,7.38,0,0,0,1.89-4.69c-.17-3.62-2.46-29.87-3.11-31.29a8.32,8.32,0,0,0-1.3-2.13l-.13-.13V74.7l-.51-8.27v-.06a1.9,1.9,0,0,0-1.14-1.88c-.22-.12-.52-.32-.92-.57a33.78,33.78,0,0,0-19.57-5.75c-.17,0-12.93-1-20.88,6.87l-.13.09c-.95.47-2,1.29-2,1.7v9.5l-.22.15a2.19,2.19,0,0,0-.92,1.73c0,1.39-1.94,29.43-2,30.62,0,0-.09,2.83,1.37,4.29a.5.5,0,0,1,0,.71A.49.49,0,0,1,83.1,114Z" style="fill:#231f20"/><path d="M108.27,132.31c-12.06,0-21.16-2.17-27.07-6.45-6.16-4.45-7.15-10-7.2-13-.13-8.29,7.82-12.33,7.9-12.37a.5.5,0,1,1,.44.89c-.07,0-7.46,3.81-7.34,11.46.07,4.36,2.69,18.45,33.27,18.45h.92c27.54-.25,33.58-13.39,33.58-18.43,0-2.62-.81-9.16-8.3-13.24a.5.5,0,0,1,.47-.88c8,4.34,8.83,11.32,8.83,14.12,0,5.32-6.21,19.18-34.57,19.43Z" style="fill:#231f20"/><path d="M107.9,72.1c-7.3,0-15.06-1.38-15.06-3.95a.4.4,0,1,1,.8,0c0,1.32,5.43,3.15,14.26,3.15s14.25-1.83,14.25-3.15a.4.4,0,1,1,.8,0C123,70.72,115.2,72.1,107.9,72.1Z" style="fill:#231f20"/><path d="M107.9,82.75a.39.39,0,0,1-.4-.39.4.4,0,0,1,.39-.41c21.12-.49,22.58-7.43,22.59-7.5a.41.41,0,0,1,.46-.33.4.4,0,0,1,.33.46c0,.31-1.44,7.67-23.36,8.17Z" style="fill:#231f20"/><path d="M97.65,82.33h0a38.13,38.13,0,0,1-5.83-1.14c-6.74-2-7.41-5.09-7.43-5.23a.4.4,0,0,1,.32-.46.38.38,0,0,1,.46.31s.69,2.81,6.87,4.61a35.57,35.57,0,0,0,5.7,1.11.4.4,0,0,1,0,.8Z" style="fill:#231f20"/><path d="M133.64,113.48a7.87,7.87,0,0,0,2-4.48c0-1.65-.24-3.31-.37-5l-1-9.93c-.34-3.31-.68-6.61-1.07-9.91-.2-1.65-.39-3.3-.64-4.94a10.9,10.9,0,0,0-.49-2.32,9.38,9.38,0,0,0-1.26-2l-.11-.11v-.15l-.59-8.21v-.11a1.85,1.85,0,0,0-.32-1.15,2.12,2.12,0,0,0-.44-.46,6.22,6.22,0,0,0-.61-.38c-1-.62-1.75-1.24-2.64-1.81a30.78,30.78,0,0,0-11.45-4.65,36.67,36.67,0,0,0-6.19-.51h-.06a25.83,25.83,0,0,0-2.64,0c-.89,0-1.79.11-2.67.23a32.85,32.85,0,0,0-5.22,1.06l-.47-.63a35.82,35.82,0,0,1,5.51-1q1.39-.15,2.79-.18a26.68,26.68,0,0,1,2.82,0h-.06a37.61,37.61,0,0,1,6.44.66,33.33,33.33,0,0,1,6.18,1.94,32.63,32.63,0,0,1,5.64,3.12c.88.59,1.75.3,2.56.84a3.71,3.71,0,0,1,1.35,1.18,2.77,2.77,0,0,1,.44,1.86v-.11l.43,8.22-.12-.26a9.78,9.78,0,0,1,1.37,2.24,4.69,4.69,0,0,1,.33,1.3l.18,1.24c.21,1.66.38,3.32.54,5,.32,3.31.6,6.63.87,9.94l.75,10c.1,1.66.28,3.31.27,5A7.92,7.92,0,0,1,133.64,113.48Z" style="fill:#231f20"/><path d="M82.36,101a16.4,16.4,0,0,0-5.24,5,11.66,11.66,0,0,0-1.89,6.78,14.21,14.21,0,0,0,2,6.74A16.82,16.82,0,0,0,82,124.67a33.48,33.48,0,0,0,13.32,5.08,79.1,79.1,0,0,0,14.52,1,64.36,64.36,0,0,0,14.4-1.71l1.75-.43c.58-.16,1.14-.38,1.71-.57s1.15-.38,1.71-.59l1.64-.73a30,30,0,0,0,3.17-1.68c.51-.31,1-.67,1.47-1l.74-.51.67-.58a18,18,0,0,0,4.49-5.45,12.75,12.75,0,0,0,1.2-3.29,10.57,10.57,0,0,0,.07-3.51,14.54,14.54,0,0,0-2.53-6.66,18.14,18.14,0,0,0-5.38-4.89,17.07,17.07,0,0,1,5.81,4.57,15.42,15.42,0,0,1,3.07,6.84,11.48,11.48,0,0,1,.09,3.84,13.73,13.73,0,0,1-1.16,3.68,18.9,18.9,0,0,1-4.63,6l-.71.65-.76.57c-.51.37-1,.77-1.54,1.12a30.74,30.74,0,0,1-3.32,1.84l-1.72.8c-.58.24-1.18.44-1.77.66s-1.18.45-1.78.63l-1.82.49a65.44,65.44,0,0,1-14.85,1.87A78.45,78.45,0,0,1,95,131.6a34,34,0,0,1-13.9-5.69,17.82,17.82,0,0,1-5-5.76,15.38,15.38,0,0,1-1.82-7.37,12.45,12.45,0,0,1,2.44-7.09A15.63,15.63,0,0,1,82.36,101Z" style="fill:#231f20"/></svg>