<svg xmlns="http://www.w3.org/2000/svg" viewBox="0 0 40 40.75"><title>icon-expand</title><path d="M40,20.22A19.93,19.93,0,0,0,33.76,5.73a18,18,0,0,0-6-4.25A18.34,18.34,0,0,0,20,0a18.75,18.75,0,0,0-4.89.82A20,20,0,0,0,0,20.22a19.36,19.36,0,0,0,.32,3.52,18.14,18.14,0,0,0,1,4.21A19.63,19.63,0,0,0,5.6,34.62,19.85,19.85,0,0,0,20,40.75a20.06,20.06,0,0,0,7.8-1.69,18.23,18.23,0,0,0,6.31-4.68A19.91,19.91,0,0,0,40,20.22ZM20,38A18.51,18.51,0,0,1,7.34,32.88,19.13,19.13,0,0,1,2,23.32a18.61,18.61,0,0,1-.28-3.1A18.28,18.28,0,0,1,15.45,2.56,20,20,0,0,1,20,2.18,20.83,20.83,0,0,1,32.37,6.83a18.18,18.18,0,0,1,.34,26.47A19.67,19.67,0,0,1,20,38Z" style="fill:#2a2a2a"/><path d="M28.26,19.14h-8v-8a.65.65,0,0,0-.65-.65.66.66,0,0,0-.66.65v8.05h-8a.65.65,0,0,0,0,1.3h8v8a.67.67,0,0,0,.66.66.66.66,0,0,0,.65-.66v-8h8a.65.65,0,0,0,0-1.3Z" style="fill:#2a2a2a"/></svg>