<svg xmlns="http://www.w3.org/2000/svg" viewBox="0 0 23.67 23.27"><title>icon-footer-li</title><path d="M3.23,6.31H3.16A3,3,0,0,1,1,5.4,3.13,3.13,0,0,1,1,.91,3.13,3.13,0,0,1,3.19,0h0A3,3,0,0,1,5.4,1a2.92,2.92,0,0,1,.91,2.21A3.12,3.12,0,0,1,5.36,5.4,3,3,0,0,1,3.23,6.31Zm-.07-.79a2.13,2.13,0,0,0,1.65-.67,2.25,2.25,0,0,0,.71-1.69,2.32,2.32,0,0,0-.71-1.7A2.3,2.3,0,0,0,3.19.79h0A2.36,2.36,0,0,0,.79,3.16,2.29,2.29,0,0,0,1.5,4.85,2.35,2.35,0,0,0,3.16,5.52Z" style="fill:#666"/><path d="M4.73,23.27H1.58A1.22,1.22,0,0,1,.39,22.09V8.28A1.16,1.16,0,0,1,1.54,7.1H4.73A1.22,1.22,0,0,1,5.92,8.28V22.13A1.21,1.21,0,0,1,4.73,23.27ZM1.54,7.89a.39.39,0,0,0-.36.39V22.09a.42.42,0,0,0,.4.39H4.73a.39.39,0,0,0,.4-.35V8.28a.43.43,0,0,0-.4-.39Z" style="fill:#666"/><path d="M22.88,23.27H18.93a.85.85,0,0,1-.79-.79V14a2,2,0,0,0-.55-1.61,2.29,2.29,0,0,0-1.66-.68A2.22,2.22,0,0,0,13.77,14v8.52a.78.78,0,0,1-.79.71H8.64a.77.77,0,0,1-.79-.71V7.85a.81.81,0,0,1,.79-.75h3.94a.84.84,0,0,1,.79.79v.55a5.36,5.36,0,0,1,4-1.73h.82a5.48,5.48,0,0,1,5.53,5.6V22.48A.85.85,0,0,1,22.88,23.27ZM19,22.48h3.87l0,0V12.31a4.71,4.71,0,0,0-4.7-4.82h-.83a4.47,4.47,0,0,0-3.62,1.82l0,0-1.07,1.06V7.93l0,0H8.68V22.48H13V14a3,3,0,0,1,3-3.11,3.1,3.1,0,0,1,2.21.9A2.9,2.9,0,0,1,18.93,14l0,8.48Z" style="fill:#666"/></svg>