<svg xmlns="http://www.w3.org/2000/svg" xmlns:xlink="http://www.w3.org/1999/xlink" viewBox="0 0 168.32 102.71"><defs><linearGradient id="a" x1="94.17" y1="93.9" x2="159.22" y2="28.85" gradientUnits="userSpaceOnUse"><stop offset="0" stop-color="#999"/><stop offset="1" stop-color="#b3b3b3"/></linearGradient></defs><title>icon-chains</title><path d="M80.44,31.43h0c-1.86-.59-17.7-6.25-11.87-24.89a1.13,1.13,0,0,0-.73-1.38,1.11,1.11,0,0,0-1.38.72C60.63,24.52,44.38,20.15,42.6,19.59h0a1,1,0,0,0-.72,0,1.24,1.24,0,0,0-.43.23,1.26,1.26,0,0,0-.33,1.05,1.19,1.19,0,0,0,.8.87l.08,0c1.86.58,17.62,6.22,11.79,24.86a1.11,1.11,0,0,0,2.11.66c5.8-18.56,22-14.3,23.86-13.71h0a1.32,1.32,0,0,0,1.15-.27,1.06,1.06,0,0,0,.25-1.08" style="fill:#fff"/><path d="M86.1,44.41,79.45,31.34a5.69,5.69,0,0,0-7.63-2.47l-2.37,1.2A5.7,5.7,0,0,0,67,37.7l6.66,13.06a5.67,5.67,0,0,0,7.62,2.48L83.62,52A5.68,5.68,0,0,0,86.1,44.41ZM79.52,50a2.84,2.84,0,0,1-3.81-1.24L69.79,37.17A2.84,2.84,0,0,1,71,33.36l2.52-1.29a2.84,2.84,0,0,1,3.81,1.24l5.92,11.62a2.84,2.84,0,0,1-1.23,3.81Z" style="fill:#7b7d80"/><path d="M78.69,54.26a6.07,6.07,0,0,1-5.42-3.32L66.61,37.88a6.09,6.09,0,0,1,2.66-8.16l2.37-1.21a6.07,6.07,0,0,1,8.16,2.65l6.66,13.07a6.08,6.08,0,0,1-2.65,8.16L81.43,53.6A6.14,6.14,0,0,1,78.69,54.26ZM74.38,28.65a5.24,5.24,0,0,0-2.38.57l-2.37,1.21a5.29,5.29,0,0,0-2.3,7.09L74,50.58a5.28,5.28,0,0,0,7.09,2.3l2.37-1.2a5.27,5.27,0,0,0,2.3-7.09L79.09,31.53A5.28,5.28,0,0,0,74.38,28.65Zm3.86,22.09A3.24,3.24,0,0,1,75.35,49L69.43,37.36A3.24,3.24,0,0,1,70.84,33l2.53-1.29a3.24,3.24,0,0,1,4.35,1.41l5.92,11.62a3.24,3.24,0,0,1-1.41,4.35L79.7,50.39A3.2,3.2,0,0,1,78.24,50.74ZM79.52,50h0ZM74.83,32.17a2.43,2.43,0,0,0-1.1.26l-2.52,1.29A2.43,2.43,0,0,0,70.14,37l5.92,11.62a2.44,2.44,0,0,0,3.28,1.06l2.52-1.28a2.44,2.44,0,0,0,1.07-3.28L77,33.5A2.43,2.43,0,0,0,74.83,32.17Z" style="fill:#231f20"/><rect x="75.78" y="49.23" width="24" height="4" rx="2" ry="2" transform="translate(30.76 -32.9) rotate(25.6)" style="fill:#7b7d80"/><path d="M96.79,58a2.49,2.49,0,0,1-1-.23l-18-8.64a2.4,2.4,0,1,1,2.07-4.33l18,8.64a2.39,2.39,0,0,1-.24,4.42A2.3,2.3,0,0,1,96.79,58Zm-18-12.64a1.62,1.62,0,0,0-1.45.91,1.6,1.6,0,0,0,.75,2.13l18,8.65a1.61,1.61,0,0,0,1.22.06,1.54,1.54,0,0,0,.91-.82,1.59,1.59,0,0,0-.75-2.13l-18-8.64A1.51,1.51,0,0,0,78.77,45.31Z" style="fill:#231f20"/><path d="M39,59.08,30.11,70.74a5.69,5.69,0,0,0,1.08,8L33.3,80.3a5.69,5.69,0,0,0,8-1.07l8.88-11.67a5.68,5.68,0,0,0-1.07-7.94L46.94,58A5.68,5.68,0,0,0,39,59.08Zm7.92,3.49a2.85,2.85,0,0,1,.54,4L39.55,76.92a2.83,2.83,0,0,1-4,.53l-2.25-1.72a2.84,2.84,0,0,1-.54-4l7.9-10.37a2.85,2.85,0,0,1,4-.54Z" style="fill:#7b7d80"/><path d="M36.73,81.86a6.08,6.08,0,0,1-3.67-1.24L30.94,79a6,6,0,0,1-2.33-4,6.09,6.09,0,0,1,1.18-4.49l8.89-11.66a6.07,6.07,0,0,1,8.51-1.15L49.3,59.3a6.09,6.09,0,0,1,1.15,8.51L41.57,79.47A6.1,6.1,0,0,1,36.73,81.86Zm2.59-22.54L30.43,71a5.3,5.3,0,0,0,1,7.39L33.55,80a5.27,5.27,0,0,0,7.38-1l8.89-11.66a5.29,5.29,0,0,0-1-7.38L46.7,58.32a5.27,5.27,0,0,0-7.38,1ZM39,59.08h0ZM37.3,78.43a3.17,3.17,0,0,1-2-.66l-2.26-1.72a3.24,3.24,0,0,1-.61-4.53l7.9-10.37a3.25,3.25,0,0,1,4.54-.62l2.25,1.72a3.25,3.25,0,0,1,.62,4.54L39.87,77.16A3.23,3.23,0,0,1,37.3,78.43ZM43,60.67a2.44,2.44,0,0,0-1.94,1L33.11,72a2.44,2.44,0,0,0,.46,3.42l2.25,1.71a2.44,2.44,0,0,0,3.42-.46l7.9-10.37a2.44,2.44,0,0,0-.46-3.41l-2.26-1.72A2.46,2.46,0,0,0,43,60.67Z" style="fill:#231f20"/><path d="M45.5,27.89,36.6,39.54a5.69,5.69,0,0,0,1.07,8l2.11,1.62A5.69,5.69,0,0,0,47.73,48l8.9-11.65a5.69,5.69,0,0,0-1.07-7.95l-2.11-1.61A5.68,5.68,0,0,0,45.5,27.89Zm7.92,3.5a2.84,2.84,0,0,1,.53,4L46,45.73a2.85,2.85,0,0,1-4,.53l-2.25-1.72a2.83,2.83,0,0,1-.53-4L47.19,30.2a2.84,2.84,0,0,1,4-.53Z" style="fill:#7b7d80"/><path d="M43.2,50.66a6,6,0,0,1-3.66-1.24l-2.12-1.61a6.1,6.1,0,0,1-1.14-8.51l8.9-11.65a6.08,6.08,0,0,1,8.51-1.14l2.11,1.61a6.08,6.08,0,0,1,1.14,8.51L48.05,48.28a6,6,0,0,1-4,2.33A5.78,5.78,0,0,1,43.2,50.66Zm2.62-22.53-8.9,11.66a5.2,5.2,0,0,0-1,3.89,5.26,5.26,0,0,0,2,3.49L40,48.79a5.2,5.2,0,0,0,3.89,1,5.26,5.26,0,0,0,3.49-2l8.9-11.65a5.28,5.28,0,0,0-1-7.39L53.2,27.14a5.28,5.28,0,0,0-7.38,1Zm-2,19.11a3.2,3.2,0,0,1-2-.66l-2.25-1.72A3.23,3.23,0,0,1,39,40.33L46.87,30a3.25,3.25,0,0,1,4.54-.61l2.25,1.72a3.25,3.25,0,0,1,.61,4.54L46.36,46A3.26,3.26,0,0,1,43.78,47.24Zm5.67-17.75a2.42,2.42,0,0,0-1.94,1L39.6,40.81a2.43,2.43,0,0,0,.45,3.41l2.26,1.72a2.44,2.44,0,0,0,3.41-.45l7.91-10.37a2.42,2.42,0,0,0-.46-3.41L50.92,30A2.4,2.4,0,0,0,49.45,29.49Z" style="fill:#231f20"/><rect x="31.48" y="52.29" width="24" height="4" rx="2" ry="2" transform="translate(-11.41 97) rotate(-89.2)" style="fill:#7b7d80"/><path d="M43.34,66.69h0a2.4,2.4,0,0,1-2.36-2.43l.27-20a2.41,2.41,0,0,1,2.44-2.37A2.41,2.41,0,0,1,46,44.32l-.27,20a2.41,2.41,0,0,1-2.4,2.37Zm.27-24a1.6,1.6,0,0,0-1.11.45A1.56,1.56,0,0,0,42,44.27l-.28,20a1.59,1.59,0,0,0,1.57,1.62,1.64,1.64,0,0,0,1.63-1.58l.27-20a1.55,1.55,0,0,0-.45-1.13,1.6,1.6,0,0,0-1.12-.49Z" style="fill:#231f20"/><path d="M22.78,67.26,11.12,58.38a5.69,5.69,0,0,0-7.95,1.07L1.56,61.57a5.68,5.68,0,0,0,1.07,7.94L14.29,78.4a5.69,5.69,0,0,0,8-1.08l1.61-2.11A5.69,5.69,0,0,0,22.78,67.26Zm-3.49,7.92a2.86,2.86,0,0,1-4,.54L4.94,67.82a2.86,2.86,0,0,1-.54-4l1.72-2.25a2.86,2.86,0,0,1,4-.54L20.47,69a2.85,2.85,0,0,1,.53,4Z" style="fill:#7b7d80"/><path d="M17.71,80a6,6,0,0,1-3.66-1.24L2.39,69.83a6.08,6.08,0,0,1-1.15-8.51l1.61-2.11a6.09,6.09,0,0,1,8.51-1.15L23,66.94a6.08,6.08,0,0,1,1.15,8.51l-1.61,2.12a6,6,0,0,1-4,2.32A5.9,5.9,0,0,1,17.71,80ZM7.7,57.62a5.81,5.81,0,0,0-.72.05,5.26,5.26,0,0,0-3.49,2L1.88,61.81a5.26,5.26,0,0,0,1,7.38l11.66,8.89a5.3,5.3,0,0,0,7.39-1L23.53,75a5.27,5.27,0,0,0-1-7.38L10.87,58.69A5.2,5.2,0,0,0,7.7,57.62ZM17,76.7A3.23,3.23,0,0,1,15.07,76L4.7,68.14a3.25,3.25,0,0,1-.61-4.54L5.8,61.35a3.26,3.26,0,0,1,4.54-.62l10.37,7.91a3.23,3.23,0,0,1,.61,4.53L19.6,75.42a3.21,3.21,0,0,1-2.14,1.25A3.15,3.15,0,0,1,17,76.7ZM8.39,60.88a1.94,1.94,0,0,0-.34,0,2.43,2.43,0,0,0-1.61.93L4.72,64.09a2.45,2.45,0,0,0,.46,3.41l10.38,7.9A2.45,2.45,0,0,0,19,74.94l1.72-2.25a2.46,2.46,0,0,0-.46-3.42L9.85,61.37A2.4,2.4,0,0,0,8.39,60.88Z" style="fill:#231f20"/><rect x="15.57" y="69.74" width="24" height="4" rx="2" ry="2" transform="translate(1 -0.38) rotate(0.8)" style="fill:#7b7d80"/><path d="M37.57,74.28h0l-20-.28a2.4,2.4,0,0,1,0-4.8h0l20,.28a2.32,2.32,0,0,1,1.68.73,2.36,2.36,0,0,1,.69,1.7A2.41,2.41,0,0,1,37.57,74.28Zm0-.8h0a1.6,1.6,0,0,0,1.14-2.72,1.59,1.59,0,0,0-1.12-.48l-20-.28h0a1.6,1.6,0,0,0,0,3.2Z" style="fill:#231f20"/><path d="M57.55.3h0C57,.84,52.33,5.35,46.88.12a.43.43,0,0,0-.6,0,.44.44,0,0,0,0,.6c5.45,5.24,1.13,10.11.63,10.63h0a.36.36,0,0,0-.11.26.54.54,0,0,0,0,.18.49.49,0,0,0,.31.3.46.46,0,0,0,.44-.13l0,0c.53-.54,5.2-5,10.65.21a.44.44,0,0,0,.6,0,.45.45,0,0,0,0-.61C53.4,6.33,57.67,1.46,58.19.91h0A.52.52,0,0,0,58.3.47.4.4,0,0,0,58,.2" style="fill:#fff"/><polygon points="72.05 9.84 74.76 10.91 66.78 22.69 64.95 20.31 72.05 9.84" style="fill:#7b7d80"/><line x1="66.89" y1="23.05" x2="75.08" y2="10.89" style="fill:#7b7d80"/><line x1="72.35" y1="10.03" x2="65.06" y2="20.84" style="fill:#7b7d80"/><path d="M66.89,23.45a.36.36,0,0,1-.22-.07.4.4,0,0,1-.11-.55l8.19-12.17a.39.39,0,0,1,.55-.1.4.4,0,0,1,.11.55L67.22,23.27A.38.38,0,0,1,66.89,23.45Z" style="fill:#231f20"/><path d="M65.06,21.24a.38.38,0,0,1-.22-.07.4.4,0,0,1-.11-.55L72,9.8a.4.4,0,0,1,.67.45L65.4,21.07A.42.42,0,0,1,65.06,21.24Z" style="fill:#231f20"/><polygon points="57.25 17.56 53.12 15.84 52.02 11.51 54.29 9.55 57.25 17.56" style="fill:#7b7d80"/><line x1="57.49" y1="17.68" x2="53.78" y2="9.7" style="fill:#7b7d80"/><line x1="51.85" y1="11.82" x2="54.72" y2="18.42" style="fill:#7b7d80"/><path d="M57.49,18.08a.4.4,0,0,1-.36-.23l-3.72-8a.4.4,0,0,1,.2-.53.4.4,0,0,1,.53.19l3.71,8a.4.4,0,0,1-.19.53A.35.35,0,0,1,57.49,18.08Z" style="fill:#231f20"/><path d="M54.72,18.82a.41.41,0,0,1-.37-.24L51.49,12a.39.39,0,0,1,.2-.52.4.4,0,0,1,.53.2l2.87,6.6a.39.39,0,0,1-.21.52A.29.29,0,0,1,54.72,18.82Z" style="fill:#231f20"/><polygon points="59.46 0.55 62.35 0.96 59.31 4.27 56.99 2.38 59.46 0.55" style="fill:#7b7d80"/><line x1="59.51" y1="4.59" x2="62.65" y2="0.86" style="fill:#7b7d80"/><line x1="59.79" y1="0.66" x2="57.22" y2="2.87" style="fill:#7b7d80"/><path d="M59.51,5a.43.43,0,0,1-.26-.09.4.4,0,0,1,0-.56L62.34.61a.4.4,0,0,1,.57,0,.39.39,0,0,1,0,.56L59.82,4.85A.39.39,0,0,1,59.51,5Z" style="fill:#231f20"/><path d="M57.22,3.27a.37.37,0,0,1-.3-.14.39.39,0,0,1,0-.56L59.53.36a.39.39,0,0,1,.56,0,.39.39,0,0,1,0,.56L57.48,3.18A.41.41,0,0,1,57.22,3.27Z" style="fill:#231f20"/><path d="M158.14,63h0c-.91-10.63-2.3-25.15-2.9-26.44a10.06,10.06,0,0,0-1.65-2.7l-.6-9.77a2.85,2.85,0,0,0-1.65-2.85c-2-1.06-9.85-7.59-24.65-7.59,0,0-15.48-1.28-25.24,8.34,0,0-2.7,1.35-2.7,2.55v11A3.27,3.27,0,0,0,97.4,38c0,1.1-1.06,16.64-1.77,27,0,0-9.2,4.58-9,14.16s8.25,22.81,41.24,22.51,40.5-16.23,40.5-22.51C168.32,76.19,167.5,68.07,158.14,63Z" style="fill:url(#a)"/><path d="M143.32,26.07a.5.5,0,0,0-.5-.5.5.5,0,0,0-.5.5c0,1.55-6.44,3.72-16.92,3.72s-16.92-2.17-16.92-3.72a.5.5,0,0,0-.5-.5.5.5,0,0,0-.5.5c0,3.07,9.23,4.72,17.92,4.72S143.32,29.14,143.32,26.07Z" style="fill:#231f20"/><path d="M168,76.54a18.11,18.11,0,0,0-3.6-8.11l0,0a20.67,20.67,0,0,0-6.44-5.61c-.13-2-.27-4-.42-5.92-.31-3.94-.63-7.88-1-11.82-.19-2-.38-3.94-.63-5.92-.06-.5-.13-1-.22-1.5a5.52,5.52,0,0,0-.14-.79,4.15,4.15,0,0,0-.27-.84,12.34,12.34,0,0,0-1.46-2.46c-.15-3.17-.36-6.33-.53-9.49a3.15,3.15,0,0,0-.09-1.12,3.48,3.48,0,0,0-.48-1.12,4,4,0,0,0-.79-.89c-.16-.11-.31-.24-.47-.33l-.43-.26c-1-.6-2.06-1.35-3.14-2A40.29,40.29,0,0,0,141,15.13a43.23,43.23,0,0,0-7.34-1.89,51.73,51.73,0,0,0-7.55-.63h.08a40.8,40.8,0,0,0-7,.28,41.25,41.25,0,0,0-6.84,1.46,31.82,31.82,0,0,0-6.45,2.74,28,28,0,0,0-5.55,4.13,12.13,12.13,0,0,0-1.58,1A6,6,0,0,0,98,23a2.54,2.54,0,0,0-.64,1.24,3.73,3.73,0,0,0,0,.6v3.24c0,2.35,0,4.7.06,7a4.28,4.28,0,0,0-.82,1,3.94,3.94,0,0,0-.34.82A3.29,3.29,0,0,0,96,38c0,1.07-1,16.33-1.74,26.74-1.47.81-9.22,5.56-9.08,14.47a18.54,18.54,0,0,0,5.25,12.5,21.87,21.87,0,0,0,3.13,2.88c.59.48,1.25.85,1.86,1.28l1,.62,1,.52,2,1,2.08.83a50.59,50.59,0,0,0,8.59,2.43,92.68,92.68,0,0,0,17.66,1.39,77.06,77.06,0,0,0,17.61-2.2l2.16-.58c.71-.21,1.4-.5,2.11-.74s1.4-.5,2.1-.77l2-1a39.55,39.55,0,0,0,3.93-2.17c.63-.41,1.22-.89,1.83-1.33.3-.22.61-.44.9-.67l.84-.76a22.42,22.42,0,0,0,5.49-7.13,16.22,16.22,0,0,0,1.38-4.33A13.55,13.55,0,0,0,168,76.54ZM160.2,91.36l-.81.7c-.28.21-.58.41-.87.62-.59.4-1.15.83-1.76,1.2a35.89,35.89,0,0,1-3.78,2l-2,.88c-.67.26-1.35.47-2,.71s-1.35.49-2,.68l-2.09.53a77.13,77.13,0,0,1-17.16,2,94.18,94.18,0,0,1-17.29-1.26,39.76,39.76,0,0,1-15.9-6.09,20.3,20.3,0,0,1-5.7-6.19,17.14,17.14,0,0,1-2.34-8.07,14,14,0,0,1,2-7.65A18.86,18.86,0,0,1,94.19,66c-.32,4.78-.57,8.28-.57,8.4s-.14,3.85,1.95,5.93a.48.48,0,0,0,.7,0,.5.5,0,0,0,0-.71c-1.77-1.77-1.66-5.15-1.65-5.17,0-.24.1-1.47.22-3.31q.1-1,.18-2.07l1-11.33.89-11.34.44-5.67.22-2.79a2.22,2.22,0,0,1,.47-1.2c.92,1.34,3.09,3.39,8.2,4.88a43.46,43.46,0,0,0,6.93,1.35h.06a.51.51,0,0,0,.5-.44.5.5,0,0,0-.44-.56,42.55,42.55,0,0,1-6.77-1.32c-5.08-1.48-7-3.5-7.74-4.63l.17-.12v-.41c0-2.47.06-4.94.06-7.41l0-3.56a2.49,2.49,0,0,1,.8-.87,9.51,9.51,0,0,1,1.43-.89l.1,0,.12-.11a26,26,0,0,1,5.3-3.89,29.39,29.39,0,0,1,6.1-2.53,39.06,39.06,0,0,1,6.52-1.33A38.64,38.64,0,0,1,126,14.6h.09a50.08,50.08,0,0,1,7.24.53,41.32,41.32,0,0,1,7,1.76,38.39,38.39,0,0,1,6.59,3c1.07.6,2,1.26,3.16,1.95l.37.22c.11.06.2.14.29.2a2.2,2.2,0,0,1,.44.48,1.78,1.78,0,0,1,.26.58,2.05,2.05,0,0,1,.05.57v.19c.22,3.21.41,6.42.66,9.62-.39,1.17-3.69,8.2-26.79,8.73a.5.5,0,0,0,0,1h0c20.8-.48,26.06-6.14,27.37-8.61.14.19.28.39.4.59.24.39.47.81.68,1.23a6,6,0,0,1,.28,1c1,5.67,3.35,33.33,3.49,36.28s-2.25,5.62-2.27,5.64a.5.5,0,0,0,.73.69,9.78,9.78,0,0,0,2.54-6.38c0-.3-.06-1-.13-1.93-.06-1.1-.14-2.19-.19-3.28L158,64a17.67,17.67,0,0,1,8.93,15.24,14.74,14.74,0,0,1-2.61,7.61A22.17,22.17,0,0,1,160.2,91.36Z" style="fill:#231f20"/></svg>