<svg xmlns="http://www.w3.org/2000/svg" viewBox="0 0 23.67 23.67"><title>icon-footer-ig</title><path d="M16.92,23.67H6.74A6.77,6.77,0,0,1,0,16.92V6.74A6.77,6.77,0,0,1,6.74,0H16.92a6.77,6.77,0,0,1,6.75,6.74V16.92A6.77,6.77,0,0,1,16.92,23.67ZM6.74.79a6,6,0,0,0-5.95,6V16.92a6,6,0,0,0,6,6H16.92a6,6,0,0,0,6-6V6.74a6,6,0,0,0-6-5.95Z" style="fill:#666"/><path d="M11.83,6.51a5.33,5.33,0,1,0,5.33,5.32A5.33,5.33,0,0,0,11.83,6.51Zm0,9.66a4.34,4.34,0,1,1,4.34-4.34A4.33,4.33,0,0,1,11.83,16.17Z" style="fill:#666"/><path d="M19.33,5.52a1.19,1.19,0,1,0-1.19,1.19,1.17,1.17,0,0,0,1.19-1.19" style="fill:#666"/></svg>