<svg xmlns="http://www.w3.org/2000/svg" viewBox="0 0 49.96 50.97"><title>icon-footer-phone</title><path d="M35.7,50.56l-.5,0A25.79,25.79,0,0,1,26,47.81,49.67,49.67,0,0,1,9.44,34.89a45.64,45.64,0,0,1-8-13.44A18.3,18.3,0,0,1,0,13.68,7.66,7.66,0,0,1,2.29,8.86l3.6-3.64a5.06,5.06,0,0,1,3.5-1.51,4.83,4.83,0,0,1,3.44,1.52c.67.61,1.31,1.27,2,1.94l.83.85,3.05,3.05a4.7,4.7,0,0,1,0,7.09L17.6,19.25c-.74.74-1.48,1.49-2.26,2.21l-.09.08.05.1a21.22,21.22,0,0,0,2.88,4.54,36.5,36.5,0,0,0,8.73,8c.31.19.7.38,1.05.56l.91.48,3.43-3.41a5,5,0,0,1,3.5-1.56h.05a4.88,4.88,0,0,1,3.41,1.56l5.81,5.83a4.93,4.93,0,0,1,1.58,3.51,5.1,5.1,0,0,1-1.56,3.55c-.4.43-.85.87-1.37,1.36l-.12.12a21.22,21.22,0,0,0-1.7,1.79l-.37.45,0,0A8.15,8.15,0,0,1,35.7,50.56ZM9.39,4.68A4,4,0,0,0,6.58,5.92L3,9.55a6.61,6.61,0,0,0-2,4.21A17.4,17.4,0,0,0,2.3,21.11a44.39,44.39,0,0,0,7.89,13.15A48.64,48.64,0,0,0,26.37,46.93a25,25,0,0,0,8.88,2.64A7.26,7.26,0,0,0,41,47.41l.26-.28a20.46,20.46,0,0,1,1.63-1.69l.11-.12c.52-.49,1-.92,1.35-1.33a4.18,4.18,0,0,0,1.28-2.88,4,4,0,0,0-1.29-2.82l-5.82-5.84a3.81,3.81,0,0,0-2.72-1.26h0A4,4,0,0,0,33,32.46l-3.93,3.92-1.55-.82a12.22,12.22,0,0,1-1.12-.6,37.24,37.24,0,0,1-9-8.17,22.13,22.13,0,0,1-3-4.75l-.34-.74.61-.56c.77-.7,1.49-1.44,2.2-2.15L18,17.47a3.71,3.71,0,0,0,0-5.71l-3.05-3c-.28-.29-.57-.58-.84-.87-.64-.65-1.27-1.3-1.93-1.9A3.92,3.92,0,0,0,9.39,4.68Z" style="fill:#666"/><path d="M45.26,38.17c-.3-.32-.61-.59-.91-.89l-1.8-1.73L39,32.05a4.57,4.57,0,0,0-2.72-1.44,4.52,4.52,0,0,0-3,.77,8.91,8.91,0,0,0-1.18,1L31,33.45l-2,1.9-2-1.16c-.7-.48-1.37-1-2-1.53a36.57,36.57,0,0,1-3.68-3.47A49.67,49.67,0,0,1,18,25.32a22.79,22.79,0,0,1-2.25-3.71c.59-.57,1.17-1.16,1.75-1.74l1.07-1.11a10.12,10.12,0,0,0,1.09-1.27A4.91,4.91,0,0,0,20.46,14a5.38,5.38,0,0,0-1.66-3L14.32,6.79,13.19,5.73a9.55,9.55,0,0,0-1.21-1,4.54,4.54,0,0,0-3.16-.77A5.08,5.08,0,0,0,6,5.42L3.79,7.6,2.7,8.69A10,10,0,0,0,1.63,9.86,7.63,7.63,0,0,0,.27,12.77a14.74,14.74,0,0,0,.29,6.31A37.13,37.13,0,0,0,2.65,25,48,48,0,0,0,9.41,35.51a49.86,49.86,0,0,0,9.15,8.56A43.38,43.38,0,0,0,29.7,49.91a21.79,21.79,0,0,0,3.11.79,14.7,14.7,0,0,0,3.27.26,9.06,9.06,0,0,0,3.29-.82,7.76,7.76,0,0,0,2.15-1.52l.06.06.48-.63a20.39,20.39,0,0,1,1.59-1.83l.86-.92c.29-.32.58-.6.86-1a5.24,5.24,0,0,0,1.1-2.46A4.4,4.4,0,0,0,46,39.25,5.35,5.35,0,0,0,45.26,38.17Zm.47,3.57a4.4,4.4,0,0,1-1.09,2c-.25.27-.58.55-.88.83l-.92.84c-.42.37-.85.77-1.26,1.19h0l-.56.57a6.82,6.82,0,0,1-5,2,13.48,13.48,0,0,1-2.85-.33,25.93,25.93,0,0,1-2.83-.8,38.67,38.67,0,0,1-5.45-2.48,46.54,46.54,0,0,1-5.13-3.17,48.92,48.92,0,0,1-9-8.06,50.77,50.77,0,0,1-6.87-9.94A33.93,33.93,0,0,1,1.61,18.8,13.66,13.66,0,0,1,1,12.93a6.53,6.53,0,0,1,1.13-2.67,10.29,10.29,0,0,1,1-1.13L4.23,8,6.39,5.84A4.35,4.35,0,0,1,8.9,4.54a3.66,3.66,0,0,1,2.67.73,8.48,8.48,0,0,1,1.09,1l1.05,1.1,4.22,4.5a4.09,4.09,0,0,1,1.15,2.34,3.38,3.38,0,0,1-.74,2.36,28.59,28.59,0,0,1-2.06,2.1c-.75.69-1.45,1.4-2.2,2.1l-.46.42.25.58a20.59,20.59,0,0,0,1.22,2.38,24.42,24.42,0,0,0,1.53,2.19,35.38,35.38,0,0,0,3.54,3.89,34.1,34.1,0,0,0,4.08,3.31c.72.5,1.45,1,2.21,1.4l2.35,1.14.24.11.17-.17,2.09-2.24,1.06-1.11a8.09,8.09,0,0,1,1.09-1,4,4,0,0,1,2.78-.81,4.4,4.4,0,0,1,2.61,1.34l3.49,3.58,1.73,1.82A6.13,6.13,0,0,1,45.5,39.5,3.61,3.61,0,0,1,45.73,41.74Z" style="fill:#666"/><path d="M35.48,14.42a19.1,19.1,0,0,1,2.94,3.74,22.93,22.93,0,0,1,2,4.44,12.26,12.26,0,0,0-1.12-4.91,14.33,14.33,0,0,0-2.93-4.19,14,14,0,0,0-4.22-2.89,11.73,11.73,0,0,0-4.92-1.07,22.12,22.12,0,0,1,4.46,2A19.45,19.45,0,0,1,35.48,14.42Z" style="fill:#666"/><path d="M49.63,22.19a22.27,22.27,0,0,0-2.17-8,25.08,25.08,0,0,0-4.88-6.86A24.83,24.83,0,0,0,35.7,2.45,22,22,0,0,0,27.65.33a32.26,32.26,0,0,1,7.58,3,29.72,29.72,0,0,1,6.43,4.86,29.46,29.46,0,0,1,4.9,6.41,32.57,32.57,0,0,1,3.07,7.57Z" style="fill:#666"/><path d="M40.44,22.93a.33.33,0,0,1-.32-.27A15.71,15.71,0,0,0,27.33,9.87h-.08a.32.32,0,0,1-.32-.32.32.32,0,0,1,.32-.33l.19,0A16.36,16.36,0,0,1,40.76,22.55a.31.31,0,0,1-.26.37Z" style="fill:#666"/><path d="M49.63,22.52a.32.32,0,0,1-.3-.21l0-.07A26.49,26.49,0,0,0,27.72.66h-.07a.33.33,0,0,1-.33-.32A.33.33,0,0,1,27.65,0l.19,0A27.13,27.13,0,0,1,50,22.13a.33.33,0,0,1-.2.37Z" style="fill:#666"/></svg>