<svg xmlns="http://www.w3.org/2000/svg" viewBox="0 0 34.07 34.94"><title>icon-coffee-md-dark</title><path d="M2.56,23.82a8.58,8.58,0,0,0,1.68,5.12,15.23,15.23,0,0,0,4.85,3.55h8.53a15.26,15.26,0,0,0,4.84-3.55,8.59,8.59,0,0,0,1.69-5.12v-5H2.56Z" style="fill:#2a2a2a"/><path d="M26.61,18.61h-.38V22A.38.38,0,0,0,27,22V19.36c1.51,0,2.48.07,3.06.56a2.66,2.66,0,0,1,.61,1.74,2.24,2.24,0,0,1-.54,1.67,4.75,4.75,0,0,1-3.2,1.28h-.68a.38.38,0,1,0,0,.75h.68a5.52,5.52,0,0,0,3.72-1.48,2.94,2.94,0,0,0,.77-2.24,3.29,3.29,0,0,0-.88-2.3C29.71,18.65,28.51,18.61,26.61,18.61Z" style="fill:#2a2a2a"/><path d="M8.69,5.75a1.13,1.13,0,0,1,0,.75,4,4,0,0,1-.22.37,2.81,2.81,0,0,0-.75,1.94.38.38,0,0,0,.38.38.37.37,0,0,0,.37-.38A2.14,2.14,0,0,1,9.08,7.3l0,0L9.4,7a1.79,1.79,0,0,0,.32-1.5A3.91,3.91,0,0,0,9,4.31a2.33,2.33,0,0,1-.41-1.76,1.73,1.73,0,0,1,.11-.37,3.2,3.2,0,0,1,.36-.5A1.82,1.82,0,0,0,9.62.38.37.37,0,0,0,9.25,0a.38.38,0,0,0-.38.38,1.1,1.1,0,0,1-.37.82A3.92,3.92,0,0,0,8,2c0,.09-.12.17-.17.28A2.75,2.75,0,0,0,8.11,5,3.81,3.81,0,0,1,8.69,5.75Z" style="fill:#2a2a2a"/><path d="M14,5.75a1.13,1.13,0,0,1,0,.75,3.71,3.71,0,0,1-.21.37A2.78,2.78,0,0,0,13,8.81a.38.38,0,1,0,.75,0,2.12,2.12,0,0,1,.61-1.51l0,0,.3-.31A1.79,1.79,0,0,0,15,5.47a3.71,3.71,0,0,0-.7-1.16,2.28,2.28,0,0,1-.4-1.76,1.86,1.86,0,0,1,.1-.37,4,4,0,0,1,.36-.5,1.83,1.83,0,0,0,.55-1.3A.38.38,0,0,0,14.51,0a.37.37,0,0,0-.37.38,1.11,1.11,0,0,1-.38.82,3.82,3.82,0,0,0-.53.8,2.82,2.82,0,0,0-.18.29A2.75,2.75,0,0,0,13.37,5,3.45,3.45,0,0,1,14,5.75Z" style="fill:#2a2a2a"/><path d="M19.21,5.75a1.13,1.13,0,0,1,0,.75,3.71,3.71,0,0,1-.21.37,2.78,2.78,0,0,0-.75,1.94.38.38,0,1,0,.75,0,2.12,2.12,0,0,1,.62-1.51v0L19.93,7a1.78,1.78,0,0,0,.31-1.5,3.53,3.53,0,0,0-.7-1.16,2.28,2.28,0,0,1-.4-1.76,1.3,1.3,0,0,1,.11-.37,2.66,2.66,0,0,1,.36-.5,1.82,1.82,0,0,0,.54-1.3.38.38,0,1,0-.75,0A1.14,1.14,0,0,1,19,1.2a3.47,3.47,0,0,0-.54.8,1.69,1.69,0,0,0-.17.29A2.75,2.75,0,0,0,18.63,5,3.45,3.45,0,0,1,19.21,5.75Z" style="fill:#2a2a2a"/><path d="M33.62,24.66a6.17,6.17,0,0,0,.19-.74A10.74,10.74,0,0,0,34.06,22a13.24,13.24,0,0,0-.19-2.81,8.2,8.2,0,0,0-.38-1.41,3.79,3.79,0,0,0-.36-.73,2.28,2.28,0,0,0-.66-.6,6,6,0,0,0-2.87-.82c-.71-.06-1.41-.07-2.11-.08l0-3.73a1.21,1.21,0,0,0-.61-1,1.19,1.19,0,0,0-.58-.17H22.8c-2.88,0-5.76,0-8.64.08s-5.76.09-8.64.2l-1,0H.92a.92.92,0,0,0-.92.92V25.71a12.34,12.34,0,0,0,.08,1.48A8.63,8.63,0,0,0,1.65,31.1v0l0,0A15.82,15.82,0,0,0,4,33.25a15.3,15.3,0,0,0,2.7,1.64l.1,0H6.9q3.39,0,6.78-.07l4.55-.14h2.22a.28.28,0,0,0,.15,0c.23-.1,5.33-2.45,6-6.43h.73A8.19,8.19,0,0,0,32.86,26a2.87,2.87,0,0,0,.7-1.19.21.21,0,0,0,0-.07A.53.53,0,0,0,33.62,24.66Zm-.86.19a.14.14,0,0,0,0,.06,2.15,2.15,0,0,1-.39.59,7.45,7.45,0,0,1-5,2H26.27a.38.38,0,0,0-.38.34c-.35,3.51-4.9,5.83-5.53,6.13H18.25l-4.57-.14q-3.33-.08-6.64-.07a14,14,0,0,1-2.41-1.4,14.56,14.56,0,0,1-2.17-1.9A8.58,8.58,0,0,1,.91,27.05a6.5,6.5,0,0,1-.12-.9s0-.08,0-.12c0-.2,0-.4,0-.59V11.86a.18.18,0,0,1,.17-.17H4.48l1,0c2.88.11,5.76.13,8.64.2s5.76.05,8.64.07h3.35l0,4.14v.64h.64c1.76,0,3.71-.13,5,.61.55.24.79,1.16,1,2a15.13,15.13,0,0,1,.31,2.6,9.06,9.06,0,0,1-.24,2.4A4.56,4.56,0,0,1,32.76,24.85Z" style="fill:#2a2a2a"/></svg>