<svg xmlns="http://www.w3.org/2000/svg" viewBox="0 0 23.67 23.67"><title>icon-footer-fb</title><path d="M15.78,23.67H11V15.78H7.89V11H11v-2a5.19,5.19,0,0,1,4.7-5.13h4.38V8.68H16.17a.37.37,0,0,0-.39.39v2h3.94v4.74H15.78Zm-3.95-.79H15V15h3.94V11.83H15V9.07a1.16,1.16,0,0,1,1.18-1.18h3.16V4.73H15.78a4.37,4.37,0,0,0-3.95,4.34v2.76H8.68V15h3.15Z" style="fill:#666"/><path d="M21.69,23.67H2a2,2,0,0,1-2-2V2A2,2,0,0,1,2,0H21.69a2,2,0,0,1,2,2V21.69A2,2,0,0,1,21.69,23.67ZM2,.79A1.16,1.16,0,0,0,.79,2V21.69A1.17,1.17,0,0,0,2,22.88H21.69a1.17,1.17,0,0,0,1.19-1.19V2A1.17,1.17,0,0,0,21.69.79Z" style="fill:#666"/></svg>