<svg xmlns="http://www.w3.org/2000/svg" xmlns:xlink="http://www.w3.org/1999/xlink" viewBox="0 0 150.38 115.23"><defs><linearGradient id="a" x1="1945.51" y1="524.07" x2="1955.88" y2="491.93" gradientTransform="matrix(-0.93, -0.36, -0.36, 0.93, 2076.55, 276.87)" gradientUnits="userSpaceOnUse"><stop offset="0" stop-color="#736357"/><stop offset="0.75" stop-color="#998675"/></linearGradient><linearGradient id="b" x1="-266.51" y1="-294.07" x2="-252.63" y2="-337.13" gradientTransform="translate(385.56 276.79) rotate(-17.88)" xlink:href="#a"/><linearGradient id="c" x1="667.03" y1="453.96" x2="659.37" y2="363.78" gradientTransform="translate(-344.21 -572.93) rotate(24.85)" gradientUnits="userSpaceOnUse"><stop offset="0" stop-color="#736357"/><stop offset="0.72" stop-color="#998675"/></linearGradient></defs><title>icon-beans</title><path d="M98.07,33.25s-1.41-8.93-14.32-7.2-36.5,8.51-36.52,18.24,3.1,14,10.5,13.45,27.44-1,32.89-5.32S107.88,40.63,98.07,33.25Z" style="fill:url(#a)"/><path d="M46.55,44.29c0,5.85,1.13,9.77,3.5,12a8,8,0,0,0,4.09,2,10.17,10.17,0,0,0,1.33.2,15.94,15.94,0,0,0,2.29,0l2.17-.1,4.35-.2A132,132,0,0,0,81.73,56.5c1.45-.28,2.89-.61,4.33-1,.72-.19,1.43-.48,2.14-.72.35-.15.7-.33,1-.49a5.29,5.29,0,0,0,1-.58c.32-.22.68-.45,1-.67l.84-.68L93.8,51c1.14-.92,2.27-1.86,3.36-2.86l1-1c2.43-2.35,4.36-5,4.35-7.84,0-2.3-1.31-4.46-3.85-6.42-.38-1.51-2.73-8.49-13.58-7.64H85l-.44,0-.63.06a76.34,76.34,0,0,0-8.66,1.46,77.32,77.32,0,0,0-8.46,2.34c-1,.33-1.92.69-2.88,1.06C54.71,33.48,46.57,38.26,46.55,44.29Zm6.32,12.18a6.32,6.32,0,0,1-1.9-1.2c-2.08-1.93-3.08-5.52-3.07-11,0-5,7.08-9,13-11.5,1.15-.48,2.32-.92,3.5-1.35,1-.3,1.91-.6,2.87-.88a125.1,125.1,0,0,1,16.84-3.85c.48-.06,1-.12,1.45-.16a18.94,18.94,0,0,1,2.38,0,10.78,10.78,0,0,1,7.32,2.94,8.33,8.33,0,0,1,1.83,2.86c-.49-.08-1-.13-1.48-.17a17.75,17.75,0,0,0-2.63,0,21.45,21.45,0,0,0-5.1,1.08,30.13,30.13,0,0,0-4.73,2.07l-1.23.69-1.21.7c-2.25,1.32-1.88,2,.4.69l1.12-.65c.43-.23.87-.47,1.31-.68a28.51,28.51,0,0,1,4.65-1.85,20.34,20.34,0,0,1,4.87-.87,15.4,15.4,0,0,1,2.45,0,11.15,11.15,0,0,1,2.23.42c2.28,1.75,3.41,3.52,3.41,5.44,0,2.31-1.62,4.59-3.74,6.68-.4.37-.79.73-1.2,1.08-1.09.93-2.22,1.8-3.38,2.66L91.08,51l-.88.66c-.29.2-.56.34-.83.52a4.4,4.4,0,0,1-.89.46l-.94.4c-.67.21-1.31.47-2,.64-1.35.37-2.75.66-4.16.91-2.81.52-5.68.85-8.55,1.16s-5.76.53-8.65.73l-4.35.31L57.65,57a15.93,15.93,0,0,1-2.07,0A9.08,9.08,0,0,1,52.87,56.47Z" style="fill:#231f20"/><path d="M10.86,42.57s2.59-11.83,19.72-8.5S78.71,48.37,78,61.38,72.69,79.86,62.84,78.53,26.23,75,19.29,68.8-2.85,51.64,10.86,42.57Z" style="fill:url(#b)"/><path d="M56.72,41.19c-1.25-.57-2.5-1.13-3.76-1.65a104.06,104.06,0,0,0-11.12-3.8,106.15,106.15,0,0,0-11.48-2.65L29.53,33l-.59-.09h-.09C14.41,30.87,10.71,40,10.08,42c-3.55,2.43-5.45,5.21-5.65,8.29-.24,3.78,2.12,7.49,5.18,10.82.42.48.84.94,1.28,1.4,1.38,1.42,2.82,2.77,4.27,4.08l2.17,2,1.06,1c.37.33.84.66,1.26,1a6.79,6.79,0,0,0,1.33.85c.45.25.9.52,1.36.74.93.38,1.86.83,2.8,1.14,1.89.68,3.8,1.24,5.71,1.73a180.43,180.43,0,0,0,23.2,3.65l5.8.61,2.89.31a22.31,22.31,0,0,0,3.06.13,15.62,15.62,0,0,0,1.8-.16,10.82,10.82,0,0,0,5.63-2.34c3.34-2.76,5.18-7.9,5.63-15.73C79.32,53.37,68.81,46.33,56.72,41.19Zm9,36.55A19.84,19.84,0,0,1,63,77.53l-2.9-.42-5.79-.76c-3.85-.5-7.69-1-11.51-1.67s-7.62-1.31-11.34-2.22C29.6,72,27.76,71.51,26,70.9c-.9-.28-1.74-.68-2.62-1l-1.22-.62A5.88,5.88,0,0,1,21,68.6c-.35-.26-.7-.47-1.07-.77l-1.13-1L16.54,65c-1.48-1.24-2.93-2.5-4.31-3.82-.52-.51-1-1-1.52-1.54C8,56.68,6,53.49,6.23,50.4c.17-2.56,1.81-4.85,5-7a14.4,14.4,0,0,1,3-.39,20,20,0,0,1,3.28.13A27.11,27.11,0,0,1,24,44.69,39.46,39.46,0,0,1,30,47.54c.57.32,1.14.67,1.7,1l1.44,1c3,2,5.26,3.52,9,3.4,1,0,1.93-.09,2.84-.15,4.6-.29,8.56-.54,17.3,3a.79.79,0,0,0,.2,0,.55.55,0,0,0,.5-.34.53.53,0,0,0-.29-.69c-9-3.66-13-3.4-17.78-3.1-.9,0-1.82.11-2.8.14-3.38.12-5.49-1.28-8.39-3.22l-1.57-1q-.78-.53-1.59-1a40.1,40.1,0,0,0-6.16-3.14,28.68,28.68,0,0,0-6.73-1.85,21.58,21.58,0,0,0-3.51-.26c-.67,0-1.33,0-2,.11a11.26,11.26,0,0,1,2.69-3.69c2.43-2.22,5.84-3.35,10-3.35a27.38,27.38,0,0,1,3.19.21c.64.1,1.28.2,1.92.34a164.86,164.86,0,0,1,22.21,6.48c1.26.45,2.52.92,3.76,1.41,1.55.66,3.09,1.35,4.58,2.08,7.73,3.77,16.86,9.69,16.48,16.41-.42,7.3-2,12-5,14.44a8.29,8.29,0,0,1-2.64,1.46A12.11,12.11,0,0,1,65.77,77.74Z" style="fill:#231f20"/><path d="M132.38,56.18S137,41.46,118.09,42.7s-43.6,3.82-70.8,22.22c0,0-28.6,22.89-11.71,37.26s24.55,12.29,30.57,11.48,42.67-8.7,54.1-18.87S152,60.45,132.38,56.18Z" style="fill:url(#c)"/><path d="M141.6,63.23l-.12-.82c-.06-.27-.15-.53-.23-.8a7.27,7.27,0,0,0-.65-1.55,10.42,10.42,0,0,0-1-1.38,9.37,9.37,0,0,0-1.22-1.14,13.85,13.85,0,0,0-4.6-2.21,15.55,15.55,0,0,0,.27-2.16,13,13,0,0,0-.25-3.4,9.58,9.58,0,0,0-3.74-5.86,13.69,13.69,0,0,0-6.34-2.33,30.44,30.44,0,0,0-6.46-.11q-6.21.39-12.42,1.16c-2.06.24-4.13.56-6.19.88s-4.1.72-6.14,1.2a116.32,116.32,0,0,0-21.1,6.77A126.75,126.75,0,0,0,47,64.47l0,0c-.61.49-13.33,10.79-16.52,22a16.2,16.2,0,0,0-.64,7.62,13.85,13.85,0,0,0,2.35,5.66,23.42,23.42,0,0,0,4.24,4.31A65.2,65.2,0,0,0,46,111a30.55,30.55,0,0,0,11.28,4.06,23.09,23.09,0,0,0,6.05-.09c1-.13,2-.3,2.9-.45s2-.35,2.91-.55c3.83-.8,7.61-1.75,11.37-2.76l.91-.25c13.52-3.39,31.69-9.1,39.2-15.78l0,0,.37-.29c.74-.64,1.46-1.3,2.18-2a104.78,104.78,0,0,0,8.13-8.46,63.19,63.19,0,0,0,6.92-9.57,31.15,31.15,0,0,0,2.54-5.45A13.94,13.94,0,0,0,141.6,63.23Zm-58,46c-1.15.27-2.29.56-3.43.82-3.78.85-7.58,1.64-11.39,2.29-1,.17-1.9.31-2.84.43s-1.94.25-2.88.34a22.45,22.45,0,0,1-11-1.55c-.89-.29-1.72-.75-2.59-1.12s-1.67-.88-2.5-1.33a73.54,73.54,0,0,1-9.42-6.56,22.85,22.85,0,0,1-4.07-3.82,12.34,12.34,0,0,1-2.33-4.9A15.53,15.53,0,0,1,31.72,86C35.18,75.54,47.1,65.76,47.61,65.35A126.43,126.43,0,0,1,68.94,53.66l.32-.13A125.84,125.84,0,0,1,93,46.88,196.38,196.38,0,0,1,117.46,44a29.28,29.28,0,0,1,5.93.08,11.59,11.59,0,0,1,5.2,1.86,7,7,0,0,1,2.83,4.33,11.48,11.48,0,0,1,0,4.67,37.46,37.46,0,0,0-4.68-.53c-1-.08-2-.07-2.93-.1s-2,0-2.93.06a68.13,68.13,0,0,0-11.56,1.5A88.88,88.88,0,0,0,92,61.54l-.42.17a211.25,211.25,0,0,0-22.12,11.2c-8,4.54-13.82,7.82-23.73,9.31a.53.53,0,0,0-.45.6.54.54,0,0,0,.53.46h.08C56,81.76,61.86,78.44,70,73.84a213.08,213.08,0,0,1,20.2-10.35,91.14,91.14,0,0,1,19.45-6.12A66.33,66.33,0,0,1,121,56.15c.94,0,1.89,0,2.84,0s1.89.06,2.83.16a36.86,36.86,0,0,1,4.36.58l0,.17,1.2.27a12.79,12.79,0,0,1,4.87,2,6,6,0,0,1,2.41,4.16,12.23,12.23,0,0,1-.65,5.26,28.27,28.27,0,0,1-2.26,5.15,68.47,68.47,0,0,1-6.45,9.5A98.51,98.51,0,0,1,122.32,92c-.68.68-1.38,1.35-2.09,2s-1.47,1.2-2.2,1.81c0,0-.06,0-.08.07C110.31,101.35,95.61,106.12,83.64,109.26Z" style="fill:#231f20"/><path d="M122.69,73.48a.55.55,0,0,0-.76,0c-5.39,5.12-24,17.29-35.71,17.67A178.82,178.82,0,0,0,67,93.34a.55.55,0,0,0-.45.61.54.54,0,0,0,.53.45h.08a177.6,177.6,0,0,1,19.08-2.21c11.71-.37,30.2-12,36.42-18A.55.55,0,0,0,122.69,73.48Z" style="fill:#231f20"/><path d="M123,24.15a.54.54,0,0,1-.21,0,.54.54,0,0,1-.28-.71l8.28-18.67a.54.54,0,0,1,.71-.27.53.53,0,0,1,.27.7l-8.28,18.68A.53.53,0,0,1,123,24.15Z" style="fill:#231f20"/><path d="M45.85,16.55a.53.53,0,0,1-.5-.36L39.9.71A.54.54,0,0,1,40.23,0a.53.53,0,0,1,.68.33l5.45,15.48a.54.54,0,0,1-.33.68Z" style="fill:#231f20"/><path d="M.53,88.73a.54.54,0,0,1-.44-.24.53.53,0,0,1,.15-.74l10.19-6.84a.53.53,0,0,1,.74.15.54.54,0,0,1-.14.74L.83,88.64A.53.53,0,0,1,.53,88.73Z" style="fill:#231f20"/><path d="M149.85,100.56a.56.56,0,0,1-.31-.09L143.11,96a.53.53,0,1,1,.61-.87l6.43,4.51a.53.53,0,0,1-.3,1Z" style="fill:#231f20"/></svg>