<svg xmlns="http://www.w3.org/2000/svg" viewBox="0 0 156 162.28"><title>icon-123</title><path d="M148.9,48.1v-.28c8.14-7.69-.5-11.53-.5-11.53s-90-32-98-35c-7.19-2.7-7.11,5.54-7,7.63-.49-.1-7.73-1.36-7.73,6.58,0,5.76-1.89,43.46-1.89,43.46s.14,6.83,6.11,4.94L.81,105.42,2.4,121l97.27,40.3,40.18-44.88V102.12l.41-.46-.41-.15v-.26c6.58,2.47,7.4-4.11,7.4-4.11s8-33.94,8-40.52A8.9,8.9,0,0,0,148.9,48.1Z" style="fill:#fff"/><path d="M148.82,48.16c0-.11,0-.22,0-.34a.09.09,0,0,1,0-.07,15.15,15.15,0,0,0,2.3-2.7,6.81,6.81,0,0,0,1.14-3.29,4.87,4.87,0,0,0-1.17-3.21,8.23,8.23,0,0,0-2.76-2.13h0L93.09,16.94,65.48,7.17,51.68,2.24a14.7,14.7,0,0,0-3.39-1,3.28,3.28,0,0,0-2.92,1,6.33,6.33,0,0,0-1.3,3.09,16.65,16.65,0,0,0-.19,3.54.5.5,0,0,1-.48.52h-.12c-2.1-.35-4.54.05-5.84,1.7A5.84,5.84,0,0,0,36.28,14a11.39,11.39,0,0,0-.1,1.66l0,1.74c-.12,4.63-.31,9.24-.5,13.86L34.41,59v-.05a8.2,8.2,0,0,0,.41,2.12,4.39,4.39,0,0,0,1.06,1.73,2.78,2.78,0,0,0,1.72.76,5.33,5.33,0,0,0,2.06-.29.67.67,0,0,1,.69,1.1L1.39,106l.22-.63,1.63,15.57-.52-.7,48.69,20,48.64,20.15-1.13.25q10-11.24,20.15-22.39l20.18-22.36-.21.54.08-14.29h0a.76.76,0,0,1,.18-.49l.42-.45.28,1.17-.41-.16h0a.74.74,0,0,1-.46-.68v-.26h0a.7.7,0,0,1,.72-.71.75.75,0,0,1,.26,0,5.09,5.09,0,0,0,4.26.1,3.84,3.84,0,0,0,1.48-1.51,6.23,6.23,0,0,0,.75-2.1V97q3.1-12.8,5.88-25.68c.89-4.3,1.82-8.6,2.38-12.94a12,12,0,0,0,0-3.22,8.12,8.12,0,0,0-1-3,8.5,8.5,0,0,0-2.15-2.4A9.86,9.86,0,0,0,148.82,48.16ZM149,48a9.39,9.39,0,0,1,5.19,3.9,8.61,8.61,0,0,1,1.18,3.14,12.06,12.06,0,0,1,0,3.34c-.45,4.4-1.27,8.72-2.07,13s-1.71,8.63-2.61,12.93-1.85,8.6-2.82,12.89v-.07a7.55,7.55,0,0,1-.89,2.61,5.21,5.21,0,0,1-2,2,5,5,0,0,1-2.78.63,8.65,8.65,0,0,1-2.66-.57l1-.68v.26l-.47-.68.41.15a.74.74,0,0,1,.3,1.16h0l-.41.46.19-.49.07,14.29a.81.81,0,0,1-.2.53h0l-20,22.52q-10,11.26-20,22.48a1,1,0,0,1-1.13.26L50.65,142.05,2.08,121.77a.84.84,0,0,1-.52-.69L0,105.5a.81.81,0,0,1,.21-.63L39.38,63.44l.69,1.1a6.56,6.56,0,0,1-2.59.33A4.11,4.11,0,0,1,35,63.75a5.79,5.79,0,0,1-1.39-2.26A9.28,9.28,0,0,1,33.11,59v0L34.5,31.24c.22-4.61.44-9.23.58-13.84l0-1.72a13.83,13.83,0,0,1,.12-1.8,6.83,6.83,0,0,1,1.39-3.42,5.8,5.8,0,0,1,3.19-1.94,9,9,0,0,1,3.66-.1l-.6.52a17.59,17.59,0,0,1,.22-3.76,7.29,7.29,0,0,1,1.56-3.56A4.05,4.05,0,0,1,46.38.5a4.89,4.89,0,0,1,2-.19A15.49,15.49,0,0,1,52,1.38l13.77,5,27.55,9.94,55.14,19.82h0a8.49,8.49,0,0,1,2.85,2.22,5.12,5.12,0,0,1,1.2,3.39,7,7,0,0,1-1.19,3.4A15.68,15.68,0,0,1,149,47.89l0-.07A1.8,1.8,0,0,1,149,48Z" style="fill:#231f20"/><path d="M99.67,161.69a.41.41,0,0,1-.16,0L2.25,121.36A.39.39,0,0,1,2,121L0,105.89a.4.4,0,0,1,.35-.45.38.38,0,0,1,.45.34l2,14.93,96.5,40V146.13a.39.39,0,0,1,.4-.4.4.4,0,0,1,.4.4v15.16a.4.4,0,0,1-.18.33A.47.47,0,0,1,99.67,161.69Z" style="fill:#231f20"/><path d="M99.67,161.69a.4.4,0,0,1-.4-.4V146.13a.39.39,0,0,1,.4-.4.4.4,0,0,1,.4.4v14.11l39.38-44v-15a.4.4,0,0,1,.17-.32.38.38,0,0,1,.37-.05c1.88.7,3.44.7,4.62,0a5.74,5.74,0,0,0,2.25-3.78c.08-.38,8-34,8-40.47,0-6.21-6.23-8.18-6.29-8.2a.4.4,0,1,1,.23-.76c.07,0,6.86,2.16,6.86,9,0,6.55-7.68,39.23-8,40.61a6.39,6.39,0,0,1-2.61,4.32,5.68,5.68,0,0,1-4.78.27v14.59a.43.43,0,0,1-.1.27L100,161.55A.37.37,0,0,1,99.67,161.69Z" style="fill:#231f20"/><path d="M139.85,101.65h-.07a.4.4,0,0,1-.32-.46l8.76-52.48L43.78,9.9l-3,54a.4.4,0,0,1-.32.37,6,6,0,0,1-5.14-.94A6.09,6.09,0,0,1,33.36,59c0-.4,1.89-37.78,1.89-43.46,0-2.6.76-4.53,2.24-5.74,2.42-2,5.86-1.26,6-1.23A.4.4,0,0,1,43.8,9v.05l105,39a.4.4,0,0,1,.26.44l-8.82,52.8A.41.41,0,0,1,139.85,101.65Zm-98-92.46A6.2,6.2,0,0,0,38,10.38c-1.29,1-1.94,2.77-1.94,5.12,0,5.7-1.87,43.1-1.89,43.48a5.37,5.37,0,0,0,1.64,3.7,5.06,5.06,0,0,0,4.16.81L43,9.31V9.26A9.46,9.46,0,0,0,41.88,9.19Z" style="fill:#231f20"/><path d="M100.08,146.94a.45.45,0,0,1-.16,0L.66,105.79a.42.42,0,0,1-.24-.28.39.39,0,0,1,.1-.36L39.64,63.56a.39.39,0,0,1,.43-.1L140.4,101.29a.4.4,0,0,1,.16.64l-40.19,44.88A.39.39,0,0,1,100.08,146.94ZM1.5,105.27,100,146.06l39.6-44.23L40,64.3Z" style="fill:#231f20"/><path d="M148.4,48.69a.41.41,0,0,1-.3-.14.4.4,0,0,1,0-.56c2.86-2.54,4.15-4.9,3.82-7-.44-2.83-3.68-4.3-3.71-4.32-.87-.31-90.07-32-98-35-1.88-.7-3.37-.65-4.43.16-2.5,1.91-2,7.38-2,7.43a.4.4,0,1,1-.8.07c0-.24-.51-6,2.35-8.14,1.29-1,3-1.07,5.19-.27,7.91,3,97.09,34.68,98,35,.18.08,3.7,1.68,4.21,4.94.37,2.4-1,5-4.07,7.74A.47.47,0,0,1,148.4,48.69Z" style="fill:#231f20"/><polygon points="72.78 75.4 33.3 117.99 0.39 105.72 40.73 64.05 72.78 75.4" style="fill:#898a8d"/><path d="M33.29,118.32l-.11,0L.28,106a.35.35,0,0,1-.21-.23.33.33,0,0,1,.09-.3L40.5,63.82a.34.34,0,0,1,.35-.08l32,11.35a.35.35,0,0,1,.21.23.3.3,0,0,1-.08.3l-39.48,42.6A.35.35,0,0,1,33.29,118.32ZM1,105.59l32.22,12,39-42.07L40.83,64.43Z" style="fill:#231f20"/><polygon points="105.67 89.67 66.18 132.26 33.3 117.99 73.64 76.32 105.67 89.67" style="fill:#e0d2b1"/><path d="M66.18,132.59a.28.28,0,0,1-.13,0L33.16,118.29a.34.34,0,0,1-.19-.23.33.33,0,0,1,.09-.3L73.4,76.09a.32.32,0,0,1,.36-.07l32,13.35a.33.33,0,0,1,.2.23.34.34,0,0,1-.08.29l-39.49,42.6A.35.35,0,0,1,66.18,132.59ZM33.86,117.88l32.24,14,39-42.08L73.72,76.71Z" style="fill:#231f20"/><polygon points="138.57 101.94 99.06 146.53 66.18 132.26 106.54 88.59 138.57 101.94" style="fill:#a191b1"/><path d="M99.06,146.86l-.13,0L66.05,132.56a.32.32,0,0,1-.19-.23.34.34,0,0,1,.08-.29L106.3,88.37a.3.3,0,0,1,.36-.08l32,13.34a.38.38,0,0,1,.2.23.36.36,0,0,1-.08.3l-39.5,44.59A.34.34,0,0,1,99.06,146.86ZM66.74,132.14l32.24,14,39-44.07L106.62,89Z" style="fill:#231f20"/><path d="M99.67,162a.72.72,0,0,1-.29-.06L2.11,121.68a.75.75,0,0,1-.46-.61L.07,105.5a.72.72,0,0,1,.2-.59L37.82,65a4.24,4.24,0,0,1-2.46-.79C33.11,62.58,33,59.12,33,59c0-.43,1.89-37.8,1.89-43.47,0-2.69.79-4.7,2.34-6a7.59,7.59,0,0,1,5.37-1.45c0-2.34.41-5.71,2.53-7.25,1.39-1,3.25-1.09,5.52-.23,7.91,3,97.09,34.67,98,35,.21.09,3.84,1.74,4.42,5.13.37,2.21-.63,4.57-3,7a9.51,9.51,0,0,1,5.93,8.9c0,6.59-7.69,39.3-8,40.69a6.74,6.74,0,0,1-2.77,4.54,5.74,5.74,0,0,1-4.52.46l-.09.1v14a.76.76,0,0,1-.19.5l-40.19,44.88A.75.75,0,0,1,99.67,162ZM3.1,120.47l96.36,39.92,39.64-44.26v-14a.63.63,0,0,1,.07-.3.67.67,0,0,1-.07-.31v-.26a.75.75,0,0,1,.32-.61.77.77,0,0,1,.69-.09c1.78.67,3.24.67,4.32,0a5.31,5.31,0,0,0,2.08-3.52c.09-.42,8-34,8-40.43,0-6.15-5.74-7.78-5.8-7.8a.74.74,0,0,1-.55-.72v-.28a.75.75,0,0,1,.24-.54c2.44-2.31,3.51-4.43,3.2-6.31-.44-2.59-3.47-4-3.5-4-.84-.3-90-32-97.95-35C48.36,1.33,47,1.34,46,2,44.67,3,44,5.51,44.13,8.88a.78.78,0,0,1-.26.61.73.73,0,0,1-.63.16c-.13,0-3.11-.58-5.05,1-1.19,1-1.79,2.6-1.79,4.82,0,5.71-1.81,42-1.89,43.49h0s.1,2.82,1.73,4a3.76,3.76,0,0,0,3.4.21.75.75,0,0,1,.77,1.23L1.59,105.69Z" style="fill:#231f20"/><path d="M110.9,58.3a.5.5,0,0,1-.39-.18A47.57,47.57,0,0,0,69,43.09a.49.49,0,0,1-.57-.43.51.51,0,0,1,.43-.56,48.61,48.61,0,0,1,42.46,15.39.5.5,0,0,1-.08.7A.45.45,0,0,1,110.9,58.3Z" style="fill:#231f20"/><path d="M110.9,57.8a60,60,0,0,0-9.2-6.92,52.66,52.66,0,0,0-10.26-4.94,50.17,50.17,0,0,0-11-2.74,54.08,54.08,0,0,0-5.71-.53,25.17,25.17,0,0,0-2.88-.05c-1,0-1.94,0-2.92,0,.95-.19,1.91-.37,2.87-.53a22.07,22.07,0,0,1,2.91-.38l2.94-.14a24.17,24.17,0,0,1,2.95.1,22.46,22.46,0,0,1,3,.27l2.92.5a29.5,29.5,0,0,1,2.87.74l1.43.39,1.39.51c.91.37,1.86.67,2.75,1.11s1.79.83,2.67,1.27l2.56,1.49c.84.51,1.64,1.1,2.45,1.65A35.58,35.58,0,0,1,110.9,57.8Z" style="fill:#231f20"/><path d="M99.9,58.29a.51.51,0,0,1-.17,0l-22-8a.5.5,0,0,1-.3-.64.49.49,0,0,1,.64-.3l22,8a.5.5,0,0,1-.17,1Z" style="fill:#231f20"/><path d="M99.9,62.29a.51.51,0,0,1-.17,0l-22-8a.5.5,0,0,1-.3-.64.49.49,0,0,1,.64-.3l22,8a.5.5,0,0,1-.17,1Z" style="fill:#231f20"/><path d="M99.9,66.29a.51.51,0,0,1-.17,0l-22-8a.5.5,0,0,1-.3-.64.49.49,0,0,1,.64-.3l22,8a.5.5,0,0,1-.17,1Z" style="fill:#231f20"/><g style="isolation:isolate"><path d="M95.82,124.47a9.72,9.72,0,0,0,10.42-2.36l1.46-1.4a5.68,5.68,0,0,0,1.84-2.7,5,5,0,0,1-1.86,3l-1.46,1.38A9.58,9.58,0,0,1,96,124.72a5.12,5.12,0,0,1-2.65-1.8,5.85,5.85,0,0,0,2.51,1.55m13.32-8.2a2.62,2.62,0,0,0-.22-.25,8.51,8.51,0,0,0,6.53-2.66l.48-.46a6.4,6.4,0,0,0,1.93-2.82,5.7,5.7,0,0,1-2,3.11l-.48.45a8.39,8.39,0,0,1-6.28,2.63m5.72-9.89a9.68,9.68,0,0,0-10.41,2.36l-1,1,3.65,1.32,1.19-1.13a3.48,3.48,0,0,1,3.83-1c1.22.44,1.54,1.15-.13,2.74l-1,1a3.78,3.78,0,0,1-4.27,1l-1.51-.55-2.66,2.53,1.29.47a2.11,2.11,0,0,1,1.31.92,2.93,2.93,0,0,0-1.17-.67l-1.58-.58.14.24,1.3.47c.87.32,1.32.69,1.34,1.18a4,4,0,0,1-1.18,1.6l-1.47,1.39c-1.64,1.57-2.87,1.72-4.1,1.27a2.11,2.11,0,0,1-.79-.46c-.17-.43.09-1,.8-1.65l1.73-1.65,0-.28-2,1.86a3,3,0,0,0-.85,1.19c0-.4.25-.88.88-1.47L100,117.8l-3.64-1.33-1.55,1.47a5.64,5.64,0,0,0-2,3.26c-.33,1.54.7,2.79,3.07,3.65a9.91,9.91,0,0,0,10.59-2.4l1.46-1.39c1.9-1.81,2.39-3.28,1.47-4.48l-.09-.16a8.71,8.71,0,0,0,6.36-2.71l.48-.46c2-1.91,2.52-3.57,1.6-4.87a4.93,4.93,0,0,0-2.83-2" style="fill:#231f20"/></g><g style="isolation:isolate"><path d="M50.48,82.43l-2.6-.94c-1.84,1-3.59,1.76-6.56.69l-2.08,2,3,1.08-.15.14-3-1.08.14.24,2.69,1L28,98.72l3.85,1.4L50.48,82.43" style="fill:#231f20"/></g><g style="isolation:isolate"><path d="M80.29,94.33a9.69,9.69,0,0,0-10.42,2.36l-1.81,1.72,3.64,1.32,2-1.9a3.53,3.53,0,0,1,3.84-1c1.22.45,1.54,1.16-.14,2.75C72,104.66,63.48,102.75,58,108l-2.29,2.17,11.14,4,2.66-2.53L62.23,109a3.26,3.26,0,0,1,.36-.39c3.07-2.91,12.91-2.2,18.76-7.76A6.44,6.44,0,0,0,83.29,98a5.71,5.71,0,0,1-2,3.1c-3.37,3.2-8,4.29-12,5.25-2.89.68-5.4,1.27-6.71,2.51l-.1.1c1.26-1.2,4-1.8,6.85-2.47,3.92-.92,8.77-2.07,12.2-5.32,2-1.9,2.52-3.57,1.6-4.88a5,5,0,0,0-2.83-2" style="fill:#231f20"/></g></svg>