<svg xmlns="http://www.w3.org/2000/svg" xmlns:xlink="http://www.w3.org/1999/xlink" viewBox="0 0 135 113.07"><defs><linearGradient id="a" x1="27.96" y1="29.49" x2="110.05" y2="111.58" gradientUnits="userSpaceOnUse"><stop offset="0" stop-color="#d8cd98"/><stop offset="0.5" stop-color="#f1e9ba"/><stop offset="1" stop-color="#d8cd98"/></linearGradient><linearGradient id="b" x1="24.96" y1="1.49" x2="107.05" y2="83.58" xlink:href="#a"/></defs><title>icon-coins</title><path d="M69,28.77c-35.73,0-64.8,14.31-64.8,31.9V80.41C4.2,98,33.27,112.3,69,112.3S133.8,98,133.8,80.41V60.67C133.8,43.08,104.73,28.77,69,28.77Z" style="fill:url(#a)"/><path d="M118.49,70.6c4.46-3.34,6.91-6.94,6.91-10.12,0-5.07-5.91-11.27-15.43-16.18-.85-.44-1.73-.86-2.62-1.27a80.82,80.82,0,0,0-12.87-4.68A99,99,0,0,0,68.9,35.11a102.1,102.1,0,0,0-25.62,3.1,79.14,79.14,0,0,0-12.22,4.31,54,54,0,0,0-11.18,6.65A28.46,28.46,0,0,0,15.2,53.8,11.74,11.74,0,0,0,12.42,60a7.69,7.69,0,0,0,.6,3.47,14,14,0,0,0,1.75,2.91,25.25,25.25,0,0,0,4.84,4.47,51.29,51.29,0,0,0,11.46,6c.2.07.4.13.59.21A84.17,84.17,0,0,0,43.31,80.6h0l.91.19.45.09.48.1.32.07.09.25.41-.15,1.55.3,1.22.22,1.34.22,1.67.25.93.13,2,.25.73.08c.7.08,1.4.16,2.11.22l.69.06,2.14.17.84,0c.67,0,1.34.09,2,.12l1.31,0,1.59.06q1.48,0,3,0c2,0,4,0,6-.14.91,0,1.81,0,2.72,0a74,74,0,0,0,8.66-.72,68.4,68.4,0,0,0,8.51-1.78c.89-.24,1.76-.52,2.63-.8,2-.51,3.87-1.08,5.7-1.69a.54.54,0,0,0-.34-1q-2.69.92-5.57,1.66l-2.72.53-1.76.3-8.5-2.82-.45-.15L81,75.65a1.85,1.85,0,0,1-1.3-1.33l-.28-2.4a17.63,17.63,0,0,0,4.8-2.48.54.54,0,0,0,.1-.75.53.53,0,0,0-.75-.1A16.89,16.89,0,0,1,78.62,71l-.41.14.38,3.27a2.87,2.87,0,0,0,2,2.2l2.88,1.08.45.19,5.59,2.33c-1.14.18-2.27.36-3.41.52-2.82.42-5.66.76-8.51,1.09l-2.77.3h0c-.57,0-1.15,0-1.72.06l-1.15,0c-1,0-1.94,0-2.92,0s-2,0-3,0l-1.26,0-1.62-.06-1.74-.1-1-.06-2.2-.17-.46,0q-5.05-.47-9.84-1.35L54,78.15l2.13-.78,1.06-.4a4.34,4.34,0,0,0,1.2-.6,3.1,3.1,0,0,0,1-1.13,2.58,2.58,0,0,0,.23-.79l.06-.56.24-2.26L60,71l-.56-.19a15.75,15.75,0,0,1-5.84-3.18A9.89,9.89,0,0,1,50.52,62l-.07-.41L50,61.48a4.27,4.27,0,0,1-2.25-1.1,1.74,1.74,0,0,1-.45-1,1.39,1.39,0,0,1,0-.53c0-.2.13-.45.19-.68l.21-.7.11-.35a1.72,1.72,0,0,1,.1-.26,2.53,2.53,0,0,1,.31-.49l.09-.1.26-.26a3,3,0,0,1,.33-.28l0,0a7,7,0,0,1,2.13-1l.25-.06.1-.24a13,13,0,0,1,2.65-3.88c.43-.44.79-.77,1.08-1,1.14-1,1.43-1.38,1.14-3.18a7.32,7.32,0,0,1-.11-1,10.05,10.05,0,0,0,2.48,1.2,24.5,24.5,0,0,0,9,1.11c.41,0,.83,0,1.26,0,9.76,0,15.32,2.16,17.49,6.82l.1.22.24.06c1.69.49,3,1.43,3.29,2.42l.51,1.67a1.53,1.53,0,0,1-.14,1.27A3.77,3.77,0,0,1,88,61.55a.54.54,0,0,0,.21,1.05,4.78,4.78,0,0,0,3.22-2,2.6,2.6,0,0,0,.24-2.13l-.51-1.67c-.41-1.31-1.81-2.44-3.79-3-2.43-4.93-8.27-7.22-18.35-7.22-.44,0-.89,0-1.31,0a22.73,22.73,0,0,1-8.59-1,9.29,9.29,0,0,1-2.23-1.07,1.3,1.3,0,0,0-1.25-.06.74.74,0,0,0-.43.65,8.38,8.38,0,0,0,.13,1.47c.2,1.3.19,1.32-.8,2.22-.31.27-.68.61-1.13,1.07a14.09,14.09,0,0,0-2.77,4,6.58,6.58,0,0,0-3.07,1.86l-.09.1a3.58,3.58,0,0,0-.41.63l0,0c-.06.13-.11.27-.16.41l-.12.35-.22.7c-.07.24-.14.44-.22.71a2.77,2.77,0,0,0-.09.91,2.86,2.86,0,0,0,.72,1.65,5.09,5.09,0,0,0,2.46,1.41,11.18,11.18,0,0,0,3.3,6.08A16.45,16.45,0,0,0,58.42,72l-.21,1.68-.07.57a1.25,1.25,0,0,1-.1.29,1.52,1.52,0,0,1-.5.55,3,3,0,0,1-.84.38l-1.07.38-2.14.75-8.56,3,.09.28q-4.14-.89-7.82-2c-1.93-.61-3.84-1.29-5.72-2.07A50.32,50.32,0,0,1,20.4,69.75a23.69,23.69,0,0,1-4.47-4.3,12.8,12.8,0,0,1-1.53-2.58,6.19,6.19,0,0,1-.48-2.79,10.51,10.51,0,0,1,2.49-5.33,26.9,26.9,0,0,1,4.46-4.33A52.1,52.1,0,0,1,31.74,44a77.8,77.8,0,0,1,12-4.14A100.77,100.77,0,0,1,68.9,36.7a103.63,103.63,0,0,1,25.24,2.95,76.58,76.58,0,0,1,14.54,5.2l.81.4.23.13c9.42,4.93,14.61,10.89,14.61,15.1,0,2.84-2.3,6.13-6.48,9.26a.54.54,0,1,0,.64.86Z" style="fill:#221f1f"/><path d="M69,28C32.61,28,3,42.57,3,60.48V80.59c0,17.91,29.61,32.48,66,32.48s66-14.57,66-32.48V60.48C135,42.57,105.4,28,69,28Zm58.83,64L127.64,89V80.34a.54.54,0,0,0-1.07,0V89l-.29,4.7a39.94,39.94,0,0,1-7.42,5.58l-.16-1.43v-7a.54.54,0,0,0-1.07,0v7l-.24,2.27a66.06,66.06,0,0,1-7.45,3.51l-.17-1.63V97a.54.54,0,0,0-1.07,0v5l-.24,2.21q-3.52,1.32-7.43,2.4l-.21-2.5V97.88a.54.54,0,0,0-1.07,0v6.18L99.5,107c-3.06.79-6.27,1.47-9.6,2l-.26-4.16V96.21a.53.53,0,0,0-.53-.53.53.53,0,0,0-.53.53v8.64l-.28,4.4c-3.09.47-6.29.83-9.57,1.07l-.26-4.24V97.46a.54.54,0,0,0-1.07,0v8.62l-.27,4.34c-2.66.16-5.37.25-8.13.25-1.23,0-2.45,0-3.66,0l-.26-4.31V97.68a.54.54,0,1,0-1.07,0v8.63l-.27,4.25c-3.26-.13-6.46-.37-9.57-.72l-.27-4.37V96.84a.54.54,0,1,0-1.07,0v8.62l-.26,4.19Q47.62,109,43,108l-.27-4.45V95a.54.54,0,0,0-1.07,0v8.63l-.25,4.1c-2.55-.58-5-1.25-7.35-2l-.28-4.51V92.57a.54.54,0,0,0-1.07,0v8.63l-.25,4a77.19,77.19,0,0,1-7.33-2.85l-.29-4.59V89.12a.53.53,0,0,0-.53-.53.53.53,0,0,0-.53.53v8.62l-.24,3.86a53.06,53.06,0,0,1-7.34-4.26l-.29-4.66V84.05a.54.54,0,0,0-1.07,0v8.62l-.22,3.51C8.77,91.63,5.4,86.29,5.4,80.59V68.39a21.61,21.61,0,0,0,2.2,3.44C11.17,76.38,16,79.67,20.92,82.3a76.44,76.44,0,0,0,15.76,6,114.51,114.51,0,0,0,18,3.24A133.27,133.27,0,0,0,69,92.3a121.58,121.58,0,0,0,34.16-4.67.54.54,0,0,0-.3-1A120.18,120.18,0,0,1,69,91.23c-4.18,0-8.26-.2-12.22-.56A113.71,113.71,0,0,1,37,87a79.81,79.81,0,0,1-7.87-2.63A70.1,70.1,0,0,1,21.62,81c-4.84-2.59-9.44-5.82-12.76-10.1A19,19,0,0,1,5.4,63.78v-3.3C5.4,43.9,33.93,30.4,69,30.4s63.6,13.5,63.6,30.08v4.33c-.25.63-.51,1.26-.82,1.86A26.31,26.31,0,0,1,128.16,72a45.14,45.14,0,0,1-4.61,4.56c-.58.5-1.18,1-1.78,1.48-1.13.78-2.33,1.53-3.61,2.26a.53.53,0,0,0-.2.73.52.52,0,0,0,.46.27.48.48,0,0,0,.26-.07c1.41-.8,2.71-1.63,3.94-2.48.6-.36,1.19-.72,1.76-1.11a26.9,26.9,0,0,0,5.1-4.5,20.47,20.47,0,0,0,3.12-4.88V80.59C132.6,84.63,130.9,88.49,127.83,92Z" style="fill:#221f1f"/><path d="M66,.77C30.27.77,1.2,15.08,1.2,32.67V52.41C1.2,70,30.27,84.3,66,84.3S130.8,70,130.8,52.41V32.67C130.8,15.08,101.73.77,66,.77Z" style="fill:url(#b)"/><path d="M115.49,42.6c4.46-3.34,6.91-6.94,6.91-10.12,0-5.07-5.91-11.27-15.43-16.18-.85-.44-1.73-.86-2.62-1.27a80.82,80.82,0,0,0-12.87-4.68A99,99,0,0,0,65.9,7.11a102.1,102.1,0,0,0-25.62,3.1,79.14,79.14,0,0,0-12.22,4.31,54,54,0,0,0-11.18,6.65A28.46,28.46,0,0,0,12.2,25.8,11.74,11.74,0,0,0,9.42,32a7.69,7.69,0,0,0,.6,3.47,14,14,0,0,0,1.75,2.91,25.25,25.25,0,0,0,4.84,4.47,51.29,51.29,0,0,0,11.46,6c.2.07.4.13.59.21A84.17,84.17,0,0,0,40.31,52.6h0l.91.19.45.09.48.1.32.07.09.25.41-.15,1.55.3,1.22.22,1.34.22,1.67.25.93.13,2,.25.73.08c.7.08,1.4.16,2.11.22l.69.06,2.14.17.84,0c.67,0,1.34.09,2,.12l1.31,0,1.59.06q1.48,0,3,0c2,0,4,0,6-.14.91,0,1.81,0,2.72,0a74,74,0,0,0,8.66-.72,68.4,68.4,0,0,0,8.51-1.78c.89-.24,1.76-.52,2.63-.8,2-.51,3.87-1.08,5.7-1.69a.54.54,0,0,0-.34-1q-2.69.91-5.57,1.66l-2.72.53-1.76.3-8.5-2.82-.45-.15L78,47.65a1.85,1.85,0,0,1-1.3-1.33l-.28-2.4a17.63,17.63,0,0,0,4.8-2.48.54.54,0,0,0,.1-.75.53.53,0,0,0-.75-.1A16.89,16.89,0,0,1,75.62,43l-.41.14.38,3.27a2.87,2.87,0,0,0,2,2.2l2.88,1.08.45.19,5.59,2.33c-1.14.18-2.27.36-3.41.52-2.82.42-5.66.76-8.51,1.09l-2.77.3h0c-.57,0-1.15.05-1.72.06l-1.15,0c-1,0-1.94,0-2.92,0s-2,0-3,0l-1.26,0-1.62-.06-1.74-.1-1-.06-2.2-.17-.46,0q-5.05-.47-9.84-1.35L51,50.15l2.13-.78,1.06-.4a4.34,4.34,0,0,0,1.2-.6,3.1,3.1,0,0,0,1-1.13,2.58,2.58,0,0,0,.23-.79l.06-.56.24-2.26L57,43l-.56-.19a15.75,15.75,0,0,1-5.84-3.18A9.89,9.89,0,0,1,47.52,34l-.07-.41L47,33.48a4.27,4.27,0,0,1-2.25-1.1,1.74,1.74,0,0,1-.45-1,1.39,1.39,0,0,1,0-.53c0-.2.13-.45.19-.68l.21-.7.11-.35a1.72,1.72,0,0,1,.1-.26,2.53,2.53,0,0,1,.31-.49l.09-.1a3.19,3.19,0,0,1,.26-.26,3,3,0,0,1,.33-.28l0,0a7,7,0,0,1,2.13-1l.25-.06.1-.24a13,13,0,0,1,2.65-3.88c.43-.44.79-.77,1.08-1,1.14-1,1.43-1.38,1.14-3.18a7.32,7.32,0,0,1-.11-1,10.05,10.05,0,0,0,2.48,1.2,24.5,24.5,0,0,0,9,1.11c.41,0,.83,0,1.26,0,9.76,0,15.32,2.16,17.49,6.82l.1.22.24.06c1.69.49,3,1.43,3.29,2.42l.51,1.67a1.53,1.53,0,0,1-.14,1.27A3.77,3.77,0,0,1,85,33.55a.54.54,0,0,0,.21,1.05,4.78,4.78,0,0,0,3.22-2,2.6,2.6,0,0,0,.24-2.13l-.51-1.67c-.41-1.31-1.81-2.44-3.79-3-2.43-4.93-8.27-7.22-18.35-7.22-.44,0-.89,0-1.31,0a22.73,22.73,0,0,1-8.59-1,9.29,9.29,0,0,1-2.23-1.07,1.3,1.3,0,0,0-1.25-.06.74.74,0,0,0-.43.65,8.38,8.38,0,0,0,.13,1.47c.2,1.3.19,1.32-.8,2.22-.31.27-.68.61-1.13,1.07a14.09,14.09,0,0,0-2.77,4,6.58,6.58,0,0,0-3.07,1.86l-.09.1a3.58,3.58,0,0,0-.41.63l0,0c-.06.13-.11.27-.16.41l-.12.35-.22.7c-.07.24-.14.44-.22.71a2.77,2.77,0,0,0-.09.91,2.86,2.86,0,0,0,.72,1.65,5.09,5.09,0,0,0,2.46,1.41,11.18,11.18,0,0,0,3.3,6.08A16.45,16.45,0,0,0,55.42,44l-.21,1.68-.07.57a1.25,1.25,0,0,1-.1.29,1.52,1.52,0,0,1-.5.55,3,3,0,0,1-.84.38l-1.07.38-2.14.75-8.56,3,.09.28q-4.14-.88-7.82-2c-1.93-.61-3.84-1.29-5.72-2.07A50.32,50.32,0,0,1,17.4,41.75a23.69,23.69,0,0,1-4.47-4.3,12.8,12.8,0,0,1-1.53-2.58,6.19,6.19,0,0,1-.48-2.79,10.51,10.51,0,0,1,2.49-5.33,26.9,26.9,0,0,1,4.46-4.33A52.1,52.1,0,0,1,28.74,16a77.8,77.8,0,0,1,12-4.14A100.77,100.77,0,0,1,65.9,8.7a103.63,103.63,0,0,1,25.24,3,76.58,76.58,0,0,1,14.54,5.2l.81.4.23.13c9.42,4.93,14.61,10.89,14.61,15.1,0,2.84-2.3,6.13-6.48,9.26a.54.54,0,1,0,.64.86Z" style="fill:#221f1f"/><path d="M66,0C29.61,0,0,14.57,0,32.48V52.59C0,70.5,29.61,85.07,66,85.07s66-14.57,66-32.48V32.48C132,14.57,102.4,0,66,0Zm58.83,64L124.64,61V52.34a.54.54,0,0,0-1.07,0V61l-.29,4.7a39.94,39.94,0,0,1-7.42,5.58l-.16-1.43v-7a.54.54,0,0,0-1.07,0v7l-.24,2.27a66.06,66.06,0,0,1-7.45,3.51L106.77,74V69a.54.54,0,0,0-1.07,0v5l-.24,2.21q-3.52,1.32-7.43,2.4l-.21-2.5V69.88a.54.54,0,0,0-1.07,0v6.18L96.5,79c-3.06.79-6.27,1.47-9.6,2l-.26-4.16V68.21a.53.53,0,0,0-.53-.53.53.53,0,0,0-.53.53v8.64l-.28,4.4c-3.09.47-6.29.83-9.57,1.07l-.26-4.24V69.46a.54.54,0,0,0-1.07,0v8.62l-.27,4.34c-2.66.16-5.37.25-8.13.25-1.23,0-2.45,0-3.66,0l-.26-4.31V69.68a.54.54,0,1,0-1.07,0v8.63l-.27,4.25c-3.26-.13-6.46-.37-9.57-.72l-.27-4.37V68.84a.54.54,0,1,0-1.07,0v8.62l-.26,4.19Q44.62,81,40,80l-.27-4.45V67a.54.54,0,0,0-1.07,0v8.63l-.25,4.1c-2.55-.58-5-1.25-7.35-2l-.28-4.51V64.57a.54.54,0,0,0-1.07,0V73.2l-.25,4a77.19,77.19,0,0,1-7.33-2.85l-.29-4.59V61.12a.53.53,0,0,0-.53-.53.53.53,0,0,0-.53.53v8.62l-.24,3.86a53.06,53.06,0,0,1-7.34-4.26l-.29-4.66V56.05a.54.54,0,0,0-1.07,0v8.62l-.22,3.51C5.77,63.63,2.4,58.29,2.4,52.59V40.39a21.61,21.61,0,0,0,2.2,3.44C8.17,48.38,13,51.67,17.92,54.3a76.44,76.44,0,0,0,15.76,6,114.51,114.51,0,0,0,18,3.24A133.27,133.27,0,0,0,66,64.3a121.58,121.58,0,0,0,34.16-4.67.54.54,0,0,0-.3-1A120.18,120.18,0,0,1,66,63.23c-4.18,0-8.26-.2-12.22-.56A113.71,113.71,0,0,1,34,59a79.81,79.81,0,0,1-7.87-2.63A70.1,70.1,0,0,1,18.62,53c-4.84-2.59-9.44-5.82-12.76-10.1A19,19,0,0,1,2.4,35.78v-3.3C2.4,15.9,30.93,2.4,66,2.4s63.6,13.5,63.6,30.08v4.33c-.25.63-.51,1.26-.82,1.86A26.31,26.31,0,0,1,125.16,44a45.14,45.14,0,0,1-4.61,4.56c-.58.5-1.18,1-1.78,1.48-1.13.78-2.33,1.53-3.61,2.26a.53.53,0,0,0-.2.73.52.52,0,0,0,.46.27.48.48,0,0,0,.26-.07c1.41-.8,2.71-1.63,3.94-2.48.6-.36,1.19-.72,1.76-1.11a26.9,26.9,0,0,0,5.1-4.5,20.47,20.47,0,0,0,3.12-4.88V52.59C129.6,56.63,127.9,60.49,124.83,64Z" style="fill:#221f1f"/></svg>