<svg xmlns="http://www.w3.org/2000/svg" viewBox="0 0 10.99 11"><title>icon-bean-o</title><path d="M9.35.05,8.76,0A8.26,8.26,0,0,0,2.91,1.85c-.18.14-.35.3-.51.45h0l0,0,0,0-.44.48,0,0A7.8,7.8,0,0,0,.58,5.07s-.24.67-.23.67a8,8,0,0,0-.3,1.55S0,8,0,8c0,.24,0,.49,0,.74l0,.58a1.66,1.66,0,0,0,1.59,1.59l.59,0A8.22,8.22,0,0,0,8.64,8.64,8.2,8.2,0,0,0,11,2.23l0-.59A1.66,1.66,0,0,0,9.35.05ZM8.16,8.16A7.53,7.53,0,0,1,2.27,10.3l-.59,0a1.05,1.05,0,0,1-.56-.2,4.46,4.46,0,0,1,4.4-4.25A5,5,0,0,0,9.07,4.33a5,5,0,0,0,1.23-2A7.54,7.54,0,0,1,8.16,8.16Zm-2.65-3A5.1,5.1,0,0,0,.69,8.61c0-.34,0-.67,0-1V7.55A7.5,7.5,0,0,1,2.62,3.06h0c.16-.17.33-.33.5-.49h0A7.55,7.55,0,0,1,8.72.7l.59,0a1,1,0,0,1,.55.19A4.36,4.36,0,0,1,5.51,5.13Z" style="fill:#2a2a2a"/></svg>