<svg xmlns="http://www.w3.org/2000/svg" viewBox="0 0 34.32 43.28"><title>icon-coffee-lg-dark</title><path d="M33.13,27.75l0,0,0,0Z" style="fill:#2a2a2a"/><path d="M34.31,24a13.07,13.07,0,0,0-.39-3.87,5.78,5.78,0,0,0-.35-1,2.24,2.24,0,0,0-.32-.51,2.22,2.22,0,0,0-.45-.43,4.89,4.89,0,0,0-2-.78,20.08,20.08,0,0,0-3.15-.21l0-4.08V11.9a1.24,1.24,0,0,0-1.21-1.27H23.79q-4.72,0-9.47.09l-9.48.2H1.08a.92.92,0,0,0-.92.92V25.54c0,.86,0,1.72-.07,2.59L0,33.83a9.13,9.13,0,0,0,1.74,5.69v0l0,0a14.1,14.1,0,0,0,2.34,2.09,14.87,14.87,0,0,0,2.72,1.58l.1.05h.11c2.54,0,5.07-.1,7.61-.17h5.94a.4.4,0,0,0,.15,0c.23-.11,5.61-2.59,6-6.79l.38-6.58,1.07,0,.37,0,1-.12c.18,0,.36,0,.55-.07a5.38,5.38,0,0,0,3-1.7A3.84,3.84,0,0,0,34,25.9,10.06,10.06,0,0,0,34.31,24Zm-7.48,5s0,0-.07,0h-.27v.27s0,0,0,.06l-.41,6.91c-.36,3.51-4.9,5.83-5.53,6.13H14.66c-2.49-.07-5-.13-7.46-.17a13.42,13.42,0,0,1-2.39-1.46A16.29,16.29,0,0,1,2.67,38.8a8.14,8.14,0,0,1-1.61-5L1,28.13c0-.88,0-1.76-.07-2.64V11.86a.17.17,0,0,1,.17-.17H4.35l.49,0,9.48.19q4.74.09,9.47.09h2.52v1.09l0,4.74v.67H27a23.62,23.62,0,0,1,3.61.15,3.67,3.67,0,0,1,1.47.52,2.21,2.21,0,0,1,.69,1.25,13.12,13.12,0,0,1,.44,3.5,5.23,5.23,0,0,1-.77,3.18l0,0a4.49,4.49,0,0,1-2.45,1.52,11,11,0,0,1-2.46.29Z" style="fill:#2a2a2a"/><path d="M2.72,25.5c0,1.85.58,10.32,1.68,11.81a15.26,15.26,0,0,0,4.84,3.55h8.54a15.26,15.26,0,0,0,4.84-3.55c1.1-1.49,1.68-10,1.68-11.81v-10H2.72Z" style="fill:#2a2a2a"/><path d="M31.57,23.31A3.28,3.28,0,0,0,30.69,21c-.82-.69-2-.73-3.92-.73h-.38V23.7a.38.38,0,1,0,.75,0V21c1.51,0,2.49.07,3.07.55a2.69,2.69,0,0,1,.61,1.75A2.2,2.2,0,0,1,30.28,25a4.72,4.72,0,0,1-3.2,1.28h-.69a.38.38,0,0,0,0,.76h.69a5.5,5.5,0,0,0,3.72-1.49A3,3,0,0,0,31.57,23.31Z" style="fill:#2a2a2a"/><path d="M8.84,5.75a1,1,0,0,1,0,.75,2.42,2.42,0,0,1-.21.37,2.81,2.81,0,0,0-.75,1.94.38.38,0,1,0,.75,0A2.14,2.14,0,0,1,9.24,7.3v0L9.56,7a1.75,1.75,0,0,0,.31-1.5,3.53,3.53,0,0,0-.7-1.16,2.32,2.32,0,0,1-.4-1.76,1.73,1.73,0,0,1,.11-.37,3.87,3.87,0,0,1,.36-.51A1.78,1.78,0,0,0,9.78.38.38.38,0,1,0,9,.38a1.1,1.1,0,0,1-.37.82,4.11,4.11,0,0,0-.54.8c0,.1-.12.18-.17.29A2.77,2.77,0,0,0,8.26,5,3.45,3.45,0,0,1,8.84,5.75Z" style="fill:#2a2a2a"/><path d="M14.11,5.75a1.13,1.13,0,0,1,0,.75,2.55,2.55,0,0,1-.22.37,2.85,2.85,0,0,0-.75,1.94.38.38,0,0,0,.76,0A2.14,2.14,0,0,1,14.5,7.3l0,0,.3-.31a1.79,1.79,0,0,0,.32-1.5,3.91,3.91,0,0,0-.7-1.16A2.33,2.33,0,0,1,14,2.55a2.59,2.59,0,0,1,.11-.37,3.87,3.87,0,0,1,.36-.51A1.78,1.78,0,0,0,15,.38a.38.38,0,1,0-.75,0,1.1,1.1,0,0,1-.37.82,4.11,4.11,0,0,0-.53.8,2.82,2.82,0,0,0-.18.29A2.75,2.75,0,0,0,13.53,5,3.81,3.81,0,0,1,14.11,5.75Z" style="fill:#2a2a2a"/><path d="M19.37,5.75a1.13,1.13,0,0,1,0,.75,3.71,3.71,0,0,1-.21.37,2.78,2.78,0,0,0-.75,1.94.37.37,0,0,0,.37.38.38.38,0,0,0,.38-.38,2.1,2.1,0,0,1,.62-1.51v0l.3-.31a1.75,1.75,0,0,0,.32-1.5,3.71,3.71,0,0,0-.7-1.16,2.28,2.28,0,0,1-.4-1.76,1.7,1.7,0,0,1,.1-.37,3.92,3.92,0,0,1,.37-.51A1.82,1.82,0,0,0,20.31.38a.38.38,0,0,0-.76,0,1.12,1.12,0,0,1-.36.82,3.71,3.71,0,0,0-.54.8,2.82,2.82,0,0,0-.18.29A2.75,2.75,0,0,0,18.79,5,3.45,3.45,0,0,1,19.37,5.75Z" style="fill:#2a2a2a"/></svg>