<svg xmlns="http://www.w3.org/2000/svg" viewBox="0 0 536.5 259.5"><title>kapslen-pointers</title><line x1="14.5" y1="14.5" x2="15.71" y2="16.09" style="fill:none;stroke:#666;stroke-miterlimit:10"/><line x1="18.12" y1="19.27" x2="147.09" y2="189.32" style="fill:none;stroke:#666;stroke-miterlimit:10;stroke-dasharray:3.989149570465088,3.989149570465088"/><line x1="148.29" y1="190.91" x2="149.5" y2="192.5" style="fill:none;stroke:#666;stroke-miterlimit:10"/><line x1="520.5" y1="12.5" x2="518.88" y2="13.68" style="fill:none;stroke:#666;stroke-miterlimit:10"/><line x1="515.64" y1="16.04" x2="361.74" y2="128.14" style="fill:none;stroke:#666;stroke-miterlimit:10;stroke-dasharray:4.0085625648498535,4.0085625648498535"/><line x1="360.12" y1="129.32" x2="358.5" y2="130.5" style="fill:none;stroke:#666;stroke-miterlimit:10"/><circle cx="8.5" cy="8.5" r="8" style="fill:none;stroke:#666;stroke-miterlimit:10;stroke-dasharray:4"/><circle cx="527.5" cy="8.5" r="8" style="fill:none;stroke:#666;stroke-miterlimit:10;stroke-dasharray:4"/><line x1="19" y1="247" x2="20.89" y2="246.34" style="fill:none;stroke:#666;stroke-miterlimit:10"/><line x1="24.62" y1="245.02" x2="134.75" y2="206.32" style="fill:none;stroke:#666;stroke-miterlimit:10;stroke-dasharray:3.9569644927978516,3.9569644927978516"/><line x1="136.61" y1="205.66" x2="138.5" y2="205" style="fill:none;stroke:#666;stroke-miterlimit:10"/><line x1="519" y1="247" x2="517.17" y2="246.19" style="fill:none;stroke:#666;stroke-miterlimit:10"/><line x1="513.49" y1="244.58" x2="397.67" y2="193.61" style="fill:none;stroke:#666;stroke-miterlimit:10;stroke-dasharray:4.017121315002441,4.017121315002441"/><line x1="395.83" y1="192.81" x2="394" y2="192" style="fill:none;stroke:#666;stroke-miterlimit:10"/><circle cx="9" cy="251" r="8" style="fill:none;stroke:#666;stroke-miterlimit:10;stroke-dasharray:4"/><circle cx="528" cy="251" r="8" style="fill:none;stroke:#666;stroke-miterlimit:10;stroke-dasharray:4"/></svg>