<svg xmlns="http://www.w3.org/2000/svg" viewBox="0 0 140.1 40"><title>logo-grey</title><path d="M70.05,35.45c-34.09,0-55.29,4.88-53.19,4.47a276,276,0,0,1,107.22-.13C126.1,40.19,104.14,35.45,70.05,35.45Zm60.09-29.2a284.93,284.93,0,0,0-119.59.19S36,.82,70.05.82A325.89,325.89,0,0,1,130.14,6.25ZM23.36,22.14l2.89-.46L23.77,15.5ZM64.86,9.91,62.55,10,62.86,25,65.17,25c1.58,0,2.37-1,2.33-3l-.19-9.24C67.28,10.84,66.45,9.88,64.86,9.91Zm10.82,0-2.11,0-.13,8.35,1.46,0c2.18,0,2.92-.61,2.95-2.53l.05-3.12C77.93,10.7,77.26,9.9,75.68,9.87Zm64.42,4.25-4.48,22.77-4.24,2.92A288,288,0,0,0,9.32,40L4.94,37.12,0,14.5,2.84,10a289.61,289.61,0,0,1,134.28-.39ZM19.71,30.86l-7.13-8.25,3.36-9a.45.45,0,0,0-.08-.46.47.47,0,0,0-.44-.16l-1.23.25a.47.47,0,0,0-.34.29l-3.37,9L8.93,14.7a.46.46,0,0,0-.54-.37l-1.17.23a.47.47,0,0,0-.37.55l3.52,17.83a.47.47,0,0,0,.55.36l1.17-.23a.46.46,0,0,0,.36-.54l-1.24-6.32.51-1.34,6.07,6.84a.47.47,0,0,0,.43.15l1.23-.24a.48.48,0,0,0,.35-.31A.46.46,0,0,0,19.71,30.86Zm11.7-1.78L24.55,11.75a.47.47,0,0,0-.5-.29l-1.72.27a.47.47,0,0,0-.39.43l-1.07,18.6a.47.47,0,0,0,.16.37.44.44,0,0,0,.38.12l1.08-.18a.47.47,0,0,0,.39-.42l.36-6.5,3.76-.6,2.37,6.06a.46.46,0,0,0,.5.29l1.18-.19a.44.44,0,0,0,.33-.23A.47.47,0,0,0,31.41,29.08Zm7.34-7.55-.13-1.08A.46.46,0,0,0,38.1,20l-4.2.51-1-8.29,5.21-.63a.46.46,0,0,0,.4-.51L38.39,10a.46.46,0,0,0-.51-.41L31,10.45a.47.47,0,0,0-.41.52l2.16,18a.48.48,0,0,0,.52.41l1.19-.15a.46.46,0,0,0,.4-.51l-.74-6.21,4.2-.51A.46.46,0,0,0,38.75,21.53Zm3.84-10.34,5.22-.47a.45.45,0,0,0,.42-.5l-.09-1.09a.48.48,0,0,0-.51-.42l-6.87.62a.45.45,0,0,0-.42.5L42,27.93a.45.45,0,0,0,.5.42l1.19-.1a.48.48,0,0,0,.42-.51l-.56-6.23,4.22-.38a.47.47,0,0,0,.42-.5l-.1-1.09a.47.47,0,0,0-.5-.42l-4.22.38ZM59.27,26.68l-.06-1.08a.46.46,0,0,0-.49-.44l-5.5.31L53,20.78l4.49-.26a.45.45,0,0,0,.43-.49l-.06-1.09a.45.45,0,0,0-.49-.43l-4.49.25-.47-8.33,5.5-.31a.47.47,0,0,0,.44-.49l-.06-1.09a.47.47,0,0,0-.49-.44l-7.16.41a.45.45,0,0,0-.43.49l1,18.14a.47.47,0,0,0,.49.44l7.16-.41A.45.45,0,0,0,59.27,26.68Zm10.35-4.76-.18-9.14c-.07-3.16-1.74-4.94-4.59-4.89l-4,.08a.47.47,0,0,0-.45.48l.37,18.17a.46.46,0,0,0,.47.45l4-.08C68.09,26.93,69.68,25.08,69.62,21.92Zm10.56,4.39a3.67,3.67,0,0,1-.34-1.93l0-1.43a3.92,3.92,0,0,0-1.72-3.74c1.2-.66,1.81-1.89,1.84-3.73l0-3c0-3-1.44-4.59-4.29-4.63L71.94,7.8a.47.47,0,0,0-.47.46L71.2,26.43a.47.47,0,0,0,.46.47l1.19,0a.46.46,0,0,0,.47-.46l.09-6.26,1.44,0c2.11,0,2.92.78,2.89,2.67l0,1.44a4.68,4.68,0,0,0,.42,2.42.44.44,0,0,0,.39.24l1.25,0a.47.47,0,0,0,.4-.71ZM90.74,8.89a.47.47,0,0,0-.44-.49L83.14,8a.45.45,0,0,0-.48.44l-1,18.14a.46.46,0,0,0,.44.49l7.15.38a.47.47,0,0,0,.49-.44L89.85,26a.47.47,0,0,0-.44-.49l-5.5-.29.24-4.69,4.49.23a.46.46,0,0,0,.49-.44l.05-1.08a.45.45,0,0,0-.43-.49l-4.49-.24.43-8.33,5.5.29a.47.47,0,0,0,.49-.44Zm11.14.9a.46.46,0,0,0-.42-.51l-1.08-.09a.46.46,0,0,0-.5.42l-1.1,12.61L95.35,9.06a.45.45,0,0,0-.41-.34l-1.55-.14a.47.47,0,0,0-.5.42L91.32,27.11a.47.47,0,0,0,.42.5l1.09.09a.46.46,0,0,0,.5-.42l1.16-13.43,3.59,14a.47.47,0,0,0,.41.35l1.32.11a.47.47,0,0,0,.5-.42Zm10,8.59.36-2.89c.4-3.19-1-5.22-3.72-5.56s-4.58,1.29-5,4.48l-1.15,9.22c-.39,3.19,1,5.22,3.73,5.56s4.58-1.29,5-4.48l.42-3.34a.46.46,0,0,0-.4-.52l-3.53-.44a.46.46,0,0,0-.52.4l-.14,1.09a.46.46,0,0,0,.41.51l1.93.24L109,24.53c-.24,1.94-1.13,2.82-2.63,2.64s-2.15-1.27-1.91-3.2l1.17-9.38c.24-1.95,1.13-2.85,2.63-2.66s2.15,1.27,1.91,3.23l-.37,3a.46.46,0,0,0,.4.52l1.13.14A.46.46,0,0,0,111.86,18.38Zm2.58,9.77.72-4.65,4.44.69a.46.46,0,0,0,.53-.38l.17-1.08a.46.46,0,0,0-.39-.53l-4.44-.69,1.29-8.25,5.44.85a.46.46,0,0,0,.53-.39l.17-1.07a.46.46,0,0,0-.39-.53L115.43,11a.46.46,0,0,0-.52.39l-2.81,18a.46.46,0,0,0,.39.53L119.57,31a.46.46,0,0,0,.53-.39l.17-1.08a.46.46,0,0,0-.39-.52Zm19.47-13.41a.47.47,0,0,0-.37-.55L132.48,14a.47.47,0,0,0-.55.37L129.5,26.77l-2-13.45a.46.46,0,0,0-.37-.38l-1.52-.3a.46.46,0,0,0-.55.36l-3.49,17.84a.46.46,0,0,0,.37.54l1.07.21a.46.46,0,0,0,.54-.37L126.13,18l2.08,14.3a.46.46,0,0,0,.37.39l1.3.26a.47.47,0,0,0,.54-.37Z" style="fill:#666"/></svg>