<svg xmlns="http://www.w3.org/2000/svg" xmlns:xlink="http://www.w3.org/1999/xlink" viewBox="0 0 151.52 45"><defs><linearGradient id="a" x1="32.18" y1="66.42" x2="117.17" y2="-18.57" gradientUnits="userSpaceOnUse"><stop offset="0" stop-color="#dacf9a"/><stop offset="0.5" stop-color="#f3ebbd"/><stop offset="1" stop-color="#dacf9a"/></linearGradient></defs><title>logo</title><path d="M77,40.15c-36.28,0-58.84,5.2-56.61,4.76a293.71,293.71,0,0,1,114.11-.13C136.63,45.2,113.26,40.15,77,40.15Zm64-31.06a303.17,303.17,0,0,0-127.27.2s27-6,63.32-6A346.75,346.75,0,0,1,140.93,9.09ZM27.29,26l3.08-.49-2.64-6.58ZM71.46,13,69,13l.32,16,2.46,0c1.69,0,2.53-1.1,2.49-3.15L74.07,16C74,14,73.15,12.94,71.46,13Zm11.51,0-2.25,0-.13,8.88,1.55,0c2.32,0,3.11-.64,3.14-2.69l0-3.32C85.36,13.82,84.65,13,83,12.94Zm68.55,4.52-4.76,24.23-4.52,3.1A306.49,306.49,0,0,0,12.35,45L7.69,41.94,2.43,17.86l3-4.84a308.17,308.17,0,0,1,142.89-.41ZM23.41,35.27,15.82,26.5l3.57-9.64a.49.49,0,0,0-.08-.49.5.5,0,0,0-.47-.16l-1.3.25a.52.52,0,0,0-.37.32l-3.59,9.61-1.64-8.32a.5.5,0,0,0-.58-.38l-1.25.24a.49.49,0,0,0-.39.58l3.75,19a.49.49,0,0,0,.58.39l1.25-.24a.5.5,0,0,0,.38-.58l-1.32-6.72.55-1.43,6.45,7.28a.52.52,0,0,0,.47.16l1.3-.26a.52.52,0,0,0,.37-.32A.51.51,0,0,0,23.41,35.27Zm12.45-1.89-7.3-18.45a.5.5,0,0,0-.54-.3l-1.83.29a.5.5,0,0,0-.41.46L24.65,35.17a.48.48,0,0,0,.16.39.47.47,0,0,0,.41.12l1.14-.18a.49.49,0,0,0,.42-.45l.38-6.92,4-.63L33.69,34a.48.48,0,0,0,.53.3l1.26-.2a.5.5,0,0,0,.35-.24A.54.54,0,0,0,35.86,33.38Zm7.81-8-.14-1.15a.49.49,0,0,0-.55-.43l-4.47.54-1.06-8.82L43,14.81a.49.49,0,0,0,.44-.54l-.14-1.16a.5.5,0,0,0-.55-.43l-7.3.88a.49.49,0,0,0-.43.54l2.3,19.21a.49.49,0,0,0,.55.43l1.26-.15a.5.5,0,0,0,.43-.55l-.79-6.61,4.48-.54A.49.49,0,0,0,43.67,25.34Zm4.08-11,5.57-.5a.48.48,0,0,0,.44-.53l-.1-1.16a.51.51,0,0,0-.54-.45l-7.32.66a.49.49,0,0,0-.44.54l1.73,19.26a.51.51,0,0,0,.54.45l1.27-.12a.48.48,0,0,0,.44-.53l-.6-6.63,4.49-.41a.49.49,0,0,0,.45-.53l-.1-1.16a.51.51,0,0,0-.54-.45l-4.49.41ZM65.51,30.83l-.06-1.16a.49.49,0,0,0-.52-.46l-5.86.33-.28-5,4.78-.27a.49.49,0,0,0,.46-.52L64,22.59a.48.48,0,0,0-.52-.46l-4.77.27-.5-8.87L64,13.2a.49.49,0,0,0,.46-.52l-.06-1.16a.49.49,0,0,0-.52-.46l-7.62.43a.49.49,0,0,0-.46.52l1.09,19.31a.49.49,0,0,0,.52.46l7.62-.43A.49.49,0,0,0,65.51,30.83Zm11-5.07L76.33,16c-.07-3.36-1.85-5.26-4.89-5.2l-4.25.09a.48.48,0,0,0-.48.5l.39,19.34a.49.49,0,0,0,.5.48l4.26-.09C74.89,31.09,76.59,29.13,76.52,25.76Zm11.24,4.67a3.92,3.92,0,0,1-.36-2.06l0-1.51c0-1.91-.59-3.24-1.83-4,1.28-.71,1.92-2,2-4l0-3.18c0-3.18-1.53-4.88-4.56-4.93l-4-.06a.51.51,0,0,0-.5.49L78.2,30.56a.51.51,0,0,0,.49.5l1.27,0a.5.5,0,0,0,.5-.49l.1-6.66,1.52,0c2.25,0,3.12.83,3.09,2.84l0,1.54a5.12,5.12,0,0,0,.44,2.57.51.51,0,0,0,.43.26l1.32,0a.52.52,0,0,0,.44-.25A.52.52,0,0,0,87.76,30.43ZM99,11.89a.49.49,0,0,0-.46-.52L90.91,11a.49.49,0,0,0-.52.46l-1,19.32a.49.49,0,0,0,.47.51l7.62.4a.48.48,0,0,0,.51-.46l.07-1.16a.49.49,0,0,0-.47-.52l-5.85-.31.26-5,4.77.25a.5.5,0,0,0,.52-.47l.06-1.16a.49.49,0,0,0-.47-.52l-4.77-.25.46-8.87,5.86.31a.49.49,0,0,0,.51-.47Zm11.87,1a.5.5,0,0,0-.45-.54l-1.16-.1a.49.49,0,0,0-.53.45l-1.17,13.42-3.65-14a.48.48,0,0,0-.43-.37l-1.65-.14a.48.48,0,0,0-.53.44L99.61,31.28a.49.49,0,0,0,.45.53l1.16.11a.49.49,0,0,0,.53-.45L103,17.17l3.82,14.9a.49.49,0,0,0,.43.37l1.41.12a.49.49,0,0,0,.53-.45ZM121.47,22l.39-3.08c.42-3.39-1-5.55-4-5.91s-4.87,1.37-5.29,4.76l-1.22,9.82c-.43,3.39,1,5.55,4,5.92s4.87-1.37,5.3-4.77l.44-3.56a.49.49,0,0,0-.43-.55l-3.76-.47a.5.5,0,0,0-.55.43l-.14,1.15a.49.49,0,0,0,.43.55l2.06.26-.25,2c-.26,2.06-1.2,3-2.8,2.8s-2.29-1.34-2-3.4l1.24-10c.26-2.08,1.2-3,2.8-2.83s2.29,1.35,2,3.43l-.39,3.16a.49.49,0,0,0,.43.55l1.2.15A.49.49,0,0,0,121.47,22Zm2.75,10.39.77-4.94,4.72.74a.5.5,0,0,0,.57-.41l.18-1.15a.5.5,0,0,0-.42-.56l-4.72-.74,1.37-8.78,5.79.91A.49.49,0,0,0,133,17l.18-1.15a.49.49,0,0,0-.41-.56l-7.53-1.18a.5.5,0,0,0-.57.41l-3,19.11a.49.49,0,0,0,.41.56l7.54,1.18a.49.49,0,0,0,.56-.41l.18-1.15a.49.49,0,0,0-.41-.56Zm20.72-14.27a.5.5,0,0,0-.39-.58l-1.14-.22a.49.49,0,0,0-.58.39l-2.58,13.22-2.14-14.31a.49.49,0,0,0-.39-.41l-1.63-.32a.49.49,0,0,0-.58.39l-3.71,19a.49.49,0,0,0,.39.58l1.14.22a.49.49,0,0,0,.57-.39l2.76-14.08,2.21,15.22a.49.49,0,0,0,.39.41l1.39.27a.5.5,0,0,0,.58-.39Z" style="fill:#1a1a1a"/><path d="M74.54,37.72c-36.28,0-58.84,5.2-56.6,4.76a293.71,293.71,0,0,1,114.11-.13C134.2,42.77,110.82,37.72,74.54,37.72Zm64-31.06a302.79,302.79,0,0,0-127.26.2s27-6,63.31-6A346.75,346.75,0,0,1,138.49,6.66ZM24.86,23.56l3.08-.48L25.3,16.5ZM69,10.55l-2.46,0,.32,16,2.46-.05c1.69,0,2.53-1.1,2.48-3.15l-.19-9.84C71.59,11.54,70.72,10.51,69,10.55Zm11.5,0-2.24,0-.13,8.89,1.55,0c2.32,0,3.11-.65,3.14-2.69l.05-3.32C82.93,11.39,82.22,10.53,80.53,10.51ZM149.09,15l-4.76,24.24-4.52,3.1a306.53,306.53,0,0,0-129.9.21L5.26,39.5,0,15.43l3-4.84a308.21,308.21,0,0,1,142.9-.41ZM21,32.84l-7.58-8.78L17,14.43a.48.48,0,0,0-.08-.49.48.48,0,0,0-.47-.16L15.1,14a.51.51,0,0,0-.36.31L11.15,24,9.5,15.64a.49.49,0,0,0-.57-.39l-1.25.25a.49.49,0,0,0-.39.58l3.75,19a.49.49,0,0,0,.58.39l1.24-.25a.48.48,0,0,0,.39-.58L11.93,27.9l.55-1.43,6.45,7.28a.47.47,0,0,0,.46.15l1.31-.25a.51.51,0,0,0,.37-.33A.5.5,0,0,0,21,32.84ZM33.43,31,26.13,12.5a.5.5,0,0,0-.54-.3l-1.83.29a.47.47,0,0,0-.41.46L22.21,32.74a.5.5,0,0,0,.57.51l1.15-.18a.51.51,0,0,0,.42-.46l.38-6.91,4-.63,2.52,6.45a.5.5,0,0,0,.54.3l1.25-.2a.5.5,0,0,0,.36-.24A.54.54,0,0,0,33.43,31Zm7.8-8-.13-1.15a.5.5,0,0,0-.55-.43l-4.48.53L35,13l5.54-.66a.49.49,0,0,0,.43-.55l-.14-1.15a.49.49,0,0,0-.54-.43l-7.3.87a.5.5,0,0,0-.43.55l2.3,19.2a.49.49,0,0,0,.55.43l1.26-.15a.49.49,0,0,0,.43-.54L36.33,24l4.47-.54A.49.49,0,0,0,41.23,22.91Zm4.09-11,5.56-.5a.5.5,0,0,0,.45-.54l-.1-1.15a.51.51,0,0,0-.54-.45l-7.32.66a.48.48,0,0,0-.44.53l1.73,19.27a.49.49,0,0,0,.54.44l1.26-.11a.5.5,0,0,0,.45-.54l-.6-6.63,4.49-.4a.5.5,0,0,0,.45-.54l-.11-1.15a.49.49,0,0,0-.53-.45l-4.49.41ZM63.08,28.4,63,27.24a.5.5,0,0,0-.52-.47l-5.85.34-.28-5,4.77-.27a.51.51,0,0,0,.47-.52l-.07-1.16A.49.49,0,0,0,61,19.7L56.24,20l-.5-8.87,5.85-.33a.49.49,0,0,0,.46-.52L62,9.09a.51.51,0,0,0-.52-.47l-7.62.43a.49.49,0,0,0-.46.52l1.09,19.31a.5.5,0,0,0,.52.47l7.61-.43A.5.5,0,0,0,63.08,28.4Zm11-5.08-.2-9.72c-.06-3.37-1.84-5.26-4.88-5.2l-4.25.09a.48.48,0,0,0-.48.5l.39,19.33a.49.49,0,0,0,.5.49l4.25-.09C72.46,28.66,74.16,26.69,74.09,23.32ZM85.32,28A4,4,0,0,1,85,25.94l0-1.51c0-1.91-.59-3.25-1.84-4,1.29-.71,1.93-2,2-4l0-3.18c0-3.18-1.53-4.88-4.57-4.93l-4-.06a.49.49,0,0,0-.5.49l-.29,19.33a.49.49,0,0,0,.49.5l1.27,0a.49.49,0,0,0,.5-.48l.1-6.66,1.52,0c2.25,0,3.11.84,3.08,2.85l0,1.54a5,5,0,0,0,.44,2.57.48.48,0,0,0,.43.25l1.32,0a.48.48,0,0,0,.44-.25A.48.48,0,0,0,85.32,28ZM96.56,9.46a.49.49,0,0,0-.46-.52l-7.62-.4A.51.51,0,0,0,88,9L87,28.32a.49.49,0,0,0,.47.52l7.61.4a.49.49,0,0,0,.52-.47l.06-1.16a.48.48,0,0,0-.46-.51l-5.86-.31.26-5,4.78.25a.49.49,0,0,0,.52-.46l.06-1.16a.5.5,0,0,0-.47-.52l-4.77-.25.46-8.87,5.85.31a.5.5,0,0,0,.52-.47Zm11.86.95a.48.48,0,0,0-.44-.53l-1.16-.1a.49.49,0,0,0-.53.45l-1.17,13.42-3.65-14a.47.47,0,0,0-.43-.36l-1.65-.15a.51.51,0,0,0-.54.45L97.18,28.85a.49.49,0,0,0,.45.53l1.15.1a.49.49,0,0,0,.54-.45l1.24-14.29,3.81,14.9a.51.51,0,0,0,.44.37l1.41.12a.49.49,0,0,0,.53-.45ZM119,19.56l.38-3.08c.43-3.39-1-5.55-4-5.91s-4.87,1.37-5.29,4.76l-1.23,9.82c-.42,3.39,1,5.55,4,5.91s4.87-1.37,5.29-4.76l.45-3.56a.49.49,0,0,0-.43-.55l-3.76-.47a.49.49,0,0,0-.55.43l-.14,1.15a.49.49,0,0,0,.43.55l2.06.26-.25,2c-.26,2.06-1.2,3-2.81,2.8s-2.28-1.34-2-3.4l1.25-10c.25-2.08,1.2-3,2.8-2.83s2.29,1.35,2,3.43l-.39,3.16a.49.49,0,0,0,.42.55l1.21.15A.49.49,0,0,0,119,19.56ZM121.78,30l.78-4.94,4.72.74a.5.5,0,0,0,.56-.41l.18-1.15a.49.49,0,0,0-.41-.56l-4.72-.74,1.37-8.78,5.79.91a.5.5,0,0,0,.56-.42l.18-1.14a.5.5,0,0,0-.41-.57l-7.54-1.17a.49.49,0,0,0-.56.41l-3,19.11a.49.49,0,0,0,.41.56L127.24,33a.5.5,0,0,0,.57-.41l.18-1.15a.5.5,0,0,0-.42-.56Zm20.73-14.27a.5.5,0,0,0-.39-.58L141,14.88a.49.49,0,0,0-.58.39l-2.59,13.22-2.13-14.31a.49.49,0,0,0-.4-.41l-1.62-.32a.49.49,0,0,0-.58.39l-3.71,19a.49.49,0,0,0,.39.58l1.13.22a.49.49,0,0,0,.58-.39l2.76-14.08,2.21,15.22a.5.5,0,0,0,.39.41l1.39.27a.49.49,0,0,0,.57-.39Z" style="fill:url(#a)"/></svg>