<svg xmlns="http://www.w3.org/2000/svg" viewBox="0 0 297.7 85"><title>logo-dark</title><path d="M148.85,75.32c-72.44,0-117.49,10.39-113,9.51a586.3,586.3,0,0,1,227.85-.27C268,85.4,221.3,75.32,148.85,75.32Zm127.7-62a605.06,605.06,0,0,0-254.13.4s54-11.94,126.43-11.94S276.55,13.29,276.55,13.29ZM49.65,47.05l6.13-1L50.52,32.94Zm88.18-26-4.91.1.65,32,4.91-.1c3.37-.07,5-2.19,5-6.29L143,27.14C143,23,141.21,21,137.83,21.06Zm23-.08-4.47-.06-.27,17.73,3.1.05c4.62.07,6.2-1.29,6.27-5.38l.1-6.63C165.59,22.74,164.18,21,160.81,21ZM297.7,30l-9.5,48.39-9,6.2A611.91,611.91,0,0,0,19.8,85l-9.3-6.12L0,30.8l6-9.65a615.4,615.4,0,0,1,285.34-.83ZM41.88,65.58,26.74,48.05l7.13-19.23a1,1,0,0,0-1.11-1.31l-2.6.51a1,1,0,0,0-.73.62L22.26,47.85,19,31.23a1,1,0,0,0-1.16-.77L15.33,31a1,1,0,0,0-.77,1.16L22,70a1,1,0,0,0,1.16.78l2.49-.49a1,1,0,0,0,.77-1.16L23.81,55.7l1.1-2.85L37.8,67.39a1,1,0,0,0,.93.31l2.6-.51a1,1,0,0,0,.74-.65A1,1,0,0,0,41.88,65.58ZM66.74,61.8,52.17,25a1,1,0,0,0-1.07-.61l-3.65.58a1,1,0,0,0-.83.92L44.36,65.37a1,1,0,0,0,.32.79,1,1,0,0,0,.81.24l2.3-.37a1,1,0,0,0,.82-.91l.77-13.8,8-1.27,5,12.88a1,1,0,0,0,1.07.61l2.5-.4a1,1,0,0,0,.76-1.34Zm15.6-16-.28-2.3A1,1,0,0,0,81,42.59L72,43.66,69.92,26.05,81,24.72a1,1,0,0,0,.87-1.09l-.28-2.3a1,1,0,0,0-1.09-.86L65.92,22.21a1,1,0,0,0-.86,1.1l4.59,38.34a1,1,0,0,0,1.09.86l2.52-.3a1,1,0,0,0,.86-1.1l-1.58-13.2,8.94-1.07A1,1,0,0,0,82.34,45.75Zm8.16-22,11.11-1a1,1,0,0,0,.89-1.07l-.21-2.31a1,1,0,0,0-1.07-.89L86.61,19.83a1,1,0,0,0-.89,1.07l3.46,38.46a1,1,0,0,0,1.07.89L92.78,60A1,1,0,0,0,93.67,59L92.48,45.71l9-.8a1,1,0,0,0,.89-1.07l-.2-2.31a1,1,0,0,0-1.07-.89l-9,.81ZM126,56.7l-.13-2.31a1,1,0,0,0-1-.93l-11.69.66-.56-10,9.53-.54a1,1,0,0,0,.93-1l-.13-2.31a1,1,0,0,0-1-.93l-9.53.54-1-17.71L123,21.5a1,1,0,0,0,.93-1l-.13-2.31a1,1,0,0,0-1-.93l-15.21.86a1,1,0,0,0-.92,1l2.18,38.56a1,1,0,0,0,1,.92l15.2-.86A1,1,0,0,0,126,56.7Zm22-10.12-.39-19.42c-.13-6.72-3.69-10.51-9.74-10.39l-8.5.17a1,1,0,0,0-1,1l.78,38.61a1,1,0,0,0,1,1l8.5-.17C144.68,57.23,148.08,53.3,147.94,46.58Zm22.44,9.33a7.81,7.81,0,0,1-.71-4.11l0-3c.06-3.81-1.17-6.48-3.67-8,2.57-1.41,3.85-4,3.91-7.94l.1-6.35c.09-6.35-3.06-9.75-9.12-9.84l-8.05-.12a1,1,0,0,0-1,1l-.58,38.61a1,1,0,0,0,1,1l2.54,0a1,1,0,0,0,1-1l.2-13.29,3,0c4.49.07,6.22,1.66,6.16,5.67l-.05,3.08a10,10,0,0,0,.88,5.14,1,1,0,0,0,.85.51l2.64,0a1,1,0,0,0,.85-1.51Zm22.44-37a1,1,0,0,0-.93-1l-15.21-.8a1,1,0,0,0-1,.93l-2,38.57a1,1,0,0,0,.93,1l15.21.8a1,1,0,0,0,1-.94l.12-2.31a1,1,0,0,0-.93-1l-11.69-.62.52-10,9.54.5a1,1,0,0,0,1-.94l.12-2.31a1,1,0,0,0-.94-1l-9.53-.5L180,21.52l11.69.62a1,1,0,0,0,1-.94Zm23.68,1.9a1,1,0,0,0-.89-1.06l-2.31-.2a1,1,0,0,0-1.07.89l-2.32,26.8-7.29-28a1,1,0,0,0-.86-.74l-3.3-.28a1,1,0,0,0-1.07.89l-3.34,38.48a1,1,0,0,0,.9,1.06l2.3.2a1,1,0,0,0,1.07-.89l2.48-28.54,7.62,29.74a1,1,0,0,0,.87.74l2.8.24a1,1,0,0,0,1.07-.89Zm21.21,18.27.76-6.15c.84-6.78-2-11.08-7.92-11.81s-9.72,2.73-10.57,9.51l-2.44,19.6C216.7,57,219.59,61.3,225.46,62s9.73-2.74,10.57-9.52l.89-7.1a1,1,0,0,0-.86-1.1l-7.5-.94a1,1,0,0,0-1.1.86l-.29,2.3a1,1,0,0,0,.86,1.1l4.11.51-.5,4c-.51,4.12-2.39,6-5.59,5.6S221.48,55,222,50.93L224.48,31c.51-4.14,2.4-6,5.6-5.64s4.56,2.7,4,6.85l-.78,6.3a1,1,0,0,0,.86,1.1l2.41.3A1,1,0,0,0,237.71,39.06Zm5.47,20.75,1.54-9.87,9.44,1.47a1,1,0,0,0,1.12-.82l.36-2.29a1,1,0,0,0-.82-1.12l-9.44-1.48,2.74-17.52L259.68,30a1,1,0,0,0,1.13-.82l.35-2.29a1,1,0,0,0-.82-1.12l-15-2.35a1,1,0,0,0-1.13.82l-5.95,38.16A1,1,0,0,0,239,63.5l15,2.35a1,1,0,0,0,1.13-.82l.35-2.29a1,1,0,0,0-.82-1.13Zm41.38-28.5a1,1,0,0,0-.78-1.15l-2.27-.45a1,1,0,0,0-1.16.78l-5.16,26.39-4.27-28.57a1,1,0,0,0-.78-.82l-3.25-.64a1,1,0,0,0-1.16.78l-7.41,37.9a1,1,0,0,0,.78,1.16l2.27.44a1,1,0,0,0,1.16-.78L268,38.24l4.41,30.38a1,1,0,0,0,.79.83L276,70a1,1,0,0,0,1.16-.78Z" style="fill:#2a2a2a"/></svg>