<svg xmlns="http://www.w3.org/2000/svg" viewBox="0 0 433 123" width="433" height="123">
	<style>
		tspan { white-space:pre }
		.shp0 { fill: #ffffff } 
	</style>
	<path id="Layer" class="shp0" d="M159.85 29.64C162.7 24.58 165.76 19.64 168.4 15.11L172 10.62C172.64 9.84 172.21 4.78 171.79 3.5C170.89 0.86 167.19 0.22 165.19 0C163.63 -0.14 159.42 1.57 159.14 1.71C157 2.79 150.81 7.56 148.6 9.55C144.89 12.62 141.05 15.89 136.99 19.45L131.79 23.94C127.79 27.43 123.6 31.14 118.97 34.94C114.69 38.57 109.28 44.2 102.87 49.12C102.07 49.76 101.25 50.38 100.43 50.99C99.6 51.6 98.76 52.19 97.91 52.76C97.06 53.34 96.2 53.9 95.33 54.43C94.46 54.97 93.57 55.5 92.68 56C92.47 56.13 92.24 56.24 92.01 56.35C91.78 56.45 91.55 56.53 91.31 56.61C91.07 56.68 90.82 56.74 90.58 56.78C90.33 56.82 90.08 56.85 89.83 56.86C88.34 56.86 89.26 52.66 89.26 52.37C90.12 47.03 89.83 46.37 92.04 39.37C93.25 35.31 96.89 28.11 99.88 21.77C100.19 21.16 100.49 20.54 100.77 19.92C101.06 19.3 101.33 18.67 101.58 18.03C101.84 17.39 102.08 16.75 102.31 16.11C102.53 15.46 102.74 14.81 102.94 14.15C104.01 10.95 101.23 8.95 100.16 8.52C99.82 8.42 99.48 8.34 99.14 8.27C98.79 8.2 98.45 8.15 98.1 8.1C97.75 8.06 97.4 8.03 97.05 8.01C96.7 7.99 96.35 7.99 96 8C95.53 8.01 95.07 8.04 94.61 8.11C94.15 8.17 93.69 8.26 93.24 8.38C92.79 8.5 92.35 8.65 91.92 8.82C91.49 8.99 91.07 9.19 90.66 9.42C89.91 9.92 89.16 10.43 88.42 10.95C87.69 11.47 86.95 12.01 86.23 12.55C85.51 13.09 84.79 13.64 84.08 14.19C83.37 14.75 82.67 15.32 81.97 15.9C77.76 19.9 73.35 24.38 68.65 29.08L52.65 45.25C48.09 49.74 43.53 54.25 38.9 58.64C32.49 64.69 26.3 69.47 19.74 74.64C14.74 78.64 9.56 80.48 7.74 80.76C7.17 80.83 2.74 82.47 1.74 84.96C1.53 85.89 0.11 90.52 0.03 91.66C-0.11 93.3 0.96 93.3 0.96 93.58C0.87 95 3.29 98 5 98C6 98 10.63 97.43 13.33 95.08C15.54 93.3 17.11 90.38 19.33 88.31C24 83.77 30.57 76.72 37.55 68.82C42.82 62.97 48.24 56.71 53.55 50.72C56.97 46.88 60.32 43.17 63.55 39.72C65.47 37.66 67.32 35.66 69.11 33.88C71.31 31.6 73.31 29.61 75.11 27.97C78.24 25.19 85.22 20.28 87.11 23.06C88.18 24.48 86.11 27.76 85.47 30.18C84.83 33.39 84.76 32.89 83.62 36.3C81.62 42.57 80.77 43.71 77.21 53.61C76.94 54.37 76.68 55.13 76.43 55.89C76.18 56.65 75.95 57.42 75.73 58.19C75.51 58.97 75.3 59.74 75.11 60.52C74.92 61.3 74.74 62.08 74.57 62.87C73.93 65.87 74.64 67.87 74.57 69.28C74.57 70.42 77.92 73.28 79.84 73.34C80.48 73.34 81.12 73.29 81.75 73.19C82.38 73.09 83 72.94 83.61 72.75C84.22 72.56 84.82 72.32 85.39 72.03C85.96 71.75 86.52 71.43 87.04 71.06C88.75 69.85 89.96 67.5 92.38 64.8C94.8 62.1 99.38 57.32 102.92 54.25C108.26 49.7 113.53 44.57 117.59 41.08C122.01 37.59 126.92 33.24 132.59 29.18C135.73 26.83 139.64 25.05 142.99 22.42C146.48 19.5 148.83 19.07 150.11 19.21C150.54 19.28 150.75 19.64 150.75 20.21C150.68 23.48 148.69 27.62 146.27 33.31C145.48 35.09 144.7 37.02 143.92 39.15C142.35 43.43 140.78 48.15 139.22 53.04L136.08 63.16C133.73 70.99 131.81 77.9 130.95 81.47C129.46 88.23 127.32 104.76 127.04 107.82C127 108.53 126.97 109.24 126.95 109.96C126.94 110.67 126.94 111.38 126.95 112.1C126.96 112.81 126.99 113.52 127.02 114.24C127.06 114.95 127.11 115.66 127.18 116.37C127.21 116.89 127.26 117.41 127.35 117.92C127.44 118.43 127.56 118.94 127.71 119.43C127.86 119.93 128.04 120.42 128.25 120.89C128.46 121.37 128.7 121.83 128.96 122.28C129.53 122.85 130.24 122.42 130.38 120.93C130.45 120.5 130.24 118.72 130.24 116.22C130.17 114.16 130.1 111.22 130.03 110.81C129.81 109.03 131.45 104.33 132.23 100.55C132.42 99.59 132.62 98.62 132.84 97.67C133.06 96.71 133.29 95.76 133.54 94.81C133.79 93.86 134.06 92.91 134.34 91.97C134.62 91.03 134.92 90.09 135.23 89.16C136.44 85.1 138.43 79.61 140.71 73.63C142.85 68 145.34 61.88 147.71 56.04C149.71 51.12 151.71 46.49 153.48 42.43C153.95 41.34 154.44 40.25 154.94 39.17C155.44 38.09 155.95 37.01 156.48 35.95C157.02 34.88 157.56 33.82 158.12 32.77C158.68 31.72 159.26 30.67 159.85 29.64L159.85 29.64Z" />
	<path id="Layer" class="shp0" d="M358.81 59.49C355.39 62 347.7 66.89 343.35 70C342.61 70.49 341.86 70.96 341.09 71.4C340.32 71.84 339.54 72.26 338.74 72.64C337.94 73.03 337.13 73.39 336.31 73.72C335.49 74.05 334.65 74.36 333.81 74.63C333.65 74.7 333.48 74.75 333.31 74.8C333.14 74.85 332.97 74.89 332.79 74.92C332.62 74.95 332.44 74.97 332.27 74.98C332.09 74.99 331.92 74.99 331.74 74.98C330.25 74.84 329.53 72.28 329.82 68.98C329.92 68.41 330.03 67.84 330.16 67.28C330.29 66.71 330.42 66.15 330.57 65.59C330.72 65.03 330.88 64.48 331.05 63.93C331.22 63.37 331.41 62.82 331.6 62.28C332.53 59.79 333.74 54.73 336.52 50.46C336.89 49.93 337.26 49.38 337.61 48.83C337.96 48.28 338.29 47.72 338.62 47.16C338.95 46.59 339.26 46.02 339.56 45.44C339.86 44.87 340.15 44.28 340.43 43.69C341.15 41.77 339.29 38.85 337.58 38.28C337.25 38.17 336.92 38.09 336.58 38.04C336.23 37.98 335.89 37.96 335.54 37.97C335.2 37.97 334.85 38.01 334.52 38.07C334.18 38.14 333.84 38.23 333.52 38.35C332.97 38.58 332.42 38.82 331.88 39.08C331.34 39.34 330.81 39.62 330.29 39.91C329.76 40.2 329.25 40.51 328.74 40.83C328.24 41.15 327.74 41.49 327.26 41.84C325.4 43.34 323.41 44.84 321.49 46.33C318.64 48.47 315.79 50.67 312.8 52.88C310.3 54.73 308.95 55.88 307.8 56.3C306.3 56.8 306.52 54.38 306.66 53.17L307.37 47.54C307.73 44.54 306.3 42.84 305.37 42.27C305.15 42.2 304.93 42.14 304.7 42.09C304.48 42.03 304.25 41.98 304.03 41.93C303.8 41.88 303.57 41.84 303.35 41.8C303.12 41.76 302.89 41.73 302.66 41.7C302.48 41.68 302.29 41.67 302.11 41.66C301.92 41.65 301.74 41.65 301.56 41.65C301.37 41.65 301.19 41.65 301 41.66C300.82 41.67 300.63 41.68 300.45 41.7C299.03 41.7 294.33 45.47 291.62 47.82C287.49 51.39 281.79 55.52 279.44 57.51C278.73 58.08 270.11 65.42 268.9 66.06C267.97 66.56 267.76 63.64 268.61 62.28C269.09 61.52 269.6 60.77 270.12 60.04C270.64 59.31 271.19 58.59 271.76 57.89C272.32 57.19 272.91 56.5 273.51 55.83C274.11 55.16 274.74 54.51 275.38 53.88C277.02 52.31 280.22 50.46 281.51 49.32C283.71 47.4 283.36 45.12 283.51 43.91C283.58 43.12 283.15 42.41 281.8 41.56C280.95 40.99 278.17 40.77 276.39 41.27C275.93 41.4 275.47 41.56 275.03 41.75C274.59 41.95 274.17 42.18 273.77 42.44C273.36 42.69 272.98 42.98 272.62 43.3C272.26 43.62 271.92 43.96 271.61 44.33C269.76 46.9 269.12 48.82 267.41 50.89C265.41 53.42 262.52 56.98 260.15 60.06C256.43 62.68 249.59 67.06 245.57 69.98C244.83 70.48 244.08 70.95 243.3 71.39C242.53 71.84 241.75 72.26 240.95 72.65C240.15 73.04 239.33 73.4 238.51 73.74C237.68 74.07 236.85 74.38 236 74.66C235.84 74.72 235.68 74.78 235.52 74.82C235.35 74.87 235.19 74.91 235.02 74.94C234.85 74.96 234.68 74.98 234.51 74.99C234.34 75.01 234.17 75.01 234 75C232.5 74.86 231.79 72.3 232.07 69C232.17 68.43 232.29 67.86 232.41 67.3C232.54 66.73 232.68 66.17 232.82 65.61C232.97 65.05 233.13 64.5 233.3 63.95C233.47 63.39 233.66 62.85 233.85 62.3C234.78 59.81 235.99 54.75 238.77 50.48C239.14 49.94 239.51 49.4 239.86 48.85C240.21 48.3 240.55 47.74 240.87 47.18C241.2 46.61 241.52 46.04 241.82 45.46C242.12 44.89 242.41 44.3 242.69 43.71C243.4 41.79 241.55 38.87 239.84 38.3C239.51 38.19 239.18 38.11 238.84 38.06C238.49 38 238.15 37.98 237.8 37.99C237.46 37.99 237.11 38.03 236.78 38.09C236.44 38.16 236.1 38.25 235.78 38.37C235.23 38.6 234.68 38.84 234.14 39.1C233.6 39.36 233.06 39.64 232.54 39.93C232.02 40.22 231.5 40.53 231 40.85C230.49 41.17 230 41.51 229.51 41.86C227.66 43.36 225.66 44.86 223.74 46.35C220.89 48.49 218.04 50.69 215.05 52.9C212.56 54.75 211.2 55.9 210.05 56.32C208.56 56.82 208.77 54.4 208.91 53.19L209.63 47.56C209.98 44.56 208.56 42.86 207.63 42.29C207.41 42.22 207.19 42.16 206.96 42.11C206.74 42.05 206.51 42 206.29 41.95C206.06 41.9 205.83 41.86 205.61 41.82C205.38 41.78 205.15 41.75 204.92 41.72C204.74 41.7 204.55 41.69 204.37 41.68C204.19 41.67 204 41.67 203.82 41.67C203.64 41.67 203.45 41.67 203.27 41.68C203.09 41.69 202.9 41.7 202.72 41.72C201.29 41.72 196.59 45.49 193.88 47.84C189.75 51.41 184.05 55.54 181.7 57.53C180.99 58.1 172.37 65.44 171.16 66.08C170.24 66.58 170.02 63.66 170.88 62.3C171.36 61.54 171.86 60.79 172.39 60.06C172.91 59.33 173.45 58.61 174.02 57.91C174.58 57.2 175.17 56.52 175.77 55.85C176.38 55.18 177 54.53 177.64 53.9C179.28 52.33 182.49 50.48 183.77 49.34C185.98 47.42 185.62 45.14 185.77 43.93C185.85 43.14 185.42 42.43 184.06 41.58C183.21 41.01 180.43 40.79 178.65 41.29C178.19 41.42 177.73 41.58 177.3 41.77C176.86 41.97 176.43 42.2 176.03 42.45C175.63 42.71 175.24 43 174.88 43.32C174.52 43.64 174.19 43.98 173.88 44.35C172.03 46.92 171.39 48.84 169.68 50.91C166.83 54.47 162.27 60.1 159.85 63.52C158.28 65.72 157.07 67.86 156 69.71C155.69 70.25 155.39 70.81 155.1 71.36C154.81 71.92 154.54 72.49 154.28 73.06C154.02 73.63 153.77 74.21 153.53 74.79C153.3 75.37 153.08 75.96 152.87 76.55C152.08 78.69 152.87 83.03 154.01 83.74C154.52 83.96 155.06 84.13 155.61 84.25C156.15 84.37 156.71 84.43 157.27 84.45C157.83 84.46 158.39 84.42 158.94 84.32C159.49 84.23 160.04 84.09 160.56 83.89C160.87 83.74 161.18 83.58 161.48 83.4C161.77 83.22 162.06 83.03 162.33 82.82C162.61 82.61 162.87 82.38 163.13 82.14C163.38 81.91 163.62 81.65 163.84 81.39C165.97 79.11 166.26 78.19 170.67 73.2C172.88 70.92 176.23 67.43 178.51 65.2C180.29 63.35 183 60.93 185.28 58.86C187.84 56.59 192.9 53.52 195.89 53.24C197.38 53.17 196.89 55.87 196.81 56.16L195.89 62.16C195.81 62.54 195.77 62.92 195.78 63.31C195.8 63.7 195.86 64.08 195.96 64.45C196.07 64.82 196.22 65.18 196.41 65.52C196.6 65.85 196.83 66.16 197.1 66.44C197.38 66.73 197.69 66.99 198.02 67.22C198.35 67.44 198.71 67.63 199.08 67.79C199.46 67.94 199.84 68.05 200.24 68.13C200.63 68.2 201.04 68.23 201.44 68.22C203.44 68 205.86 65.87 208.21 63.59C209.42 62.45 210.63 61.24 211.77 60.24C215.12 57.18 214.62 56.61 221.1 52.69C221.44 52.48 221.79 52.29 222.15 52.12C222.51 51.95 222.88 51.8 223.26 51.67C223.63 51.55 224.02 51.44 224.41 51.36C224.8 51.28 225.19 51.22 225.59 51.19C225.76 51.18 225.93 51.21 226.09 51.28C226.24 51.35 226.38 51.45 226.48 51.59C226.59 51.72 226.66 51.88 226.69 52.05C226.72 52.21 226.71 52.39 226.66 52.55C226.45 54.04 223.1 61.02 221.82 65.72C221.66 66.41 221.51 67.1 221.37 67.79C221.24 68.48 221.11 69.17 221 69.87C220.88 70.56 220.78 71.26 220.69 71.96C220.6 72.66 220.53 73.36 220.46 74.06C220.4 74.6 220.38 75.15 220.41 75.7C220.43 76.25 220.5 76.79 220.61 77.33C220.71 77.87 220.86 78.39 221.05 78.91C221.24 79.42 221.47 79.92 221.74 80.4C222.96 82.6 224.95 84.1 227.09 83.96C230.86 83.74 231.5 83.32 234.99 81.04C238.48 78.76 243.54 75.34 248.1 72.04L255.48 66.79C254.86 67.79 254.3 68.79 253.78 69.69C253.47 70.23 253.17 70.79 252.88 71.34C252.59 71.9 252.32 72.47 252.05 73.04C251.79 73.61 251.54 74.19 251.31 74.77C251.07 75.35 250.85 75.94 250.64 76.53C249.86 78.67 250.64 83.01 251.78 83.72C252.3 83.94 252.83 84.11 253.38 84.23C253.93 84.35 254.49 84.41 255.05 84.43C255.61 84.44 256.17 84.4 256.72 84.3C257.27 84.21 257.81 84.07 258.34 83.87C258.65 83.72 258.96 83.56 259.26 83.38C259.55 83.2 259.84 83.01 260.11 82.8C260.39 82.59 260.65 82.36 260.9 82.13C261.15 81.89 261.39 81.63 261.61 81.37C263.75 79.09 264.03 78.17 268.45 73.18C270.66 70.9 274.01 67.41 276.29 65.18C278 63.4 280.74 61 283 58.91C285.57 56.64 290.62 53.57 293.61 53.29C295.11 53.22 294.61 55.92 294.54 56.21L293.61 62.21C293.53 62.59 293.5 62.97 293.51 63.36C293.52 63.75 293.58 64.13 293.69 64.5C293.79 64.87 293.95 65.23 294.14 65.57C294.33 65.9 294.56 66.21 294.83 66.49C295.11 66.78 295.42 67.04 295.75 67.27C296.08 67.49 296.44 67.68 296.81 67.84C297.18 67.99 297.57 68.1 297.97 68.18C298.36 68.25 298.77 68.28 299.17 68.27C301.17 68.05 303.59 65.92 305.94 63.64C307.15 62.5 308.36 61.29 309.5 60.29C312.85 57.23 312.35 56.66 318.83 52.74C319.17 52.53 319.52 52.34 319.88 52.17C320.24 52 320.61 51.85 320.99 51.72C321.36 51.6 321.75 51.49 322.14 51.41C322.53 51.33 322.92 51.27 323.32 51.24C323.49 51.23 323.66 51.26 323.82 51.33C323.97 51.4 324.11 51.5 324.21 51.64C324.32 51.77 324.39 51.93 324.42 52.1C324.45 52.26 324.44 52.44 324.39 52.6C324.17 54.09 320.82 61.07 319.54 65.77C319.38 66.46 319.23 67.15 319.1 67.84C318.96 68.53 318.84 69.22 318.72 69.92C318.61 70.61 318.51 71.31 318.42 72.01C318.33 72.71 318.25 73.41 318.19 74.11C318.13 74.65 318.11 75.2 318.13 75.75C318.15 76.3 318.22 76.84 318.33 77.38C318.44 77.92 318.59 78.45 318.78 78.96C318.97 79.47 319.2 79.97 319.47 80.45C320.68 82.65 322.68 84.15 324.81 84.01C328.59 83.79 329.23 83.37 332.72 81.09C336.21 78.81 341.27 75.39 345.83 72.09L355.23 65.4C357.65 63.76 361.28 62.4 363.06 61.4C363.7 61.11 363.63 59.19 363.35 59.05C362.51 58.42 359.45 59.13 358.81 59.49Z" />
	<path id="Layer" class="shp0" d="M375.53 70.3C374.47 69.93 373.87 70.12 371.98 70.58C371.81 70.6 371.65 70.63 371.49 70.67C371.32 70.7 371.16 70.74 371 70.78C370.83 70.82 370.67 70.87 370.51 70.92C370.35 70.97 370.2 71.02 370.04 71.08C369.66 71.25 369.3 71.44 368.94 71.64C368.58 71.85 368.23 72.07 367.9 72.31C367.56 72.55 367.24 72.81 366.93 73.08C366.62 73.35 366.32 73.64 366.04 73.94C365.92 74.12 365.83 74.32 365.76 74.52C365.69 74.73 365.64 74.94 365.63 75.16C365.61 75.38 365.62 75.6 365.66 75.81C365.7 76.02 365.77 76.23 365.86 76.43C366.04 76.64 366.24 76.83 366.45 77.01C366.66 77.18 366.89 77.34 367.12 77.49C367.35 77.63 367.6 77.76 367.85 77.87C368.1 77.98 368.36 78.07 368.63 78.14C368.98 78.1 369.33 78.06 369.68 78.01C370.02 77.96 370.37 77.91 370.72 77.84C371.06 77.78 371.41 77.71 371.75 77.64C372.1 77.57 372.44 77.49 372.78 77.4C373.08 77.29 373.38 77.18 373.68 77.06C373.98 76.94 374.28 76.81 374.57 76.68C374.86 76.54 375.15 76.4 375.43 76.25C375.72 76.11 376 75.95 376.28 75.79C376.46 75.56 376.63 75.31 376.78 75.06C376.93 74.8 377.06 74.54 377.18 74.26C377.29 73.99 377.39 73.71 377.47 73.43C377.55 73.14 377.62 72.85 377.66 72.56C377.58 72.3 377.47 72.06 377.33 71.83C377.2 71.6 377.04 71.38 376.85 71.19C376.67 70.99 376.46 70.82 376.24 70.67C376.02 70.52 375.78 70.4 375.53 70.3Z" />
	<path id="Layer" class="shp0" d="M403 70.3C401.94 69.93 401.34 70.12 399.45 70.58C399.29 70.6 399.12 70.63 398.96 70.67C398.79 70.7 398.63 70.74 398.47 70.78C398.31 70.82 398.15 70.87 397.99 70.92C397.83 70.97 397.68 71.02 397.52 71.08C397.14 71.25 396.78 71.44 396.42 71.64C396.06 71.85 395.71 72.07 395.38 72.31C395.04 72.55 394.72 72.81 394.41 73.08C394.1 73.35 393.8 73.64 393.52 73.94C393.4 74.12 393.31 74.32 393.24 74.52C393.17 74.73 393.12 74.94 393.11 75.16C393.09 75.38 393.1 75.6 393.14 75.81C393.18 76.02 393.25 76.23 393.34 76.43C393.52 76.64 393.72 76.83 393.93 77C394.14 77.18 394.37 77.34 394.6 77.49C394.83 77.63 395.08 77.76 395.33 77.87C395.58 77.98 395.84 78.07 396.11 78.14C396.46 78.1 396.81 78.06 397.16 78.01C397.5 77.96 397.85 77.91 398.2 77.84C398.54 77.78 398.89 77.71 399.23 77.64C399.58 77.57 399.92 77.49 400.26 77.4C400.56 77.29 400.86 77.18 401.16 77.06C401.46 76.94 401.76 76.81 402.05 76.68C402.34 76.54 402.63 76.4 402.91 76.25C403.2 76.11 403.48 75.95 403.76 75.79C403.94 75.56 404.11 75.31 404.26 75.06C404.41 74.8 404.54 74.54 404.66 74.27C404.78 73.99 404.88 73.71 404.96 73.43C405.04 73.14 405.1 72.85 405.14 72.56C405.06 72.3 404.95 72.06 404.81 71.83C404.68 71.6 404.51 71.38 404.33 71.19C404.14 70.99 403.94 70.82 403.71 70.67C403.49 70.52 403.25 70.4 403 70.3Z" />
	<path id="Layer" class="shp0" d="M430.4 70.3C429.34 69.93 428.74 70.12 426.85 70.58C426.68 70.6 426.52 70.63 426.36 70.66C426.19 70.7 426.03 70.73 425.87 70.78C425.7 70.82 425.54 70.86 425.38 70.91C425.22 70.97 425.07 71.02 424.91 71.08C424.53 71.25 424.17 71.44 423.81 71.64C423.45 71.85 423.1 72.07 422.77 72.31C422.43 72.55 422.11 72.81 421.8 73.08C421.49 73.35 421.19 73.64 420.91 73.94C420.79 74.12 420.69 74.32 420.62 74.52C420.55 74.73 420.5 74.94 420.49 75.16C420.47 75.38 420.48 75.6 420.52 75.81C420.56 76.02 420.63 76.23 420.72 76.43C420.9 76.64 421.1 76.83 421.31 77C421.52 77.18 421.75 77.34 421.98 77.49C422.21 77.63 422.46 77.76 422.71 77.87C422.96 77.98 423.22 78.07 423.49 78.14C423.84 78.1 424.19 78.06 424.54 78.01C424.88 77.96 425.23 77.91 425.58 77.84C425.92 77.78 426.27 77.71 426.61 77.64C426.96 77.57 427.3 77.49 427.64 77.4C427.94 77.29 428.24 77.18 428.54 77.06C428.84 76.94 429.14 76.81 429.43 76.68C429.72 76.54 430.01 76.4 430.29 76.25C430.58 76.11 430.86 75.95 431.14 75.79C431.32 75.56 431.49 75.31 431.64 75.06C431.79 74.8 431.92 74.54 432.04 74.26C432.16 73.99 432.26 73.71 432.34 73.43C432.42 73.14 432.48 72.85 432.53 72.56C432.45 72.3 432.34 72.06 432.2 71.83C432.07 71.6 431.91 71.38 431.72 71.19C431.54 70.99 431.33 70.82 431.11 70.67C430.89 70.52 430.65 70.4 430.4 70.3Z" />
	<path id="Layer" fill-rule="evenodd" class="shp0" d="M156.59 99.31C158.73 99.31 160.78 100.16 162.29 101.67C163.8 103.18 164.65 105.23 164.65 107.37C164.65 109.51 163.8 111.56 162.29 113.07C160.78 114.58 158.73 115.43 156.59 115.43L151.29 115.43C151.23 115.43 151.18 115.42 151.13 115.39C151.08 115.37 151.03 115.34 150.99 115.3C150.95 115.26 150.92 115.21 150.9 115.16C150.88 115.11 150.87 115.06 150.87 115L150.87 99.73C150.87 99.67 150.88 99.62 150.9 99.57C150.92 99.52 150.95 99.47 150.99 99.43C151.03 99.39 151.08 99.36 151.13 99.34C151.18 99.31 151.23 99.3 151.29 99.3L156.59 99.3L156.59 99.31ZM156.27 113.23C157.79 113.17 159.22 112.52 160.27 111.43C161.32 110.33 161.91 108.87 161.91 107.36C161.91 105.84 161.32 104.38 160.27 103.28C159.22 102.19 157.79 101.54 156.27 101.48L153.27 101.48L153.27 113.23L156.27 113.23Z" />
	<path id="Layer" fill-rule="evenodd" class="shp0" d="M178 99.06C178.04 99.06 178.08 99.07 178.13 99.09C178.17 99.1 178.2 99.12 178.24 99.14C178.28 99.16 178.31 99.19 178.34 99.22C178.37 99.25 178.4 99.28 178.42 99.32L185.42 114.82C185.45 114.89 185.47 114.96 185.47 115.03C185.46 115.11 185.44 115.18 185.4 115.24C185.36 115.3 185.3 115.35 185.23 115.38C185.17 115.41 185.09 115.43 185.02 115.42L183.57 115.42C183.51 115.42 183.46 115.41 183.4 115.4C183.35 115.38 183.3 115.36 183.25 115.33C183.21 115.3 183.16 115.26 183.13 115.22C183.09 115.18 183.06 115.13 183.04 115.08L181.62 111.92L174.08 111.92C173.62 112.98 173.14 114.02 172.68 115.08C172.66 115.13 172.63 115.18 172.59 115.22C172.55 115.26 172.51 115.3 172.46 115.33C172.42 115.36 172.37 115.38 172.31 115.4C172.26 115.41 172.21 115.42 172.15 115.42L170.69 115.42C170.62 115.42 170.54 115.41 170.48 115.38C170.41 115.34 170.36 115.3 170.32 115.23C170.28 115.17 170.26 115.1 170.25 115.03C170.25 114.96 170.27 114.88 170.3 114.82L177.38 99.32C177.4 99.28 177.42 99.25 177.45 99.22C177.48 99.19 177.51 99.17 177.54 99.14C177.58 99.12 177.61 99.1 177.65 99.09C177.69 99.07 177.73 99.06 177.77 99.06L178 99.06ZM180.76 109.94L177.93 103.63L177.81 103.63L175 109.94L180.76 109.94Z" />
	<path id="Layer" class="shp0" d="M204.86 107.75L200.66 107.75C200.6 107.75 200.54 107.76 200.49 107.78C200.44 107.8 200.39 107.84 200.35 107.88C200.31 107.92 200.28 107.97 200.26 108.02C200.24 108.07 200.23 108.13 200.23 108.19L200.23 109.52C200.23 109.58 200.24 109.63 200.26 109.68C200.28 109.74 200.31 109.78 200.35 109.82C200.39 109.86 200.44 109.89 200.49 109.91C200.55 109.93 200.6 109.94 200.66 109.94L202.92 109.94L202.92 112.52C202.65 112.65 202.38 112.76 202.09 112.86C201.81 112.95 201.53 113.03 201.24 113.1C200.95 113.17 200.65 113.21 200.36 113.25C200.06 113.28 199.77 113.3 199.47 113.3C197.88 113.3 196.35 112.67 195.23 111.54C194.1 110.42 193.47 108.89 193.47 107.3C193.47 105.71 194.1 104.18 195.23 103.06C196.35 101.93 197.88 101.3 199.47 101.3C199.83 101.31 200.18 101.35 200.54 101.43C200.89 101.5 201.23 101.6 201.56 101.73C201.9 101.87 202.22 102.03 202.52 102.22C202.83 102.41 203.11 102.62 203.38 102.86C203.61 103.07 203.8 103.09 203.98 102.86L204.98 101.77C205.02 101.73 205.06 101.68 205.08 101.62C205.1 101.57 205.11 101.51 205.11 101.45C205.11 101.39 205.1 101.33 205.08 101.28C205.06 101.22 205.02 101.17 204.98 101.13C203.79 100.05 202.3 99.34 200.71 99.09C199.13 98.83 197.5 99.04 196.02 99.7C194.55 100.35 193.3 101.42 192.43 102.77C191.55 104.12 191.08 105.69 191.08 107.3C191.08 108.39 191.29 109.47 191.71 110.47C192.12 111.48 192.74 112.4 193.51 113.16C194.28 113.93 195.19 114.54 196.2 114.95C197.21 115.37 198.29 115.58 199.38 115.57C199.88 115.57 200.38 115.54 200.87 115.47C201.36 115.41 201.85 115.31 202.33 115.18C202.82 115.05 203.29 114.9 203.75 114.71C204.21 114.52 204.66 114.3 205.09 114.05C205.12 114.03 205.14 114 205.16 113.97C205.18 113.94 205.2 113.91 205.22 113.88C205.24 113.85 205.25 113.82 205.26 113.78C205.27 113.75 205.28 113.72 205.28 113.68C205.28 111.84 205.28 109.95 205.28 108.11C205.27 108.06 205.26 108.01 205.23 107.97C205.21 107.93 205.17 107.89 205.14 107.85C205.1 107.82 205.05 107.8 205.01 107.78C204.96 107.76 204.91 107.75 204.86 107.75Z" />
	<path id="Layer" class="shp0" d="M223.19 99.3L214 99.3C213.94 99.3 213.89 99.31 213.83 99.33C213.78 99.35 213.73 99.38 213.69 99.42C213.65 99.46 213.62 99.51 213.59 99.56C213.57 99.62 213.56 99.67 213.56 99.73L213.56 115C213.56 115.06 213.57 115.11 213.59 115.17C213.62 115.22 213.65 115.27 213.69 115.31C213.73 115.35 213.78 115.38 213.83 115.4C213.89 115.42 213.94 115.43 214 115.43L223.22 115.43C223.28 115.43 223.33 115.42 223.38 115.4C223.44 115.38 223.48 115.34 223.52 115.3C223.56 115.26 223.6 115.22 223.62 115.16C223.64 115.11 223.65 115.06 223.65 115L223.65 113.73C223.65 113.67 223.64 113.62 223.62 113.56C223.6 113.51 223.56 113.46 223.52 113.42C223.48 113.38 223.44 113.35 223.39 113.33C223.33 113.3 223.28 113.29 223.22 113.29L215.94 113.29L215.94 108.29L222.09 108.29C222.15 108.29 222.2 108.28 222.26 108.25C222.31 108.23 222.35 108.2 222.39 108.16C222.43 108.12 222.47 108.07 222.49 108.02C222.51 107.96 222.52 107.91 222.52 107.85L222.52 106.6C222.52 106.54 222.51 106.49 222.49 106.44C222.46 106.38 222.43 106.34 222.39 106.3C222.35 106.25 222.31 106.22 222.25 106.2C222.2 106.18 222.15 106.16 222.09 106.16L215.94 106.16L215.94 101.46L223.22 101.46C223.28 101.46 223.33 101.45 223.39 101.42C223.44 101.4 223.48 101.37 223.52 101.33C223.56 101.29 223.6 101.24 223.62 101.19C223.64 101.13 223.65 101.08 223.65 101.02L223.65 99.73C223.65 99.67 223.64 99.61 223.61 99.56C223.59 99.5 223.56 99.46 223.51 99.41C223.47 99.37 223.42 99.34 223.36 99.32C223.31 99.3 223.25 99.3 223.19 99.3Z" />
	<path id="Layer" class="shp0" d="M244.67 99.3L243.19 99.3C243.13 99.3 243.08 99.31 243.03 99.33C242.97 99.35 242.93 99.39 242.89 99.43C242.85 99.47 242.81 99.51 242.79 99.57C242.77 99.62 242.76 99.67 242.76 99.73L242.76 110.63L242.76 110.63L232.76 99.06L232.19 99.06C232.13 99.06 232.08 99.07 232.03 99.09C231.97 99.11 231.93 99.14 231.89 99.18C231.85 99.22 231.81 99.27 231.79 99.32C231.77 99.37 231.75 99.42 231.75 99.48L231.75 115C231.75 115.06 231.77 115.11 231.79 115.16C231.81 115.22 231.84 115.26 231.89 115.3C231.93 115.34 231.97 115.37 232.03 115.4C232.08 115.42 232.13 115.43 232.19 115.43L233.64 115.43C233.7 115.43 233.75 115.42 233.81 115.4C233.86 115.38 233.91 115.34 233.95 115.3C233.99 115.26 234.02 115.22 234.04 115.17C234.07 115.11 234.08 115.06 234.08 115L234.08 103.77L234.08 103.77L244.08 115.65L244.68 115.65C244.74 115.65 244.79 115.64 244.84 115.62C244.9 115.6 244.94 115.57 244.98 115.53C245.02 115.5 245.06 115.45 245.08 115.4C245.1 115.35 245.12 115.3 245.12 115.24L245.12 99.73C245.12 99.67 245.1 99.62 245.08 99.56C245.06 99.51 245.02 99.46 244.98 99.42C244.94 99.38 244.89 99.35 244.84 99.33C244.78 99.31 244.73 99.3 244.67 99.3L244.67 99.3Z" />
	<path id="Layer" class="shp0" d="M272.52 113.28L266.27 113.28L266.27 99.73C266.27 99.67 266.26 99.62 266.23 99.56C266.21 99.51 266.18 99.47 266.14 99.43C266.1 99.39 266.05 99.35 266 99.33C265.94 99.31 265.89 99.3 265.83 99.3L264.31 99.3C264.25 99.3 264.2 99.31 264.15 99.33C264.09 99.35 264.05 99.39 264.01 99.43C263.97 99.47 263.93 99.51 263.91 99.57C263.89 99.62 263.88 99.67 263.88 99.73L263.88 115C263.88 115.06 263.89 115.11 263.91 115.16C263.93 115.22 263.97 115.26 264.01 115.3C264.05 115.34 264.09 115.38 264.15 115.4C264.2 115.42 264.25 115.43 264.31 115.43L272.52 115.43C272.58 115.44 272.64 115.43 272.7 115.41C272.76 115.39 272.81 115.36 272.85 115.32C272.9 115.28 272.93 115.23 272.96 115.18C272.99 115.12 273 115.06 273 115L273 113.73C273 113.67 272.99 113.61 272.97 113.55C272.94 113.49 272.91 113.44 272.86 113.4C272.82 113.35 272.76 113.32 272.7 113.3C272.64 113.28 272.58 113.27 272.52 113.28L272.52 113.28Z" />
	<path id="Layer" fill-rule="evenodd" class="shp0" d="M286.36 99.09C286.4 99.1 286.43 99.12 286.47 99.14C286.51 99.16 286.54 99.19 286.57 99.22C286.6 99.25 286.63 99.28 286.65 99.32L293.65 114.82C293.69 114.88 293.71 114.96 293.7 115.03C293.7 115.11 293.68 115.18 293.64 115.24C293.6 115.3 293.54 115.35 293.48 115.38C293.41 115.42 293.33 115.43 293.26 115.42L291.81 115.42C291.75 115.42 291.7 115.42 291.64 115.4C291.59 115.39 291.54 115.37 291.49 115.34C291.44 115.3 291.4 115.27 291.37 115.22C291.33 115.18 291.3 115.13 291.28 115.08L289.85 111.92L282.32 111.92C281.86 112.98 281.37 114.02 280.91 115.08C280.89 115.13 280.86 115.18 280.82 115.22C280.79 115.26 280.74 115.3 280.7 115.33C280.65 115.36 280.6 115.38 280.54 115.4C280.49 115.41 280.44 115.42 280.38 115.42L278.93 115.42C278.86 115.42 278.78 115.41 278.72 115.38C278.65 115.34 278.6 115.3 278.56 115.23C278.52 115.17 278.5 115.1 278.49 115.03C278.49 114.96 278.51 114.88 278.54 114.82L285.61 99.32C285.63 99.29 285.66 99.25 285.68 99.22C285.71 99.19 285.74 99.17 285.78 99.15C285.81 99.12 285.85 99.11 285.88 99.09C285.92 99.08 285.96 99.07 286 99.06L286.23 99.06C286.27 99.06 286.31 99.07 286.36 99.09ZM288.99 109.94L286.15 103.63L286.04 103.63L283.23 109.94L288.99 109.94Z" />
	<path id="Layer" class="shp0" d="M313.52 99.3L312.05 99.3C311.99 99.3 311.94 99.31 311.88 99.33C311.83 99.35 311.78 99.39 311.74 99.43C311.7 99.47 311.67 99.51 311.65 99.56C311.62 99.62 311.61 99.67 311.61 99.73L311.61 110.63L311.61 110.63L301.61 99.06L301 99.06C300.94 99.06 300.89 99.07 300.84 99.09C300.79 99.11 300.74 99.14 300.7 99.18C300.66 99.22 300.63 99.27 300.61 99.32C300.58 99.37 300.57 99.42 300.57 99.48L300.57 115C300.57 115.06 300.58 115.11 300.61 115.16C300.63 115.21 300.66 115.26 300.7 115.3C300.74 115.34 300.79 115.37 300.84 115.39C300.89 115.42 300.94 115.43 301 115.43L302.45 115.43C302.51 115.43 302.56 115.42 302.62 115.4C302.67 115.38 302.72 115.35 302.76 115.31C302.8 115.27 302.83 115.22 302.86 115.17C302.88 115.11 302.89 115.06 302.89 115L302.89 103.77L302.89 103.77L312.89 115.65L313.48 115.65C313.54 115.65 313.59 115.64 313.64 115.62C313.7 115.6 313.74 115.57 313.78 115.53C313.82 115.5 313.86 115.45 313.88 115.4C313.9 115.35 313.92 115.3 313.92 115.24L313.92 99.73C313.92 99.68 313.91 99.62 313.89 99.57C313.87 99.53 313.84 99.48 313.8 99.44C313.76 99.4 313.72 99.37 313.67 99.35C313.62 99.32 313.57 99.31 313.52 99.3Z" />
	<path id="Layer" class="shp0" d="M335.63 107.75L331.44 107.75C331.38 107.75 331.32 107.76 331.27 107.78C331.22 107.8 331.17 107.83 331.13 107.88C331.08 107.92 331.05 107.97 331.03 108.02C331.01 108.07 331 108.13 331 108.19L331 109.52C331 109.58 331.01 109.63 331.03 109.69C331.06 109.74 331.09 109.79 331.13 109.82C331.17 109.86 331.22 109.89 331.27 109.91C331.33 109.93 331.38 109.94 331.44 109.94L333.69 109.94L333.69 112.52C333.42 112.65 333.15 112.76 332.87 112.86C332.58 112.95 332.3 113.04 332.01 113.1C331.72 113.17 331.42 113.22 331.13 113.25C330.83 113.28 330.54 113.3 330.24 113.3C328.65 113.3 327.12 112.67 326 111.54C324.87 110.42 324.24 108.89 324.24 107.3C324.24 105.71 324.87 104.18 326 103.06C327.12 101.93 328.65 101.3 330.24 101.3C330.6 101.31 330.96 101.35 331.31 101.43C331.66 101.5 332 101.6 332.34 101.74C332.67 101.87 332.99 102.03 333.3 102.22C333.6 102.41 333.89 102.62 334.16 102.86C334.39 103.07 334.57 103.09 334.76 102.86C335.1 102.49 335.45 102.14 335.76 101.77C335.8 101.73 335.84 101.68 335.86 101.62C335.89 101.57 335.9 101.51 335.9 101.45C335.9 101.39 335.89 101.33 335.86 101.28C335.84 101.22 335.8 101.17 335.76 101.13C335.38 100.79 334.97 100.48 334.53 100.21C334.1 99.95 333.64 99.72 333.16 99.54C332.68 99.35 332.19 99.21 331.69 99.12C331.18 99.03 330.67 98.98 330.16 98.98C328.01 99.05 325.97 99.96 324.48 101.51C322.98 103.06 322.15 105.12 322.15 107.28C322.15 109.43 322.98 111.49 324.48 113.04C325.97 114.59 328.01 115.5 330.16 115.57C330.66 115.57 331.16 115.54 331.65 115.47C332.15 115.41 332.64 115.31 333.12 115.18C333.6 115.05 334.07 114.89 334.54 114.71C335 114.52 335.45 114.3 335.88 114.05C335.91 114.03 335.93 114 335.95 113.97C335.97 113.94 335.99 113.91 336 113.88C336.02 113.85 336.03 113.82 336.04 113.78C336.05 113.75 336.06 113.71 336.06 113.68C336.06 111.84 336.06 109.95 336.06 108.11C336.05 108.06 336.03 108.01 336.01 107.97C335.98 107.92 335.95 107.88 335.91 107.85C335.87 107.82 335.83 107.79 335.78 107.77C335.73 107.76 335.68 107.75 335.63 107.75Z" />
</svg>