<svg xmlns="http://www.w3.org/2000/svg" viewBox="0 0 432.52 122.55"><title>mmm-dagenlang</title><path d="M159.85,29.64c2.85-5.06,5.91-10,8.55-14.53L172,10.62c.64-.78.21-5.84-.21-7.12C170.89.86,167.19.22,165.19,0c-1.56-.14-5.77,1.57-6.05,1.71C157,2.79,150.81,7.56,148.6,9.55c-3.71,3.07-7.55,6.34-11.61,9.9l-5.2,4.49c-4,3.49-8.19,7.2-12.82,11-4.28,3.63-9.69,9.26-16.1,14.18A76.63,76.63,0,0,1,92.68,56a6.08,6.08,0,0,1-2.85.86c-1.49,0-.57-4.2-.57-4.49.86-5.34.57-6,2.78-13,1.21-4.06,4.85-11.26,7.84-17.6a45,45,0,0,0,3.06-7.62c1.07-3.2-1.71-5.2-2.78-5.63A13.92,13.92,0,0,0,96,8a11.37,11.37,0,0,0-5.34,1.42,103.23,103.23,0,0,0-8.69,6.48c-4.21,4-8.62,8.48-13.32,13.18l-16,16.17c-4.56,4.49-9.12,9-13.75,13.39-6.41,6.05-12.6,10.83-19.16,16-5,4-10.18,5.84-12,6.12-.57.07-5,1.71-6,4.2-.21.93-1.63,5.56-1.71,6.7-.14,1.64.93,1.64.93,1.92C.87,95,3.29,98,5,98c1,0,5.63-.57,8.33-2.92,2.21-1.78,3.78-4.7,6-6.77C24,83.77,30.57,76.72,37.55,68.82c5.27-5.85,10.69-12.11,16-18.1,3.42-3.84,6.77-7.55,10-11,1.92-2.06,3.77-4.06,5.56-5.84,2.2-2.28,4.2-4.27,6-5.91,3.13-2.78,10.11-7.69,12-4.91,1.07,1.42-1,4.7-1.64,7.12-.64,3.21-.71,2.71-1.85,6.12-2,6.27-2.85,7.41-6.41,17.31a69.89,69.89,0,0,0-2.64,9.26c-.64,3,.07,5,0,6.41,0,1.14,3.35,4,5.27,4.06a12.69,12.69,0,0,0,7.2-2.28c1.71-1.21,2.92-3.56,5.34-6.26s7-7.48,10.54-10.55c5.34-4.55,10.61-9.68,14.67-13.17,4.42-3.49,9.33-7.84,15-11.9,3.14-2.35,7.05-4.13,10.4-6.76,3.49-2.92,5.84-3.35,7.12-3.21.43.07.64.43.64,1-.07,3.27-2.06,7.41-4.48,13.1-.79,1.78-1.57,3.71-2.35,5.84-1.57,4.28-3.14,9-4.7,13.89l-3.14,10.12c-2.35,7.83-4.27,14.74-5.13,18.31-1.49,6.76-3.63,23.29-3.91,26.35a56.76,56.76,0,0,0,.14,8.55,12.89,12.89,0,0,0,1.78,5.91c.57.57,1.28.14,1.42-1.35.07-.43-.14-2.21-.14-4.71-.07-2.06-.14-5-.21-5.41-.22-1.78,1.42-6.48,2.2-10.26a89.48,89.48,0,0,1,3-11.39c1.21-4.06,3.2-9.55,5.48-15.53,2.14-5.63,4.63-11.75,7-17.59,2-4.92,4-9.55,5.77-13.61A126.64,126.64,0,0,1,159.85,29.64Z" style="fill:#2a2a2a"/><path d="M358.81,59.49C355.39,62,347.7,66.89,343.35,70a38.66,38.66,0,0,1-9.54,4.63,4.93,4.93,0,0,1-2.07.35c-1.49-.14-2.21-2.7-1.92-6a41.7,41.7,0,0,1,1.78-6.7c.93-2.49,2.14-7.55,4.92-11.82a45.7,45.7,0,0,0,3.91-6.77c.72-1.92-1.14-4.84-2.85-5.41a6.1,6.1,0,0,0-4.06.07,30.19,30.19,0,0,0-6.26,3.49c-1.86,1.5-3.85,3-5.77,4.49-2.85,2.14-5.7,4.34-8.69,6.55-2.5,1.85-3.85,3-5,3.42-1.5.5-1.28-1.92-1.14-3.13l.71-5.63c.36-3-1.07-4.7-2-5.27a17.44,17.44,0,0,0-2.71-.57,11.49,11.49,0,0,0-2.21,0c-1.42,0-6.12,3.77-8.83,6.12-4.13,3.57-9.83,7.7-12.18,9.69-.71.57-9.33,7.91-10.54,8.55-.93.5-1.14-2.42-.29-3.78a47.39,47.39,0,0,1,6.77-8.4c1.64-1.57,4.84-3.42,6.13-4.56,2.2-1.92,1.85-4.2,2-5.41.07-.79-.36-1.5-1.71-2.35-.85-.57-3.63-.79-5.41-.29a9.51,9.51,0,0,0-4.78,3.06c-1.85,2.57-2.49,4.49-4.2,6.56-2,2.53-4.89,6.09-7.26,9.17-3.72,2.62-10.56,7-14.58,9.92A38.94,38.94,0,0,1,236,74.66,4.87,4.87,0,0,1,234,75c-1.5-.14-2.21-2.7-1.93-6a42.79,42.79,0,0,1,1.78-6.7c.93-2.49,2.14-7.55,4.92-11.82a46,46,0,0,0,3.92-6.77c.71-1.92-1.14-4.84-2.85-5.41a6.1,6.1,0,0,0-4.06.07,30.26,30.26,0,0,0-6.27,3.49c-1.85,1.5-3.85,3-5.77,4.49-2.85,2.14-5.7,4.34-8.69,6.55-2.49,1.85-3.85,3-5,3.42-1.49.5-1.28-1.92-1.14-3.13l.72-5.63c.35-3-1.07-4.7-2-5.27a17.2,17.2,0,0,0-2.71-.57,11.38,11.38,0,0,0-2.2,0c-1.43,0-6.13,3.77-8.84,6.12-4.13,3.57-9.83,7.7-12.18,9.69-.71.57-9.33,7.91-10.54,8.55-.92.5-1.14-2.42-.28-3.78a47.23,47.23,0,0,1,6.76-8.4c1.64-1.57,4.85-3.42,6.13-4.56,2.21-1.92,1.85-4.2,2-5.41.08-.79-.35-1.5-1.71-2.35-.85-.57-3.63-.79-5.41-.29a9.47,9.47,0,0,0-4.77,3.06c-1.85,2.57-2.49,4.49-4.2,6.56-2.85,3.56-7.41,9.19-9.83,12.61-1.57,2.2-2.78,4.34-3.85,6.19a41.22,41.22,0,0,0-3.13,6.84c-.79,2.14,0,6.48,1.14,7.19a8.82,8.82,0,0,0,6.55.15,9.68,9.68,0,0,0,3.28-2.5c2.13-2.28,2.42-3.2,6.83-8.19,2.21-2.28,5.56-5.77,7.84-8,1.78-1.85,4.49-4.27,6.77-6.34,2.56-2.27,7.62-5.34,10.61-5.62,1.49-.07,1,2.63.92,2.92l-.92,6a4.73,4.73,0,0,0,1.21,4.28,5.83,5.83,0,0,0,4.34,1.78c2-.22,4.42-2.35,6.77-4.63,1.21-1.14,2.42-2.35,3.56-3.35,3.35-3.06,2.85-3.63,9.33-7.55a10.1,10.1,0,0,1,4.49-1.5,1.05,1.05,0,0,1,1.07,1.36c-.21,1.49-3.56,8.47-4.84,13.17a62.13,62.13,0,0,0-1.36,8.34,10.62,10.62,0,0,0,1.28,6.34c1.22,2.2,3.21,3.7,5.35,3.56,3.77-.22,4.41-.64,7.9-2.92s8.55-5.7,13.11-9l7.38-5.25c-.62,1-1.18,2-1.7,2.9a41.38,41.38,0,0,0-3.14,6.84c-.78,2.14,0,6.48,1.14,7.19a8.85,8.85,0,0,0,6.56.15,9.52,9.52,0,0,0,3.27-2.5c2.14-2.28,2.42-3.2,6.84-8.19,2.21-2.28,5.56-5.77,7.84-8C278,63.4,280.74,61,283,58.91c2.57-2.27,7.62-5.34,10.61-5.62,1.5-.07,1,2.63.93,2.92l-.93,6a4.76,4.76,0,0,0,1.22,4.28,5.81,5.81,0,0,0,4.34,1.78c2-.22,4.42-2.35,6.77-4.63,1.21-1.14,2.42-2.35,3.56-3.35,3.35-3.06,2.85-3.63,9.33-7.55a10.1,10.1,0,0,1,4.49-1.5,1.05,1.05,0,0,1,1.07,1.36c-.22,1.49-3.57,8.47-4.85,13.17a61.87,61.87,0,0,0-1.35,8.34,10.48,10.48,0,0,0,1.28,6.34c1.21,2.2,3.21,3.7,5.34,3.56,3.78-.22,4.42-.64,7.91-2.92s8.55-5.7,13.11-9l9.4-6.69c2.42-1.64,6.05-3,7.83-4,.64-.29.57-2.21.29-2.35C362.51,58.42,359.45,59.13,358.81,59.49Z" style="fill:#2a2a2a"/><path d="M375.53,70.3c-1.06-.37-1.66-.18-3.55.28a9.23,9.23,0,0,0-1.94.5,12.6,12.6,0,0,0-4,2.86,2.57,2.57,0,0,0-.18,2.49,5.66,5.66,0,0,0,2.77,1.71,29.82,29.82,0,0,0,4.15-.74,20.64,20.64,0,0,0,3.5-1.61,6.93,6.93,0,0,0,1.38-3.23A3.58,3.58,0,0,0,375.53,70.3Z" style="fill:#2a2a2a"/><path d="M403,70.3c-1.06-.37-1.66-.18-3.55.28a9.17,9.17,0,0,0-1.93.5,12.54,12.54,0,0,0-4,2.86,2.57,2.57,0,0,0-.18,2.49,5.71,5.71,0,0,0,2.77,1.71,29.82,29.82,0,0,0,4.15-.74,20.64,20.64,0,0,0,3.5-1.61,6.83,6.83,0,0,0,1.38-3.23A3.58,3.58,0,0,0,403,70.3Z" style="fill:#2a2a2a"/><path d="M430.4,70.3c-1.06-.37-1.66-.18-3.55.28a9.08,9.08,0,0,0-1.94.5,12.38,12.38,0,0,0-4,2.86,2.54,2.54,0,0,0-.19,2.49,5.71,5.71,0,0,0,2.77,1.71,29.57,29.57,0,0,0,4.15-.74,20.27,20.27,0,0,0,3.5-1.61,7,7,0,0,0,1.39-3.23A3.58,3.58,0,0,0,430.4,70.3Z" style="fill:#2a2a2a"/><path d="M156.59,99.3h-5.3a.43.43,0,0,0-.42.43V115a.43.43,0,0,0,.42.43h5.3a8.06,8.06,0,1,0,0-16.12Zm-.32,13.93h-3V101.48h3a5.88,5.88,0,0,1,0,11.75Z" style="fill:#2a2a2a"/><path d="M178,99.06h-.23a.52.52,0,0,0-.39.26l-7.08,15.5a.41.41,0,0,0,.39.6h1.46a.59.59,0,0,0,.53-.34c.46-1.06.94-2.1,1.4-3.16h7.54l1.42,3.16a.56.56,0,0,0,.53.34h1.45a.41.41,0,0,0,.4-.6l-7-15.5A.55.55,0,0,0,178,99.06Zm-3,10.88,2.81-6.31h.12l2.83,6.31Z" style="fill:#2a2a2a"/><path d="M204.86,107.75h-4.2a.42.42,0,0,0-.43.44v1.33a.41.41,0,0,0,.43.42h2.26v2.58a8.14,8.14,0,0,1-3.45.78,6,6,0,0,1,0-12,6.14,6.14,0,0,1,3.91,1.56c.23.21.42.23.6,0l1-1.09a.45.45,0,0,0,0-.64,8.32,8.32,0,0,0-13.9,6.17,8.25,8.25,0,0,0,8.3,8.27,11.5,11.5,0,0,0,5.71-1.52.58.58,0,0,0,.19-.37c0-1.84,0-3.73,0-5.57A.43.43,0,0,0,204.86,107.75Z" style="fill:#2a2a2a"/><path d="M223.19,99.3H214a.43.43,0,0,0-.44.43V115a.43.43,0,0,0,.44.43h9.22a.43.43,0,0,0,.43-.43v-1.27a.44.44,0,0,0-.43-.44h-7.28v-5h6.15a.44.44,0,0,0,.43-.44V106.6a.45.45,0,0,0-.43-.44h-6.15v-4.7h7.28a.44.44,0,0,0,.43-.44V99.73A.43.43,0,0,0,223.19,99.3Z" style="fill:#2a2a2a"/><path d="M244.67,99.3h-1.48a.43.43,0,0,0-.43.43v10.9h0l-10-11.57h-.57a.44.44,0,0,0-.44.42V115a.45.45,0,0,0,.44.43h1.45a.44.44,0,0,0,.44-.43V103.77h0l10,11.88h.6a.43.43,0,0,0,.44-.41V99.73A.45.45,0,0,0,244.67,99.3Z" style="fill:#2a2a2a"/><path d="M272.52,113.28h-6.25V99.73a.44.44,0,0,0-.44-.43h-1.52a.43.43,0,0,0-.43.43V115a.43.43,0,0,0,.43.43h8.21A.44.44,0,0,0,273,115v-1.27A.44.44,0,0,0,272.52,113.28Z" style="fill:#2a2a2a"/><path d="M286.23,99.06H286a.55.55,0,0,0-.39.26l-7.07,15.5a.41.41,0,0,0,.39.6h1.45a.57.57,0,0,0,.53-.34c.46-1.06.95-2.1,1.41-3.16h7.53l1.43,3.16a.54.54,0,0,0,.53.34h1.45a.4.4,0,0,0,.39-.6l-7-15.5A.55.55,0,0,0,286.23,99.06Zm-3,10.88,2.81-6.31h.11l2.84,6.31Z" style="fill:#2a2a2a"/><path d="M313.52,99.3h-1.47a.44.44,0,0,0-.44.43v10.9h0l-10-11.57H301a.43.43,0,0,0-.43.42V115a.44.44,0,0,0,.43.43h1.45a.43.43,0,0,0,.44-.43V103.77h0l10,11.88h.59a.43.43,0,0,0,.44-.41V99.73A.45.45,0,0,0,313.52,99.3Z" style="fill:#2a2a2a"/><path d="M335.63,107.75h-4.19a.43.43,0,0,0-.44.44v1.33a.42.42,0,0,0,.44.42h2.25v2.58a8.09,8.09,0,0,1-3.45.78,6,6,0,0,1,0-12,6.19,6.19,0,0,1,3.92,1.56c.23.21.41.23.6,0,.34-.37.69-.72,1-1.09a.44.44,0,0,0,0-.64,8.38,8.38,0,0,0-5.6-2.15,8.3,8.3,0,0,0,0,16.59,11.56,11.56,0,0,0,5.72-1.52.57.57,0,0,0,.18-.37c0-1.84,0-3.73,0-5.57A.43.43,0,0,0,335.63,107.75Z" style="fill:#2a2a2a"/></svg>