<svg xmlns="http://www.w3.org/2000/svg" viewBox="0 0 40.13 128.8"><title>kaffen-number-1</title><path d="M2.82,15.94c15.4,0,18.84-7.42,21.92-15.94H38.15V126.81H18.22V30.07H2.82Z" style="fill:#2a2a2a"/><path d="M7.87,43.79,7.33,49.1H8.78l-.16,1.45H7.17L6.6,56H4.94l.57-5.46H3.16L2.56,56H.91l.59-5.46H0L.16,49.1H1.63l.57-5.31H.67l.16-1.45h1.5l.47-4.45H4.45L4,42.34H6.37l.46-4.45H8.49L8,42.34H9.47l-.15,1.45Zm-1.66,0H3.86L3.29,49.1H5.67Z" style="fill:#2a2a2a"/><polygon points="4.32 32.06 2.82 31.09 19.72 31.09 19.72 32.06 4.32 32.06" style="fill:#2a2a2a"/><polygon points="19.72 128.8 18.22 127.83 39.16 127.83 39.16 0 40.13 1.5 40.13 128.8 19.72 128.8" style="fill:#2a2a2a"/></svg>