<svg xmlns="http://www.w3.org/2000/svg" viewBox="0 0 64.16 131.7"><title>kaffen-number-3</title><path d="M42.25,32.61c0-11.41-4-14.49-10.33-14.49S21.6,21.56,21.6,30.62v8.15H2.76V31.89C2.76,11.59,12.9,0,32.47,0S62.18,11.59,62.18,31.89v3.26c0,13.58-4.35,22.1-14,26.08,10,4.35,14,13.77,14,26.63v10c0,20.29-10.15,31.88-29.71,31.88S2.76,118.12,2.76,97.83V87.32H21.6V99.1c0,9.05,4,12.49,10.32,12.49s10.33-3.07,10.33-14.31v-10c0-11.78-4-16.12-13-16.12H22.5V53.08h7.79c7.43,0,12-3.26,12-13.41Z" style="fill:#2a2a2a"/><path d="M7.87,52.44l-.54,5.31H8.78L8.62,59.2H7.17L6.6,64.66H5l.56-5.46H3.16l-.6,5.46H.91L1.5,59.2H0l.16-1.45H1.63l.57-5.31H.67L.83,51h1.5l.47-4.45H4.45L4,51H6.37l.46-4.45H8.49L8,51H9.47l-.15,1.45Zm-1.66,0H3.86l-.57,5.31H5.67Z" style="fill:#2a2a2a"/><path d="M24,73.18l-1.5-1h8.21c9.61,0,13.53,4.81,13.53,16.61h-1c0-11.25-3.52-15.64-12.55-15.64Z" style="fill:#2a2a2a"/><path d="M22.61,100.59V87.32l1,1.5v11.77c0,8.09,3.21,12,9.83,12v1C26.25,113.58,22.61,109.21,22.61,100.59Z" style="fill:#2a2a2a"/><path d="M3.77,99.33h1c0,20.24,10.38,31.39,29.23,31.39s29.22-11.15,29.22-31.39v-10c0-13.61-4.47-22.17-13.66-26.18l-1.05-.46,1.06-.44c9.31-3.86,13.65-12,13.65-25.63V33.38C63.19,13.14,52.81,2,34,2V1c19.47,0,30.19,11.5,30.19,32.37v3.27c0,13.57-4.21,21.9-13.25,26.09,8.92,4.36,13.25,13.08,13.25,26.62v10c0,20.87-10.72,32.37-30.19,32.37S3.77,120.2,3.77,99.33Z" style="fill:#2a2a2a"/><path d="M4.26,40.76l-1.5-1H22.61V32.12c0-8.62,3.64-13,10.81-13h1.5c-6.62,0-11.33,4.9-11.33,13v8.64Z" style="fill:#2a2a2a"/></svg>