<svg xmlns="http://www.w3.org/2000/svg" viewBox="0 0 64.22 130.25"><title>kaffen-number-2</title><path d="M32,18.12c-6.35,0-10.33,3.44-10.33,12.5V44.2H2.81V31.89C2.81,11.59,13,0,32.52,0S62.23,11.59,62.23,31.89c0,39.85-39.67,54.7-39.67,75.54a13.87,13.87,0,0,0,.18,2.72H60.42v18.11H2.81V112.68C2.81,75.36,42.3,69.2,42.3,32.61,42.3,21.2,38.32,18.12,32,18.12Z" style="fill:#2a2a2a"/><path d="M7.87,57.89,7.33,63.2H8.77l-.15,1.45H7.17L6.6,70.11H4.94l.57-5.46H3.16l-.6,5.46H.91l.59-5.46H0L.16,63.2H1.63l.57-5.31H.67l.16-1.45h1.5L2.79,52H4.45L4,56.44H6.37L6.83,52H8.49L8,56.44H9.47l-.15,1.45Zm-1.66,0H3.86L3.29,63.2H5.67Z" style="fill:#2a2a2a"/><polygon points="4.31 130.25 2.81 129.27 61.43 129.27 61.43 110.15 62.41 111.65 62.41 130.25 4.31 130.25" style="fill:#2a2a2a"/><path d="M23.57,108.93c0-8.93,7.05-16.7,15.22-25.69C50.25,70.63,63.24,56.33,63.24,33.39,63.24,13.14,52.86,2,34,2V1c19.47,0,30.2,11.5,30.2,32.38,0,23.31-13.7,38.39-24.71,50.51-8,8.84-15.94,17.15-15.94,25.7Z" style="fill:#2a2a2a"/><path d="M4.31,46.19l-1.5-1H22.66V32.12c0-8.62,3.64-13,10.82-13H34.9c-6.62,0-11.26,4.9-11.26,13V46.19Z" style="fill:#2a2a2a"/></svg>