<svg xmlns="http://www.w3.org/2000/svg" viewBox="0 0 267.82 82.8"><title>omos-beans-top-mobile</title><path d="M206.56,16.37s.9-2.46,6.9-4.21,18.15-3.8,15.84,1.39c0,0,3.84.61,1.09,4s-4,5.08-10.6,5.94-9.49,0-11-1.34S205.53,18.79,206.56,16.37Z" style="fill:none;stroke:#2a2a2a;stroke-linejoin:round;stroke-width:0.660481090374622px"/><path d="M206.52,16.36a4.24,4.24,0,0,1,1-1.33,8.91,8.91,0,0,1,1.33-1,15.26,15.26,0,0,1,3-1.56,32.6,32.6,0,0,1,6.48-1.85A31.61,31.61,0,0,1,225.1,10a9.93,9.93,0,0,1,3.35.62,2.11,2.11,0,0,1,1.2,1.26,2.66,2.66,0,0,1-.22,1.72l-.11-.2a2.89,2.89,0,0,1,2,1.16,1.62,1.62,0,0,1,.21,1.21,3.3,3.3,0,0,1-.43,1.12,21.94,21.94,0,0,1-1.34,1.85,22,22,0,0,1-1.5,1.72,9.83,9.83,0,0,1-3.93,2.44,22,22,0,0,1-4.47,1,38,38,0,0,1-4.54.32,13.91,13.91,0,0,1-4.55-.67,6,6,0,0,1-2-1.2,11.77,11.77,0,0,1-1.52-1.71,5.64,5.64,0,0,1-1-2.06A3.7,3.7,0,0,1,206.52,16.36Zm.08,0a3.44,3.44,0,0,0-.18,2.17,4.72,4.72,0,0,0,1.05,1.91,10.44,10.44,0,0,0,1.6,1.52,5.5,5.5,0,0,0,1.92.92,15.66,15.66,0,0,0,4.34.43,34.65,34.65,0,0,0,4.42-.36c2.92-.37,5.91-1,8-3,.53-.5,1-1.05,1.52-1.61a15.68,15.68,0,0,0,1.41-1.7,1.87,1.87,0,0,0,.32-1.9,2.54,2.54,0,0,0-1.75-1.05h0a.16.16,0,0,1-.12-.18v0A2.43,2.43,0,0,0,229.4,12a1.84,1.84,0,0,0-1.08-1.05,8.09,8.09,0,0,0-3.22-.44,44.26,44.26,0,0,0-6.58.88c-2.17.45-4.37.87-6.48,1.51a16.71,16.71,0,0,0-3,1.29A6.07,6.07,0,0,0,206.6,16.39Z" style="fill:#2a2a2a"/><path d="M208.55,19.26c1.82.1,3.63.13,5.44.15a22,22,0,0,0,5.43-.39,42.49,42.49,0,0,0,5.23-1.42,33.15,33.15,0,0,0,4.94-2.24l0,0a18.11,18.11,0,0,1-4.8,2.64,23.59,23.59,0,0,1-5.35,1.23c-1.82.18-3.63.4-5.46.51a22.24,22.24,0,0,1-5.46-.47Z" style="fill:#2a2a2a"/><path d="M229.24,13.77a14.56,14.56,0,0,0-5.05-.4,37,37,0,0,0-4.95,1.34,9,9,0,0,1-2.57.41,18.39,18.39,0,0,0-2.56.2,19.39,19.39,0,0,0-2.52.51,6.19,6.19,0,0,0-2.32,1.09,6.13,6.13,0,0,1,2.3-1.14,19.94,19.94,0,0,1,2.52-.57c1.71-.35,3.47-.1,5.09-.71a37.43,37.43,0,0,1,5-1.46,14.92,14.92,0,0,1,5.2.3Z" style="fill:#2a2a2a"/><path d="M251.19,55.64s6.07-4.78,10.51-1.11,10.11,11.15.66,20.54-15.3,7.59-17.07,6.28S234.88,71.29,251.19,55.64Z" style="fill:none;stroke:#2a2a2a;stroke-width:0.660481090374622px"/><path d="M251.16,55.61a13.66,13.66,0,0,1,4.76-2.34,6.74,6.74,0,0,1,5.28.57,16.62,16.62,0,0,1,3.94,3.68,12.62,12.62,0,0,1,2.4,4.85,10.47,10.47,0,0,1-.23,5.39,14.85,14.85,0,0,1-2.51,4.71c-.28.35-.53.72-.82,1l-.91,1c-.58.68-1.24,1.27-1.88,1.89s-1.33,1.16-2,1.76-1.38,1.13-2.13,1.61a17.71,17.71,0,0,1-4.77,2.47,9.55,9.55,0,0,1-5.43.3,5.49,5.49,0,0,1-2.47-1.37A10.8,10.8,0,0,1,242.66,79,11.65,11.65,0,0,1,241,73.81a16.9,16.9,0,0,1,3.15-10.2l1.59-2.15c.52-.72,1.16-1.35,1.73-2l.87-1,.94-.94Zm.06.07a41.14,41.14,0,0,0-6.56,8.23,18.14,18.14,0,0,0-2.75,9.83,11.17,11.17,0,0,0,1.54,4.8,9.61,9.61,0,0,0,1.55,2,4.62,4.62,0,0,0,2.09,1.22,9.11,9.11,0,0,0,5-.18,18.37,18.37,0,0,0,4.71-2.2,30,30,0,0,0,4.17-3.2c.64-.61,1.31-1.18,1.89-1.84l.89-1c.28-.33.53-.7.79-1a11.37,11.37,0,0,0,2.28-9.75,13.09,13.09,0,0,0-2.3-4.56,18.57,18.57,0,0,0-3.63-3.67,6.28,6.28,0,0,0-4.93-.82A12.72,12.72,0,0,0,251.22,55.68Z" style="fill:#2a2a2a"/><path d="M258.62,52.78a12,12,0,0,1,2.29,3.6A5.53,5.53,0,0,1,261,60.7a4.2,4.2,0,0,1-.59.95,8,8,0,0,1-.71.79c-.47.49-.92,1-1.36,1.5a32.25,32.25,0,0,0-2.45,3.23,30.77,30.77,0,0,0-3.57,7.28,13.91,13.91,0,0,1-1.83,3.68,15.47,15.47,0,0,1-3,2.73A15.36,15.36,0,0,0,250.41,78a14,14,0,0,0,1.68-3.68,31.47,31.47,0,0,1,3.36-7.49,34.75,34.75,0,0,1,2.39-3.37c.43-.54.88-1.06,1.34-1.57l.35-.39.28-.37a3.54,3.54,0,0,0,.46-.8,4.59,4.59,0,0,0-.25-3.62,11.36,11.36,0,0,0-2.19-3.21Z" style="fill:#2a2a2a"/><path d="M153.54,26.64a8.6,8.6,0,0,1,4.52-2,7.35,7.35,0,0,1,2.51.21,7.81,7.81,0,0,1,2.29,1.1,38.27,38.27,0,0,1,7.1,7,21.4,21.4,0,0,1,4.42,8.89,8.86,8.86,0,0,1,0,2.52,7,7,0,0,1-.86,2.37,9.63,9.63,0,0,1-3.76,3.29.24.24,0,0,1-.33-.1.5.5,0,0,1,0-.12v0a.71.71,0,0,0,0-.21s0,0,0,0,.09,0,.07,0a1.53,1.53,0,0,0-.33.32c-.24.29-.44.65-.7,1a4.29,4.29,0,0,1-.9,1,2.38,2.38,0,0,1-1.33.47,5.6,5.6,0,0,1-2.53-.67,12.44,12.44,0,0,1-2.15-1.33,44.3,44.3,0,0,1-7.26-6.76A20.79,20.79,0,0,1,149.46,35,7.26,7.26,0,0,1,150,30,8.3,8.3,0,0,1,153.54,26.64Zm.05.07a7.86,7.86,0,0,0-3.36,3.44,6.79,6.79,0,0,0-.21,4.68A24,24,0,0,0,155,43a53.81,53.81,0,0,0,7.06,6.69,13.43,13.43,0,0,0,2,1.29,4.85,4.85,0,0,0,2.15.67,2.33,2.33,0,0,0,1.78-1.1c.25-.3.47-.65.77-1a1.43,1.43,0,0,1,.6-.46.4.4,0,0,1,.37.06.49.49,0,0,1,.17.26,1.38,1.38,0,0,1,0,.4l-.36-.24a9,9,0,0,0,3.72-3,6.89,6.89,0,0,0,.85-2.25,7.56,7.56,0,0,0-.06-2.42,13.28,13.28,0,0,0-1.81-4.51,29.46,29.46,0,0,0-2.87-4c-1-1.28-2.17-2.46-3.3-3.65a45,45,0,0,0-3.56-3.36,7.56,7.56,0,0,0-2.09-1.18,7,7,0,0,0-2.38-.35A8.11,8.11,0,0,0,153.59,26.71Z" style="fill:#2a2a2a"/><path d="M153.56,26.68s4.77-4.3,9.78,0,17.89,17.38,6.34,23.14c0,0,.11-1.28-1.09.45s-2.14,2.59-5.48.66S141.48,33.53,153.56,26.68Z" style="fill:none;stroke:#2a2a2a;stroke-linejoin:round;stroke-width:0.660481090374622px"/><path d="M168.73,49.39a6.68,6.68,0,0,0,1.45-3.11,1.57,1.57,0,0,0-.49-1.38,11.29,11.29,0,0,0-1.54-.86,16.77,16.77,0,0,1-6-4.52,27.51,27.51,0,0,1-1.67-3.35c-.52-1.12-1.06-2.23-1.66-3.31a17.12,17.12,0,0,0-2.11-3,6.75,6.75,0,0,0-3-2.07,6.87,6.87,0,0,1,3.08,2,17.51,17.51,0,0,1,2.21,3c.64,1.07,1.21,2.17,1.75,3.28a29.31,29.31,0,0,0,1.73,3.24,16.34,16.34,0,0,0,5.91,4.19,9.45,9.45,0,0,1,1.71.9,2.35,2.35,0,0,1,.79,2,7.39,7.39,0,0,1-1.51,3.6Z" style="fill:#2a2a2a"/><path d="M7.2,32.62S-.73,34.55.45,39.13s.79,9.65,9.83,13S26.56,54,26.17,47.72,12.52,31.23,7.2,32.62Z" style="fill:none;stroke:#2a2a2a;stroke-width:0.660481090374622px"/><path d="M7.21,32.66a14.22,14.22,0,0,0-4.16,1.83A7,7,0,0,0,1.41,36a4.42,4.42,0,0,0-.56.93A3.43,3.43,0,0,0,.75,39L1,40.12l.51,2.23a14.24,14.24,0,0,0,1.54,4.16c1.47,2.58,4.19,4.27,7,5.37a25.83,25.83,0,0,0,4.37,1.31,18.46,18.46,0,0,0,4.5.42,10.13,10.13,0,0,0,4.28-1,5.1,5.1,0,0,0,1.62-1.36,4.62,4.62,0,0,0,.81-1.92l.09-.52V47.72l-.07-.52a8,8,0,0,0-.75-2,18.44,18.44,0,0,0-2.55-3.65,38.53,38.53,0,0,0-6.79-5.94,22.26,22.26,0,0,0-3.95-2.23A7.7,7.7,0,0,0,7.21,32.66Zm0-.08a8.16,8.16,0,0,1,4.52.54,23.81,23.81,0,0,1,4.18,2,29.34,29.34,0,0,1,7.16,5.83,17.55,17.55,0,0,1,2.69,3.84A8.93,8.93,0,0,1,26.53,47l.07.62v1.21l-.12.6a5.34,5.34,0,0,1-1,2.24,5.86,5.86,0,0,1-1.92,1.49,10.07,10.07,0,0,1-4.59.89,21.29,21.29,0,0,1-4.58-.6A37.9,37.9,0,0,1,10,52.16a22.68,22.68,0,0,1-4.15-2,10.74,10.74,0,0,1-3.35-3.26A13,13,0,0,1,.8,42.51L.36,40.26c-.07-.37-.17-.73-.23-1.11a4.3,4.3,0,0,1,0-1.24,3.78,3.78,0,0,1,.33-1.18,4.81,4.81,0,0,1,.69-1A6.89,6.89,0,0,1,2.93,34.3,17.46,17.46,0,0,1,7.19,32.58Z" style="fill:#2a2a2a"/><path d="M22.6,50.44a2.24,2.24,0,0,0,.57-1.66,2,2,0,0,0-1-1.39,14.74,14.74,0,0,0-3.4-1.19,17.93,17.93,0,0,1-3.38-1.35,17,17,0,0,1-2.9-2.21c-.92-.82-1.69-1.76-2.58-2.54a5.71,5.71,0,0,0-3.08-1.51,6.34,6.34,0,0,0-1.74,0,13.49,13.49,0,0,1-1.85.18,3.17,3.17,0,0,1-1.89-.53,2.08,2.08,0,0,1-.81-1.89l.66.1a1.43,1.43,0,0,0,.53,1.3,2.63,2.63,0,0,0,1.53.45A12.07,12.07,0,0,0,5,38.09a7.32,7.32,0,0,1,1.87,0,6.14,6.14,0,0,1,3.29,1.69c.91.84,1.66,1.79,2.53,2.6a15.73,15.73,0,0,0,2.8,2.24A17.25,17.25,0,0,0,18.81,46a14.78,14.78,0,0,1,3.39,1.28,2.09,2.09,0,0,1,1,1.45A2.3,2.3,0,0,1,22.6,50.44Z" style="fill:#2a2a2a"/><path d="M77.19,5.28a6.58,6.58,0,0,1,1.94-3.7,6.1,6.1,0,0,1,4-1.51,25.82,25.82,0,0,1,8.32,1.66,16.86,16.86,0,0,1,7.06,4.61,6.38,6.38,0,0,1,1.46,3.95,23.88,23.88,0,0,1-.45,4.21,7.33,7.33,0,0,1-1.88,3.89,6,6,0,0,1-4.11,1.48,26.05,26.05,0,0,1-4.26-.37,23.75,23.75,0,0,1-4.15-1,12.55,12.55,0,0,1-6.89-4.94A11.12,11.12,0,0,1,77.19,5.28Zm.09,0L77,7.37a16,16,0,0,0,.11,2.08,9,9,0,0,0,.56,2,6.4,6.4,0,0,0,.43.92l.55.86a10.71,10.71,0,0,0,3,2.69,7,7,0,0,0,.89.5c.3.16.59.33.9.47.64.26,1.26.54,1.92.74a26.87,26.87,0,0,0,4,1,24.94,24.94,0,0,0,4.09.44,5.38,5.38,0,0,0,3.65-1.17A7,7,0,0,0,99,14.39a19.62,19.62,0,0,0,.61-4.1,5.56,5.56,0,0,0-1.39-3.76A10.38,10.38,0,0,0,95,4a25.13,25.13,0,0,0-3.83-1.59c-1.31-.45-2.65-.78-4-1.11A25.16,25.16,0,0,0,83.1.62a5.68,5.68,0,0,0-3.82,1.13A5.82,5.82,0,0,0,77.28,5.29Z" style="fill:#2a2a2a"/><path d="M77.24,5.28S78-.53,84.56.44s15.7,4.13,15.22,10.27-2,9.13-7.43,8.72S74.78,16.8,77.24,5.28Z" style="fill:none;stroke:#2a2a2a;stroke-linejoin:round;stroke-width:0.660481090374622px"/><path d="M99.1,13.09a2.2,2.2,0,0,0-.39-.25c-.17-.09-.37-.17-.56-.25a10.13,10.13,0,0,0-1.26-.34A11.3,11.3,0,0,0,94.22,12a7.57,7.57,0,0,1-1.48-.1,7.39,7.39,0,0,1-1.42-.47A20.53,20.53,0,0,1,88.85,10c-1.61-1-2.94-2.37-4.4-3.47a4.6,4.6,0,0,0-2.48-1,5.76,5.76,0,0,0-2.67.63A6,6,0,0,1,82,5.37a5,5,0,0,1,2.66.92c1.57,1.06,3,2.3,4.55,3.19s3.24,1.81,5,1.55a12.74,12.74,0,0,1,2.89.08,9.5,9.5,0,0,1,1.46.31,5.93,5.93,0,0,1,.73.27,2.86,2.86,0,0,1,.78.49Z" style="fill:#2a2a2a"/></svg>