<svg xmlns="http://www.w3.org/2000/svg" viewBox="0 0 1139.37 585.34"><title>omos-beans-top</title><path d="M447.8,24s-.27-5.18-10.62-12S405-5.71,406.4,5.46c0,0-7.63-1.08-4.36,6.86s4.63,11.93,16.62,17.38,18,5.45,21.52,3.81S448.35,29.16,447.8,24Z" style="fill:none;stroke:#2a2a2a;stroke-linejoin:round;stroke-width:1.3074351874975px"/><path d="M447.72,24a12,12,0,0,0-3.23-5.62,31.64,31.64,0,0,0-5-4.21c-1.8-1.25-3.71-2.33-5.62-3.43S430,8.59,428.07,7.55a85.68,85.68,0,0,0-11.93-5.49,16.09,16.09,0,0,0-6.36-1,3.57,3.57,0,0,0-2.65,1.38,4.8,4.8,0,0,0-.45,3,.28.28,0,0,1-.25.31h-.07a5.06,5.06,0,0,0-3.92,1c-1,.93-.89,2.47-.5,3.79a37.07,37.07,0,0,0,1.68,4c.62,1.34,1.23,2.67,1.95,3.92a19,19,0,0,0,5.78,6.22A47.38,47.38,0,0,0,419,28.84a83.48,83.48,0,0,0,8.17,3.23,30.75,30.75,0,0,0,8.45,1.71,10.66,10.66,0,0,0,4.16-.62,22,22,0,0,0,3.91-1.95,13.06,13.06,0,0,0,1.74-1.32,8.84,8.84,0,0,0,1.36-1.69A7,7,0,0,0,447.72,24Zm.17,0a7.4,7.4,0,0,1-.85,4.37,11.21,11.21,0,0,1-3,3.35A24.14,24.14,0,0,1,440.16,34a11.82,11.82,0,0,1-4.51,1.1,26.49,26.49,0,0,1-9-1.36,64.51,64.51,0,0,1-8.4-3.24,44.62,44.62,0,0,1-7.88-4.48,19.63,19.63,0,0,1-6-6.9A39.66,39.66,0,0,1,402.5,15,37.78,37.78,0,0,1,401,10.74a6.65,6.65,0,0,1-.17-2.36A3.29,3.29,0,0,1,402,6.2a4.41,4.41,0,0,1,2.17-1,7.77,7.77,0,0,1,2.31-.05l-.32.31a5.37,5.37,0,0,1,.57-3.39,4.16,4.16,0,0,1,3-1.66,12.89,12.89,0,0,1,3.4.08,28.36,28.36,0,0,1,3.3.67,62.9,62.9,0,0,1,12.4,5A66.69,66.69,0,0,1,440,13.44a32.54,32.54,0,0,1,4.77,4.69,19.16,19.16,0,0,1,1.92,2.73A8.61,8.61,0,0,1,447.89,24Z" style="fill:#2a2a2a"/><path d="M442.35,28.38a44.17,44.17,0,0,1-10.6-2.28c-1.7-.62-3.37-1.32-5-2s-3.34-1.39-5-2.09c-.82-.38-1.65-.74-2.46-1.14s-1.6-.86-2.39-1.3a26.26,26.26,0,0,1-2.32-1.43c-.76-.51-1.54-1-2.25-1.55a36.54,36.54,0,0,1-7.56-7.8l.07-.05a62.17,62.17,0,0,0,8.05,7.1,78.83,78.83,0,0,0,9.07,5.74c.79.44,1.6.83,2.42,1.21s1.64.74,2.48,1.05c1.68.65,3.43,1.11,5.15,1.61,3.44,1,6.89,2,10.39,2.88Z" style="fill:#2a2a2a"/><path d="M406.42,5a29.61,29.61,0,0,1,10,2.46c3.12,1.54,5.76,3.73,8.56,5.64a17.16,17.16,0,0,0,4.48,2.31,37.77,37.77,0,0,1,4.73,2A36.23,36.23,0,0,1,438.66,20a12.42,12.42,0,0,1,3.69,3.49A12.33,12.33,0,0,0,438.6,20a36.57,36.57,0,0,0-4.48-2.43,39.06,39.06,0,0,0-4.73-1.87,17.3,17.3,0,0,1-4.63-2.26c-2.85-1.85-5.56-4-8.59-5.41a29.19,29.19,0,0,0-9.79-2.18Z" style="fill:#2a2a2a"/><path d="M81.77,211.89C78.1,213,69,210,66.8,208.07s-.28-5.45-3.82-3.81-4.36-9.81-3.54-15.53-.82-21.24,9-23.15,30-2.18,28.33,15.25S96.48,207.26,81.77,211.89Z" style="fill:none;stroke:#2a2a2a;stroke-width:1.3074351874975px"/><path d="M81.8,212a11.4,11.4,0,0,1-4.47.08,34.79,34.79,0,0,1-4.38-.92,31.37,31.37,0,0,1-4.25-1.46,11.07,11.07,0,0,1-2-1.12,4,4,0,0,1-1.43-2,13.4,13.4,0,0,0-.6-2c-.06,0-.07-.06-.11-.06h-.09l-.17,0a3.4,3.4,0,0,0-.87.31,2.36,2.36,0,0,1-1.51.24,2.41,2.41,0,0,1-1.31-.83A6.61,6.61,0,0,1,59.43,202a21.07,21.07,0,0,1-.86-4.52,36.25,36.25,0,0,1-.14-4.54,34.08,34.08,0,0,1,.43-4.51c.22-1.41.3-2.91.41-4.38a65.07,65.07,0,0,1,1.12-8.89,20.26,20.26,0,0,1,1.38-4.29,10.84,10.84,0,0,1,2.63-3.7,9.13,9.13,0,0,1,4.12-2c1.46-.31,2.94-.55,4.43-.73a41.82,41.82,0,0,1,9-.19,23.08,23.08,0,0,1,8.81,2.46,13.71,13.71,0,0,1,3.73,2.89,12.45,12.45,0,0,1,2.43,4.1,14.58,14.58,0,0,1,.82,4.64,20,20,0,0,1-.06,2.33l-.19,2.22c-.29,2.95-.48,5.91-.82,8.88a41.17,41.17,0,0,1-1.77,8.86,19,19,0,0,1-2,4.11,22.42,22.42,0,0,1-1.43,1.79l-.82.79-.41.39-.45.33A25.9,25.9,0,0,1,81.8,212Zm0-.17a21.83,21.83,0,0,0,7.76-4.12l.41-.35.37-.41.73-.81c.45-.56.83-1.18,1.23-1.78a17.2,17.2,0,0,0,1.57-4,53.07,53.07,0,0,0,1.2-8.67l.64-8.88.18-2.22a18.83,18.83,0,0,0,.06-2.12,14.36,14.36,0,0,0-.67-4.1A11.09,11.09,0,0,0,90,168.15a23,23,0,0,0-8.18-2.52,44.24,44.24,0,0,0-8.77-.22c-1.46.1-2.93.27-4.38.51a7.81,7.81,0,0,0-3.87,1.71c-2.21,1.88-3.28,4.8-3.84,7.65a49,49,0,0,0-.71,8.82c0,1.49,0,3-.17,4.5a37.49,37.49,0,0,0-.19,4.37,33.38,33.38,0,0,0,1,8.58,5.39,5.39,0,0,0,.81,1.74,1,1,0,0,0,.5.39,1,1,0,0,0,.64-.11,4.76,4.76,0,0,1,1.24-.36l.39,0a3.26,3.26,0,0,1,.45.09,1.83,1.83,0,0,1,.45.25,1.79,1.79,0,0,1,.31.36,3.83,3.83,0,0,1,.39,1.27c.07.38.12.72.21,1a3,3,0,0,0,1,1.63A10.11,10.11,0,0,0,69,209a30.38,30.38,0,0,0,4.06,1.73,27.46,27.46,0,0,0,4.28,1.11A10.77,10.77,0,0,0,81.75,211.8Z" style="fill:#2a2a2a"/><path d="M64.47,203.6a31.7,31.7,0,0,0,3.34-3.95,13.14,13.14,0,0,0,2.25-4.58,9.2,9.2,0,0,0,0-2.57,10.64,10.64,0,0,1,.24-2.64,7.83,7.83,0,0,1,2.75-4.4,7.77,7.77,0,0,0-2.54,4.45,10.59,10.59,0,0,0-.12,2.58c0,.43.1.84.13,1.29,0,.23,0,.46,0,.69l-.07.67A13.7,13.7,0,0,1,68.35,200a32.91,32.91,0,0,1-3.26,4.19Z" style="fill:#2a2a2a"/><path d="M186.59,25s-8.17-3.81-15,0-18,14.17-21,20.16-4.63,6.34-3.27,12.29,1.36,11.13,6.54,10,1.09,1.64,2.45,2.18,5.23,2.73,10.38-1.09S184.41,53.26,186.59,47,195.58,31.51,186.59,25Z" style="fill:none;stroke:#2a2a2a;stroke-width:1.3074351874975px"/><path d="M186.55,25.05A19.35,19.35,0,0,0,178,23.52a13.7,13.7,0,0,0-4.22.94,12.3,12.3,0,0,0-1.93.94c-.61.4-1.23.77-1.82,1.21A105.86,105.86,0,0,0,156.8,38.19a37.61,37.61,0,0,0-5.5,6.75c-.72,1.26-1.46,2.59-2.24,3.84a12.53,12.53,0,0,0-1.79,3.91,11.42,11.42,0,0,0,.28,4.3l.92,4.34a15.47,15.47,0,0,0,1.33,4.11,3.46,3.46,0,0,0,1.36,1.4,3.32,3.32,0,0,0,1.91.26c.66-.08,1.39-.3,2.18-.39a2.52,2.52,0,0,1,1.42.12,1,1,0,0,1,.24.16,1.69,1.69,0,0,1,.21.31,1.21,1.21,0,0,1,0,.58,2.91,2.91,0,0,1-.22.67c-.08.19-.16.35-.21.48s0,.24-.06.18-.08-.13-.06-.14,0,0,0,0l.12,0,.52.21a10.5,10.5,0,0,0,2,.59,7.52,7.52,0,0,0,4-.33,12.55,12.55,0,0,0,3.58-2.1c2.29-1.8,4.48-3.78,6.61-5.79s4.21-4.09,6.18-6.26a42.94,42.94,0,0,0,5.32-6.82,13.45,13.45,0,0,0,.93-1.86c.29-.7.58-1.41.9-2.08l1.92-4a28.78,28.78,0,0,0,1.58-4.07,12.14,12.14,0,0,0,.57-4.27C190.77,29.38,188.88,26.76,186.55,25.05Zm.09-.15c.56.48,1.18.92,1.7,1.45a10.72,10.72,0,0,1,1.42,1.73,9.26,9.26,0,0,1,1.54,4.2,13.15,13.15,0,0,1-.28,4.51,30.18,30.18,0,0,1-1.3,4.31c-.52,1.41-1.09,2.77-1.63,4.14-.27.67-.51,1.35-.74,2a16.15,16.15,0,0,1-1,2.15A40.66,40.66,0,0,1,181,56.67a102,102,0,0,1-13.16,12.1A13.46,13.46,0,0,1,163.71,71a9.16,9.16,0,0,1-4.76.23,11.83,11.83,0,0,1-2.22-.75l-.5-.23-.13-.06a1.45,1.45,0,0,1-.26-.17,1.08,1.08,0,0,1-.38-.58,1.62,1.62,0,0,1,.15-.89c.09-.22.19-.38.26-.53a3.47,3.47,0,0,0,.16-.36s0,0,0,0,0,0,0,0a.1.1,0,0,0,.06.08s0,0,0,0a2.14,2.14,0,0,0-.77,0c-.68,0-1.38.22-2.2.28a4.33,4.33,0,0,1-2.4-.46,4.26,4.26,0,0,1-1.61-1.79,17.89,17.89,0,0,1-1.25-4.35c-.26-1.46-.55-2.9-.86-4.35a12.36,12.36,0,0,1-.32-4.5,13.78,13.78,0,0,1,1.73-4.18c.72-1.3,1.34-2.6,2-3.94a36.74,36.74,0,0,1,5.29-7.28A63.34,63.34,0,0,1,169.4,25.69c.63-.4,1.3-.74,1.95-1.11a15.5,15.5,0,0,1,2.13-.85,14.75,14.75,0,0,1,4.46-.67,22,22,0,0,1,4.44.5A21.49,21.49,0,0,1,186.64,24.9Z" style="fill:#2a2a2a"/><path d="M152.77,62.28A34.45,34.45,0,0,1,154,56.52,25.53,25.53,0,0,1,156.19,51a15.39,15.39,0,0,1,1.74-2.41c.65-.73,1.26-1.49,1.85-2.27,1.19-1.54,2.28-3.17,3.54-4.69a17.78,17.78,0,0,1,4.43-3.94c.87-.52,1.73-1,2.55-1.45s1.66-1,2.48-1.52c1.64-1,3.26-2.1,4.85-3.23.79-.56,1.59-1.11,2.37-1.7A15.36,15.36,0,0,0,182.2,28l.07,0a5.78,5.78,0,0,1-.93,1.15c-.35.36-.7.7-1.06,1-.74.65-1.47,1.3-2.24,1.91-1.54,1.22-3.11,2.39-4.76,3.46-.83.53-1.66,1.06-2.53,1.53s-1.76.9-2.58,1.36a21.07,21.07,0,0,0-4.5,3.56A39.1,39.1,0,0,0,160,46.54l-1.71,2.39a16.21,16.21,0,0,0-1.48,2.46,60.65,60.65,0,0,0-4,10.91Z" style="fill:#2a2a2a"/><path d="M156.31,67.41c2.58-2.37,5.07-4.88,7.46-7.46,1.19-1.29,2.38-2.6,3.48-4a36.8,36.8,0,0,0,3-4.32,26.25,26.25,0,0,1,3.05-4.36,48.91,48.91,0,0,1,3.86-3.63c1.32-1.18,2.63-2.36,3.87-3.61a25.23,25.23,0,0,0,1.78-2,7.18,7.18,0,0,0,1.35-2.25,7.34,7.34,0,0,1-1.3,2.29c-.55.69-1.14,1.35-1.75,2-1.22,1.27-2.51,2.49-3.8,3.69a46.8,46.8,0,0,0-3.76,3.69,24.76,24.76,0,0,0-2.92,4.36,36.23,36.23,0,0,1-2.93,4.44c-1.09,1.41-2.25,2.74-3.42,4.06-2.36,2.65-4.79,5.2-7.35,7.66Z" style="fill:#2a2a2a"/><path d="M340.55,72.42s-8.71-12.56-19.24-8.21-25.61,15.26-13.17,38.5S332.7,126,336.81,124.5,362.35,111.5,340.55,72.42Z" style="fill:none;stroke:#2a2a2a;stroke-width:1.3074351874975px"/><path d="M340.48,72.47a24.25,24.25,0,0,0-7.72-6.89,19.07,19.07,0,0,0-2.35-1.07,12.8,12.8,0,0,0-2.48-.6,7.84,7.84,0,0,0-1.26-.14l-1.27,0a8.62,8.62,0,0,0-1.24.18,5,5,0,0,0-1.21.29,27.34,27.34,0,0,0-4.66,2.12,41.3,41.3,0,0,0-4.35,2.73,26,26,0,0,0-7,7.31A19.78,19.78,0,0,0,304,86a25.42,25.42,0,0,0,.31,5.15,32.77,32.77,0,0,0,1.3,5,40.44,40.44,0,0,0,2,4.81c.76,1.56,1.68,3,2.54,4.56S312,108.51,313,110c.51.71,1.05,1.39,1.58,2.08a24.5,24.5,0,0,0,1.64,2,36.69,36.69,0,0,0,7.63,6.9c.72.46,1.47.87,2.2,1.29l1.15.52a7.33,7.33,0,0,0,1.17.47,14.41,14.41,0,0,0,4.86.94,9.74,9.74,0,0,0,2.42-.22,9,9,0,0,0,2.24-.85,19.77,19.77,0,0,0,4.11-2.86A21.45,21.45,0,0,0,347.6,112a25.32,25.32,0,0,0,1.33-4.86c.12-.84.25-1.68.29-2.53s.1-1.7.12-2.55a45,45,0,0,0-1.22-10.23A75.74,75.74,0,0,0,340.48,72.47Zm.15-.09a99.72,99.72,0,0,1,8.6,19.2,40.29,40.29,0,0,1,1.77,10.5,27.84,27.84,0,0,1-1.67,10.63,22.45,22.45,0,0,1-6.18,8.9,21,21,0,0,1-4.53,3,10.59,10.59,0,0,1-2.67,1,12,12,0,0,1-2.8.21,15.54,15.54,0,0,1-5.37-1.14,8.57,8.57,0,0,1-1.25-.54l-1.21-.6c-.77-.47-1.56-.92-2.29-1.44a35.49,35.49,0,0,1-7.6-7.43c-.57-.68-1.09-1.39-1.59-2.12s-1-1.43-1.51-2.16L311,108.14c-.49-.73-.94-1.48-1.36-2.26A62.34,62.34,0,0,1,305,96.4,31.85,31.85,0,0,1,303,86a20.83,20.83,0,0,1,2.71-10.34,24.83,24.83,0,0,1,7.36-7.8,32.42,32.42,0,0,1,4.61-2.72,24.47,24.47,0,0,1,5-1.94A5.54,5.54,0,0,1,324,63a8.81,8.81,0,0,1,1.36-.11l1.36.06a8.6,8.6,0,0,1,1.33.23,14.16,14.16,0,0,1,2.57.79A19.45,19.45,0,0,1,333,65.18a23.87,23.87,0,0,1,4.16,3.25A28.51,28.51,0,0,1,340.63,72.38Z" style="fill:#2a2a2a"/><path d="M329.19,64.6a22.75,22.75,0,0,0-6,4.79,9.18,9.18,0,0,0-2.58,6.72,7.47,7.47,0,0,0,.39,1.78c.1.29.24.57.35.86l.44.93c.58,1.23,1.11,2.49,1.62,3.75A64.63,64.63,0,0,1,326,91.19a62,62,0,0,1,2,16.13,27.86,27.86,0,0,0,1,8,30.38,30.38,0,0,0,3.93,7,30,30,0,0,1-4.18-6.94,27.6,27.6,0,0,1-1.33-8,61,61,0,0,0-2.53-15.86A64,64,0,0,0,322.15,84c-.54-1.23-1.1-2.44-1.71-3.63l-.46-.9c-.15-.33-.32-.65-.44-1a8.63,8.63,0,0,1-.55-2.14,9.11,9.11,0,0,1,.55-4.39,14,14,0,0,1,2.18-3.73,24.69,24.69,0,0,1,6.43-5.48Z" style="fill:#2a2a2a"/><path d="M542.06,74.27a15.58,15.58,0,0,0-7.44-6,13.85,13.85,0,0,0-4.72-.72c-.39,0-.79.09-1.18.13a7.71,7.71,0,0,0-1.17.19,14.9,14.9,0,0,0-2.27.7,45.37,45.37,0,0,0-4.38,2c-1.45.74-2.88,1.49-4.31,2.27-2.84,1.56-5.65,3.2-8.35,5a59,59,0,0,0-7.75,5.85,35.74,35.74,0,0,0-3.38,3.47,24.4,24.4,0,0,0-2.67,4,15.31,15.31,0,0,0-1.5,4.55,13.32,13.32,0,0,0,.3,4.75,17.49,17.49,0,0,0,5.28,7.88l-.81.25a2.28,2.28,0,0,1,.29-.74,1.57,1.57,0,0,1,.17-.21,1,1,0,0,1,.3-.19.82.82,0,0,1,.73.11,3,3,0,0,1,.87,1.23c.36.79.59,1.58.88,2.29.57,1.47,1.38,2.73,2.73,3.12a6.09,6.09,0,0,0,2.16.24,14.12,14.12,0,0,0,2.3-.27,24.69,24.69,0,0,0,4.55-1.28,87.47,87.47,0,0,0,8.82-3.89c2.87-1.45,5.7-3,8.42-4.7a67.67,67.67,0,0,0,7.77-5.62,33.25,33.25,0,0,0,6.4-7,13.49,13.49,0,0,0,2.32-9c-.07-.39-.09-.79-.18-1.18l-.36-1.15c-.06-.19-.11-.39-.18-.57l-.25-.55-.52-1.09c-.39-.7-.87-1.36-1.31-2Zm.14-.11a17,17,0,0,1,4.69,8.48c.72,3.28-.26,6.71-1.8,9.64A30.63,30.63,0,0,1,538.8,100a58.15,58.15,0,0,1-7.88,6,90.74,90.74,0,0,1-17.68,8.57,25.48,25.48,0,0,1-4.84,1.25,15.18,15.18,0,0,1-2.54.22,7.41,7.41,0,0,1-2.64-.4,4.81,4.81,0,0,1-2.24-1.66,8.76,8.76,0,0,1-1.15-2.34c-.29-.81-.47-1.6-.75-2.29a3,3,0,0,0-.44-.8s0,0,0,0a.26.26,0,0,0,.12,0s.05,0,.05,0,0,0,0,0a1.12,1.12,0,0,0-.17.38v0a.48.48,0,0,1-.59.34.55.55,0,0,1-.21-.12,19.26,19.26,0,0,1-5.2-8.42,13.49,13.49,0,0,1-.25-5,18.38,18.38,0,0,1,1.5-4.75A31.69,31.69,0,0,1,499.83,83a57.53,57.53,0,0,1,7.59-6.35,74.28,74.28,0,0,1,8.45-5.13c1.45-.77,2.93-1.5,4.43-2.17a36.25,36.25,0,0,1,4.63-1.83,14.55,14.55,0,0,1,2.45-.58,7.57,7.57,0,0,1,1.26-.12c.42,0,.84-.06,1.26,0a14.23,14.23,0,0,1,4.88,1.06A17.5,17.5,0,0,1,542.2,74.16Z" style="fill:#2a2a2a"/><path d="M542.13,74.22s-6.54-10.9-18.52-5.63-43.95,22.51-25.43,40.13c0,0,.55-2.5,1.82,1.47s2.54,6.15,10,4.43S561,94.19,542.13,74.22Z" style="fill:none;stroke:#2a2a2a;stroke-linejoin:round;stroke-width:1.3074351874975px"/><path d="M498.61,109a20.44,20.44,0,0,1-.89-3.75,10.71,10.71,0,0,1,.12-3.94,5.33,5.33,0,0,1,.91-1.93,4.28,4.28,0,0,1,1.72-1.32,6.84,6.84,0,0,1,2-.46l1.8-.26a52.82,52.82,0,0,0,7.11-1.51,21.38,21.38,0,0,0,6.5-3A55.38,55.38,0,0,0,523,87.74c1.69-1.78,3.4-3.54,5.23-5.19a34.71,34.71,0,0,1,5.91-4.39,13.53,13.53,0,0,1,7-2,13.36,13.36,0,0,0-6.89,2.19,33.35,33.35,0,0,0-5.74,4.51c-1.77,1.68-3.43,3.48-5.06,5.3L521,90.89a23.62,23.62,0,0,1-2.66,2.63,22.87,22.87,0,0,1-6.68,3.34,56.43,56.43,0,0,1-7.2,1.77l-1.82.32a5.75,5.75,0,0,0-1.6.41,3.12,3.12,0,0,0-1.72,2.33,13.26,13.26,0,0,0,.93,6.72Z" style="fill:#2a2a2a"/><path d="M815.71,170.34s13.89,8.25,9,16.25-7.08,17.8-26.14,18.89-31.87-6-27.52-17.57S806.44,164.62,815.71,170.34Z" style="fill:none;stroke:#2a2a2a;stroke-width:1.3074351874975px"/><path d="M815.75,170.27a34.91,34.91,0,0,1,7.06,5.72,14.65,14.65,0,0,1,2.63,3.8,9.82,9.82,0,0,1,.71,2.27,7.92,7.92,0,0,1,0,2.43,8.23,8.23,0,0,1-.83,2.3l-1.08,2c-.69,1.33-1.38,2.68-2.13,4a25.63,25.63,0,0,1-5.69,7.32,21.48,21.48,0,0,1-8.23,4.24c-.73.24-1.49.35-2.24.53a17.19,17.19,0,0,1-2.26.38c-1.5.26-3,.34-4.54.46a67.55,67.55,0,0,1-9.11,0,42.75,42.75,0,0,1-9-1.51,19.72,19.72,0,0,1-8.2-4.33,11.35,11.35,0,0,1-2.74-4,10.56,10.56,0,0,1-.64-4.82,13.4,13.4,0,0,1,1.32-4.64,17.41,17.41,0,0,1,2.8-3.86,35.82,35.82,0,0,1,7.3-5.73,59,59,0,0,1,17-6.87,48.52,48.52,0,0,1,9-1.29,27.75,27.75,0,0,1,4.56.19A10.87,10.87,0,0,1,815.75,170.27Zm-.09.15c-2.63-1.51-5.81-1.52-8.76-1.26a44.52,44.52,0,0,0-8.78,1.92,75.16,75.16,0,0,0-16.29,7.34,36.24,36.24,0,0,0-7,5.41,15.26,15.26,0,0,0-2.58,3.4,11.9,11.9,0,0,0-1.23,4,9.19,9.19,0,0,0,.45,4.1,10,10,0,0,0,2.27,3.51,19.42,19.42,0,0,0,7.52,4.41,44.87,44.87,0,0,0,17.79,1.88,36.25,36.25,0,0,0,8.79-1.74,20.56,20.56,0,0,0,7.56-4.4,28.72,28.72,0,0,0,5.32-7c.75-1.29,1.47-2.62,2.26-3.93.38-.65.81-1.31,1.2-1.94a7.28,7.28,0,0,0,.84-1.89,6.61,6.61,0,0,0,.16-2.08,8.47,8.47,0,0,0-.49-2.09,14.26,14.26,0,0,0-2.26-3.8A27.75,27.75,0,0,0,815.66,170.42Z" style="fill:#2a2a2a"/><path d="M776.21,195.13a4.48,4.48,0,0,1-.19-3.5,4.11,4.11,0,0,1,2.76-2.17c2.35-.67,4.79-.36,7.16-.45a34.25,34.25,0,0,0,7.08-.75,31.85,31.85,0,0,0,6.6-2.62c2.12-1,4.09-2.4,6.29-3.45a14.35,14.35,0,0,1,3.48-1.21,11.67,11.67,0,0,1,3.73-.09,14.45,14.45,0,0,1,3.55,1.08,23.33,23.33,0,0,0,3.25,1.29,5.1,5.1,0,0,0,3.16,0,2.88,2.88,0,0,0,1.76-2.15l1.29.19a4.28,4.28,0,0,1-.9,1.91,3.8,3.8,0,0,1-1.73,1.2,6.21,6.21,0,0,1-3.89-.09,15.29,15.29,0,0,1-1.75-.65l-1.63-.77a13.21,13.21,0,0,0-3.27-1.08,10.55,10.55,0,0,0-3.41,0,13.65,13.65,0,0,0-3.3,1.06c-2.14,1-4.15,2.3-6.35,3.3a32.26,32.26,0,0,1-6.78,2.51,34.65,34.65,0,0,1-7.18.6c-2.39,0-4.8-.33-7.11.28a4,4,0,0,0-2.74,2A4.5,4.5,0,0,0,776.21,195.13Z" style="fill:#2a2a2a"/><path d="M1045.6,315.6a15.54,15.54,0,0,0-8.71,4,13.74,13.74,0,0,0-2.75,3.89c-.17.36-.28.74-.42,1.11a7.75,7.75,0,0,0-.35,1.13,14.49,14.49,0,0,0-.4,2.34c-.17,1.57-.13,3.22-.14,4.83s.05,3.25.1,4.88c.12,3.24.32,6.48.7,9.7a58.26,58.26,0,0,0,1.76,9.54,35.39,35.39,0,0,0,1.58,4.58,24.83,24.83,0,0,0,2.4,4.19,15.35,15.35,0,0,0,3.39,3.39,13.33,13.33,0,0,0,4.38,1.85,17.48,17.48,0,0,0,9.41-1.18l-.14.83a2.36,2.36,0,0,1-.53-.59,1.33,1.33,0,0,1-.11-.24,1,1,0,0,1,0-.36.83.83,0,0,1,.42-.6,3.05,3.05,0,0,1,1.49-.23c.87,0,1.68.19,2.45.25,1.57.14,3.05,0,4-1a5.92,5.92,0,0,0,1.19-1.82,14.49,14.49,0,0,0,.79-2.18,25.72,25.72,0,0,0,.9-4.64,90.92,90.92,0,0,0,.48-9.63c0-3.22-.12-6.44-.43-9.63a68.6,68.6,0,0,0-1.54-9.48,33.49,33.49,0,0,0-3.39-8.86,13.48,13.48,0,0,0-7-6.1c-.38-.12-.75-.28-1.13-.37l-1.19-.2c-.2,0-.39-.07-.59-.09l-.6,0-1.21,0c-.8,0-1.6.17-2.41.26Zm0-.17a17,17,0,0,1,9.68-.4c3.25.84,5.89,3.25,7.81,5.94a30.8,30.8,0,0,1,4,9.06,58.61,58.61,0,0,1,1.79,9.71,90.91,90.91,0,0,1-.27,19.65,25.27,25.27,0,0,1-1.06,4.89,15.78,15.78,0,0,1-.94,2.37,7.48,7.48,0,0,1-1.54,2.18,4.84,4.84,0,0,1-2.49,1.25,8.76,8.76,0,0,1-2.61,0c-.84-.11-1.63-.29-2.38-.36a2.65,2.65,0,0,0-.91,0s0,0,0,0,0-.06,0-.11,0,0,0-.06l0,0a1.48,1.48,0,0,0,.27.32l0,0a.48.48,0,0,1,0,.68.63.63,0,0,1-.2.13,19.35,19.35,0,0,1-9.86.88,13.89,13.89,0,0,1-4.57-2,18.29,18.29,0,0,1-3.56-3.47,31.63,31.63,0,0,1-4.42-8.85,56.87,56.87,0,0,1-2.27-9.63,74,74,0,0,1-.8-9.85c0-1.65,0-3.3,0-4.94a36.65,36.65,0,0,1,.43-5,17.47,17.47,0,0,1,.59-2.45,7.39,7.39,0,0,1,.46-1.18c.17-.38.32-.78.52-1.15a14.56,14.56,0,0,1,3.13-3.88A17.54,17.54,0,0,1,1045.57,315.43Z" style="fill:#2a2a2a"/><path d="M1045.59,315.51s-12.67,1-13.34,14,.41,49.38,24.46,40.72c0,0-2-1.6,2.14-1s6.64.49,8.43-6.94S1071.91,307.59,1045.59,315.51Z" style="fill:none;stroke:#2a2a2a;stroke-linejoin:round;stroke-width:1.3074351874975px"/><path d="M1057.18,370a19.6,19.6,0,0,1-3.74-.89,10.43,10.43,0,0,1-3.48-1.87,5.29,5.29,0,0,1-1.31-1.67,4.28,4.28,0,0,1-.41-2.13,6.63,6.63,0,0,1,.47-2l.58-1.73a54.26,54.26,0,0,0,1.84-7,21.77,21.77,0,0,0,.24-7.15,55.81,55.81,0,0,0-2.28-6.91c-.84-2.3-1.64-4.63-2.29-7a34.32,34.32,0,0,1-1.27-7.25,13.48,13.48,0,0,1,1.34-7.16,13.5,13.5,0,0,0-1.14,7.15,33.62,33.62,0,0,0,1.46,7.15c.71,2.34,1.57,4.62,2.47,6.9l1.35,3.42a25,25,0,0,1,1.16,3.55,22.84,22.84,0,0,1,0,7.47,55.31,55.31,0,0,1-1.66,7.23l-.53,1.77a5.47,5.47,0,0,0-.34,1.61,3.1,3.1,0,0,0,1.3,2.58,13.28,13.28,0,0,0,6.43,2.19Z" style="fill:#2a2a2a"/><path d="M698.91,78a11.57,11.57,0,0,0-1.74-7.86,11.23,11.23,0,0,0-6.57-4.36,52.32,52.32,0,0,0-8.09-1.05c-2.74-.18-5.48-.28-8.22-.22a46.42,46.42,0,0,0-8.16.79,21.15,21.15,0,0,0-7.62,2.87,11.18,11.18,0,0,0-4.83,6.31,44,44,0,0,0-1.17,8.14,13.86,13.86,0,0,0,1.55,7.69c1.32,2.22,3.72,3.53,6.24,4.33a35,35,0,0,0,4,.92c1.34.24,2.7.45,4,.61a55.67,55.67,0,0,0,8.15.44,34.18,34.18,0,0,0,8-1.07,21,21,0,0,0,7.24-3.36,16.35,16.35,0,0,0,2.92-2.78,14.7,14.7,0,0,0,1.18-1.66c.18-.29.37-.57.54-.87l.47-.92A22.68,22.68,0,0,0,698.91,78Zm.17,0a27.56,27.56,0,0,1-1.83,8.13,17.88,17.88,0,0,1-4.83,6.92,17.26,17.26,0,0,1-3.53,2.45,20.47,20.47,0,0,1-4,1.63,33.07,33.07,0,0,1-8.41,1.32,51.64,51.64,0,0,1-8.44-.49c-1.4-.2-2.78-.45-4.16-.73a37.16,37.16,0,0,1-4.12-1,18.57,18.57,0,0,1-2-.82l-1-.49-.93-.61a9.89,9.89,0,0,1-3-3.27,11.11,11.11,0,0,1-1.29-4.18,19.67,19.67,0,0,1,0-4.27,51.5,51.5,0,0,1,1.56-8.25,12.42,12.42,0,0,1,5.07-6.61,24.78,24.78,0,0,1,7.72-3.34,44.2,44.2,0,0,1,8.32-1.3,57.44,57.44,0,0,1,8.4.14,36.87,36.87,0,0,1,8.3,1.54,12,12,0,0,1,6.62,5.16,11.36,11.36,0,0,1,1.42,4A13,13,0,0,1,699.08,78Z" style="fill:#2a2a2a"/><path d="M699,78s2-11.42-11-13.42-32.11-1.29-34.76,10.61-1.51,18.45,9,20.81S697,101.21,699,78Z" style="fill:none;stroke:#2a2a2a;stroke-linejoin:round;stroke-width:1.3074351874975px"/><path d="M651.81,77.81a3.38,3.38,0,0,1,.54-.22,3.89,3.89,0,0,1,.43-.11,5.84,5.84,0,0,1,.8-.14,11.65,11.65,0,0,1,1.54-.09,20,20,0,0,1,2.93.26,27.19,27.19,0,0,1,2.82.6c.94.26,1.85.59,2.71.92a12.24,12.24,0,0,0,2.46.74,12.07,12.07,0,0,0,2.56.09,40.07,40.07,0,0,0,5.34-.86,46.56,46.56,0,0,0,5.22-1.56c1.73-.62,3.44-1.32,5.24-1.83a9.7,9.7,0,0,1,5.57-.2,11.6,11.6,0,0,1,4.6,3.06,11.43,11.43,0,0,0-4.68-2.74,9.31,9.31,0,0,0-5.29.5c-1.72.6-3.37,1.4-5.08,2.12a46.37,46.37,0,0,1-5.26,1.92,41,41,0,0,1-5.5,1.22,13.79,13.79,0,0,1-3,.06,14.17,14.17,0,0,1-2.87-.67c-.88-.28-1.72-.52-2.57-.71s-1.74-.31-2.61-.4a17.22,17.22,0,0,0-2.58-.07,9.12,9.12,0,0,0-1.21.14,4.43,4.43,0,0,0-.55.13l-.24.08s-.17.08-.09,0Z" style="fill:#2a2a2a"/><path d="M1135.53,577.11s4.43,0,2.85-3.08-12.3-18.22-24.64-19.1-11.81,2.32-12.35,3.9-2.91,7.29,2.72,12.15,15.67,12.67,19.73,13.22S1141.16,586.37,1135.53,577.11Z" style="fill:none;stroke:#2a2a2a;stroke-width:1.3074351874975px"/><path d="M1135.45,577.07a.19.19,0,0,1,.13-.05h.05l.1,0,.21,0a2.83,2.83,0,0,0,.4-.08,5.14,5.14,0,0,0,.79-.23,2,2,0,0,0,1.15-.89,1.51,1.51,0,0,0-.15-1.34,12.88,12.88,0,0,0-.86-1.37,56.4,56.4,0,0,0-4.18-5.21,51.33,51.33,0,0,0-9.93-8.77,21.34,21.34,0,0,0-12.42-4,26.72,26.72,0,0,0-3.35.07,11.6,11.6,0,0,0-3.22.66,4.56,4.56,0,0,0-1.36.78,2.66,2.66,0,0,0-.76,1.28c-.08.25-.13.51-.2.8s-.17.57-.25.83a15.48,15.48,0,0,0-.41,1.59,9.2,9.2,0,0,0,.83,6.17c1,1.9,2.67,3.18,4.43,4.63,3.48,2.81,7.07,5.52,10.76,8a31,31,0,0,0,5.69,3.19,2.89,2.89,0,0,0,.71.22l.35.09.41.07,1.66.23c1.1.14,2.2.24,3.3.28a22.22,22.22,0,0,0,3.27-.08,6.42,6.42,0,0,0,2.94-1,2.71,2.71,0,0,0,1-2.65A11.87,11.87,0,0,0,1135.45,577.07Zm.15.09a7.75,7.75,0,0,1,1.5,3,3.86,3.86,0,0,1,0,1.82,3.07,3.07,0,0,1-1,1.61,7.3,7.3,0,0,1-3.31,1.41,18.45,18.45,0,0,1-3.47.33c-1.15,0-2.3,0-3.44-.13l-1.7-.16-.43,0-.47-.09a5.05,5.05,0,0,1-.91-.24,17.47,17.47,0,0,1-3.22-1.46c-1-.56-2-1.15-3-1.77a108,108,0,0,1-10.79-8.3c-.86-.75-1.72-1.43-2.56-2.31a10.87,10.87,0,0,1-2.06-3,10,10,0,0,1-.52-7,14.48,14.48,0,0,1,.54-1.65c.23-.55.33-1,.54-1.6a3.35,3.35,0,0,1,1.05-1.52,4.94,4.94,0,0,1,1.57-.86,13.69,13.69,0,0,1,3.39-.63c1.13-.09,2.27-.12,3.4-.1s2.26,0,3.4.11l1.73.18c.57.07,1.12.25,1.68.37l.85.2.81.29c.54.2,1.1.38,1.63.6a29.8,29.8,0,0,1,3.08,1.58,31.31,31.31,0,0,1,5.5,4.14,46,46,0,0,1,4.69,5,43,43,0,0,1,3.93,5.6,9.5,9.5,0,0,1,.79,1.56,2.16,2.16,0,0,1,0,1.92,2.51,2.51,0,0,1-1.55,1,5,5,0,0,1-.86.14l-.43,0h-.38S1135.61,577.18,1135.6,577.16Z" style="fill:#2a2a2a"/><path d="M1135.09,577.6c-4.07-3.7-8.23-7.34-12.54-10.77l-6.56-5.05c-1.1-.84-2.2-1.67-3.35-2.43a13.07,13.07,0,0,0-1.79-1,3.3,3.3,0,0,0-2-.32,3.31,3.31,0,0,1,2,.25,11.53,11.53,0,0,1,1.85,1c1.19.71,2.32,1.5,3.46,2.29l6.76,4.8c4.46,3.28,8.77,6.75,13,10.31Z" style="fill:#2a2a2a"/><path d="M1105,560.9c2.38,1.73,4.66,3.57,6.89,5.48,1.12,1,2.2,2,3.25,3,.52.52,1,1.09,1.51,1.62a18.16,18.16,0,0,0,1.56,1.47,26.47,26.47,0,0,0,7.41,4.37,18.09,18.09,0,0,0,4.19,1.1,17.44,17.44,0,0,1,2.15.57,4.77,4.77,0,0,1,1.91,1.08,4.93,4.93,0,0,0-2-.85,15.44,15.44,0,0,0-2.14-.37,18.28,18.28,0,0,1-4.36-.9,25.43,25.43,0,0,1-7.75-4.34,18.46,18.46,0,0,1-1.61-1.58c-.5-.56-1-1.09-1.46-1.61-1-1.05-2.08-2-3.13-3.06C1109.34,564.87,1107.17,562.9,1105,560.9Z" style="fill:#2a2a2a"/><path d="M966,244.56a5,5,0,0,0-1.32-1.72,3.37,3.37,0,0,0-1.87-.75,4.88,4.88,0,0,0-1,0,6.72,6.72,0,0,0-1,.28,10.52,10.52,0,0,0-1.86.95,60.2,60.2,0,0,0-6.68,5.52,61.59,61.59,0,0,0-10.87,13.4c-.72,1.25-1.4,2.52-2,3.83s-1.08,2.66-1.57,4a71.12,71.12,0,0,0-2.54,8.36,18.42,18.42,0,0,0-.46,4.29,5.44,5.44,0,0,0,1.44,3.82,26.93,26.93,0,0,0,7.36,4.4,9.45,9.45,0,0,0,4.09.51,8.7,8.7,0,0,0,3.79-1.41,25.77,25.77,0,0,0,3.27-2.72l1.54-1.52,1.52-1.56c2-2.11,3.89-4.31,5.71-6.57s3.61-4.55,5.24-6.94a39.85,39.85,0,0,0,4.24-7.41,27.6,27.6,0,0,0,1-4.12c.25-1.42.45-2.85.56-4.28a27.68,27.68,0,0,0,0-4.27,9.9,9.9,0,0,0-1.1-4,4.62,4.62,0,0,0-3.15-2.37,7.5,7.5,0,0,0-2.12-.12c-.36,0-.71.08-1.07.12Zm.08-.16a9.21,9.21,0,0,1,4.34-.62,5.84,5.84,0,0,1,2.19.79,5.59,5.59,0,0,1,1.63,1.69,10.94,10.94,0,0,1,1.47,4.32,24.17,24.17,0,0,1,.21,4.49c-.06,1.49-.22,3-.42,4.44a27.65,27.65,0,0,1-.9,4.45,38,38,0,0,1-4.29,7.89,103,103,0,0,1-11.3,13.6,41.06,41.06,0,0,1-6.78,5.83,9.47,9.47,0,0,1-4.42,1.43,10.64,10.64,0,0,1-4.52-.8,19.92,19.92,0,0,1-3.92-2.17c-.61-.42-1.2-.86-1.78-1.31a20,20,0,0,1-1.75-1.41,6.11,6.11,0,0,1-1.55-4.21,20.46,20.46,0,0,1,.44-4.42c.58-2.89,1.35-5.73,2.17-8.54a39.79,39.79,0,0,1,3.22-8.28,50.89,50.89,0,0,1,11.23-13.7,49,49,0,0,1,7.12-5.31,9.11,9.11,0,0,1,2.1-.9,8.82,8.82,0,0,1,1.14-.22,5.16,5.16,0,0,1,1.18.06A4.08,4.08,0,0,1,966.11,244.4Z" style="fill:#2a2a2a"/><path d="M966.07,244.48s-1.83-5.47-8.27-.93S941.62,257.17,938,268.24s-4.75,16.53-1.3,19.07,9.62,7.63,16,2.91,20.15-21,21.61-27.92S977.51,241.05,966.07,244.48Z" style="fill:none;stroke:#2a2a2a;stroke-width:1.74324691666333px"/><path d="M966.2,245.12a5.83,5.83,0,0,0-1.19.52,9.14,9.14,0,0,0-1.21.77,19.09,19.09,0,0,0-2.26,1.88,38.83,38.83,0,0,0-3.93,4.45c-1.23,1.58-2.31,3.26-3.46,4.92l-3.45,5c-2.31,3.3-4.61,6.6-6.76,10-1.06,1.7-2.11,3.42-3,5.21A16.16,16.16,0,0,0,939,283.5a16.21,16.21,0,0,1,1.79-5.74c.86-1.83,1.86-3.58,2.88-5.31,2.07-3.47,4.28-6.84,6.49-10.2l3.32-5c1.09-1.68,2.15-3.41,3.35-5a38.14,38.14,0,0,1,3.93-4.69,21.65,21.65,0,0,1,2.32-2.05,10.82,10.82,0,0,1,1.32-.88,6.19,6.19,0,0,1,1.55-.7Z" style="fill:#2a2a2a"/><path d="M946.46,284.59l7.41-7.62a71.22,71.22,0,0,0,7-7.92,31.08,31.08,0,0,0,4.57-9.38c.51-1.68.94-3.41,1.41-5.12.25-.85.49-1.7.76-2.55a4.29,4.29,0,0,1,1.32-2.28,4.38,4.38,0,0,0-1.09,2.35c-.21.85-.39,1.72-.57,2.59-.39,1.73-.74,3.45-1.18,5.19a29.94,29.94,0,0,1-4.51,9.7,62.85,62.85,0,0,1-7.2,7.89C951.78,279.89,949.16,282.29,946.46,284.59Z" style="fill:#2a2a2a"/><path d="M1015.15,102.27a15.49,15.49,0,0,0-7.44-6,13.79,13.79,0,0,0-4.71-.72c-.4,0-.79.09-1.19.13a7.92,7.92,0,0,0-1.17.19,15.25,15.25,0,0,0-2.27.7,46.52,46.52,0,0,0-4.38,2c-1.44.74-2.88,1.49-4.3,2.27-2.85,1.56-5.65,3.2-8.36,5a58.85,58.85,0,0,0-7.74,5.85,33.55,33.55,0,0,0-3.38,3.47,25.11,25.11,0,0,0-2.68,4,15.31,15.31,0,0,0-1.5,4.55,13.1,13.1,0,0,0,.31,4.75,17.47,17.47,0,0,0,5.27,7.88l-.8.25a2.25,2.25,0,0,1,.28-.74,1.57,1.57,0,0,1,.17-.21,1.17,1.17,0,0,1,.31-.19.83.83,0,0,1,.73.11,3.19,3.19,0,0,1,.87,1.23c.36.79.58,1.58.88,2.29.57,1.47,1.38,2.73,2.72,3.12a6.09,6.09,0,0,0,2.16.24,14,14,0,0,0,2.3-.27,24.47,24.47,0,0,0,4.55-1.28A87.47,87.47,0,0,0,994.6,137c2.88-1.45,5.7-3,8.42-4.7a68.67,68.67,0,0,0,7.78-5.62,33.52,33.52,0,0,0,6.4-7,13.48,13.48,0,0,0,2.31-9c-.06-.39-.08-.79-.18-1.18l-.35-1.15c-.06-.19-.11-.39-.18-.57l-.26-.55-.51-1.09c-.4-.7-.88-1.36-1.31-2Zm.14-.11a17,17,0,0,1,4.7,8.48c.71,3.28-.26,6.71-1.81,9.64a30.63,30.63,0,0,1-6.29,7.67,57.53,57.53,0,0,1-7.88,6,90.38,90.38,0,0,1-17.67,8.57,25.78,25.78,0,0,1-4.85,1.25,15.18,15.18,0,0,1-2.54.22,7.41,7.41,0,0,1-2.64-.4,4.74,4.74,0,0,1-2.23-1.66,8.8,8.8,0,0,1-1.16-2.34c-.28-.81-.47-1.6-.75-2.29a2.75,2.75,0,0,0-.43-.8s0,0,0,0a.27.27,0,0,0,.12,0s0,0,.05,0,0,0,0,0a1.35,1.35,0,0,0-.17.38v0a.48.48,0,0,1-.59.34.45.45,0,0,1-.2-.12,19.28,19.28,0,0,1-5.21-8.42,13.93,13.93,0,0,1-.25-5,18,18,0,0,1,1.51-4.75,31.9,31.9,0,0,1,5.92-7.92,57.62,57.62,0,0,1,7.6-6.35A74.15,74.15,0,0,1,989,99.52c1.45-.77,2.93-1.5,4.43-2.17A37.46,37.46,0,0,1,998,95.52a14.67,14.67,0,0,1,2.46-.58,7.56,7.56,0,0,1,1.25-.12c.43,0,.84-.06,1.26,0a14.28,14.28,0,0,1,4.89,1.06A17.48,17.48,0,0,1,1015.29,102.16Z" style="fill:#2a2a2a"/><path d="M1015.22,102.22s-6.53-10.9-18.52-5.63-43.94,22.51-25.42,40.13c0,0,.54-2.5,1.81,1.47s2.55,6.15,10,4.43S1034.11,122.19,1015.22,102.22Z" style="fill:none;stroke:#2a2a2a;stroke-linejoin:round;stroke-width:1.3074351874975px"/><path d="M970.86,136.82a14.83,14.83,0,0,1,0-7,5.29,5.29,0,0,1,2.07-3c.26-.15.55-.28.83-.42a5.22,5.22,0,0,1,.88-.25c.6-.16,1.14-.18,1.72-.29,4.51-.7,9.09-1.57,13.09-3.77,2.07-1,3.47-2.86,4.88-4.67s2.78-3.67,4.31-5.39a24.21,24.21,0,0,1,5.15-4.59,11.62,11.62,0,0,1,6.53-1.94,11.58,11.58,0,0,0-6.47,2,24.2,24.2,0,0,0-5.05,4.64c-1.49,1.74-2.84,3.6-4.21,5.45-.7.91-1.38,1.84-2.18,2.69a10.22,10.22,0,0,1-2.74,2.16c-4.07,2.31-8.69,3.26-13.21,4a8,8,0,0,0-3.14.9,4.55,4.55,0,0,0-1.73,2.61,14.08,14.08,0,0,0,.11,6.61Z" style="fill:#2a2a2a"/><path d="M1081.93,495.29s12.32-9.06,7.67-19.46-15.95-25.18-38.84-12.1-22.56,25.19-21,29.26S1043.46,518.15,1081.93,495.29Z" style="fill:none;stroke:#2a2a2a;stroke-width:1.3074351874975px"/><path d="M1081.88,495.22a24.41,24.41,0,0,0,6.67-7.91,19.08,19.08,0,0,0,1-2.38,13.41,13.41,0,0,0,.53-2.5,7.64,7.64,0,0,0,.1-1.26l0-1.26a8.7,8.7,0,0,0-.22-1.24,5,5,0,0,0-.32-1.2,27.93,27.93,0,0,0-2.25-4.6,41.18,41.18,0,0,0-2.85-4.27,26.38,26.38,0,0,0-7.49-6.8,19.9,19.9,0,0,0-9.7-2.73,25.37,25.37,0,0,0-5.13.46,32.3,32.3,0,0,0-5,1.44,40.44,40.44,0,0,0-4.75,2.15c-1.54.8-3,1.76-4.49,2.66s-2.88,2-4.31,3c-.69.52-1.36,1.08-2,1.63s-1.35,1.09-2,1.69a36.59,36.59,0,0,0-6.68,7.83c-.45.72-.83,1.48-1.23,2.23l-.5,1.16a8.45,8.45,0,0,0-.43,1.19,14.4,14.4,0,0,0-.81,4.88,10.19,10.19,0,0,0,.29,2.41,9.37,9.37,0,0,0,.91,2.22,19.55,19.55,0,0,0,3,4,21.42,21.42,0,0,0,8.35,5.41,25,25,0,0,0,4.91,1.2c.84.1,1.68.21,2.53.23s1.7,0,2.55,0a45,45,0,0,0,10.2-1.5A75.56,75.56,0,0,0,1081.88,495.22Zm.09.15c-6,3.53-12.22,6.9-19,9.13a40.59,40.59,0,0,1-10.45,2.05,27.79,27.79,0,0,1-10.68-1.37,22.59,22.59,0,0,1-9.06-5.93,21.17,21.17,0,0,1-3.17-4.45,10.88,10.88,0,0,1-1-2.64,11.6,11.6,0,0,1-.3-2.8,15.38,15.38,0,0,1,1-5.39,8.17,8.17,0,0,1,.5-1.27l.57-1.23c.45-.78.88-1.58,1.37-2.33a35.27,35.27,0,0,1,7.23-7.79,22,22,0,0,1,2.07-1.65c.7-.52,1.4-1.07,2.12-1.57l2.2-1.45c.73-.5,1.46-1,2.22-1.42a62.74,62.74,0,0,1,9.35-4.85,31.78,31.78,0,0,1,10.34-2.31,21,21,0,0,1,10.41,2.43,24.81,24.81,0,0,1,8,7.14,32.81,32.81,0,0,1,2.85,4.53,25.87,25.87,0,0,1,2.08,4.95,6.77,6.77,0,0,1,.27,1.34,10.29,10.29,0,0,1,.15,1.36l0,1.36a8.82,8.82,0,0,1-.19,1.34,13.63,13.63,0,0,1-.72,2.59,19.56,19.56,0,0,1-1.17,2.39,24.24,24.24,0,0,1-3.14,4.24A29.2,29.2,0,0,1,1082,495.37Z" style="fill:#2a2a2a"/><path d="M1089.43,483.72a22.84,22.84,0,0,0-5-5.87,9.15,9.15,0,0,0-6.79-2.39,7,7,0,0,0-1.77.44c-.29.1-.56.25-.85.37l-.91.46c-1.22.62-2.46,1.18-3.71,1.73a65.23,65.23,0,0,1-7.69,2.77,61.85,61.85,0,0,1-16.07,2.47,27.49,27.49,0,0,0-7.92,1.26,30.22,30.22,0,0,0-6.92,4.12,30.57,30.57,0,0,1,6.83-4.38,27.87,27.87,0,0,1,8-1.54,61.56,61.56,0,0,0,15.79-3,64.63,64.63,0,0,0,7.45-3c1.21-.57,2.4-1.17,3.58-1.81l.88-.48c.33-.16.65-.34,1-.47a8.67,8.67,0,0,1,2.13-.61,9.08,9.08,0,0,1,4.39.43,13.54,13.54,0,0,1,3.79,2.08,24.93,24.93,0,0,1,5.67,6.27Z" style="fill:#2a2a2a"/><path d="M6.15,73.78s-2.23,3.82,1.23,4,21.93-1.44,28.91-11.66,4-11.37,2.86-12.63-4.84-6.18-11.87-3.77S8.44,56.88,5.92,60.11-4.68,74,6.15,73.78Z" style="fill:none;stroke:#2a2a2a;stroke-width:1.3074351874975px"/><path d="M6.23,73.73a.32.32,0,0,1,0,.14l0,0-.05.1-.07.19c-.05.13-.1.26-.14.4a7.62,7.62,0,0,0-.2.79,2,2,0,0,0,.2,1.44,1.48,1.48,0,0,0,1.23.54,11.17,11.17,0,0,0,1.62-.05,54.72,54.72,0,0,0,6.6-1A51.62,51.62,0,0,0,28,72.18a21.33,21.33,0,0,0,9.71-8.71,26.19,26.19,0,0,0,1.62-2.93,11.18,11.18,0,0,0,1.06-3.12,4.54,4.54,0,0,0,0-1.56,2.78,2.78,0,0,0-.72-1.31c-.18-.19-.38-.37-.59-.57s-.41-.43-.6-.64a14,14,0,0,0-1.16-1.15,9.25,9.25,0,0,0-5.75-2.4c-2.11-.13-4.09.71-6.22,1.5C21.13,52.88,17,54.62,13,56.56a31.32,31.32,0,0,0-5.62,3.3,3.86,3.86,0,0,0-.55.5l-.26.26L6.29,61l-1,1.31C4.58,63.14,3.94,64,3.35,65a21.12,21.12,0,0,0-1.57,2.87,6.31,6.31,0,0,0-.64,3,2.69,2.69,0,0,0,1.78,2.21A11.57,11.57,0,0,0,6.23,73.73Zm-.15.09a7.78,7.78,0,0,1-3.36-.22,3.89,3.89,0,0,1-1.58-.91A3.1,3.1,0,0,1,.27,71a7.25,7.25,0,0,1,.44-3.57,18.21,18.21,0,0,1,1.47-3.16c.57-1,1.19-2,1.85-2.91L5,60l.25-.34.32-.37a4.62,4.62,0,0,1,.67-.66,16.86,16.86,0,0,1,2.88-2.05c1-.59,2-1.14,3-1.66a108.07,108.07,0,0,1,12.6-5.14c1.08-.36,2.1-.76,3.29-1a11,11,0,0,1,3.58-.3,10.12,10.12,0,0,1,6.31,3.08,14.18,14.18,0,0,1,1.16,1.3c.35.47.68.79,1.11,1.27A3.35,3.35,0,0,1,41,55.73a5.1,5.1,0,0,1-.05,1.79,13.4,13.4,0,0,1-1.17,3.25c-.49,1-1,2-1.62,3S37,65.7,36.34,66.64l-1,1.4c-.35.46-.78.84-1.17,1.27l-.6.63-.66.56c-.45.36-.88.75-1.34,1.1a29.82,29.82,0,0,1-2.91,1.86,31.54,31.54,0,0,1-6.35,2.67,46.37,46.37,0,0,1-6.67,1.54,41.92,41.92,0,0,1-6.81.58,10.67,10.67,0,0,1-1.76-.11,2.13,2.13,0,0,1-1.63-1,2.51,2.51,0,0,1-.08-1.84,5.22,5.22,0,0,1,.31-.81l.2-.39L6,73.92l.06-.1,0,0S6.05,73.82,6.08,73.82Z" style="fill:#2a2a2a"/><path d="M6,73.16c5.25-1.65,10.49-3.42,15.62-5.41l7.67-3.12C30.51,64.1,31.79,63.57,33,63a12.23,12.23,0,0,0,1.78-1.05,3.26,3.26,0,0,0,1.28-1.56A3.31,3.31,0,0,1,34.85,62,13,13,0,0,1,33.1,63.1c-1.22.67-2.47,1.25-3.73,1.83l-7.55,3.42c-5.08,2.21-10.25,4.18-15.46,6.05Z" style="fill:#2a2a2a"/><path d="M35.52,55.59c-2.68,1.18-5.42,2.23-8.2,3.19-1.39.5-2.8.91-4.23,1.29-.7.19-1.46.35-2.15.5a16.7,16.7,0,0,0-2.06.6,26.75,26.75,0,0,0-7.52,4.2A18.52,18.52,0,0,0,8.3,68.44,17.89,17.89,0,0,1,6.73,70a4.61,4.61,0,0,1-1.9,1.1,5,5,0,0,0,1.74-1.27A17,17,0,0,0,8,68.17a18.56,18.56,0,0,1,3-3.31,25.5,25.5,0,0,1,7.66-4.51,17.81,17.81,0,0,1,2.17-.59c.75-.15,1.43-.28,2.14-.45,1.41-.34,2.81-.77,4.22-1.16C29.92,57.33,32.71,56.44,35.52,55.59Z" style="fill:#2a2a2a"/><path d="M903.5,16.55s-3.53-3.79-15.84-2.37-36,7.05-27.8,14.74c0,0-6.54,4.07,1.06,8.06s11.21,6.18,23.9,2.66,17.28-7.36,18.95-10.89S907.24,20.17,903.5,16.55Z" style="fill:none;stroke:#2a2a2a;stroke-linejoin:round;stroke-width:1.3074351874975px"/><path d="M903.44,16.61a11.88,11.88,0,0,0-6.08-2.24,31.37,31.37,0,0,0-6.57,0c-2.17.19-4.34.59-6.5,1s-4.32.82-6.47,1.26a84.72,84.72,0,0,0-12.67,3.46,16.19,16.19,0,0,0-5.56,3.27,3.63,3.63,0,0,0-1.14,2.76,4.78,4.78,0,0,0,1.6,2.62.27.27,0,0,1,0,.39l0,0h0a5,5,0,0,0-2.37,3.27c-.15,1.33.9,2.46,2.05,3.23a37,37,0,0,0,3.87,2c1.34.63,2.66,1.26,4,1.75A18.79,18.79,0,0,0,876,40.48a46.18,46.18,0,0,0,8.54-1.72A83.94,83.94,0,0,0,892.87,36a30.84,30.84,0,0,0,7.58-4.12,10.6,10.6,0,0,0,2.79-3.14,21.65,21.65,0,0,0,1.75-4,12.65,12.65,0,0,0,.48-2.13,9.27,9.27,0,0,0,0-2.17A6.92,6.92,0,0,0,903.44,16.61Zm.12-.12a7.38,7.38,0,0,1,2.15,3.89,11,11,0,0,1-.16,4.5,24,24,0,0,1-1.46,4.28,11.73,11.73,0,0,1-2.76,3.74,26.44,26.44,0,0,1-7.78,4.74A63.39,63.39,0,0,1,885,40.55a45,45,0,0,1-8.92,1.62,19.61,19.61,0,0,1-9.05-1.42,39.06,39.06,0,0,1-4-2,36.56,36.56,0,0,1-3.88-2.33,6.64,6.64,0,0,1-1.64-1.7,3.31,3.31,0,0,1-.56-2.37,4.56,4.56,0,0,1,1-2.15,7.85,7.85,0,0,1,1.74-1.51l0,.43a5.31,5.31,0,0,1-1.74-3,4.1,4.1,0,0,1,1.25-3.2,12.23,12.23,0,0,1,2.65-2.12,28.17,28.17,0,0,1,3-1.6,62.16,62.16,0,0,1,12.71-4.15,66.87,66.87,0,0,1,13.25-1.62,33.13,33.13,0,0,1,6.67.54,18,18,0,0,1,3.22.86A8.74,8.74,0,0,1,903.56,16.49Z" style="fill:#2a2a2a"/><path d="M902.14,23.42a44.64,44.64,0,0,1-9.59,5.06c-1.7.62-3.44,1.15-5.17,1.67s-3.45,1.07-5.18,1.6c-.87.24-1.74.49-2.62.71s-1.78.37-2.67.54-1.79.3-2.69.39-1.81.24-2.72.25a36.3,36.3,0,0,1-10.8-1.12l0-.09a62.13,62.13,0,0,0,10.73.28,78.32,78.32,0,0,0,10.64-1.42c.88-.17,1.75-.39,2.62-.63a24.8,24.8,0,0,0,2.58-.78c1.71-.58,3.35-1.35,5-2.07,3.29-1.42,6.57-2.88,9.81-4.46Z" style="fill:#2a2a2a"/><path d="M859.6,28.58A29.45,29.45,0,0,1,868.85,24c3.39-.82,6.82-.83,10.2-1.17A17.17,17.17,0,0,0,884,21.75a40.22,40.22,0,0,1,4.9-1.52,37.47,37.47,0,0,1,5-.9,12.37,12.37,0,0,1,5.07.3,12.5,12.5,0,0,0-5.06-.19,35.29,35.29,0,0,0-5,1,38.48,38.48,0,0,0-4.83,1.6,17.65,17.65,0,0,1-5,1.24c-3.39.41-6.84.51-10.07,1.37a28.8,28.8,0,0,0-8.9,4.61Z" style="fill:#2a2a2a"/></svg>