<svg xmlns="http://www.w3.org/2000/svg" viewBox="0 0 288.23 124.74"><title>omos-beans-bottom-mobile</title><path d="M63.67,64.19s-.77,2.5-6.68,4.57-17.93,4.71-15.88-.59c0,0-3.87-.41-1.29-3.9S43.55,59,50.1,57.8s9.48-.45,11,.78S64.58,61.72,63.67,64.19Z" style="fill:none;stroke:#2a2a2a;stroke-linejoin:round;stroke-width:0.660481090374622px"/><path d="M63.71,64.21a4.27,4.27,0,0,1-1,1.37,8.36,8.36,0,0,1-1.28,1.1,16.37,16.37,0,0,1-2.91,1.72,32.88,32.88,0,0,1-6.38,2.17,32.08,32.08,0,0,1-6.69.92A9.75,9.75,0,0,1,42.1,71a2.09,2.09,0,0,1-1.26-1.19A2.66,2.66,0,0,1,41,68.11l.12.2A2.9,2.9,0,0,1,39,67.25a1.69,1.69,0,0,1-.27-1.2,3.58,3.58,0,0,1,.37-1.13A22.68,22.68,0,0,1,40.37,63c.44-.61.9-1.22,1.41-1.8a9.86,9.86,0,0,1,3.8-2.63A21.75,21.75,0,0,1,50,57.35a37.71,37.71,0,0,1,4.52-.56,13.68,13.68,0,0,1,4.58.44,6,6,0,0,1,2.08,1.1A11.66,11.66,0,0,1,62.77,60a5.74,5.74,0,0,1,1.07,2A3.76,3.76,0,0,1,63.71,64.21Zm-.08,0A3.53,3.53,0,0,0,63.7,62a4.81,4.81,0,0,0-1.15-1.86,10.42,10.42,0,0,0-1.68-1.43,5.31,5.31,0,0,0-2-.82,15.39,15.39,0,0,0-4.35-.21,36.56,36.56,0,0,0-4.4.58c-2.9.52-5.85,1.28-7.86,3.43-.5.53-1,1.1-1.44,1.68a20.81,20.81,0,0,0-1.32,1.77,1.9,1.9,0,0,0-.22,1.92,2.54,2.54,0,0,0,1.8,1h0a.14.14,0,0,1,.12.17v0a2.43,2.43,0,0,0-.15,1.54,1.78,1.78,0,0,0,1.13,1,7.83,7.83,0,0,0,3.24.28A44,44,0,0,0,52,69.82c2.14-.56,4.32-1.09,6.39-1.84a15.87,15.87,0,0,0,3-1.45A6,6,0,0,0,63.63,64.18Z" style="fill:#2a2a2a"/><path d="M61.54,61.41c-1.83,0-3.64.05-5.45.13a22.36,22.36,0,0,0-5.4.66,41.9,41.9,0,0,0-5.15,1.69,33.32,33.32,0,0,0-4.82,2.49l0,0a17.83,17.83,0,0,1,4.67-2.88A23.76,23.76,0,0,1,50.64,62c1.81-.27,3.61-.58,5.43-.78a22.27,22.27,0,0,1,5.47.18Z" style="fill:#2a2a2a"/><path d="M41.15,68a14.58,14.58,0,0,0,5.06.14,38.56,38.56,0,0,0,4.88-1.59A8.86,8.86,0,0,1,53.63,66a19.76,19.76,0,0,0,2.55-.33,19.49,19.49,0,0,0,2.5-.64,6.32,6.32,0,0,0,2.26-1.2A6.38,6.38,0,0,1,58.69,65a17.67,17.67,0,0,1-2.49.7c-1.68.43-3.45.27-5,1a36.71,36.71,0,0,1-4.89,1.71,15,15,0,0,1-5.21,0Z" style="fill:#2a2a2a"/><path d="M17.09,27.25S11.28,32.33,6.65,28.9-4,18.27,4.94,8.42,19.84.06,21.67,1.27,32.58,10.79,17.09,27.25Z" style="fill:none;stroke:#2a2a2a;stroke-width:0.660481090374622px"/><path d="M17.13,27.28a13.8,13.8,0,0,1-4.63,2.58,6.73,6.73,0,0,1-5.31-.3,16.57,16.57,0,0,1-4.12-3.47A12.57,12.57,0,0,1,.42,21.36,10.37,10.37,0,0,1,.38,16a14.82,14.82,0,0,1,2.27-4.84c.25-.36.49-.74.76-1.09l.86-1A25.65,25.65,0,0,1,6.05,7c.59-.65,1.27-1.23,1.89-1.87S9.27,4,10,3.46A17.93,17.93,0,0,1,14.63.75,9.5,9.5,0,0,1,20,.17a5.49,5.49,0,0,1,2.53,1.25,10.57,10.57,0,0,1,1.85,2.05,11.65,11.65,0,0,1,1.92,5.12A16.8,16.8,0,0,1,23.7,18.93l-1.47,2.23c-.48.75-1.09,1.41-1.62,2.11l-.82,1.05-.89,1Zm-.07-.06a41.56,41.56,0,0,0,6.14-8.57A18.16,18.16,0,0,0,25.44,8.7,11.22,11.22,0,0,0,23.66,4,9.46,9.46,0,0,0,22,2.08,4.57,4.57,0,0,0,19.86,1a9.14,9.14,0,0,0-5,.43,18.11,18.11,0,0,0-4.59,2.44,29.43,29.43,0,0,0-4,3.41A25.23,25.23,0,0,0,4.48,9.2l-.84,1c-.27.35-.49.73-.74,1.09a11.35,11.35,0,0,0-1.78,9.85A13.33,13.33,0,0,0,3.65,25.6a19,19,0,0,0,3.81,3.48,6.31,6.31,0,0,0,5,.56A12.62,12.62,0,0,0,17.06,27.22Z" style="fill:#2a2a2a"/><path d="M9.82,30.49A12.46,12.46,0,0,1,7.35,27,5.51,5.51,0,0,1,7,22.7a4.45,4.45,0,0,1,.54-1,10,10,0,0,1,.66-.83c.45-.5.88-1,1.29-1.56A34.74,34.74,0,0,0,11.79,16,31,31,0,0,0,15,8.52a14.1,14.1,0,0,1,1.63-3.76,15.26,15.26,0,0,1,2.91-2.88,14.77,14.77,0,0,0-2.79,3A13.61,13.61,0,0,0,15.24,8.6a31.38,31.38,0,0,1-3,7.66,32.43,32.43,0,0,1-2.21,3.48c-.4.56-.82,1.11-1.26,1.64l-.32.4-.26.39a3.21,3.21,0,0,0-.43.82,4.63,4.63,0,0,0,.44,3.6,11.1,11.1,0,0,0,2.35,3.09Z" style="fill:#2a2a2a"/><path d="M116.1,51.23a8.62,8.62,0,0,1-4.41,2.19,7.42,7.42,0,0,1-2.53-.08,8,8,0,0,1-2.34-1,38.58,38.58,0,0,1-7.45-6.63,21.41,21.41,0,0,1-4.87-8.66,9.56,9.56,0,0,1-.15-2.51,7.08,7.08,0,0,1,.73-2.41,9.9,9.9,0,0,1,3.59-3.48.23.23,0,0,1,.33.09.21.21,0,0,1,0,.11v0a.62.62,0,0,0,0,.21s0,0,0,0-.09,0-.08,0a1.18,1.18,0,0,0,.31-.34c.23-.3.42-.67.65-1a4.48,4.48,0,0,1,.86-1,2.39,2.39,0,0,1,1.3-.54,5.43,5.43,0,0,1,2.56.55,13.25,13.25,0,0,1,2.22,1.21,44.63,44.63,0,0,1,7.59,6.39,20.84,20.84,0,0,1,5.28,8.4,7.32,7.32,0,0,1-.31,4.95A8.23,8.23,0,0,1,116.1,51.23Zm-.06-.07a7.87,7.87,0,0,0,3.18-3.6,6.73,6.73,0,0,0,0-4.68,23.67,23.67,0,0,0-5.38-8,52.38,52.38,0,0,0-7.39-6.32,12.59,12.59,0,0,0-2.07-1.19,5,5,0,0,0-2.19-.56,2.34,2.34,0,0,0-1.72,1.19c-.23.31-.44.67-.71,1a1.64,1.64,0,0,1-.58.49.42.42,0,0,1-.37,0,.47.47,0,0,1-.18-.25,1.13,1.13,0,0,1,0-.4l.36.22a8.88,8.88,0,0,0-3.55,3.21,6.91,6.91,0,0,0-.74,2.29A7.58,7.58,0,0,0,94.8,37a13.37,13.37,0,0,0,2,4.42,29.59,29.59,0,0,0,3.07,3.81c1.09,1.23,2.29,2.35,3.48,3.48a48.59,48.59,0,0,0,3.73,3.18A7.78,7.78,0,0,0,109.26,53a6.93,6.93,0,0,0,2.4.23A8,8,0,0,0,116,51.16Z" style="fill:#2a2a2a"/><path d="M116.07,51.2s-4.54,4.53-9.77.47S87.55,35.23,98.79,28.88c0,0,0,1.29,1.07-.5s2-2.7,5.44-.94S127.79,43.74,116.07,51.2Z" style="fill:none;stroke:#2a2a2a;stroke-linejoin:round;stroke-width:0.660481090374622px"/><path d="M99.76,29.29a6.6,6.6,0,0,0-1.28,3.18A1.59,1.59,0,0,0,99,33.82a11.24,11.24,0,0,0,1.59.78,16.81,16.81,0,0,1,6.17,4.21,29.41,29.41,0,0,1,1.84,3.26c.58,1.09,1.17,2.18,1.83,3.22a17.74,17.74,0,0,0,2.25,2.92,6.83,6.83,0,0,0,3.11,1.92,6.94,6.94,0,0,1-3.18-1.85,17.66,17.66,0,0,1-2.36-2.88c-.69-1-1.31-2.1-1.92-3.18a27.93,27.93,0,0,0-1.89-3.15,16.2,16.2,0,0,0-6.11-3.88,9.76,9.76,0,0,1-1.76-.82,2.33,2.33,0,0,1-.88-1.91A7.41,7.41,0,0,1,99,28.78Z" style="fill:#2a2a2a"/><path d="M261.94,37.8s7.83-2.33,6.41-6.85-1.28-9.6-10.48-12.48-16.36-1-15.65,5.22S256.7,39.46,261.94,37.8Z" style="fill:none;stroke:#2a2a2a;stroke-width:0.660481090374622px"/><path d="M261.93,37.76a14.21,14.21,0,0,0,4.06-2,6.72,6.72,0,0,0,1.56-1.59,4.46,4.46,0,0,0,.52-1,3.36,3.36,0,0,0,.15-1,3.63,3.63,0,0,0-.16-1l-.34-1.1-.63-2.2a14.12,14.12,0,0,0-1.74-4.08c-1.61-2.5-4.41-4-7.26-5a25.91,25.91,0,0,0-4.42-1.08,17.6,17.6,0,0,0-4.52-.19,9.78,9.78,0,0,0-4.22,1.24,5,5,0,0,0-1.56,1.43,4.58,4.58,0,0,0-.7,2l-.07.52,0,.54,0,.54.09.51a8.46,8.46,0,0,0,.85,2,18.71,18.71,0,0,0,2.73,3.51,38.8,38.8,0,0,0,7.09,5.59,22.93,22.93,0,0,0,4.06,2A7.66,7.66,0,0,0,261.93,37.76Zm0,.08a8.21,8.21,0,0,1-4.55-.31,24.4,24.4,0,0,1-4.27-1.75,29.6,29.6,0,0,1-7.46-5.46,18,18,0,0,1-2.88-3.7,9,9,0,0,1-.9-2.24l-.1-.61,0-.61,0-.6.09-.61a5.31,5.31,0,0,1,.88-2.29,6.2,6.2,0,0,1,1.84-1.59A10.11,10.11,0,0,1,249.11,17a20.9,20.9,0,0,1,4.61.36,38.19,38.19,0,0,1,4.46,1.1,23.06,23.06,0,0,1,4.26,1.8A10.7,10.7,0,0,1,266,23.31a13.07,13.07,0,0,1,1.88,4.28l.55,2.23c.09.37.21.72.29,1.1a4.24,4.24,0,0,1,.1,1.23,3.8,3.8,0,0,1-.27,1.2,4.76,4.76,0,0,1-.63,1,7.1,7.1,0,0,1-1.75,1.54A17.12,17.12,0,0,1,262,37.84Z" style="fill:#2a2a2a"/><path d="M245.65,20.79a2.3,2.3,0,0,0-.49,1.69,2,2,0,0,0,1.09,1.33,14.59,14.59,0,0,0,3.45,1A16.94,16.94,0,0,1,253.15,26a15.88,15.88,0,0,1,3,2.06c.95.76,1.77,1.66,2.7,2.4A5.74,5.74,0,0,0,262,31.82a6.7,6.7,0,0,0,1.73-.13,14.77,14.77,0,0,1,1.84-.28,3.15,3.15,0,0,1,1.91.44,2.07,2.07,0,0,1,.91,1.85l-.66-.07a1.44,1.44,0,0,0-.6-1.27A2.54,2.54,0,0,0,265.6,32a12.37,12.37,0,0,0-1.75.23,6.89,6.89,0,0,1-1.87.09,6.17,6.17,0,0,1-3.38-1.52c-.94-.79-1.74-1.7-2.65-2.47A15.85,15.85,0,0,0,253,26.23,17.54,17.54,0,0,0,249.66,25a15.58,15.58,0,0,1-3.45-1.1,2.1,2.1,0,0,1-1.09-1.41A2.32,2.32,0,0,1,245.65,20.79Z" style="fill:#2a2a2a"/><path d="M193.43,68.68a6.58,6.58,0,0,1-1.74,3.79,6.14,6.14,0,0,1-3.88,1.71,25.55,25.55,0,0,1-8.39-1.24,16.75,16.75,0,0,1-7.29-4.24,6.43,6.43,0,0,1-1.66-3.87,24,24,0,0,1,.24-4.23,7.24,7.24,0,0,1,1.68-4,6,6,0,0,1,4-1.69,27.54,27.54,0,0,1,4.27.15,24.06,24.06,0,0,1,4.19.82A12.54,12.54,0,0,1,192,60.49,11,11,0,0,1,193.43,68.68Zm-.09,0,.16-2.09a15.78,15.78,0,0,0-.22-2.07,8.3,8.3,0,0,0-.66-2,5.91,5.91,0,0,0-.47-.9l-.6-.83a10.64,10.64,0,0,0-3.13-2.53,6.47,6.47,0,0,0-.91-.46c-.31-.14-.61-.3-.93-.42a19.31,19.31,0,0,0-2-.64,26.1,26.1,0,0,0-4-.78,24.77,24.77,0,0,0-4.11-.24,5.42,5.42,0,0,0-3.58,1.35,7.06,7.06,0,0,0-1.71,3.58,19.67,19.67,0,0,0-.4,4.13,5.6,5.6,0,0,0,1.58,3.68,10.31,10.31,0,0,0,3.37,2.34,23.23,23.23,0,0,0,3.9,1.4c1.33.38,2.69.65,4.05.91a26.19,26.19,0,0,0,4.09.48,5.73,5.73,0,0,0,3.76-1.33A5.81,5.81,0,0,0,193.34,68.67Z" style="fill:#2a2a2a"/><path d="M193.39,68.67s-.42,5.84-7.07,5.21-15.89-3.32-15.72-9.48,1.53-9.22,7-9.08S195.26,57,193.39,68.67Z" style="fill:none;stroke:#2a2a2a;stroke-linejoin:round;stroke-width:0.660481090374622px"/><path d="M171.16,62a2.12,2.12,0,0,0,.4.23c.18.08.37.15.57.22a10.37,10.37,0,0,0,1.28.28,11.88,11.88,0,0,0,2.67.09,6.12,6.12,0,0,1,2.93.42,19.46,19.46,0,0,1,2.54,1.28c1.66.94,3.06,2.22,4.57,3.25a4.76,4.76,0,0,0,2.53.9,5.76,5.76,0,0,0,2.63-.77,5.7,5.7,0,0,1-2.63.93A4.8,4.8,0,0,1,186,68c-1.62-1-3.07-2.14-4.71-3s-3.33-1.64-5.07-1.29a13.35,13.35,0,0,1-2.9.07,11.24,11.24,0,0,1-1.47-.24,5.69,5.69,0,0,1-.74-.23,3.24,3.24,0,0,1-.81-.45Z" style="fill:#2a2a2a"/><path d="M286,124s-2.19,1.42-8.05-.79-16.77-7.89-11.8-10.65c0,0-2.71-2.79,1.51-3.81s6.26-1.65,12,1.64,7.56,5.73,7.94,7.66S288.29,122.65,286,124Z" style="fill:none;stroke:#2a2a2a;stroke-linejoin:round;stroke-width:0.660481090374622px"/><path d="M286,124a4.43,4.43,0,0,1-1.63.43,8.68,8.68,0,0,1-1.69,0,16.42,16.42,0,0,1-3.33-.55,33.28,33.28,0,0,1-6.29-2.43,30.87,30.87,0,0,1-5.72-3.59,9.84,9.84,0,0,1-2.3-2.51,2.13,2.13,0,0,1-.21-1.73,2.74,2.74,0,0,1,1.22-1.25l0,.24a3,3,0,0,1-.9-2.14,1.64,1.64,0,0,1,.56-1.1,3.56,3.56,0,0,1,1-.63,17.53,17.53,0,0,1,2.19-.66,18.41,18.41,0,0,1,2.23-.48,9.75,9.75,0,0,1,4.61.42,21.54,21.54,0,0,1,4.17,1.89,37.77,37.77,0,0,1,3.82,2.48,13.74,13.74,0,0,1,3.23,3.27,6.08,6.08,0,0,1,.89,2.17,12.46,12.46,0,0,1,.19,2.28,5.91,5.91,0,0,1-.48,2.23A3.79,3.79,0,0,1,286,124Zm-.05-.08a3.45,3.45,0,0,0,1.45-1.62,4.68,4.68,0,0,0,.31-2.16,10.67,10.67,0,0,0-.36-2.18,5.5,5.5,0,0,0-1-1.89,15.53,15.53,0,0,0-3.2-2.95,36.52,36.52,0,0,0-3.75-2.38c-2.55-1.46-5.31-2.78-8.23-2.41-.72.08-1.45.22-2.18.36s-1.48.29-2.15.51-1.31.66-1.4,1.33a2.53,2.53,0,0,0,.77,1.89h0a.15.15,0,0,1,0,.21h0a2.44,2.44,0,0,0-1.11,1.09,1.83,1.83,0,0,0,.23,1.48,7.88,7.88,0,0,0,2.31,2.29,43.11,43.11,0,0,0,5.78,3.26c2,1,4,1.94,6.08,2.69a16.33,16.33,0,0,0,3.22.81A6,6,0,0,0,286,123.92Z" style="fill:#2a2a2a"/><path d="M286.16,120.46c-1.39-1.18-2.82-2.29-4.26-3.4a22.57,22.57,0,0,0-4.56-3,41.84,41.84,0,0,0-5-2,32.76,32.76,0,0,0-5.3-1.18v0a18.21,18.21,0,0,1,5.43.79,24,24,0,0,1,5,2.24c1.56,1,3.14,1.87,4.67,2.88a22.88,22.88,0,0,1,4.08,3.66Z" style="fill:#2a2a2a"/><path d="M266.33,112.39a14.78,14.78,0,0,0,3.79,3.35,36.22,36.22,0,0,0,4.77,1.91,9.17,9.17,0,0,1,2.29,1.22,19,19,0,0,0,2.17,1.39,19.68,19.68,0,0,0,2.32,1.1,6.05,6.05,0,0,0,2.51.53,6.28,6.28,0,0,1-2.53-.47,18.42,18.42,0,0,1-2.35-1.07c-1.57-.75-2.83-2-4.49-2.49A37,37,0,0,1,270,116a14.76,14.76,0,0,1-4-3.37Z" style="fill:#2a2a2a"/></svg>