<svg xmlns="http://www.w3.org/2000/svg" viewBox="0 0 1045.5 391.24"><title>omos-beans-bottom</title><path d="M644.93,367.26s.27,5.17,10.62,12,32.15,17.71,30.78,6.54c0,0,7.63,1.08,4.36-6.86s-4.63-11.94-16.61-17.38-18-5.45-21.52-3.82S644.39,362.08,644.93,367.26Z" style="fill:none;stroke:#2a2a2a;stroke-linejoin:round;stroke-width:1.3074351874975px"/><path d="M645,367.25a11.91,11.91,0,0,0,3.22,5.62,31.27,31.27,0,0,0,5,4.21c1.79,1.25,3.71,2.33,5.61,3.43s3.84,2.14,5.77,3.18a85.22,85.22,0,0,0,11.94,5.48,15.92,15.92,0,0,0,6.36,1.06,3.58,3.58,0,0,0,2.64-1.38,4.82,4.82,0,0,0,.46-3,.28.28,0,0,1,.24-.31h.07a5,5,0,0,0,3.92-1c1-.92.89-2.46.5-3.78a35.32,35.32,0,0,0-1.68-4c-.62-1.34-1.23-2.67-2-3.92a18.94,18.94,0,0,0-5.77-6.21,47.47,47.47,0,0,0-7.66-4.16,85.11,85.11,0,0,0-8.17-3.24,31.1,31.1,0,0,0-8.45-1.7,10.48,10.48,0,0,0-4.16.62A21.25,21.25,0,0,0,649,360a12.42,12.42,0,0,0-1.73,1.33,8.9,8.9,0,0,0-1.37,1.69A6.86,6.86,0,0,0,645,367.25Zm-.18,0a7.46,7.46,0,0,1,.85-4.36,11.12,11.12,0,0,1,3-3.35,23.4,23.4,0,0,1,3.86-2.35,11.81,11.81,0,0,1,4.52-1.09,26.56,26.56,0,0,1,9,1.36,63.65,63.65,0,0,1,8.4,3.24,44.9,44.9,0,0,1,7.87,4.48,19.45,19.45,0,0,1,6,6.9,37.66,37.66,0,0,1,1.83,4.13,36.49,36.49,0,0,1,1.48,4.28,6.65,6.65,0,0,1,.16,2.36,3.28,3.28,0,0,1-1.09,2.17,4.41,4.41,0,0,1-2.17,1,7.52,7.52,0,0,1-2.32,0l.32-.3a5.28,5.28,0,0,1-.57,3.38,4.09,4.09,0,0,1-3,1.66,12,12,0,0,1-3.39-.08,28.36,28.36,0,0,1-3.3-.67,62.59,62.59,0,0,1-12.41-5,67.74,67.74,0,0,1-11.2-7.27,33.5,33.5,0,0,1-4.76-4.69,17.68,17.68,0,0,1-1.92-2.73A8.86,8.86,0,0,1,644.84,367.26Z" style="fill:#2a2a2a"/><path d="M650.39,362.86A44.67,44.67,0,0,1,661,365.13c1.71.63,3.38,1.33,5,2.05s3.33,1.38,5,2.09c.82.38,1.65.74,2.47,1.14s1.59.86,2.39,1.3,1.56.92,2.32,1.43,1.53,1,2.24,1.55a36.73,36.73,0,0,1,7.56,7.79l-.07.06a63,63,0,0,0-8-7.11,79.33,79.33,0,0,0-9.07-5.74c-.78-.43-1.6-.82-2.41-1.2s-1.64-.74-2.49-1.05c-1.68-.65-3.42-1.12-5.15-1.61-3.44-1-6.88-2-10.39-2.89Z" style="fill:#2a2a2a"/><path d="M686.32,386.21a29.59,29.59,0,0,1-10-2.45c-3.13-1.55-5.76-3.74-8.57-5.64a16.86,16.86,0,0,0-4.48-2.31,41.77,41.77,0,0,1-4.73-2,38.89,38.89,0,0,1-4.44-2.54,12.46,12.46,0,0,1-3.7-3.49,12.21,12.21,0,0,0,3.76,3.39,35.79,35.79,0,0,0,4.47,2.44,39.14,39.14,0,0,0,4.74,1.86,17.54,17.54,0,0,1,4.62,2.26c2.86,1.86,5.57,4,8.6,5.42a29.12,29.12,0,0,0,9.78,2.17Z" style="fill:#2a2a2a"/><path d="M1005.14,300.26s8.17,3.82,15,0,18-14.16,21-20.15,4.63-6.34,3.26-12.3-1.36-11.13-6.53-10-1.09-1.63-2.45-2.18-5.24-2.72-10.38,1.09-17.68,15.29-19.86,21.54S996.15,293.73,1005.14,300.26Z" style="fill:none;stroke:#2a2a2a;stroke-width:1.3074351874975px"/><path d="M1005.19,300.19a19.3,19.3,0,0,0,8.59,1.53,14.13,14.13,0,0,0,4.22-.94,13.65,13.65,0,0,0,1.92-.94c.61-.4,1.23-.78,1.82-1.21a105.15,105.15,0,0,0,13.19-11.58,38,38,0,0,0,5.5-6.75c.72-1.26,1.46-2.59,2.24-3.84a12.26,12.26,0,0,0,1.79-3.92,11.15,11.15,0,0,0-.28-4.29l-.92-4.34a15,15,0,0,0-1.33-4.11,3.47,3.47,0,0,0-1.35-1.41,3.52,3.52,0,0,0-1.91-.26c-.66.09-1.4.31-2.19.4a2.57,2.57,0,0,1-1.41-.12.72.72,0,0,1-.24-.16,1.3,1.3,0,0,1-.21-.31,1.12,1.12,0,0,1-.06-.58,2.55,2.55,0,0,1,.23-.68,5,5,0,0,0,.2-.47c.07-.15,0-.24.06-.18s.08.13.06.14,0,0,0,0l-.12,0-.52-.21a10.05,10.05,0,0,0-2-.6,7.57,7.57,0,0,0-4,.34,12.33,12.33,0,0,0-3.58,2.1c-2.29,1.79-4.47,3.78-6.61,5.79s-4.21,4.09-6.17,6.25a43.08,43.08,0,0,0-5.33,6.83,14.55,14.55,0,0,0-.93,1.85c-.29.71-.58,1.41-.9,2.09l-1.91,4a26.84,26.84,0,0,0-1.58,4.06,12.44,12.44,0,0,0-.58,4.28C1001,295.85,1002.85,298.48,1005.19,300.19Zm-.09.15c-.57-.48-1.19-.92-1.71-1.45a11.11,11.11,0,0,1-1.41-1.73,9,9,0,0,1-1.54-4.2,12.91,12.91,0,0,1,.28-4.51,29,29,0,0,1,1.3-4.31c.51-1.41,1.08-2.78,1.62-4.14.28-.68.51-1.36.74-2a15,15,0,0,1,1-2.15,40.61,40.61,0,0,1,5.41-7.25,102,102,0,0,1,13.16-12.11,13.49,13.49,0,0,1,4.1-2.25,8.91,8.91,0,0,1,4.75-.23,11,11,0,0,1,2.23.75l.49.22.14.07.26.16a1,1,0,0,1,.37.58,1.55,1.55,0,0,1-.15.9,4.38,4.38,0,0,1-.26.53,1.62,1.62,0,0,0-.15.36h0s0,0,0-.05a.1.1,0,0,0,0-.08s0,0,0,0a1.93,1.93,0,0,0,.76,0c.69,0,1.39-.21,2.2-.28a4.33,4.33,0,0,1,2.4.46,4.27,4.27,0,0,1,1.61,1.8,17.46,17.46,0,0,1,1.25,4.35c.27,1.46.55,2.9.86,4.35a12.33,12.33,0,0,1,.32,4.5,13.38,13.38,0,0,1-1.73,4.17c-.71,1.31-1.33,2.61-2,3.95A37.87,37.87,0,0,1,1036,288a63.25,63.25,0,0,1-13.66,11.5c-.63.4-1.31.75-2,1.11a15.06,15.06,0,0,1-2.13.86,14.44,14.44,0,0,1-4.46.66,22,22,0,0,1-4.44-.49A21.4,21.4,0,0,1,1005.1,300.34Z" style="fill:#2a2a2a"/><path d="M1039,263a35.46,35.46,0,0,1-1.18,5.76,25.48,25.48,0,0,1-2.24,5.47,16,16,0,0,1-1.74,2.42c-.65.73-1.26,1.48-1.85,2.26-1.19,1.55-2.28,3.17-3.53,4.69a17.84,17.84,0,0,1-4.44,3.95c-.86.52-1.72.95-2.55,1.45s-1.66,1-2.47,1.52c-1.64,1-3.27,2.1-4.86,3.22-.79.56-1.59,1.12-2.36,1.71a13.73,13.73,0,0,0-2.2,1.88l-.08,0a5.85,5.85,0,0,1,.93-1.16c.35-.35.7-.69,1.07-1,.73-.65,1.46-1.31,2.24-1.91,1.53-1.22,3.1-2.4,4.75-3.47.83-.52,1.66-1.05,2.53-1.52s1.76-.91,2.58-1.37a20.71,20.71,0,0,0,4.5-3.55,38.38,38.38,0,0,0,3.65-4.56l1.71-2.38a16.27,16.27,0,0,0,1.49-2.46,60.9,60.9,0,0,0,4-10.91Z" style="fill:#2a2a2a"/><path d="M1035.42,257.82c-2.58,2.38-5.07,4.88-7.46,7.46-1.19,1.3-2.38,2.6-3.48,4a36.92,36.92,0,0,0-3,4.33,25.59,25.59,0,0,1-3,4.35,47.25,47.25,0,0,1-3.86,3.64c-1.32,1.17-2.62,2.36-3.87,3.61-.62.62-1.22,1.26-1.78,1.94a7.22,7.22,0,0,0-1.35,2.26,7.37,7.37,0,0,1,1.31-2.29c.54-.7,1.14-1.35,1.74-2,1.23-1.27,2.51-2.49,3.8-3.69a45.33,45.33,0,0,0,3.77-3.69,25.92,25.92,0,0,0,2.92-4.36,36.15,36.15,0,0,1,2.92-4.44c1.1-1.41,2.26-2.74,3.43-4.07,2.35-2.64,4.79-5.2,7.35-7.66Z" style="fill:#2a2a2a"/><path d="M826.18,369.81s8.72,12.57,19.25,8.21,25.6-15.25,13.16-38.49-24.56-23.25-28.67-21.8S804.39,330.73,826.18,369.81Z" style="fill:none;stroke:#2a2a2a;stroke-width:1.3074351874975px"/><path d="M826.25,369.77a24.4,24.4,0,0,0,7.73,6.89,17.81,17.81,0,0,0,2.35,1.07,14.23,14.23,0,0,0,2.48.6,7.59,7.59,0,0,0,1.26.14l1.26,0a10.29,10.29,0,0,0,1.24-.18,5.18,5.18,0,0,0,1.22-.3,28.36,28.36,0,0,0,4.65-2.11,41.38,41.38,0,0,0,4.35-2.74,26.14,26.14,0,0,0,7-7.3,19.83,19.83,0,0,0,3-9.62,26.89,26.89,0,0,0-.31-5.14,33.37,33.37,0,0,0-1.31-5,39.69,39.69,0,0,0-2-4.81c-.77-1.56-1.68-3.05-2.55-4.57s-1.88-2.93-2.83-4.39c-.5-.7-1-1.38-1.57-2.07a24.62,24.62,0,0,0-1.65-2,36.44,36.44,0,0,0-7.63-6.9c-.71-.47-1.46-.87-2.2-1.29l-1.15-.53a8.35,8.35,0,0,0-1.17-.46,14.38,14.38,0,0,0-4.86-.95,10.16,10.16,0,0,0-2.41.23,9,9,0,0,0-2.25.85,19,19,0,0,0-4.11,2.86,21.47,21.47,0,0,0-5.64,8.2,24.71,24.71,0,0,0-1.33,4.87c-.12.84-.26,1.68-.3,2.53s-.1,1.69-.11,2.55a45.54,45.54,0,0,0,1.21,10.23A75.74,75.74,0,0,0,826.25,369.77Zm-.15.09a100,100,0,0,1-8.6-19.2,40.42,40.42,0,0,1-1.76-10.5,27.72,27.72,0,0,1,1.66-10.64,22.44,22.44,0,0,1,6.18-8.89,21.23,21.23,0,0,1,4.54-3.05,11.06,11.06,0,0,1,2.66-.95,11.55,11.55,0,0,1,2.8-.22,15.5,15.5,0,0,1,5.37,1.15,8.13,8.13,0,0,1,1.25.54l1.22.6c.77.47,1.55.92,2.28,1.43a35.3,35.3,0,0,1,7.6,7.44c.57.67,1.09,1.39,1.59,2.11s1,1.44,1.51,2.17l1.39,2.24c.48.74.94,1.49,1.35,2.26a62.34,62.34,0,0,1,4.6,9.48,31.66,31.66,0,0,1,2,10.4A20.8,20.8,0,0,1,861,366.56a24.83,24.83,0,0,1-7.35,7.81,33,33,0,0,1-4.61,2.72,25.39,25.39,0,0,1-5,1.94,6.08,6.08,0,0,1-1.34.24,10.53,10.53,0,0,1-1.36.11l-1.36-.07a8.51,8.51,0,0,1-1.34-.22,14.41,14.41,0,0,1-2.57-.79,18.87,18.87,0,0,1-2.35-1.25,24.31,24.31,0,0,1-4.16-3.24A29.18,29.18,0,0,1,826.1,369.86Z" style="fill:#2a2a2a"/><path d="M837.54,377.64a23.16,23.16,0,0,0,6-4.79,9.14,9.14,0,0,0,2.58-6.72,7.37,7.37,0,0,0-.39-1.78c-.1-.29-.24-.57-.35-.86l-.43-.93c-.58-1.23-1.12-2.49-1.62-3.75a66.51,66.51,0,0,1-2.57-7.76,62.1,62.1,0,0,1-2-16.14,27.61,27.61,0,0,0-1-8,30.22,30.22,0,0,0-3.93-7,30.62,30.62,0,0,1,4.19,6.94,27.71,27.71,0,0,1,1.32,8,61.45,61.45,0,0,0,2.53,15.86,64.62,64.62,0,0,0,2.77,7.53c.54,1.22,1.11,2.44,1.72,3.63l.45.89c.15.34.32.66.45,1a9.3,9.3,0,0,1,.55,2.15,9.18,9.18,0,0,1-.55,4.38,13.77,13.77,0,0,1-2.19,3.73,24.85,24.85,0,0,1-6.42,5.49Z" style="fill:#2a2a2a"/><path d="M500.67,336a15.56,15.56,0,0,0,7.45,6,13.78,13.78,0,0,0,4.71.71c.4,0,.79-.08,1.18-.12a6.5,6.5,0,0,0,1.17-.2,13.53,13.53,0,0,0,2.27-.69c1.48-.55,2.93-1.33,4.38-2s2.89-1.5,4.31-2.27c2.85-1.57,5.65-3.2,8.36-5a58.85,58.85,0,0,0,7.74-5.85,35.71,35.71,0,0,0,3.38-3.47,24.83,24.83,0,0,0,2.67-4,15.39,15.39,0,0,0,1.51-4.56,13,13,0,0,0-.31-4.74,17.55,17.55,0,0,0-5.27-7.88l.8-.25a2.15,2.15,0,0,1-.29.74,1.4,1.4,0,0,1-.16.2.81.81,0,0,1-.31.19.82.82,0,0,1-.73-.1,3,3,0,0,1-.87-1.23c-.36-.79-.58-1.58-.88-2.3-.57-1.47-1.38-2.72-2.72-3.11a6.14,6.14,0,0,0-2.16-.25,15.33,15.33,0,0,0-2.31.28,25.36,25.36,0,0,0-4.54,1.27,87.71,87.71,0,0,0-8.83,3.9c-2.87,1.44-5.7,3-8.41,4.7a67.45,67.45,0,0,0-7.78,5.62,33.27,33.27,0,0,0-6.4,7,13.43,13.43,0,0,0-2.31,9c.06.39.08.79.18,1.18l.35,1.15c.06.19.11.38.18.57l.26.54.51,1.1c.4.7.87,1.35,1.31,2Zm-.14.1a17,17,0,0,1-4.69-8.47c-.71-3.28.26-6.72,1.8-9.64a30.49,30.49,0,0,1,6.3-7.67,57.53,57.53,0,0,1,7.88-6,89.82,89.82,0,0,1,17.67-8.57,25.6,25.6,0,0,1,4.85-1.26,16.32,16.32,0,0,1,2.54-.21,7.19,7.19,0,0,1,2.64.4,4.72,4.72,0,0,1,2.23,1.66,8.65,8.65,0,0,1,1.16,2.34c.28.8.47,1.59.75,2.29a2.9,2.9,0,0,0,.43.8s0,0,0,0-.08,0-.12,0l0,0,0,0a1.35,1.35,0,0,0,.17-.38v0a.47.47,0,0,1,.58-.33.4.4,0,0,1,.21.12,19.26,19.26,0,0,1,5.21,8.42,13.68,13.68,0,0,1,.24,5,18.18,18.18,0,0,1-1.5,4.74,32,32,0,0,1-5.92,7.93,58.33,58.33,0,0,1-7.6,6.34,75.7,75.7,0,0,1-8.44,5.14c-1.46.77-2.93,1.5-4.44,2.17a36.7,36.7,0,0,1-4.62,1.83,14.64,14.64,0,0,1-2.46.57,7.58,7.58,0,0,1-1.26.13c-.42,0-.84.06-1.26,0a14.5,14.5,0,0,1-4.88-1A17.53,17.53,0,0,1,500.53,336.07Z" style="fill:#2a2a2a"/><path d="M500.6,336s6.54,10.9,18.53,5.63,43.94-22.52,25.42-40.13c0,0-.55,2.5-1.82-1.47s-2.54-6.16-10-4.43S481.72,316.05,500.6,336Z" style="fill:none;stroke:#2a2a2a;stroke-linejoin:round;stroke-width:1.3074351874975px"/><path d="M544.12,301.21A19.66,19.66,0,0,1,545,305a10.71,10.71,0,0,1-.12,3.94,5.19,5.19,0,0,1-.9,1.92,4.29,4.29,0,0,1-1.72,1.33,7.36,7.36,0,0,1-2,.46l-1.81.26a53.46,53.46,0,0,0-7.11,1.5,22.1,22.1,0,0,0-6.5,3,56.76,56.76,0,0,0-5.15,5.14c-1.68,1.78-3.4,3.54-5.23,5.19a34.32,34.32,0,0,1-5.91,4.39,13.59,13.59,0,0,1-7,2,13.48,13.48,0,0,0,6.9-2.18,34.14,34.14,0,0,0,5.74-4.51c1.77-1.68,3.42-3.48,5-5.3l2.45-2.75a24.42,24.42,0,0,1,2.66-2.62,22.51,22.51,0,0,1,6.68-3.34,53,53,0,0,1,7.21-1.77l1.82-.32a5.67,5.67,0,0,0,1.59-.41,3.13,3.13,0,0,0,1.72-2.33,13.25,13.25,0,0,0-.93-6.72Z" style="fill:#2a2a2a"/><path d="M172,270.89s-13.89-8.24-9-16.24,7.08-17.8,26.15-18.89,31.87,6,27.51,17.57S181.29,276.61,172,270.89Z" style="fill:none;stroke:#2a2a2a;stroke-width:1.3074351874975px"/><path d="M172,271a35.25,35.25,0,0,1-7.06-5.72,15.53,15.53,0,0,1-2.63-3.8,10.31,10.31,0,0,1-.7-2.27,7.92,7.92,0,0,1,0-2.43,7.74,7.74,0,0,1,.84-2.3l1.07-2c.7-1.33,1.38-2.68,2.14-4a25.6,25.6,0,0,1,5.68-7.32,21.35,21.35,0,0,1,8.23-4.24c.73-.24,1.5-.35,2.24-.53a19.41,19.41,0,0,1,2.26-.39c1.51-.26,3-.34,4.54-.45a69.24,69.24,0,0,1,9.11,0,43.4,43.4,0,0,1,9,1.52,19.69,19.69,0,0,1,8.19,4.33,11.27,11.27,0,0,1,2.74,4,10.46,10.46,0,0,1,.64,4.82A13.34,13.34,0,0,1,217,254.8a17.18,17.18,0,0,1-2.8,3.86,35.26,35.26,0,0,1-7.3,5.74,58.94,58.94,0,0,1-17,6.87,48.62,48.62,0,0,1-9,1.29,29,29,0,0,1-4.56-.19A11.25,11.25,0,0,1,172,271Zm.09-.15c2.64,1.51,5.82,1.52,8.77,1.26a45.57,45.57,0,0,0,8.78-1.92,75.63,75.63,0,0,0,16.29-7.35,36.82,36.82,0,0,0,7-5.4,16.14,16.14,0,0,0,2.58-3.4,11.88,11.88,0,0,0,1.22-4,9.33,9.33,0,0,0-.44-4.1,9.81,9.81,0,0,0-2.28-3.51,19.45,19.45,0,0,0-7.51-4.42,44.73,44.73,0,0,0-17.8-1.87,36.71,36.71,0,0,0-8.79,1.73,20.67,20.67,0,0,0-7.56,4.41,28.69,28.69,0,0,0-5.31,7c-.75,1.29-1.48,2.61-2.26,3.92-.38.66-.81,1.32-1.2,2a6,6,0,0,0-1,4,8.94,8.94,0,0,0,.49,2.09,14.62,14.62,0,0,0,2.27,3.8A27.73,27.73,0,0,0,172.07,270.82Z" style="fill:#2a2a2a"/><path d="M211.52,246.11a4.48,4.48,0,0,1,.19,3.5,4.09,4.09,0,0,1-2.76,2.17c-2.35.67-4.79.36-7.16.45a33.42,33.42,0,0,0-7.07.75,30.85,30.85,0,0,0-6.6,2.61c-2.13,1-4.09,2.4-6.3,3.46a14.33,14.33,0,0,1-3.48,1.2,11.61,11.61,0,0,1-3.72.09,13.71,13.71,0,0,1-3.56-1.08,24,24,0,0,0-3.25-1.28,5.1,5.1,0,0,0-3.16,0,2.86,2.86,0,0,0-1.76,2.15l-1.29-.19a4.25,4.25,0,0,1,.91-1.91,3.77,3.77,0,0,1,1.72-1.2,6.28,6.28,0,0,1,3.89.08,14.66,14.66,0,0,1,1.75.66l1.63.77a12.79,12.79,0,0,0,3.27,1.07,10.83,10.83,0,0,0,3.41,0,13.65,13.65,0,0,0,3.3-1.06c2.14-1,4.15-2.3,6.36-3.31a31.94,31.94,0,0,1,6.77-2.5,34.71,34.71,0,0,1,7.18-.6c2.39,0,4.81.32,7.12-.28a4,4,0,0,0,2.73-2A4.45,4.45,0,0,0,211.52,246.11Z" style="fill:#2a2a2a"/><path d="M26.13,56.64a15.54,15.54,0,0,0,8.71-4,13.69,13.69,0,0,0,2.75-3.89c.17-.36.28-.75.42-1.11a5.77,5.77,0,0,0,.35-1.14,13.31,13.31,0,0,0,.4-2.34,48.17,48.17,0,0,0,.14-4.83c0-1.62,0-3.25-.1-4.87-.12-3.24-.32-6.48-.7-9.7a59.12,59.12,0,0,0-1.75-9.54,36.45,36.45,0,0,0-1.59-4.58,24.78,24.78,0,0,0-2.39-4.19A15.19,15.19,0,0,0,29,3.1a13.26,13.26,0,0,0-4.38-1.86,17.58,17.58,0,0,0-9.41,1.19l.14-.83a2.12,2.12,0,0,1,.53.58,1.75,1.75,0,0,1,.11.24.85.85,0,0,1,0,.36.8.8,0,0,1-.42.61,3,3,0,0,1-1.48.23c-.88,0-1.68-.19-2.45-.25-1.57-.15-3.06,0-4,1A6.17,6.17,0,0,0,6.44,6.23a16.54,16.54,0,0,0-.79,2.18,24.71,24.71,0,0,0-.89,4.64,85.78,85.78,0,0,0-.48,9.63c0,3.22.11,6.44.43,9.63a66.74,66.74,0,0,0,1.53,9.47,33.42,33.42,0,0,0,3.39,8.87,13.46,13.46,0,0,0,7,6.09c.38.12.75.28,1.14.37l1.18.2c.2,0,.4.08.6.1h.6l1.2,0c.81,0,1.61-.17,2.41-.25Zm0,.17a17,17,0,0,1-9.68.39c-3.25-.83-5.88-3.24-7.81-5.93a30.74,30.74,0,0,1-4-9.07,57.39,57.39,0,0,1-1.78-9.71,89.58,89.58,0,0,1,.27-19.64A24.38,24.38,0,0,1,4.18,8a16.45,16.45,0,0,1,.94-2.37A7.51,7.51,0,0,1,6.67,3.41,4.7,4.7,0,0,1,9.15,2.16a8.44,8.44,0,0,1,2.61,0c.85.1,1.64.29,2.39.35a3,3,0,0,0,.9,0s0,0,0,0,0,.07,0,.12,0,.05,0,.06,0,0,0,0a1.18,1.18,0,0,0-.26-.32l0,0a.46.46,0,0,1,0-.67.39.39,0,0,1,.2-.13A19.23,19.23,0,0,1,24.72.64a13.63,13.63,0,0,1,4.56,2,18,18,0,0,1,3.56,3.47A31.74,31.74,0,0,1,37.27,15a59.21,59.21,0,0,1,2.27,9.64,77.4,77.4,0,0,1,.8,9.85c0,1.65,0,3.29-.05,4.94a38.22,38.22,0,0,1-.44,5,15.18,15.18,0,0,1-.59,2.46A6.9,6.9,0,0,1,38.81,48c-.18.39-.32.78-.53,1.15A14.26,14.26,0,0,1,35.15,53,17.51,17.51,0,0,1,26.16,56.81Z" style="fill:#2a2a2a"/><path d="M26.15,56.72s12.67-.95,13.33-14S39.07-6.68,15,2c0,0,2,1.61-2.13,1S6.25,2.45,4.45,9.87-.18,64.64,26.15,56.72Z" style="fill:none;stroke:#2a2a2a;stroke-linejoin:round;stroke-width:1.3074351874975px"/><path d="M14.55,2.22a19,19,0,0,1,3.75.88A10.7,10.7,0,0,1,21.77,5a5.18,5.18,0,0,1,1.31,1.67,4.26,4.26,0,0,1,.42,2.13,7.41,7.41,0,0,1-.47,2l-.58,1.73a52.3,52.3,0,0,0-1.84,7,21.77,21.77,0,0,0-.25,7.15,59.85,59.85,0,0,0,2.28,6.9c.84,2.31,1.64,4.63,2.3,7a35.06,35.06,0,0,1,1.27,7.26A13.54,13.54,0,0,1,24.86,55,13.37,13.37,0,0,0,26,47.82a34.24,34.24,0,0,0-1.45-7.15c-.72-2.34-1.58-4.63-2.48-6.9l-1.35-3.42a23.76,23.76,0,0,1-1.15-3.55,22.56,22.56,0,0,1,0-7.47,55.42,55.42,0,0,1,1.65-7.24l.53-1.77a5.78,5.78,0,0,0,.35-1.61A3.15,3.15,0,0,0,20.8,6.13,13.23,13.23,0,0,0,14.37,4Z" style="fill:#2a2a2a"/><path d="M343.83,332.26a11.56,11.56,0,0,0,1.73,7.86,11.25,11.25,0,0,0,6.57,4.35,51.1,51.1,0,0,0,8.1,1c2.74.19,5.48.29,8.22.22a45.58,45.58,0,0,0,8.16-.79,21.14,21.14,0,0,0,7.62-2.86,11.15,11.15,0,0,0,4.82-6.32,43.78,43.78,0,0,0,1.17-8.13,13.84,13.84,0,0,0-1.54-7.69,10.8,10.8,0,0,0-6.24-4.33,35,35,0,0,0-3.95-.92c-1.35-.25-2.7-.45-4.06-.62a57.08,57.08,0,0,0-8.15-.43,34.18,34.18,0,0,0-8,1.07,21.1,21.1,0,0,0-7.24,3.36,16,16,0,0,0-2.92,2.78,17.62,17.62,0,0,0-1.18,1.65c-.18.3-.37.58-.54.88l-.46.91A22.73,22.73,0,0,0,343.83,332.26Zm-.17,0a27.49,27.49,0,0,1,1.83-8.13,17.85,17.85,0,0,1,4.82-6.92,17.26,17.26,0,0,1,3.53-2.45,20.5,20.5,0,0,1,4-1.64,33.51,33.51,0,0,1,8.42-1.31,50.61,50.61,0,0,1,8.44.49c1.39.2,2.77.44,4.15.72a39,39,0,0,1,4.12,1.06,16.75,16.75,0,0,1,2,.82c.33.16.66.31,1,.49l.93.61a9.7,9.7,0,0,1,3,3.27,11.07,11.07,0,0,1,1.3,4.18,21,21,0,0,1,0,4.27,52.29,52.29,0,0,1-1.56,8.24,12.51,12.51,0,0,1-5.08,6.62,24.73,24.73,0,0,1-7.71,3.34,45.14,45.14,0,0,1-8.32,1.29,54.89,54.89,0,0,1-8.41-.14,36.3,36.3,0,0,1-8.3-1.53,12.1,12.1,0,0,1-6.62-5.16,11.57,11.57,0,0,1-1.42-3.95A13,13,0,0,1,343.66,332.24Z" style="fill:#2a2a2a"/><path d="M343.74,332.25s-2,11.42,11.05,13.41,32.12,1.3,34.76-10.61,1.51-18.44-9-20.8S345.77,309,343.74,332.25Z" style="fill:none;stroke:#2a2a2a;stroke-linejoin:round;stroke-width:1.3074351874975px"/><path d="M390.92,332.43a3.38,3.38,0,0,1-.54.22l-.42.11c-.28.06-.55.11-.81.14a11.56,11.56,0,0,1-1.54.09,20.07,20.07,0,0,1-2.93-.26c-.95-.16-1.88-.35-2.82-.6s-1.85-.6-2.71-.92a12.05,12.05,0,0,0-2.46-.74,11.43,11.43,0,0,0-2.56-.09,38.51,38.51,0,0,0-5.34.86,45.14,45.14,0,0,0-5.22,1.56c-1.72.61-3.44,1.32-5.24,1.83a9.7,9.7,0,0,1-5.57.19,11.37,11.37,0,0,1-4.59-3.05,11.36,11.36,0,0,0,4.68,2.74,9.32,9.32,0,0,0,5.29-.5c1.71-.6,3.37-1.4,5.07-2.12a47.82,47.82,0,0,1,5.26-1.92,41,41,0,0,1,5.5-1.22,12,12,0,0,1,5.82.6c.89.28,1.72.53,2.58.71s1.73.31,2.61.4a17.15,17.15,0,0,0,2.57.08,11.65,11.65,0,0,0,1.22-.14l.54-.13.24-.08.1,0Z" style="fill:#2a2a2a"/><path d="M76.7,165.68A5.05,5.05,0,0,0,78,167.4a3.37,3.37,0,0,0,1.87.75,4.36,4.36,0,0,0,1,0,7,7,0,0,0,1-.28,9.6,9.6,0,0,0,1.86-1,57.3,57.3,0,0,0,6.68-5.51A61.12,61.12,0,0,0,101.31,148a42,42,0,0,0,2-3.82c.58-1.31,1.09-2.66,1.57-4a70.55,70.55,0,0,0,2.54-8.36,18.92,18.92,0,0,0,.47-4.29,5.44,5.44,0,0,0-1.45-3.81,26.3,26.3,0,0,0-7.36-4.4,9.57,9.57,0,0,0-4.09-.52,8.82,8.82,0,0,0-3.79,1.41,26.56,26.56,0,0,0-3.26,2.72l-1.55,1.52-1.51,1.56q-3,3.18-5.72,6.58c-1.82,2.26-3.61,4.55-5.23,6.94a39.9,39.9,0,0,0-4.25,7.41,27.47,27.47,0,0,0-1,4.11c-.24,1.42-.45,2.85-.55,4.28a26.6,26.6,0,0,0,0,4.28,9.89,9.89,0,0,0,1.09,4,4.59,4.59,0,0,0,3.16,2.38,7.43,7.43,0,0,0,2.11.12c.36,0,.72-.09,1.08-.13Zm-.08.15a8.93,8.93,0,0,1-4.34.62,5.47,5.47,0,0,1-2.18-.79A5.33,5.33,0,0,1,68.47,164,10.68,10.68,0,0,1,67,159.66a23.34,23.34,0,0,1-.21-4.49,43.86,43.86,0,0,1,.41-4.44,27.44,27.44,0,0,1,.9-4.45,38.2,38.2,0,0,1,4.29-7.89,103.17,103.17,0,0,1,11.31-13.6A40.57,40.57,0,0,1,90.47,119a9.38,9.38,0,0,1,4.43-1.42,10.59,10.59,0,0,1,4.51.8,19.15,19.15,0,0,1,3.92,2.17c.61.42,1.2.86,1.79,1.31s1.16.86,1.74,1.4a6.15,6.15,0,0,1,1.56,4.21,21.66,21.66,0,0,1-.44,4.42c-.58,2.89-1.36,5.73-2.17,8.55a40,40,0,0,1-3.23,8.28,50.84,50.84,0,0,1-11.23,13.69,49,49,0,0,1-7.11,5.32,9.35,9.35,0,0,1-2.11.89,6.21,6.21,0,0,1-1.14.22,4.58,4.58,0,0,1-1.17-.06A4.08,4.08,0,0,1,76.62,165.83Z" style="fill:#2a2a2a"/><path d="M76.66,165.76s1.83,5.47,8.27.93,16.18-13.62,19.84-24.7,4.76-16.52,1.31-19.06-9.63-7.63-16-2.91-20.16,21-21.61,27.92S65.22,169.18,76.66,165.76Z" style="fill:none;stroke:#2a2a2a;stroke-width:1.74324691666333px"/><path d="M76.53,165.12a6.13,6.13,0,0,0,1.2-.52,13,13,0,0,0,1.21-.77A20,20,0,0,0,81.19,162a39,39,0,0,0,3.94-4.46c1.22-1.57,2.31-3.25,3.46-4.91l3.45-5c2.3-3.3,4.6-6.6,6.75-10,1.06-1.7,2.12-3.42,3-5.22a16.11,16.11,0,0,0,1.93-5.66,16.26,16.26,0,0,1-1.78,5.74c-.86,1.82-1.87,3.57-2.89,5.31-2.06,3.46-4.28,6.83-6.49,10.2l-3.31,5c-1.1,1.68-2.15,3.41-3.36,5.05A39.6,39.6,0,0,1,82,162.77a21.76,21.76,0,0,1-2.33,2,12,12,0,0,1-1.31.88,6.65,6.65,0,0,1-1.56.7Z" style="fill:#2a2a2a"/><path d="M96.27,125.65l-7.4,7.62a68.5,68.5,0,0,0-7,7.92,30.76,30.76,0,0,0-4.58,9.38c-.51,1.68-.94,3.41-1.41,5.11-.24.85-.48,1.71-.76,2.55a4.16,4.16,0,0,1-1.32,2.28,4.36,4.36,0,0,0,1.1-2.34c.21-.86.39-1.72.57-2.59.38-1.73.73-3.46,1.17-5.19a30,30,0,0,1,4.52-9.71,61.27,61.27,0,0,1,7.2-7.88C91,130.34,93.57,128,96.27,125.65Z" style="fill:#2a2a2a"/><path d="M3.3,276.68a15.62,15.62,0,0,0-2.4,9.26,14,14,0,0,0,1.31,4.59c.17.35.4.68.6,1a6.56,6.56,0,0,0,.66,1A14,14,0,0,0,5,294.32c1.11,1.11,2.42,2.12,3.67,3.14s2.55,2,3.85,3c2.6,1.94,5.25,3.82,8,5.54a58.13,58.13,0,0,0,8.53,4.63,35.88,35.88,0,0,0,4.56,1.65,25.54,25.54,0,0,0,4.76.77,15.3,15.3,0,0,0,4.77-.52,13.09,13.09,0,0,0,4.2-2.24,17.46,17.46,0,0,0,5-8.06l.56.63a2.27,2.27,0,0,1-.79,0l-.25-.06a.93.93,0,0,1-.3-.2.82.82,0,0,1-.21-.71,3.06,3.06,0,0,1,.76-1.3c.57-.66,1.2-1.19,1.73-1.76,1.1-1.12,1.91-2.38,1.71-3.76a5.93,5.93,0,0,0-.68-2.07,13.57,13.57,0,0,0-1.2-2,24.82,24.82,0,0,0-3-3.62A89.49,89.49,0,0,0,43.45,281c-2.51-2-5.08-3.95-7.76-5.72a66.81,66.81,0,0,0-8.34-4.75,33.38,33.38,0,0,0-9-2.93,13.5,13.5,0,0,0-9.14,1.61c-.33.22-.68.41-1,.65l-.9.8c-.15.13-.3.26-.44.4l-.39.46-.79.92c-.47.65-.87,1.36-1.31,2Zm-.15-.08a16.88,16.88,0,0,1,5.77-7.78c2.69-2,6.22-2.55,9.52-2.35A30.48,30.48,0,0,1,28,269a57.14,57.14,0,0,1,8.67,4.71,90.42,90.42,0,0,1,15.12,12.55A25.27,25.27,0,0,1,55,290.18a16.57,16.57,0,0,1,1.24,2.23,7.44,7.44,0,0,1,.73,2.56,4.75,4.75,0,0,1-.59,2.72,8.72,8.72,0,0,1-1.65,2c-.62.58-1.26,1.08-1.78,1.63a2.67,2.67,0,0,0-.54.72s0,0,0,0,0-.07-.07-.1,0,0,0,0h0a1.2,1.2,0,0,0,.42,0h0a.48.48,0,0,1,.55.4.65.65,0,0,1,0,.24,19.34,19.34,0,0,1-5.51,8.22A13.87,13.87,0,0,1,43.32,313a18.37,18.37,0,0,1-4.94.6,31.67,31.67,0,0,1-9.66-2.12,57.6,57.6,0,0,1-8.92-4.29,75.79,75.79,0,0,1-8.17-5.56c-1.3-1-2.58-2.05-3.81-3.14a37.59,37.59,0,0,1-3.58-3.46,15,15,0,0,1-1.54-2A7.36,7.36,0,0,1,2.07,292c-.19-.38-.41-.74-.57-1.13a14.47,14.47,0,0,1-1-4.88A17.43,17.43,0,0,1,3.15,276.6Z" style="fill:#2a2a2a"/><path d="M3.22,276.64S-4,287.1,5.76,295.83s38.68,30.7,47.05,6.55c0,0-2.5.53.59-2.27s4.55-4.86-.1-10.92S13.6,251.18,3.22,276.64Z" style="fill:none;stroke:#2a2a2a;stroke-linejoin:round;stroke-width:1.3074351874975px"/><path d="M53.08,302.72a14.93,14.93,0,0,1-6.41,2.91A5.29,5.29,0,0,1,43.1,305c-.25-.18-.48-.39-.72-.59a4.37,4.37,0,0,1-.6-.69c-.4-.49-.64-1-1-1.45-2.5-3.81-5.19-7.62-8.85-10.36-1.79-1.46-4-2-6.27-2.51s-4.49-1-6.69-1.69a25.08,25.08,0,0,1-6.31-2.79,11.67,11.67,0,0,1-4.46-5.15,11.54,11.54,0,0,0,4.52,5.06,24.74,24.74,0,0,0,6.31,2.67c2.2.64,4.45,1.09,6.7,1.58,1.12.26,2.25.5,3.36.87a10.24,10.24,0,0,1,3.09,1.61c3.79,2.74,6.57,6.55,9.14,10.35a7.77,7.77,0,0,0,2.13,2.48,4.45,4.45,0,0,0,3.09.5,14.08,14.08,0,0,0,6-2.83Z" style="fill:#2a2a2a"/></svg>