<svg xmlns="http://www.w3.org/2000/svg" viewBox="0 0 278.85 24.41"><title>payment-creditcards</title><path d="M76.77,6.94,71.84,18.71H68.62L66.19,9.32a1.28,1.28,0,0,0-.72-1,12.55,12.55,0,0,0-3-1l.07-.34h5.18a1.42,1.42,0,0,1,1.4,1.2L70.41,15l3.16-8Zm12.61,7.93c0-3.11-4.29-3.28-4.27-4.67,0-.42.42-.87,1.3-1a5.67,5.67,0,0,1,3,.52l.53-2.49a8.06,8.06,0,0,0-2.85-.52c-3,0-5.12,1.59-5.14,3.88,0,1.7,1.51,2.64,2.66,3.21s1.59.94,1.58,1.46c0,.79-.94,1.14-1.82,1.15a6.25,6.25,0,0,1-3.12-.74l-.56,2.58a9.36,9.36,0,0,0,3.39.62c3.2,0,5.29-1.58,5.3-4m8,3.84h2.81L97.68,6.94h-2.6a1.39,1.39,0,0,0-1.29.86L89.22,18.71h3.2L93.05,17H97Zm-3.4-4.17,1.6-4.42.92,4.42ZM81.12,6.94,78.6,18.71h-3L78.08,6.94Z" style="fill:#10357f"/><path d="M137.87,5l-4.69,11.19h-3.06L127.81,7.3a1.22,1.22,0,0,0-.68-1,12.13,12.13,0,0,0-2.86-1l.07-.33h4.93a1.35,1.35,0,0,1,1.33,1.14l1.22,6.48,3-7.62Zm12,7.54c0-3-4.08-3.12-4.06-4.44,0-.4.39-.83,1.23-.94a5.56,5.56,0,0,1,2.85.5l.51-2.37a7.86,7.86,0,0,0-2.71-.49c-2.86,0-4.87,1.52-4.89,3.69,0,1.62,1.44,2.51,2.54,3.05s1.5.9,1.5,1.39c0,.75-.9,1.08-1.73,1.09a6.06,6.06,0,0,1-3-.7l-.52,2.45a8.72,8.72,0,0,0,3.22.59c3,0,5-1.5,5-3.82m7.55,3.65h2.68L157.75,5h-2.47a1.31,1.31,0,0,0-1.23.82l-4.34,10.37h3l.6-1.67h3.71Zm-3.23-4,1.52-4.2.88,4.2ZM142,5l-2.4,11.19h-2.89L139.11,5Z" style="fill:#10357f"/><path d="M145.71,19.31h-1.18V20.4h1.32v.33h-1.71v-3h1.64V18h-1.25v1h1.18Z" style="fill:#10357f"/><path d="M146.46,17.53h.39v3.2h-.39Z" style="fill:#10357f"/><path d="M147.85,19.71a.7.7,0,0,0,.75.76,1.45,1.45,0,0,0,.6-.11l.08.28a1.86,1.86,0,0,1-.73.14,1,1,0,0,1-1.08-1.1,1.05,1.05,0,0,1,1-1.17.92.92,0,0,1,.9,1,.74.74,0,0,1,0,.18Zm1.17-.28a.57.57,0,0,0-.55-.64.64.64,0,0,0-.61.64Z" style="fill:#10357f"/><path d="M151.55,20.65a1.47,1.47,0,0,1-.62.13,1,1,0,0,1-1.09-1.11A1.11,1.11,0,0,1,151,18.51a1.2,1.2,0,0,1,.55.11l-.09.3a1,1,0,0,0-.46-.1.82.82,0,0,0,0,1.64,1.16,1.16,0,0,0,.49-.1Z" style="fill:#10357f"/><path d="M152.67,18v.52h.56v.3h-.56V20c0,.27.07.42.29.42a.63.63,0,0,0,.23,0l0,.31a1.31,1.31,0,0,1-.35.05.56.56,0,0,1-.43-.17.83.83,0,0,1-.15-.57V18.85h-.34v-.3h.34v-.41Z" style="fill:#10357f"/><path d="M153.79,19.23c0-.26,0-.48,0-.68h.35V19h0a.65.65,0,0,1,.61-.47h.1v.38h-.13a.55.55,0,0,0-.53.5,1.23,1.23,0,0,0,0,.19v1.16h-.39Z" style="fill:#10357f"/><path d="M157.3,19.62a1.07,1.07,0,0,1-1.08,1.16,1,1,0,0,1-1.05-1.12,1.06,1.06,0,0,1,1.08-1.15A1,1,0,0,1,157.3,19.62Zm-1.72,0c0,.48.27.84.65.84s.67-.35.67-.84-.19-.84-.66-.84S155.58,19.23,155.58,19.64Z" style="fill:#10357f"/><path d="M157.91,19.14c0-.23,0-.41,0-.59h.35l0,.36h0a.81.81,0,0,1,.72-.4c.31,0,.77.18.77.92v1.3h-.39V19.47c0-.35-.13-.64-.51-.64a.57.57,0,0,0-.53.4.54.54,0,0,0,0,.19v1.31h-.39Z" style="fill:#10357f"/><path d="M12.13.24a11.9,11.9,0,0,0,0,23.79h16a11.9,11.9,0,0,0,0-23.79Z" style="fill:#fff"/><path d="M28.15,24.27h-16A12.14,12.14,0,0,1,12.13,0h16a12.14,12.14,0,1,1,0,24.27m-16-24a11.9,11.9,0,0,0,0,23.79h16a11.9,11.9,0,0,0,0-23.79Z" style="fill:#fff"/><path d="M31,11.41l5.33,6.33a9.86,9.86,0,0,0-.19-11.48Z" style="fill:#e21f28"/><path d="M15.86,5.73c4,0,7,1,7.28,4.36l4.19-4.36h8.33a9.85,9.85,0,0,0-7.51-3.47h-16A9.88,9.88,0,0,0,4.62,5.73Z" style="fill:#e21f28"/><path d="M9.31,10,7.89,13.86h5.73c1.69,0,2.2-.7,2.58-2S15.63,10,14.48,10Z" style="fill:#e21f28"/><path d="M27.36,18.27l-4.42-5.59c-.82,3.81-3.5,5.59-8.53,5.59H4.4A9.86,9.86,0,0,0,12.13,22h16a9.85,9.85,0,0,0,7.73-3.74Z" style="fill:#e21f28"/><polygon points="267.97 17.7 259.9 17.7 259.9 3.2 267.97 3.2 267.97 17.7" style="fill:#6c6bbd"/><path d="M260.41,10.45a9.22,9.22,0,0,1,3.52-7.25,9.22,9.22,0,1,0,0,14.5,9.22,9.22,0,0,1-3.52-7.25" style="fill:#d32011"/><path d="M278.85,10.45a9.22,9.22,0,0,1-14.92,7.25,9.23,9.23,0,0,0,0-14.5,9.22,9.22,0,0,1,14.92,7.25" style="fill:#0099df"/><path d="M270.7,21.8a1.1,1.1,0,0,1,.38.07l-.17.5a.77.77,0,0,0-.33-.06c-.35,0-.52.22-.52.63v1.37h-.54V21.86h.53v.3a.72.72,0,0,1,.65-.36Zm-2,.55h-.87v1.1c0,.25.08.41.35.41a1,1,0,0,0,.47-.13l.15.45a1.19,1.19,0,0,1-.66.19c-.63,0-.85-.34-.85-.91V22.35h-.5v-.49h.5v-.74h.54v.74h.87v.49Zm-6.82.52a.63.63,0,0,1,.65-.59.61.61,0,0,1,.62.59Zm1.82.22a1.17,1.17,0,0,0-1.16-1.29,1.29,1.29,0,0,0,0,2.57,1.5,1.5,0,0,0,1-.34l-.26-.4a1.15,1.15,0,0,1-.71.26.69.69,0,0,1-.74-.6h1.82a1.34,1.34,0,0,0,0-.2Zm2.34-.6a1.47,1.47,0,0,0-.76-.21c-.29,0-.47.1-.47.28s.19.21.42.24l.25,0c.53.08.86.3.86.73s-.41.8-1.12.8a1.73,1.73,0,0,1-1.06-.32l.25-.41a1.3,1.3,0,0,0,.81.25c.37,0,.56-.1.56-.29s-.14-.22-.43-.26l-.25,0c-.55-.08-.84-.33-.84-.73s.4-.78,1-.78a1.8,1.8,0,0,1,1,.26l-.23.43Zm6.57-.18a.94.94,0,0,0-.3.05.89.89,0,0,0-.25.16,1.07,1.07,0,0,0-.16.25.87.87,0,0,0-.06.32.79.79,0,0,0,.06.32.89.89,0,0,0,.16.25.6.6,0,0,0,.25.16.73.73,0,0,0,.3.06.81.81,0,0,0,.31-.06.56.56,0,0,0,.24-.16.74.74,0,0,0,.17-.25.79.79,0,0,0,.06-.32.87.87,0,0,0-.06-.32.85.85,0,0,0-.17-.25.84.84,0,0,0-.24-.16,1.06,1.06,0,0,0-.31-.05Zm0-.51a1.36,1.36,0,0,1,.95.37,1.3,1.3,0,0,1,.28.41,1.38,1.38,0,0,1,0,1,1.42,1.42,0,0,1-.28.41,1.36,1.36,0,0,1-.95.37,1.46,1.46,0,0,1-.52-.1,1.27,1.27,0,0,1-.42-.27,1.42,1.42,0,0,1-.28-.41,1.27,1.27,0,0,1-.1-.52,1.25,1.25,0,0,1,.1-.51,1.3,1.3,0,0,1,.28-.41,1.13,1.13,0,0,1,.42-.27,1.27,1.27,0,0,1,.52-.1ZM258.8,23.09a.74.74,0,1,1,.74.78.73.73,0,0,1-.74-.78Zm2,0V21.86h-.53v.3a.94.94,0,0,0-.78-.36,1.29,1.29,0,0,0,0,2.57.94.94,0,0,0,.78-.36v.3h.53Zm-3,1.22V22.77a.91.91,0,0,0-1-1,.93.93,0,0,0-.86.44.87.87,0,0,0-.81-.44.81.81,0,0,0-.71.36v-.3h-.54v2.45h.54V23a.58.58,0,0,1,.6-.65c.36,0,.53.23.53.65v1.36h.54V23a.58.58,0,0,1,.6-.65c.37,0,.54.23.54.65v1.36Z" style="fill:#110f0d"/><path d="M193.56,24.29V22.75a.9.9,0,0,0-.84-1,.24.24,0,0,0-.12,0,.94.94,0,0,0-.86.43.89.89,0,0,0-.81-.43.8.8,0,0,0-.72.36v-.3h-.53v2.45h.54V22.94a.58.58,0,0,1,.49-.65h.11c.35,0,.53.23.53.64V24.3h.54V22.94a.58.58,0,0,1,.5-.65h.1c.36,0,.54.23.54.64V24.3Zm8-2.45h-.87v-.75h-.54v.75h-.49v.48h.5v1.13c0,.57.22.91.85.91a1.3,1.3,0,0,0,.67-.19l-.16-.46a1,1,0,0,1-.47.14c-.26,0-.35-.16-.35-.41V22.32h.87Zm4.55-.06a.74.74,0,0,0-.65.35v-.29h-.53v2.45h.54V22.91c0-.4.17-.63.51-.63a.92.92,0,0,1,.33.06l.17-.51a1.26,1.26,0,0,0-.38-.06ZM199.2,22a1.76,1.76,0,0,0-1-.25c-.62,0-1,.29-1,.78s.3.64.85.72l.26,0c.29,0,.43.12.43.25s-.2.3-.56.3a1.28,1.28,0,0,1-.82-.26l-.25.42a1.74,1.74,0,0,0,1.06.32c.7,0,1.11-.34,1.11-.8s-.32-.66-.85-.73l-.26,0c-.23,0-.41-.08-.41-.24s.17-.29.46-.29a1.7,1.7,0,0,1,.77.21Zm14.27-.25a.74.74,0,0,0-.65.35v-.29h-.53v2.45h.54V22.91c0-.4.17-.63.51-.63a.92.92,0,0,1,.33.06l.17-.51a1.26,1.26,0,0,0-.38-.06Zm-6.87,1.28a1.24,1.24,0,0,0,1.19,1.28h.12a1.29,1.29,0,0,0,.88-.3l-.26-.43a1,1,0,0,1-.64.22.78.78,0,0,1,0-1.56,1,1,0,0,1,.64.22l.26-.43a1.36,1.36,0,0,0-2.19.87v.12Zm5,0V21.84h-.53v.29a.91.91,0,0,0-.77-.35,1.28,1.28,0,0,0,0,2.56,1,1,0,0,0,.77-.36v.3h.53Zm-2,0a.74.74,0,1,1,.74.78.73.73,0,0,1-.74-.73Zm-6.43-1.28a1.28,1.28,0,0,0,0,2.56h0a1.44,1.44,0,0,0,1-.34l-.25-.39a1.26,1.26,0,0,1-.71.26.69.69,0,0,1-.74-.6h1.82v-.21a1.16,1.16,0,0,0-1.16-1.28Zm0,.47a.61.61,0,0,1,.62.6h-1.28a.63.63,0,0,1,.65-.6Zm13.35.81V20.85H216v1.28a.92.92,0,0,0-.77-.35,1.28,1.28,0,0,0,0,2.56A1,1,0,0,0,216,24v.3h.51Zm.89.87.09,0,.08.05a.16.16,0,0,1,.06.08.31.31,0,0,1,0,.19.19.19,0,0,1-.06.07l-.08.05a.15.15,0,0,1-.09,0,.24.24,0,0,1-.23-.14.21.21,0,0,1,0-.19.22.22,0,0,1,.05-.08l.08-.05a.2.2,0,0,1,.11,0Zm0,.43h.07l.06,0a.19.19,0,0,0,0-.26l-.06,0-.07,0-.08,0-.06,0a.21.21,0,0,0,0,.26l.06,0h.08Zm0-.3a.08.08,0,0,1,.07,0s0,0,0,.05,0,0,0,.05l-.05,0,.08.09h-.06l-.07-.09h0v.09h0v-.23Zm-.05,0v.06h.05a0,0,0,0,0,0,0s0,0,0,0,0,0,0,0a0,0,0,0,0,0,0Zm-2.82-1a.73.73,0,0,1,.78-.69.74.74,0,0,1,.7.78.76.76,0,0,1-.74.7.74.74,0,0,1-.74-.73Zm-18,0V21.84H196v.29a.92.92,0,0,0-.77-.35,1.28,1.28,0,0,0,0,2.56A1,1,0,0,0,196,24v.3h.53Zm-2,0a.74.74,0,1,1,1.47.09.74.74,0,0,1-1.48,0v-.06Z" style="fill:#231f20"/><rect x="199.02" y="3.18" width="8.07" height="14.5" style="fill:#ff5f00"/><path d="M199.53,10.43a9.22,9.22,0,0,1,3.52-7.25,9.22,9.22,0,1,0,0,14.5A9.23,9.23,0,0,1,199.53,10.43Z" style="fill:#eb001b"/><path d="M218,10.43a9.23,9.23,0,0,1-14.93,7.25,9.19,9.19,0,0,0,0-14.5A9.23,9.23,0,0,1,218,10.43Z" style="fill:#f79e1b"/><path d="M217.09,16.14v-.3h.13v-.06h-.31v.06H217v.3Zm.6,0v-.36h-.1l-.1.26-.11-.26h-.08v.36h.06v-.27l.1.23h.07l.1-.23v.27Z" style="fill:#f79e1b"/></svg>