<svg xmlns="http://www.w3.org/2000/svg" viewBox="0 0 26.37 31.79"><title>step-icon-machine</title><g id="Lag_2" data-name="Lag 2"><g id="Layer_1" data-name="Layer 1"><path d="M2.74,0,.49,12H3.05v3.54H8.23l1-3.54h2.16V25h-2l.94-5.54H1.41l.22,1a2.28,2.28,0,0,0-1.14.64,1.65,1.65,0,0,0-.37,1.78,1.61,1.61,0,0,0,1.55.93h.75L2.7,25h-2v6.75h25.7V0ZM9,20.6l-.7,4.1H3.76l-1-4.1ZM1.67,22.71a.54.54,0,0,1-.53-.26.54.54,0,0,1,.15-.58,1.28,1.28,0,0,1,.6-.33l.27,1.17Zm5.72-8.25H4.15V12H8ZM3.16,9.8,4.58,2.22h12L16.43,25H13.57V9.8ZM16.78,29.58H2.88V27.25h13.9Zm7.37,0H19V25H17.54l.1-22.82h6.51Z" style="fill:#cdbc9e"/><path d="M15.4,6.2a1.66,1.66,0,1,0-1.66,1.67A1.67,1.67,0,0,0,15.4,6.2Zm-2.22,0a.56.56,0,1,1,.56.56A.56.56,0,0,1,13.18,6.2Z" style="fill:#cdbc9e"/><path d="M6.68,17.29a.53.53,0,0,0-.53-.53.52.52,0,0,0-.48.31.55.55,0,0,0-.49-.31.52.52,0,0,0-.52.53.57.57,0,0,0,0,.18.56.56,0,0,0,.09.17l.06.05.81.81h0l.83-.84h0a.5.5,0,0,0,.13-.19A.57.57,0,0,0,6.68,17.29Z" style="fill:#cdbc9e"/></g></g></svg>