<svg xmlns="http://www.w3.org/2000/svg" viewBox="0 0 512 512" width="512" height="512">
	<style>
		tspan { white-space:pre }
		.shp0 { fill: #ccd0d2 } 
		.shp1 { fill: #a1abaf } 
	</style>
	<g id="Layer">
		<g id="Layer">
			<path id="Layer" class="shp0" d="M117.69 474.63L338.24 474.63C436.49 434.4 450.54 335.35 451.34 241.96C451.39 236.79 447.17 232.59 442 232.59L227.96 232.59L13.93 232.59C8.76 232.59 4.54 236.79 4.59 241.96C5.39 335.35 19.44 434.4 117.69 474.63L117.69 474.63Z" />
			<path id="Layer" class="shp0" d="M227.96 167.56C225.56 167.56 223.15 166.63 221.34 164.78C206.96 150.19 199.8 135.03 200.05 119.69C200.28 104.77 207.51 90.42 221.54 77.04C232.03 67.28 237.38 57.3 237.49 47.33C237.62 37.03 232.23 26.48 221.46 15.97C217.78 12.37 217.72 6.48 221.31 2.81C224.9 -0.89 230.8 -0.93 234.47 2.64C249.01 16.86 256.29 31.97 256.11 47.55C255.93 62.82 248.59 77.3 234.3 90.59C224.1 100.31 218.81 110.24 218.65 119.99C218.5 130.14 223.86 140.82 234.59 151.73C238.2 155.39 238.16 161.28 234.5 164.89C232.68 166.67 230.32 167.56 227.96 167.56Z" />
			<path id="Layer" class="shp0" d="M330.15 167.56C327.74 167.56 325.33 166.63 323.52 164.78C309.15 150.19 301.99 135.03 302.23 119.69C302.46 104.77 309.69 90.42 323.72 77.04C334.29 67.21 339.66 57.19 339.78 47.16C339.9 36.9 334.55 26.41 323.86 15.97C320.19 12.37 320.11 6.48 323.7 2.81C327.3 -0.88 333.2 -0.93 336.87 2.64C351.34 16.78 358.59 31.84 358.4 47.39C358.22 62.69 350.85 77.23 336.49 90.59C326.28 100.31 321 110.24 320.84 119.99C320.68 130.14 326.04 140.82 336.77 151.73C340.39 155.39 340.34 161.28 336.68 164.89C334.87 166.67 332.5 167.56 330.15 167.56Z" />
			<path id="Layer" class="shp0" d="M134.66 167.56C132.25 167.56 129.84 166.63 128.03 164.78C113.65 150.19 106.49 135.03 106.74 119.69C106.97 104.77 114.2 90.42 128.23 77.04C138.8 67.21 144.17 57.19 144.29 47.16C144.41 36.9 139.06 26.41 128.37 15.97C124.69 12.37 124.62 6.48 128.21 2.81C131.81 -0.88 137.71 -0.93 141.38 2.64C155.85 16.78 163.09 31.84 162.91 47.39C162.73 62.69 155.36 77.23 140.99 90.59C130.79 100.31 125.5 110.24 125.35 119.99C125.19 130.14 130.55 140.82 141.28 151.73C144.89 155.39 144.85 161.28 141.19 164.89C139.37 166.67 137.01 167.56 134.66 167.56Z" />
		</g>
		<path id="Layer" class="shp1" d="M172.12 456.01C171.61 456.01 171.07 455.96 170.55 455.88C96.68 443.35 57 400.83 41.93 318.04C41.02 312.98 44.36 308.13 49.42 307.22C54.53 306.25 59.33 309.65 60.25 314.71C73.89 389.62 107.81 426.34 173.67 437.52C178.74 438.38 182.14 443.19 181.29 448.25C180.51 452.8 176.58 456.01 172.12 456.01Z" />
		<g id="Layer">
		</g>
		<g id="Layer">
			<path id="Layer" class="shp1" d="M451.21 251.26C450.09 310.85 442.63 371.82 410.69 417.69C465.25 410.3 507.28 363.73 507.28 307.12L507.28 283.18C507.28 265.55 492.99 251.26 475.37 251.26L451.21 251.26L451.21 251.26Z" />
			<path id="Layer" class="shp1" d="M144.22 511.86L23.2 511.86C12.92 511.86 4.59 503.53 4.59 493.25L4.59 493.25C4.59 482.96 12.92 474.63 23.2 474.63L414.19 474.63C424.47 474.63 432.8 482.96 432.8 493.25L432.8 493.25C432.8 503.53 424.47 511.86 414.19 511.86L302.48 511.86L274.55 502.55L172.15 502.55L144.22 511.86Z" />
		</g>
	</g>
	<g id="Layer">
	</g>
	<g id="Layer">
	</g>
	<g id="Layer">
	</g>
	<g id="Layer">
	</g>
	<g id="Layer">
	</g>
	<g id="Layer">
	</g>
	<g id="Layer">
	</g>
	<g id="Layer">
	</g>
	<g id="Layer">
	</g>
	<g id="Layer">
	</g>
	<g id="Layer">
	</g>
	<g id="Layer">
	</g>
	<g id="Layer">
	</g>
	<g id="Layer">
	</g>
	<g id="Layer">
	</g>
</svg>